<svg width="671" height="669" viewBox="0 0 671 669" fill="none" xmlns="http://www.w3.org/2000/svg">
<path d="M578.779 110.57C579.144 112.46 577.327 114.036 575.508 113.407L563.732 109.338C561.913 108.71 561.457 106.348 562.911 105.087L572.322 96.9236C573.776 95.6626 576.05 96.4483 576.415 98.3378L578.779 110.57Z" fill="#62E5DB" stroke="#62E5DB"/>
<path d="M658.907 262.887C658.462 264.759 656.157 265.447 654.758 264.126L645.702 255.57C644.303 254.249 644.859 251.908 646.703 251.358L658.641 247.792C660.485 247.242 662.233 248.894 661.788 250.766L658.907 262.887Z" fill="#62E5DB" stroke="#62E5DB"/>
<path d="M654.001 423.298C652.722 424.735 650.366 424.248 649.761 422.421L645.846 410.593C645.241 408.766 646.841 406.97 648.725 407.36L660.926 409.882C662.81 410.272 663.566 412.556 662.286 413.993L654.001 423.298Z" fill="#62E5DB" stroke="#62E5DB"/>
<path d="M11.9055 406.761C12.3764 404.895 14.6907 404.239 16.0713 405.579L25.0086 414.259C26.3892 415.6 25.8006 417.932 23.9492 418.458L11.9636 421.858C10.1122 422.383 8.38647 420.707 8.85734 418.841L11.9055 406.761Z" fill="#62E5DB" stroke="#62E5DB"/>
<path d="M17.795 239.204C19.1213 237.81 21.4598 238.374 22.0043 240.22L25.529 252.169C26.0735 254.015 24.4156 255.758 22.5447 255.307L10.4338 252.385C8.56303 251.933 7.88244 249.626 9.20878 248.231L17.795 239.204Z" fill="#62E5DB" stroke="#62E5DB"/>
<path d="M98.5479 101.837C100.37 101.217 102.18 102.801 101.806 104.689L99.3877 116.911C99.0142 118.799 96.737 119.574 95.2888 118.307L85.9139 110.101C84.4658 108.834 84.9328 106.474 86.7545 105.854L98.5479 101.837Z" fill="#62E5DB" stroke="#62E5DB"/>
<path d="M248.17 14.0011C250.073 14.2869 250.953 16.5258 249.754 18.0311L241.992 27.7755C240.792 29.2808 238.413 28.9235 237.709 27.1324L233.152 15.5375C232.448 13.7464 233.947 11.8648 235.85 12.1506L248.17 14.0011Z" fill="#62E5DB" stroke="#62E5DB"/>
<path d="M426.796 15.4436C428.269 16.6815 427.85 19.0503 426.041 19.7075L414.332 23.962C412.523 24.6192 410.681 23.0718 411.016 21.1767L413.187 8.90876C413.522 7.01369 415.783 6.19219 417.256 7.43007L426.796 15.4436Z" fill="#62E5DB" stroke="#62E5DB"/>
<path d="M567.419 570.271C565.575 570.82 563.827 569.166 564.274 567.294L567.167 555.176C567.614 553.304 569.92 552.618 571.317 553.941L580.365 562.505C581.763 563.828 581.205 566.168 579.36 566.717L567.419 570.271Z" fill="#62E5DB" stroke="#62E5DB"/>
<path d="M411.796 656.064C409.879 655.896 408.862 653.716 409.966 652.14L417.111 641.934C418.215 640.357 420.611 640.567 421.425 642.311L426.691 653.602C427.504 655.346 426.125 657.316 424.207 657.149L411.796 656.064Z" fill="#62E5DB" stroke="#62E5DB"/>
<path d="M239.803 651.076C238.496 649.663 239.209 647.366 241.086 646.94L253.236 644.186C255.113 643.761 256.747 645.527 256.176 647.365L252.486 659.264C251.916 661.102 249.57 661.634 248.263 660.221L239.803 651.076Z" fill="#62E5DB" stroke="#62E5DB"/>
<path d="M87.1951 554.152C86.7134 552.289 88.4293 550.603 90.2838 551.117L102.289 554.447C104.143 554.962 104.746 557.291 103.373 558.639L94.4865 567.371C93.1138 568.72 90.7957 568.077 90.3139 566.214L87.1951 554.152Z" fill="#62E5DB" stroke="#62E5DB"/>
</svg>
