<svg width="146" height="89" viewBox="0 0 146 89" fill="none" xmlns="http://www.w3.org/2000/svg">
<g clip-path="url(#clip0)">
<path d="M63.3012 62.0139C63.3012 62.0139 72.8892 59.9372 73.5053 59.6432C74.1214 59.3493 74.3331 58.9502 74.5064 58.977C74.6797 59.0037 75.084 59.3666 75.0647 59.9147C75.0455 60.4628 75.1817 60.8275 75.0654 60.8851C74.9492 60.9427 61.8765 65.4771 60.8946 65.0913C59.9127 64.7056 59.9317 62.4402 59.9317 62.4402C59.9317 62.4402 60.2978 61.1923 60.4133 61.1731C60.5288 61.1539 63.3012 62.0139 63.3012 62.0139Z" fill="#F2B2AA"/>
<path d="M78.1945 54.5575H73.4311C72.7366 54.5575 72.1685 55.1241 72.1685 55.8167C72.1685 56.5091 72.7367 57.0758 73.4311 57.0758H73.4483C73.441 57.1508 73.4372 57.2265 73.4372 57.3033V67.9092C73.4372 69.2121 74.5062 70.2781 75.8128 70.2781C77.1195 70.2781 78.1885 69.2121 78.1885 67.9092V57.3033C78.1885 57.2265 78.1846 57.1508 78.1773 57.0758H78.1945C78.889 57.0758 79.4573 56.5091 79.4573 55.8167C79.4573 55.1241 78.889 54.5575 78.1945 54.5575Z" fill="#C8E9F4"/>
<path d="M73.9233 67.4561C73.9233 68.4925 74.7736 69.3404 75.813 69.3404C76.8525 69.3404 77.7028 68.4925 77.7028 67.4561V60.5334H73.9233V67.4561Z" fill="#84C341"/>
<path d="M77.2776 64.0655C77.2776 64.333 77.0601 64.5499 76.7917 64.5499C76.5234 64.5499 76.3057 64.3331 76.3057 64.0655C76.3057 63.7979 76.5233 63.5808 76.7917 63.5808C77.0601 63.5809 77.2776 63.7979 77.2776 64.0655Z" fill="#ABE26A"/>
<path d="M75.2932 65.1423C75.3901 65.1423 75.4687 65.0639 75.4687 64.9673C75.4687 64.8706 75.3901 64.7922 75.2932 64.7922C75.1963 64.7922 75.1177 64.8706 75.1177 64.9673C75.1177 65.0639 75.1963 65.1423 75.2932 65.1423Z" fill="#ABE26A"/>
<path d="M76.8996 66.219C76.8996 66.4865 76.682 66.7035 76.4136 66.7035C76.1453 66.7035 75.9277 66.4866 75.9277 66.219C75.9277 65.9514 76.1452 65.7345 76.4136 65.7345C76.6819 65.7346 76.8996 65.9514 76.8996 66.219Z" fill="#ABE26A"/>
<path d="M75.4958 66.7035C75.4958 66.9712 75.2783 67.1881 75.0099 67.1881C74.7415 67.1881 74.5239 66.9712 74.5239 66.7035C74.5239 66.4359 74.7414 66.219 75.0099 66.219C75.2783 66.219 75.4958 66.4359 75.4958 66.7035Z" fill="#ABE26A"/>
<path d="M74.8479 63.4194C74.8479 63.5086 74.7754 63.5809 74.686 63.5809C74.5965 63.5809 74.5239 63.5087 74.5239 63.4194C74.5239 63.3303 74.5964 63.2578 74.686 63.2578C74.7754 63.2579 74.8479 63.3303 74.8479 63.4194Z" fill="#ABE26A"/>
<path d="M76.4133 62.1409C76.4133 62.3563 76.2381 62.5312 76.0219 62.5312C75.8057 62.5312 75.6304 62.3563 75.6304 62.1409C75.6304 61.9252 75.8057 61.7505 76.0219 61.7505C76.2381 61.7505 76.4133 61.9252 76.4133 62.1409Z" fill="#ABE26A"/>
<path d="M75.2877 62.2793C75.2877 62.3558 75.2254 62.4178 75.1487 62.4178C75.072 62.4178 75.0098 62.3558 75.0098 62.2793C75.0098 62.2028 75.072 62.1409 75.1487 62.1409C75.2254 62.1409 75.2877 62.2028 75.2877 62.2793Z" fill="#ABE26A"/>
<path opacity="0.4" d="M77.6552 65.413C77.6552 66.2159 77.0026 66.8667 76.1975 66.8667C75.3924 66.8667 74.7397 66.2159 74.7397 65.413C74.7397 64.6103 75.3924 63.9595 76.1975 63.9595C77.0026 63.9595 77.6552 64.6103 77.6552 65.413Z" fill="white"/>
<path opacity="0.4" d="M77.8449 58.2911C77.8449 58.938 77.319 59.4623 76.6702 59.4623C76.0215 59.4623 75.4956 58.938 75.4956 58.2911C75.4956 57.6442 76.0215 57.1199 76.6702 57.1199C77.319 57.1199 77.8449 57.6442 77.8449 58.2911Z" fill="white"/>
<path opacity="0.4" d="M78.0188 56.638C78.0907 56.3342 77.9021 56.0297 77.5974 55.958C77.2927 55.8863 76.9874 56.0744 76.9154 56.3782C76.8435 56.682 77.0322 56.9865 77.3368 57.0582C77.6415 57.13 77.9469 56.9418 78.0188 56.638Z" fill="white"/>
<path d="M75.1485 59.5182C75.1485 59.7274 74.9784 59.8971 74.7686 59.8971C74.5588 59.8971 74.3887 59.7274 74.3887 59.5182C74.3887 59.3089 74.5588 59.1394 74.7686 59.1394C74.9784 59.1394 75.1485 59.3089 75.1485 59.5182Z" fill="#84C341"/>
<path d="M76.1974 60.1796C76.1974 60.3357 76.0706 60.4623 75.9139 60.4623C75.7573 60.4623 75.6304 60.3358 75.6304 60.1796C75.6304 60.0236 75.7573 59.897 75.9139 59.897C76.0706 59.897 76.1974 60.0236 76.1974 60.1796Z" fill="#84C341"/>
<path d="M76.7784 58.5269C76.7784 58.6569 76.6726 58.7625 76.5421 58.7625C76.4116 58.7625 76.3057 58.6569 76.3057 58.5269C76.3057 58.3967 76.4116 58.2911 76.5421 58.2911C76.6726 58.2911 76.7784 58.3967 76.7784 58.5269Z" fill="#84C341"/>
<path d="M75.0178 57.274C75.0178 57.4472 74.877 57.5876 74.7033 57.5876C74.5295 57.5876 74.3887 57.4472 74.3887 57.274C74.3887 57.1007 74.5295 56.9602 74.7033 56.9602C74.877 56.9602 75.0178 57.1007 75.0178 57.274Z" fill="#84C341"/>
<path d="M74.8142 59.3734C74.8142 59.4533 74.7493 59.5181 74.6691 59.5181C74.5889 59.5181 74.5239 59.4533 74.5239 59.3734C74.5239 59.2934 74.5889 59.2286 74.6691 59.2286C74.7493 59.2286 74.8142 59.2934 74.8142 59.3734Z" fill="#ABE26A"/>
<path d="M74.9813 57.1199C74.9813 57.1931 74.9217 57.2528 74.848 57.2528C74.7745 57.2528 74.7148 57.1932 74.7148 57.1199C74.7148 57.0464 74.7745 56.9871 74.848 56.9871C74.9216 56.9871 74.9813 57.0464 74.9813 57.1199Z" fill="#ABE26A"/>
<path d="M78.1885 61.7722C78.1885 61.6787 79.5756 58.964 79.4573 58.3759C79.339 57.7879 75.3878 55.7529 75.1178 56.37C74.8479 56.987 76.8996 58.1659 76.8996 58.1659C76.8996 58.1659 73.7955 57.9346 73.9233 58.5268C74.0509 59.1189 76.3056 59.1016 76.3056 59.1016C76.3056 59.1016 74.6141 59.4977 74.7689 59.897C74.9237 60.2964 76.1977 59.9146 76.1977 59.9146C76.1977 59.9146 74.9155 61.2297 75.4689 61.4901C76.0222 61.7505 76.4137 60.6432 76.4137 60.6432C76.4137 60.6432 76.8523 61.4048 77.2775 61.7721C77.7026 62.1395 78.1885 61.7722 78.1885 61.7722Z" fill="#F2B2AA"/>
<path d="M57.1445 60.4622L72.1684 58.9756L72.7009 62.9538L58.6078 66.4159L57.1445 60.4622Z" fill="#B3DEE8"/>
<path d="M57.2599 75.24H42.5952V88.0891H57.2599V75.24Z" fill="#1C5660"/>
<path d="M55.5222 57.0063H44.1616V79.052H55.5222V57.0063Z" fill="#8DCFDA"/>
<path d="M46.0904 78.1639L46.1686 83.1935H38.8052C38.8052 83.1935 39.4212 55.761 42.1898 53.8997C44.9583 52.0384 45.5281 53.2555 45.5281 53.2555L46.0904 78.1639Z" fill="#C6E8F3"/>
<path d="M44.8559 54.168L41.502 62.9962L43.1789 63.6412L41.502 65.079L46.06 76.8309L45.5675 55.0131L44.8559 54.168Z" fill="#A8D9E5"/>
<path d="M54.6671 78.4214L54.5889 83.451H61.9523C61.9523 83.451 61.3363 56.0185 58.5678 54.1571C55.7993 52.2958 55.2294 53.5129 55.2294 53.5129L54.6671 78.4214Z" fill="#C6E8F3"/>
<path d="M55.9 54.4253L59.2539 63.2536L57.577 63.8987L59.2539 65.3364L54.6958 77.0883L55.1884 55.2706L55.9 54.4253Z" fill="#A8D9E5"/>
<path d="M51.5086 56.1891C51.5086 56.1891 47.3385 66.0626 44.9254 65.8807C42.5123 65.6987 42.7749 53.9284 45.8243 51.4453C48.8737 48.9622 51.5086 56.1891 51.5086 56.1891Z" fill="#3D94A3"/>
<path d="M47.8379 57.2847C47.8379 57.2847 52.4745 66.1053 54.2328 65.1485C55.9911 64.1917 57.0241 54.7649 56.2961 53.8902C55.5682 53.0153 52.185 51.3347 52.185 51.3347L47.8379 57.2847Z" fill="#3D94A3"/>
<path d="M49.147 64.8018C49.147 64.9932 49.3026 65.1485 49.4946 65.1485C49.6865 65.1485 49.8422 64.9933 49.8422 64.8018C49.8422 64.6105 49.6866 64.4552 49.4946 64.4552C49.3026 64.4553 49.147 64.6105 49.147 64.8018Z" fill="white"/>
<path d="M49.4946 70.0433C49.4946 70.2347 49.6503 70.3899 49.8423 70.3899C50.0342 70.3899 50.1898 70.2347 50.1898 70.0433C50.1898 69.8519 50.0342 69.6967 49.8423 69.6967C49.6503 69.6967 49.4946 69.8519 49.4946 70.0433Z" fill="white"/>
<path d="M49.4946 74.8937C49.4946 75.085 49.6503 75.2402 49.8423 75.2402C50.0342 75.2402 50.1898 75.085 50.1898 74.8937C50.1898 74.7021 50.0342 74.547 49.8423 74.547C49.6503 74.5471 49.4946 74.7021 49.4946 74.8937Z" fill="white"/>
<path d="M47.4058 54.3046C47.4058 55.9018 48.7371 57.1965 50.3794 57.1965C52.0216 57.1965 53.3529 55.9018 53.3529 54.3046C53.3529 52.7076 52.0216 51.4128 50.3794 51.4128C48.7371 51.4128 47.4058 52.7076 47.4058 54.3046Z" fill="#F4C0B0"/>
<path d="M26.2779 17.1792C26.2779 17.1792 26.6119 12.674 21.7033 9.31264C16.7956 5.95104 4.7417 13.1061 6.03126 20.2811C7.32074 27.4561 6.62455 30.9175 4.52221 30.9777C2.41987 31.038 0.0468376 26.4965 0.0468376 26.4965C0.0468376 26.4965 -1.15978 35.6298 8.6756 36.5493C18.5113 37.4688 22.9781 29.2399 23.5438 24.4874C24.1086 19.7346 26.2779 17.1792 26.2779 17.1792Z" fill="#84380D"/>
<path d="M15.4749 20.5174C12.1042 25.1507 14.8921 30.1349 10.7297 32.8311C7.00877 35.242 3.30844 34.6075 0.0180378 26.8272C-0.0849268 28.4714 -0.0400287 35.7347 8.6753 36.5493C18.511 37.4689 22.9778 29.2399 23.5435 24.4875C23.7948 22.3713 24.3643 20.6923 24.919 19.4787L24.7248 19.3016C24.7248 19.3016 18.8458 15.884 15.4749 20.5174Z" fill="#722B08"/>
<path d="M35.5591 20.7843C35.363 24.0366 32.4701 26.5096 29.0975 26.3077C25.7244 26.1057 23.1492 23.3048 23.3449 20.0528C23.5409 16.8005 26.4339 14.3274 29.8069 14.5294C33.1798 14.7314 35.755 17.532 35.5591 20.7843Z" fill="#E2BE0A"/>
<path d="M68.3671 35.3809C68.7393 34.5275 72.7444 26.5831 69.8365 21.8587C66.9282 17.1345 64.0835 16.8007 64.0835 16.8007C64.0835 16.8007 61.9938 10.7168 51.5975 9.35938C41.201 8.00215 26.6936 12.3777 23.0851 20.6408C19.4767 28.9041 19.0244 47.2861 40.4581 48.875C61.892 50.4638 68.3671 35.3809 68.3671 35.3809Z" fill="#9B4E1B"/>
<path d="M23.0853 20.6409C24.7279 16.8791 28.6304 13.9232 33.3744 11.9471C31.75 16.9321 28.6713 28.6855 36.171 27.6368C45.6651 26.3093 50.964 22.6277 50.964 22.6277C50.964 22.6277 47.21 29.9939 45.858 30.9739C44.5064 31.954 44.8747 43.5084 44.5172 44.0062C44.3484 44.2414 42.306 46.503 40.1691 48.85C19.0321 47.1159 19.4935 28.8662 23.0853 20.6409Z" fill="#914317"/>
<path d="M65.3705 19.8981C65.3705 19.8981 63.4929 29.3229 61.0976 29.6757C58.7025 30.0288 61.5578 22.0369 61.5578 22.0369C61.5578 22.0369 56.5 31.2595 55.3768 30.8781C54.2535 30.4969 55.8754 22.6046 55.8754 22.6046C55.8754 22.6046 50.7225 30.6837 49.585 30.5389C48.4476 30.3942 51.0627 22.3163 51.0627 22.3163C51.0627 22.3163 48.8605 27.6145 42.6615 28.6047C36.4623 29.5948 33.0885 31.2444 33.0885 31.2444C33.0885 31.2444 37.356 32.4239 38.7769 36.0188C40.1974 39.6141 38.3409 43.2578 38.3409 43.2578C38.3409 43.2578 35.9496 36.7478 32.646 38.5905C29.3425 40.4336 29.4634 42.5004 31.0938 43.9759C32.7239 45.4517 35.9768 45.8099 35.9768 45.8099C35.9768 45.8099 40.66 53.6816 50.3665 54.2632C60.0728 54.8445 61.7975 53.3967 66.6934 48.2209C71.5892 43.0448 70.6432 39.7232 68.5343 33.9646C66.4255 28.2057 66.6891 26.5458 66.9089 24.2543C67.129 21.9627 65.3705 19.8981 65.3705 19.8981Z" fill="#F9C6BD"/>
<path d="M63.258 16.9144C63.258 16.9144 56.0022 13.7046 47.891 15.1778C39.7796 16.6511 36.0256 21.8955 33.4644 25.0071C30.903 28.1188 30.6852 30.0651 30.6852 30.0651C30.6852 30.0651 29.0634 17.8868 38.3592 13.0561C53.3582 5.95496 63.258 16.9144 63.258 16.9144Z" fill="#F9D710"/>
<path d="M32.646 38.5904C35.9496 36.7476 38.3409 43.2577 38.3409 43.2577C38.3409 43.2577 40.1974 39.614 38.7769 36.0187C37.356 32.4237 33.0885 31.2442 33.0885 31.2442C33.0885 31.2442 36.4623 29.5947 42.6615 28.6045C43.6303 28.4498 44.5011 28.1898 45.2815 27.8615C41.3743 33.7431 37.4253 44.2772 49.3072 54.1678C40.3196 53.1071 35.9768 45.8097 35.9768 45.8097C35.9768 45.8097 32.7239 45.4514 31.0938 43.9758C29.4634 42.5003 29.3425 40.4334 32.646 38.5904Z" fill="#F2B2AA"/>
<path d="M35.7893 43.4832C35.7893 43.4832 34.6086 38.6191 33.0423 40.161C31.4759 41.7039 35.7893 43.4832 35.7893 43.4832Z" fill="#E5928C"/>
<path d="M47.8906 15.1779C39.7792 16.6513 36.0252 21.8957 33.4639 25.0073C30.9025 28.119 30.6847 30.0652 30.6847 30.0652C30.6847 30.0652 29.8696 23.9334 32.7165 18.6458C33.1507 20.106 34.03 21.0458 35.6392 19.0152C38.6662 15.197 43.228 13.7558 50.3979 12.9665C57.5671 12.1772 63.2576 16.9146 63.2576 16.9146C63.2576 16.9146 56.0018 13.7047 47.8906 15.1779Z" fill="#E2BE0A"/>
<path d="M48.0399 20.8547C48.0399 20.8547 41.2178 25.3901 39.7448 25.3836C38.2717 25.3769 40.7258 22.6862 40.7258 22.6862C40.7258 22.6862 36.3071 24.5439 36.2135 23.7941C36.12 23.0442 42.0746 19.3194 42.6554 19.1908C43.2362 19.0622 39.2576 22.5982 39.2576 22.5982C39.2576 22.5982 41.2778 21.6757 42.5964 21.5323C43.9149 21.3886 42.0611 23.3998 42.0611 23.3998L48.0399 20.8547Z" fill="#B25A29"/>
<path d="M50.6246 32.2945C50.6246 32.2945 47.5864 31.8935 45.7696 32.4377C43.9531 32.982 43.0444 34.4785 43.0444 34.4785C43.0444 34.4785 44.0967 31.113 46.3797 31.0053C48.6627 30.8969 50.6246 32.2945 50.6246 32.2945Z" fill="#722B08"/>
<path d="M60.7993 31.7658C60.7993 31.7658 63.2142 30.9263 64.8135 31.192C66.4128 31.4581 67.4563 32.7903 67.4563 32.7903C67.4563 32.7903 65.9234 29.6484 64.0277 29.8785C62.1323 30.1082 60.7993 31.7658 60.7993 31.7658Z" fill="#722B08"/>
<path d="M64.9442 32.5915C64.9442 32.5915 65.508 32.6629 65.9008 32.2459C66.2938 31.8292 66.0881 31.2904 66.0881 31.2904C66.0881 31.2904 66.7891 32.6656 65.5806 32.9064C64.3726 33.1476 64.9442 32.5915 64.9442 32.5915Z" fill="#190303"/>
<path d="M65.5847 33.5128C65.5847 33.5128 66.1487 33.5843 66.5413 33.1674C66.9343 32.7506 66.7284 32.2117 66.7284 32.2117C66.7284 32.2117 67.4294 33.5868 66.2213 33.8277C65.0134 34.0686 65.5847 33.5128 65.5847 33.5128Z" fill="#190303"/>
<path d="M62.7047 36.0233C63.0342 37.6999 64.3035 38.8631 65.5397 38.6212C66.7758 38.3798 67.5105 36.8249 67.181 35.1479C66.8512 33.4715 65.5819 32.3083 64.3459 32.55C63.11 32.7914 62.3752 34.3466 62.7047 36.0233Z" fill="#190303"/>
<path d="M63.0301 36.4081C63.3444 38.0052 64.504 39.1229 65.6205 38.9047C66.7365 38.6865 67.3872 37.2149 67.0732 35.6176C66.7595 34.0206 65.5995 32.9026 64.4832 33.121C63.3668 33.3392 62.7161 34.8109 63.0301 36.4081Z" fill="white"/>
<path d="M66.9751 35.4388C67.2348 36.3969 66.9091 37.3184 66.2472 37.4971C65.5851 37.6758 64.8374 37.0443 64.5775 36.0861C64.3172 35.128 64.6429 34.2062 65.305 34.0278C65.9671 33.8487 66.7147 34.4806 66.9751 35.4388Z" fill="#0C8E8E"/>
<path d="M66.782 35.5256C66.9858 36.2771 66.726 37.0012 66.2024 37.1424C65.6786 37.284 65.0882 36.7896 64.8841 36.0381C64.6801 35.2869 64.9395 34.5628 65.4633 34.4216C65.9875 34.2798 66.5777 34.7744 66.782 35.5256Z" fill="#016865"/>
<path d="M66.6276 35.5468C66.7866 36.1311 66.5814 36.695 66.1702 36.8058C65.7588 36.9167 65.2969 36.5332 65.1382 35.9488C64.9795 35.3644 65.1843 34.8006 65.5955 34.6897C66.007 34.5789 66.4686 34.9624 66.6276 35.5468Z" fill="#013835"/>
<path d="M65.3152 34.9941C65.356 35.2177 65.2504 35.4244 65.0792 35.4552C64.9075 35.4865 64.7358 35.3304 64.6949 35.1065C64.6538 34.8829 64.7599 34.6763 64.931 34.6455C65.1021 34.6142 65.2745 34.7703 65.3152 34.9941Z" fill="white"/>
<path d="M65.2453 35.7888C65.2615 35.8782 65.212 35.9623 65.135 35.9761C65.0576 35.9905 64.9817 35.9291 64.9656 35.8394C64.949 35.7498 64.9985 35.6661 65.0756 35.6522C65.1528 35.6381 65.2287 35.6992 65.2453 35.7888Z" fill="white"/>
<path d="M48.1239 34.4211C48.1239 34.4211 48.75 34.5005 49.1866 34.0373C49.623 33.5746 49.3942 32.9757 49.3942 32.9757C49.3942 32.9757 50.173 34.5036 48.831 34.771C47.4898 35.0387 48.1239 34.4211 48.1239 34.4211Z" fill="#190303"/>
<path d="M48.836 35.4441C48.836 35.4441 49.4623 35.5236 49.8987 35.0606C50.3349 34.5977 50.1061 33.9991 50.1061 33.9991C50.1061 33.9991 50.8847 35.527 49.543 35.7942C48.2014 36.0619 48.836 35.4441 48.836 35.4441Z" fill="#190303"/>
<path d="M45.6368 38.2329C46.0028 40.0951 47.4127 41.3869 48.7856 41.1187C50.1584 40.8502 50.9743 39.1229 50.6085 37.2608C50.2423 35.3985 48.8327 34.1066 47.4596 34.3752C46.0868 34.6433 45.2708 36.3706 45.6368 38.2329Z" fill="#190303"/>
<path d="M45.9979 38.6603C46.3469 40.4339 47.6347 41.6758 48.8749 41.4331C50.1148 41.1909 50.8373 39.556 50.4887 37.7821C50.1396 36.0084 48.8518 34.7668 47.6118 35.0092C46.3719 35.252 45.6491 36.8864 45.9979 38.6603Z" fill="white"/>
<path d="M50.38 37.5837C50.6686 38.6477 50.3067 39.6714 49.5716 39.87C48.8361 40.0686 48.0055 39.3665 47.7168 38.3027C47.4276 37.2385 47.7895 36.2146 48.5249 36.016C49.2605 35.8175 50.0906 36.5192 50.38 37.5837Z" fill="#0C8E8E"/>
<path d="M50.1657 37.6803C50.3921 38.5149 50.1037 39.3191 49.5221 39.4758C48.9403 39.6329 48.2846 39.084 48.0578 38.2492C47.8313 37.4146 48.1194 36.6107 48.7013 36.4537C49.2833 36.2963 49.9391 36.8455 50.1657 37.6803Z" fill="#016865"/>
<path d="M49.9946 37.7033C50.1707 38.3525 49.9432 38.9789 49.4863 39.1021C49.0296 39.2255 48.5164 38.7994 48.3399 38.1502C48.1637 37.5013 48.3912 36.8751 48.8481 36.7518C49.305 36.6286 49.8182 37.0548 49.9946 37.7033Z" fill="#013835"/>
<path d="M48.5364 37.0898C48.5818 37.3381 48.4643 37.5674 48.2741 37.602C48.0837 37.6368 47.8927 37.4631 47.8471 37.2148C47.8018 36.9664 47.9193 36.7368 48.1096 36.7024C48.2996 36.6677 48.4908 36.8411 48.5364 37.0898Z" fill="white"/>
<path d="M48.458 37.9719C48.4761 38.0718 48.4217 38.1651 48.3357 38.1803C48.2501 38.1958 48.1658 38.128 48.1475 38.0287C48.1293 37.9294 48.1843 37.836 48.27 37.8203C48.3556 37.8049 48.4399 37.8726 48.458 37.9719Z" fill="white"/>
<path d="M60.5181 39.4972C60.5181 39.4972 62.4608 39.8389 62.9122 40.5213C63.3638 41.2035 62.7659 42.6163 61.8804 42.5469C60.995 42.4765 62.2818 41.4591 61.7613 40.8324C61.2407 40.2056 60.5181 39.4972 60.5181 39.4972Z" fill="#E5928C"/>
<path d="M62.8416 44.8733C62.8416 44.8733 59.6472 46.4111 56.6444 46.1522C53.6418 45.893 51.8687 44.5931 51.8687 44.5931C51.8687 44.5931 55.7368 52.5837 58.4128 51.2748C61.0889 49.9652 62.8416 44.8733 62.8416 44.8733Z" fill="#300D07"/>
<path d="M59.5045 47.338C56.9714 47.9214 53.6966 47.491 53.021 45.2262C53.8412 45.596 55.0743 46.0165 56.6445 46.1522C58.4968 46.3118 60.4209 45.788 61.6242 45.363C61.4537 46.1493 60.9265 47.0107 59.5045 47.338Z" fill="white"/>
<path d="M54.1357 48.4225C54.6759 48.1602 55.2921 48.005 55.9499 47.99C57.6895 47.9517 59.1876 48.9077 59.7445 50.2684C59.3326 50.6893 58.8878 51.042 58.4127 51.2747C57.0742 51.9293 55.4377 50.2573 54.1357 48.4225Z" fill="#F98585"/>
<path opacity="0.4" d="M42.4902 43.681C42.4157 44.9167 43.5756 45.9916 45.0811 46.0817C46.5865 46.1717 47.8672 45.2429 47.9414 44.0075C48.016 42.7717 46.8561 41.6964 45.3506 41.6064C43.8453 41.5164 42.5648 42.4451 42.4902 43.681Z" fill="#F7908D"/>
<path opacity="0.4" d="M65.1614 41.2246C65.2691 42.2415 66.3603 42.9602 67.5991 42.8295C68.8376 42.6994 69.7543 41.7688 69.6466 40.7521C69.5391 39.7352 68.4476 39.0165 67.2089 39.1472C65.9704 39.2776 65.0537 40.2076 65.1614 41.2246Z" fill="#F7908D"/>
<path opacity="0.4" d="M67.4423 40.35C67.4212 40.7025 67.7899 41.0115 68.2661 41.0399C68.742 41.0685 69.1449 40.8057 69.1664 40.4534C69.1875 40.1006 68.8189 39.7918 68.3426 39.7635C67.8667 39.7348 67.4635 39.9974 67.4423 40.35Z" fill="white"/>
<path opacity="0.4" d="M42.8927 43.2565C42.8601 43.7984 43.345 44.2683 43.9761 44.3062C44.607 44.3438 45.1449 43.9351 45.1775 43.3931C45.2102 42.8513 44.7252 42.3811 44.0944 42.3432C43.4635 42.3056 42.9254 42.7144 42.8927 43.2565Z" fill="white"/>
<path d="M69.0646 23.5198C63.6343 23.5198 59.2166 27.925 59.2166 33.3398C59.2166 34.0583 59.2951 34.7588 59.4427 35.4338C59.1691 35.1861 58.7156 34.9187 58.1061 35.0503C57.4712 35.1874 57.0022 35.5097 56.7292 35.7438C56.3014 30.7197 52.0646 26.7616 46.9173 26.7616C41.487 26.7616 37.0693 31.1668 37.0693 36.5816C37.0693 41.9964 41.487 46.4017 46.9173 46.4017C52.1179 46.4017 56.3893 42.3609 56.7413 37.2627C57.0233 37.0281 57.4862 36.7094 58.006 36.6203C58.5235 36.5315 59.3409 36.753 59.902 36.94C61.3452 40.5791 64.9083 43.1599 69.0647 43.1599C74.495 43.1599 78.9127 38.7547 78.9127 33.3398C78.9127 27.925 74.4949 23.5198 69.0646 23.5198ZM46.9172 45.9028C41.7629 45.9028 37.5695 41.7214 37.5695 36.5817C37.5695 31.4419 41.7629 27.2605 46.9172 27.2605C52.0716 27.2605 56.2651 31.442 56.2651 36.5817C56.2651 41.7214 52.0716 45.9028 46.9172 45.9028ZM69.0646 42.661C63.9102 42.661 59.7169 38.4796 59.7169 33.3398C59.7169 28.2001 63.9102 24.0186 69.0646 24.0186C74.219 24.0186 78.4124 28.2001 78.4124 33.3398C78.4124 38.4796 74.219 42.661 69.0646 42.661Z" fill="#F20606"/>
<path d="M66.2173 54.1483H61.4614C60.7679 54.1483 60.2007 54.7139 60.2007 55.4055C60.2007 56.0969 60.7679 56.6627 61.4614 56.6627H61.4785C61.4713 56.7374 61.4674 56.8131 61.4674 56.8896V67.4789C61.4674 68.7798 62.5348 69.844 63.8393 69.844C65.1439 69.844 66.2112 68.7799 66.2112 67.4789V56.8896C66.2112 56.8131 66.2074 56.7374 66.2001 56.6627H66.2173C66.9107 56.6627 67.478 56.0969 67.478 55.4055C67.478 54.7139 66.9107 54.1483 66.2173 54.1483Z" fill="#C8E9F4"/>
<path d="M61.9526 67.0265C61.9526 68.0613 62.8017 68.9078 63.8394 68.9078C64.8771 68.9078 65.7262 68.0613 65.7262 67.0265V60.1149H61.9526V67.0265Z" fill="#23BFD8"/>
<path d="M65.3014 63.6412C65.3014 63.9083 65.0842 64.1251 64.8162 64.1251C64.5482 64.1251 64.3311 63.9084 64.3311 63.6412C64.3311 63.374 64.5482 63.1575 64.8162 63.1575C65.0842 63.1575 65.3014 63.374 65.3014 63.6412Z" fill="#62DBE8"/>
<path d="M63.3202 64.7164C63.417 64.7164 63.4954 64.6381 63.4954 64.5417C63.4954 64.4452 63.417 64.3669 63.3202 64.3669C63.2235 64.3669 63.145 64.4452 63.145 64.5417C63.145 64.6381 63.2235 64.7164 63.3202 64.7164Z" fill="#62DBE8"/>
<path d="M64.9244 65.7914C64.9244 66.0585 64.7073 66.2751 64.4393 66.2751C64.1713 66.2751 63.9541 66.0585 63.9541 65.7914C63.9541 65.5242 64.1713 65.3075 64.4393 65.3075C64.7073 65.3075 64.9244 65.5242 64.9244 65.7914Z" fill="#62DBE8"/>
<path d="M63.5226 66.2751C63.5226 66.5424 63.3054 66.759 63.0374 66.759C62.7694 66.759 62.5522 66.5424 62.5522 66.2751C62.5522 66.0079 62.7694 65.7914 63.0374 65.7914C63.3054 65.7914 63.5226 66.0079 63.5226 66.2751Z" fill="#62DBE8"/>
<path d="M62.8757 62.9963C62.8757 63.0852 62.8034 63.1575 62.714 63.1575C62.6246 63.1575 62.5522 63.0853 62.5522 62.9963C62.5522 62.9072 62.6246 62.8348 62.714 62.8348C62.8034 62.8348 62.8757 62.9071 62.8757 62.9963Z" fill="#62DBE8"/>
<path d="M64.4393 61.7196C64.4393 61.9349 64.2643 62.1094 64.0485 62.1094C63.8326 62.1094 63.6577 61.9349 63.6577 61.7196C63.6577 61.5044 63.8326 61.33 64.0485 61.33C64.2643 61.3299 64.4393 61.5044 64.4393 61.7196Z" fill="#62DBE8"/>
<path d="M63.315 61.8578C63.315 61.9341 63.2529 61.9961 63.1763 61.9961C63.0997 61.9961 63.0376 61.9341 63.0376 61.8578C63.0376 61.7815 63.0997 61.7195 63.1763 61.7195C63.2529 61.7196 63.315 61.7815 63.315 61.8578Z" fill="#62DBE8"/>
<path opacity="0.4" d="M66.0564 65.993C66.0564 66.7946 65.4048 67.4442 64.601 67.4442C63.7971 67.4442 63.1455 66.7945 63.1455 65.993C63.1455 65.1915 63.7972 64.5416 64.601 64.5416C65.4048 64.5416 66.0564 65.1914 66.0564 65.993Z" fill="white"/>
<path opacity="0.4" d="M65.8681 57.876C65.8681 58.522 65.343 59.0454 64.6953 59.0454C64.0476 59.0454 63.5225 58.522 63.5225 57.876C63.5225 57.2302 64.0475 56.7067 64.6953 56.7067C65.343 56.7067 65.8681 57.2302 65.8681 57.876Z" fill="white"/>
<path opacity="0.4" d="M65.4904 56.6538C65.803 56.6538 66.0564 56.4011 66.0564 56.0893C66.0564 55.7776 65.803 55.5249 65.4904 55.5249C65.1777 55.5249 64.9243 55.7776 64.9243 56.0893C64.9243 56.4011 65.1777 56.6538 65.4904 56.6538Z" fill="white"/>
<path d="M63.1761 59.1011C63.1761 59.3099 63.0063 59.4792 62.7968 59.4792C62.5873 59.4792 62.4175 59.3099 62.4175 59.1011C62.4175 58.8921 62.5873 58.7228 62.7968 58.7228C63.0063 58.7228 63.1761 58.8921 63.1761 59.1011Z" fill="#23BFD8"/>
<path d="M64.2238 59.7615C64.2238 59.9174 64.0971 60.0438 63.9407 60.0438C63.7844 60.0438 63.6577 59.9174 63.6577 59.7615C63.6577 59.6057 63.7844 59.4792 63.9407 59.4792C64.0971 59.4793 64.2238 59.6057 64.2238 59.7615Z" fill="#23BFD8"/>
<path d="M64.8031 58.1112C64.8031 58.2412 64.6973 58.3465 64.567 58.3465C64.4366 58.3465 64.3311 58.2412 64.3311 58.1112C64.3311 57.9814 64.4366 57.8759 64.567 57.8759C64.6973 57.8759 64.8031 57.9814 64.8031 58.1112Z" fill="#23BFD8"/>
<path d="M63.0461 56.8604C63.0461 57.0334 62.9055 57.1737 62.732 57.1737C62.5586 57.1737 62.418 57.0334 62.418 56.8604C62.418 56.6876 62.5586 56.5474 62.732 56.5474C62.9055 56.5474 63.0461 56.6876 63.0461 56.8604Z" fill="#23BFD8"/>
<path d="M62.8426 58.9565C62.8426 59.0363 62.7778 59.1011 62.6977 59.1011C62.6176 59.1011 62.5527 59.0363 62.5527 58.9565C62.5527 58.8767 62.6176 58.8119 62.6977 58.8119C62.7778 58.8119 62.8426 58.8767 62.8426 58.9565Z" fill="#62DBE8"/>
<path d="M62.9975 56.68C62.9975 56.7532 62.938 56.8127 62.8644 56.8127C62.7911 56.8127 62.7314 56.7532 62.7314 56.68C62.7314 56.6068 62.791 56.5474 62.8644 56.5474C62.938 56.5474 62.9975 56.6067 62.9975 56.68Z" fill="#62DBE8"/>
<path d="M65.4497 59.1482C65.3969 58.3573 61.3594 58.7792 61.3594 58.7792C61.3594 58.7792 64.7624 58.3573 64.7096 58.0017C64.6567 57.6458 61.2201 57.8829 60.0218 58.3852C58.8234 58.8875 58.8276 61.2966 58.8276 61.2966C58.8276 61.2966 58.786 61.5189 58.7696 61.8346C55.684 62.0435 44.9598 63.843 44.6938 63.843L42.6044 62.2675L40.979 63.3418C40.979 63.3418 40.3619 65.9264 41.3813 66.5343C42.2772 67.0687 55.8763 64.231 59.1545 63.5364C59.281 63.6933 59.4451 63.8188 59.6595 63.8914C60.9009 64.3114 62.1391 61.8186 62.1391 61.8186C62.1391 61.8186 63.5464 62.4696 63.7581 62.1344C63.9695 61.7994 62.0768 60.677 62.0768 60.677C62.0768 60.677 64.6039 61.2569 64.9211 60.6242C65.2383 59.9916 61.6955 59.5637 61.6955 59.5637C61.6955 59.5637 65.5026 59.9389 65.4497 59.1482Z" fill="#F2B2AA"/>
<path d="M57.2597 64.8018C57.2547 64.5658 57.2597 61.7195 57.2597 61.7195L40.2014 61.3299C40.2014 61.3299 42.6035 54.7525 42.1895 53.8997C41.7754 53.0469 38.926 53.2899 37.3087 56.5473C35.6915 59.8047 35.5375 66.867 36.6926 67.4442C37.8478 68.0215 57.2597 65.944 57.2597 65.944V64.8018Z" fill="#C6E8F3"/>
<path d="M122.641 75.744H107.976V88.5931H122.641V75.744Z" fill="#1C5660"/>
<path d="M121.074 57.5104H109.713V79.556H121.074V57.5104Z" fill="#8DCFDA"/>
<path d="M119.146 78.668L119.067 83.6976H126.431C126.431 83.6976 125.815 56.2651 123.046 54.4038C120.278 52.5425 119.708 53.7596 119.708 53.7596L119.146 78.668Z" fill="#C6E8F3"/>
<path d="M120.38 54.672L123.734 63.5002L122.057 64.1453L123.734 65.5831L119.176 77.335L119.668 55.5173L120.38 54.672Z" fill="#A8D9E5"/>
<path d="M110.569 78.9254L110.647 83.955H103.284C103.284 83.955 103.9 56.5225 106.668 54.6612C109.437 52.7999 110.007 54.0169 110.007 54.0169L110.569 78.9254Z" fill="#C6E8F3"/>
<path d="M109.334 54.9294L105.98 63.7577L107.657 64.4027L105.98 65.8404L110.539 77.5924L110.046 55.7746L109.334 54.9294Z" fill="#A8D9E5"/>
<path d="M113.728 56.6931C113.728 56.6931 117.898 66.5666 120.311 66.3847C122.724 66.2027 122.461 54.4324 119.412 51.9493C116.362 49.4663 113.728 56.6931 113.728 56.6931Z" fill="#3D94A3"/>
<path d="M117.398 57.7886C117.398 57.7886 112.762 66.6091 111.003 65.6524C109.245 64.6956 108.212 55.2688 108.94 54.3941C109.668 53.5192 113.051 51.8386 113.051 51.8386L117.398 57.7886Z" fill="#3D94A3"/>
<path d="M116.089 65.3059C116.089 65.4972 115.933 65.6525 115.741 65.6525C115.549 65.6525 115.394 65.4972 115.394 65.3059C115.394 65.1145 115.549 64.9592 115.741 64.9592C115.933 64.9592 116.089 65.1144 116.089 65.3059Z" fill="white"/>
<path d="M115.742 70.5474C115.742 70.7388 115.586 70.8941 115.394 70.8941C115.202 70.8941 115.046 70.7389 115.046 70.5474C115.046 70.356 115.202 70.2008 115.394 70.2008C115.586 70.2008 115.742 70.356 115.742 70.5474Z" fill="white"/>
<path d="M115.742 75.3977C115.742 75.589 115.586 75.7441 115.394 75.7441C115.202 75.7441 115.046 75.589 115.046 75.3977C115.046 75.2061 115.202 75.051 115.394 75.051C115.586 75.051 115.742 75.2061 115.742 75.3977Z" fill="white"/>
<path d="M117.83 54.8086C117.83 56.4057 116.499 57.7004 114.857 57.7004C113.215 57.7004 111.883 56.4057 111.883 54.8086C111.883 53.2115 113.215 51.9167 114.857 51.9167C116.499 51.9167 117.83 53.2115 117.83 54.8086Z" fill="#F4C0B0"/>
<path d="M136.42 39.9186C136.42 39.9186 144.786 29.4379 145.852 24.0726C146.918 18.7076 141.892 14.3906 141.892 14.3906C141.892 14.3906 147.611 6.96342 144.453 5.40952C141.294 3.85509 139.083 10.8398 139.083 10.8398C139.083 10.8398 139.405 0.634021 136.572 0.593398C133.739 0.552544 135.157 9.72373 135.157 9.72373C135.157 9.72373 118.729 -4.27111 101.03 8.63504C83.3296 21.5408 101.899 35.5733 101.899 35.5733L136.42 39.9186Z" fill="#D36409"/>
<path d="M145.851 24.0726C146.917 18.7076 141.892 14.3906 141.892 14.3906C141.892 14.3906 147.611 6.96342 144.453 5.40952C141.293 3.85509 139.083 10.8398 139.083 10.8398C139.083 10.8398 139.405 0.634021 136.572 0.593398C133.739 0.552544 135.157 9.72373 135.157 9.72373C135.157 9.72373 126.96 2.74136 115.908 3.1896C119.172 5.69888 124.968 9.95664 127.765 10.8034C131.783 12.0201 114.507 23.6841 104.24 24.2213C93.9726 24.7586 118.461 37.0131 118.461 37.0131C118.461 37.0131 118.766 37.2963 119.277 37.7606L136.42 39.9186C136.42 39.9186 144.786 29.4379 145.851 24.0726Z" fill="#C45808"/>
<path d="M101.286 17.2561C101.286 17.2561 101.137 26.511 115.552 24.8838C129.966 23.257 136.925 17.7898 136.925 17.7898C136.925 17.7898 130.785 22.7434 129.943 27.4529C129.102 32.1627 132.75 35.0447 132.75 35.0447C132.75 35.0447 138.258 27.9409 142.476 30.5797C146.695 33.2181 144.386 39.2277 141.482 40.669C138.578 42.1098 137.715 41.5872 137.715 41.5872C137.715 41.5872 131.339 53.7211 116.109 55.0229C100.88 56.3245 91.7397 45.6048 94.4137 39.7985C97.088 33.9927 98.1785 33.7265 98.3527 28.8655C98.5268 24.0043 99.3095 21.1944 99.7366 19.9381C100.164 18.6818 101.286 17.2561 101.286 17.2561Z" fill="#F9CFC0"/>
<path d="M142.476 30.5795C138.258 27.9408 132.75 35.0446 132.75 35.0446C132.75 35.0446 129.102 32.1626 129.943 27.4527C130.785 22.7433 136.925 17.7897 136.925 17.7897C136.925 17.7897 133.558 20.4339 126.658 22.592C126.324 24.9246 125.616 32.1007 128.708 36.5532C131.323 40.3196 131.484 45.8656 129.219 50.4845C135.1 46.5632 137.715 41.5871 137.715 41.5871C137.715 41.5871 138.578 42.1096 141.482 40.6689C144.386 39.2275 146.695 33.218 142.476 30.5795Z" fill="#F4B9A6"/>
<path d="M137.832 38.206C137.832 38.206 137.601 31.2618 140.192 32.4021C142.782 33.5431 137.832 38.206 137.832 38.206Z" fill="#E89D89"/>
<path d="M103.288 34.0015C102.648 35.6949 101.117 36.6873 99.8685 36.2179C98.6201 35.7493 98.1271 33.9961 98.7671 32.3027C99.4071 30.6098 100.938 29.6175 102.186 30.0864C103.434 30.5555 103.928 32.3085 103.288 34.0015Z" fill="#190303"/>
<path d="M102.879 34.3466C102.27 35.9597 100.861 36.9237 99.7337 36.4998C98.6064 36.0759 98.1866 34.4249 98.7966 32.8125C99.4058 31.1994 100.815 30.2351 101.941 30.659C103.069 31.0826 103.489 32.7335 102.879 34.3466Z" fill="white"/>
<path d="M98.6123 33.5807C98.2889 34.5624 98.5764 35.5375 99.2547 35.76C99.9325 35.9821 100.745 35.3669 101.068 34.3856C101.392 33.4046 101.104 32.4289 100.426 32.2065C99.748 31.9845 98.9363 32.5994 98.6123 33.5807Z" fill="#0C8E8E"/>
<path d="M98.8081 33.6819C98.5541 34.4515 98.7839 35.2181 99.3204 35.3939C99.8569 35.57 100.498 35.0884 100.752 34.3189C101.005 33.5495 100.776 32.7832 100.239 32.6072C99.7025 32.4311 99.0617 32.9127 98.8081 33.6819Z" fill="#016865"/>
<path d="M98.9673 33.7124C98.7702 34.3107 98.9516 34.9079 99.3729 35.0456C99.7939 35.1836 100.295 34.8107 100.492 34.2121C100.69 33.614 100.509 33.017 100.087 32.8788C99.6659 32.7406 99.1646 33.1142 98.9673 33.7124Z" fill="#013835"/>
<path d="M99.1052 32.7872C99.0352 32.9981 99.1082 33.2119 99.2685 33.265C99.4283 33.3178 99.615 33.1894 99.6849 32.9786C99.7544 32.7676 99.6816 32.5537 99.5212 32.5011C99.3613 32.4485 99.1751 32.5766 99.1052 32.7872Z" fill="white"/>
<path d="M98.8237 33.6575C98.7906 33.7571 98.8271 33.8588 98.9056 33.8847C98.9834 33.9107 99.074 33.8509 99.1071 33.7512C99.1399 33.652 99.1034 33.5496 99.0248 33.5241C98.9468 33.4985 98.8565 33.5585 98.8237 33.6575Z" fill="white"/>
<path d="M119.594 37.5047C118.845 39.4874 117.052 40.6491 115.591 40.0994C114.129 39.5504 113.552 37.4981 114.301 35.5151C115.05 33.5329 116.843 32.3709 118.304 32.9198C119.766 33.4696 120.343 35.5215 119.594 37.5047Z" fill="#190303"/>
<path d="M119.116 37.9087C118.403 39.7975 116.754 40.9257 115.433 40.4297C114.113 39.9336 113.622 38.0002 114.335 36.1118C115.049 34.2231 116.698 33.0944 118.018 33.5904C119.338 34.0866 119.83 36.0199 119.116 37.9087Z" fill="white"/>
<path d="M114.264 36.8078C113.923 37.9686 114.297 39.0991 115.099 39.3337C115.902 39.5669 116.828 38.8159 117.168 37.6552C117.508 36.4941 117.135 35.3634 116.333 35.1301C115.53 34.8958 114.604 35.647 114.264 36.8078Z" fill="#0C8E8E"/>
<path d="M114.497 36.9186C114.229 37.8287 114.527 38.7171 115.162 38.9023C115.797 39.0875 116.528 38.4994 116.795 37.5892C117.062 36.6791 116.765 35.7909 116.129 35.6055C115.494 35.4202 114.763 36.0083 114.497 36.9186Z" fill="#016865"/>
<path d="M114.684 36.9478C114.476 37.656 114.712 38.3476 115.21 38.493C115.708 38.6384 116.281 38.1825 116.488 37.4747C116.696 36.7662 116.46 36.0741 115.962 35.9292C115.464 35.7838 114.892 36.2402 114.684 36.9478Z" fill="#013835"/>
<path d="M114.809 35.8599C114.735 36.1095 114.829 36.3569 115.018 36.4125C115.207 36.468 115.421 36.3106 115.495 36.0617C115.568 35.8119 115.474 35.5647 115.285 35.5091C115.096 35.4534 114.882 35.6108 114.809 35.8599Z" fill="white"/>
<path d="M114.513 36.8899C114.478 37.008 114.525 37.1248 114.618 37.1524C114.71 37.1799 114.813 37.106 114.848 36.9886C114.883 36.8705 114.836 36.7529 114.743 36.7254C114.651 36.6986 114.548 36.7721 114.513 36.8899Z" fill="white"/>
<path d="M116.695 29.8077C116.695 29.8077 118.199 29.1882 120.436 30.0713C122.673 30.9536 123.734 33.0191 123.734 33.0191C123.734 33.0191 123.389 29.8983 121.034 28.8688C118.679 27.8396 116.695 29.8077 116.695 29.8077Z" fill="#8E4413"/>
<path d="M105.354 28.7651C105.354 28.7651 104.432 27.8032 102.433 27.7839C100.434 27.7651 98.9141 29.0444 98.9141 29.0444C98.9141 29.0444 100.259 26.7116 102.398 26.6535C104.537 26.5954 105.354 28.7651 105.354 28.7651Z" fill="#8E4413"/>
<path d="M103.029 36.9075C103.029 36.9075 99.0739 37.8086 99.2525 38.9674C99.4316 40.1255 100.39 42.3199 101.38 41.8599C102.37 41.4002 99.7443 39.4786 100.714 38.6106C101.684 37.7435 103.029 36.9075 103.029 36.9075Z" fill="#E89D89"/>
<path d="M101.16 44.0063C101.16 44.0063 102.504 44.4822 105.438 44.7392C108.371 44.9963 110.478 43.8779 110.478 43.8779C110.478 43.8779 109.946 50.7334 106.934 51.1933C103.922 51.6526 101.16 44.0063 101.16 44.0063Z" fill="#300D07"/>
<path d="M109.743 44.1873C108.883 44.4967 107.334 44.9053 105.438 44.7392C104.067 44.6187 103.043 44.4513 102.342 44.3061C102.541 45.1111 103.103 45.9758 104.533 46.3202C107.103 46.9387 109.667 46.4617 109.743 44.1873Z" fill="white"/>
<path d="M109.793 47.5046C109.108 47.2909 108.335 47.2564 107.558 47.4459C106.068 47.8092 104.971 48.8933 104.649 50.1532C105.362 50.871 106.139 51.3137 106.934 51.1931C108.4 50.9693 109.278 49.2309 109.793 47.5046Z" fill="#FC7070"/>
<path d="M116.526 6.83533C116.526 6.83533 104.703 9.86495 104.581 12.2683C104.46 14.6721 111.92 14.6646 111.92 14.6646C111.92 14.6646 105.86 16.4081 105.988 18.0091C106.116 19.6096 114.972 18.1937 116.809 17.4491C118.647 16.7046 110.193 16.836 110.193 16.836C110.193 16.836 114.885 15.9009 114.71 13.9847C114.535 12.0686 107.381 11.2894 107.381 11.2894L116.526 6.83533Z" fill="#DD6E1B"/>
<path d="M107.221 54.9295L96.9298 61.7982L90.0535 53.6262L86.9624 56.96C86.9624 56.96 95.4058 68.3929 97.0919 68.4599C98.7781 68.5268 105.354 63.9944 105.354 63.9944L107.221 54.9295Z" fill="#C6E8F3"/>
<path d="M122.749 54.9295L133.041 61.7982L139.917 53.6262L143.008 56.96C143.008 56.96 134.565 68.3929 132.879 68.4599C131.192 68.5268 124.616 63.9944 124.616 63.9944L122.749 54.9295Z" fill="#C6E8F3"/>
<path d="M90.6053 55.4259V53.3979C90.6053 53.3092 90.5933 53.2235 90.5713 53.1417C90.763 53.0665 90.8999 52.8803 90.8999 52.6632C90.8999 52.3804 90.6679 52.149 90.3843 52.149H88.8376C88.554 52.149 88.322 52.3805 88.322 52.6632C88.322 52.8802 88.459 53.0665 88.6507 53.1417C88.6287 53.2234 88.6167 53.3092 88.6167 53.3979V55.4723C87.1791 55.9265 86.1372 57.2674 86.1372 58.851C86.1372 60.8082 87.7283 62.3949 89.691 62.3949C91.6537 62.3949 93.2448 60.8082 93.2448 58.851C93.2446 57.2093 92.1249 55.8284 90.6053 55.4259Z" fill="#CEDDE4"/>
<path d="M86.6895 59.1817C86.6895 60.7231 88.0415 61.9727 89.7093 61.9727C91.3772 61.9727 92.7292 60.7232 92.7292 59.1817C92.7292 59.0509 92.7192 58.9222 92.7004 58.7961H86.7183C86.6994 58.9222 86.6895 59.0509 86.6895 59.1817Z" fill="#0F76BC"/>
<path opacity="0.6" d="M88.7359 59.8152C88.7359 60.2906 88.3495 60.6757 87.8728 60.6757C87.3962 60.6757 87.0098 60.2905 87.0098 59.8152C87.0098 59.34 87.3962 58.9545 87.8728 58.9545C88.3495 58.9545 88.7359 59.3399 88.7359 59.8152Z" fill="#F7FBFC"/>
<path d="M89.2671 61.073C89.2671 61.1946 89.1681 61.2931 89.0461 61.2931C88.9242 61.2931 88.8252 61.1946 88.8252 61.073C88.8252 60.9512 88.9242 60.8527 89.0461 60.8527C89.1681 60.8526 89.2671 60.9512 89.2671 61.073Z" fill="#2591CE"/>
<path d="M89.6909 59.8152C89.6909 59.9926 89.5467 60.1365 89.3687 60.1365C89.1906 60.1365 89.0464 59.9926 89.0464 59.8152C89.0464 59.6375 89.1907 59.4938 89.3687 59.4938C89.5467 59.4937 89.6909 59.6375 89.6909 59.8152Z" fill="#2591CE"/>
<path d="M90.0223 60.6874C90.0223 60.7786 89.9482 60.8526 89.8567 60.8526C89.7651 60.8526 89.6909 60.7785 89.6909 60.6874C89.6909 60.596 89.7651 60.5221 89.8567 60.5221C89.9482 60.5221 90.0223 60.596 90.0223 60.6874Z" fill="#2591CE"/>
<path opacity="0.6" d="M90.1527 56.0922C91.4305 56.3743 92.3862 57.5108 92.3862 58.8698C92.3862 60.441 91.1089 61.7147 89.5331 61.7147C89.5163 61.7147 89.4995 61.7144 89.4829 61.7141C89.6824 61.758 89.8896 61.7816 90.1024 61.7816C91.6781 61.7816 92.9555 60.5077 92.9555 58.9365C92.9555 57.382 91.7051 56.119 90.1527 56.0922Z" fill="#F7FBFC"/>
<path opacity="0.6" d="M89.3686 57.4671C89.3686 58.0758 88.8738 58.5692 88.2634 58.5692C87.6531 58.5692 87.1582 58.0758 87.1582 57.4671C87.1582 56.8586 87.6531 56.3651 88.2634 56.3651C88.8739 56.3651 89.3686 56.8586 89.3686 57.4671Z" fill="#F7FBFC"/>
<path opacity="0.6" d="M88.8252 56.0344C88.8252 56.1738 88.7118 56.2868 88.5721 56.2868C88.4322 56.2868 88.3188 56.1737 88.3188 56.0344C88.3188 55.8949 88.4322 55.782 88.5721 55.782C88.7118 55.782 88.8252 55.8949 88.8252 56.0344Z" fill="#F7FBFC"/>
<path d="M90.7526 58.3155C90.7526 58.4761 90.6221 58.6063 90.4611 58.6063C90.3 58.6063 90.1694 58.4761 90.1694 58.3155C90.1694 58.1548 90.3 58.0247 90.4611 58.0247C90.6221 58.0247 90.7526 58.1549 90.7526 58.3155Z" fill="#0F76BC"/>
<path d="M91.3216 58.5024C91.3216 58.5597 91.275 58.6064 91.2174 58.6064C91.1599 58.6064 91.1133 58.5597 91.1133 58.5024C91.1133 58.445 91.1599 58.3986 91.2174 58.3986C91.2749 58.3986 91.3216 58.4451 91.3216 58.5024Z" fill="#0F76BC"/>
<path d="M91.219 57.3368C91.219 57.4918 91.0928 57.6178 90.9371 57.6178C90.7815 57.6178 90.6553 57.4918 90.6553 57.3368C90.6553 57.1815 90.7815 57.0555 90.9371 57.0555C91.0928 57.0555 91.219 57.1816 91.219 57.3368Z" fill="#0F76BC"/>
<path d="M90.0224 57.3837C90.0224 57.5039 89.9248 57.6012 89.8044 57.6012C89.684 57.6012 89.5864 57.5038 89.5864 57.3837C89.5864 57.2637 89.6841 57.1664 89.8044 57.1664C89.9248 57.1663 90.0224 57.2637 90.0224 57.3837Z" fill="#0F76BC"/>
<path d="M89.4829 58.4716C89.4829 58.5576 89.4128 58.6275 89.3263 58.6275C89.2399 58.6275 89.1699 58.5576 89.1699 58.4716C89.1699 58.3853 89.2399 58.3154 89.3263 58.3154C89.4128 58.3154 89.4829 58.3853 89.4829 58.4716Z" fill="#0F76BC"/>
<path d="M90.586 56.6543C90.586 56.769 90.4927 56.8619 90.3778 56.8619C90.2628 56.8619 90.1694 56.769 90.1694 56.6543C90.1694 56.5395 90.2628 56.4465 90.3778 56.4465C90.4927 56.4465 90.586 56.5395 90.586 56.6543Z" fill="#0F76BC"/>
<path d="M90.6568 58.1761C90.6568 58.2531 90.5942 58.3154 90.5171 58.3154C90.44 58.3154 90.3774 58.253 90.3774 58.1761C90.3774 58.0993 90.4401 58.0367 90.5171 58.0367C90.5942 58.0367 90.6568 58.0993 90.6568 58.1761Z" fill="#2591CE"/>
<path d="M91.2193 57.3662C91.2193 57.4183 91.177 57.4604 91.1248 57.4604C91.0726 57.4604 91.0303 57.4183 91.0303 57.3662C91.0303 57.3141 91.0726 57.272 91.1248 57.272C91.177 57.272 91.2193 57.3141 91.2193 57.3662Z" fill="#2591CE"/>
<path d="M89.9182 57.3294C89.9182 57.3612 89.8927 57.3868 89.8612 57.3868C89.8297 57.3868 89.8042 57.3612 89.8042 57.3294C89.8042 57.2976 89.8297 57.272 89.8612 57.272C89.8927 57.272 89.9182 57.2975 89.9182 57.3294Z" fill="#2591CE"/>
<path d="M86.4896 57.9147C86.3225 57.1068 85.6187 53.6244 85.7546 52.9187C85.9086 52.1191 89.0661 52.0522 89.5282 52.6615C89.9747 53.2504 88.1925 53.3695 88.0718 53.3769C88.235 53.3671 91.5783 53.1781 91.0983 53.8686C90.7439 54.3786 89.5653 54.3327 88.9343 54.2671C89.7125 54.3809 91.289 54.6706 90.7604 55.095C90.3073 55.4587 89.6239 55.4433 89.2049 55.3888C89.6279 55.4895 90.2244 55.7149 89.9133 56.1528C89.4512 56.8034 88.8351 56.1528 88.8351 56.1528C88.8351 56.1528 89.4512 56.9911 89.2202 57.5883C89.065 57.9896 89.0142 58.1208 88.9975 58.164C88.5096 58.3201 87.5026 58.5115 86.4896 57.9147Z" fill="#F7C3B2"/>
<path d="M141.88 54.4353L141.916 51.3284H142.053C142.41 51.3284 142.702 51.0371 142.702 50.6812C142.702 50.3251 142.41 50.0338 142.053 50.0338H139.803C139.446 50.0338 139.153 50.3251 139.153 50.6812C139.153 51.0371 139.446 51.3284 139.803 51.3284H140.106V54.4353C140.106 54.4353 136.6 60.9941 136.903 61.5983C137.206 62.2024 144.866 62.1592 144.996 61.5983C145.125 61.0374 141.88 54.4353 141.88 54.4353Z" fill="#CEDDE4"/>
<path d="M139.933 56.0347C139.933 56.0347 137.38 60.5627 137.769 61.0375C138.158 61.5122 144.217 61.5552 144.217 61.0375C144.217 60.5196 141.88 56.0347 141.88 56.0347H139.933Z" fill="#F06566"/>
<path d="M140.64 58.24C140.64 58.5062 140.423 58.7222 140.156 58.7222C139.889 58.7222 139.673 58.5062 139.673 58.24C139.673 57.9738 139.889 57.7578 140.156 57.7578C140.423 57.7578 140.64 57.9738 140.64 58.24Z" fill="#F79297"/>
<path d="M139.225 58.9305C139.225 59.0454 139.131 59.1387 139.016 59.1387C138.901 59.1387 138.807 59.0454 138.807 58.9305C138.807 58.8155 138.901 58.7222 139.016 58.7222C139.131 58.7222 139.225 58.8155 139.225 58.9305Z" fill="#F79297"/>
<path d="M139.976 60.1095C139.976 60.2645 139.85 60.39 139.694 60.39C139.539 60.39 139.413 60.2644 139.413 60.1095C139.413 59.9546 139.539 59.8291 139.694 59.8291C139.85 59.829 139.976 59.9546 139.976 60.1095Z" fill="#F79297"/>
<path d="M141.851 59.9368C141.851 60.1872 141.648 60.3899 141.397 60.3899C141.146 60.3899 140.942 60.1871 140.942 59.9368C140.942 59.6867 141.146 59.4838 141.397 59.4838C141.648 59.4837 141.851 59.6867 141.851 59.9368Z" fill="#F79297"/>
<path opacity="0.5" d="M143.305 59.7449C143.305 60.5959 142.613 61.2857 141.76 61.2857C140.906 61.2857 140.214 60.596 140.214 59.7449C140.214 58.8937 140.906 58.204 141.76 58.204C142.613 58.2039 143.305 58.8937 143.305 59.7449Z" fill="white"/>
<path d="M140.934 55.5364C140.934 55.6173 140.868 55.6828 140.787 55.6828C140.706 55.6828 140.64 55.6172 140.64 55.5364C140.64 55.4554 140.706 55.3899 140.787 55.3899C140.868 55.3899 140.934 55.4554 140.934 55.5364Z" fill="#F06566"/>
<path d="M141.686 55.0266C141.686 55.1734 141.567 55.2924 141.42 55.2924C141.273 55.2924 141.153 55.1734 141.153 55.0266C141.153 54.8799 141.273 54.761 141.42 54.761C141.567 54.761 141.686 54.8799 141.686 55.0266Z" fill="#F06566"/>
<path d="M140.934 54.3097C140.934 54.4499 140.82 54.5635 140.679 54.5635C140.539 54.5635 140.425 54.4499 140.425 54.3097C140.425 54.1696 140.539 54.056 140.679 54.056C140.82 54.0561 140.934 54.1696 140.934 54.3097Z" fill="#F06566"/>
<path d="M140.64 55.1684C140.64 55.2855 140.545 55.3807 140.427 55.3807C140.31 55.3807 140.214 55.2856 140.214 55.1684C140.214 55.0513 140.31 54.9562 140.427 54.9562C140.545 54.9562 140.64 55.0513 140.64 55.1684Z" fill="#F06566"/>
<path d="M141.154 53.3914C141.154 53.4496 141.106 53.4969 141.048 53.4969C140.99 53.4969 140.942 53.4496 140.942 53.3914C140.942 53.3332 140.99 53.2861 141.048 53.2861C141.106 53.2861 141.154 53.3333 141.154 53.3914Z" fill="#F06566"/>
<path d="M140.718 54.17C140.718 54.2148 140.681 54.2513 140.636 54.2513C140.591 54.2513 140.555 54.2148 140.555 54.17C140.555 54.125 140.591 54.0885 140.636 54.0885C140.681 54.0885 140.718 54.125 140.718 54.17Z" fill="#F79297"/>
<path d="M140.784 54.2847C140.784 54.3031 140.769 54.3181 140.751 54.3181C140.733 54.3181 140.718 54.3031 140.718 54.2847C140.718 54.2662 140.733 54.2512 140.751 54.2512C140.769 54.2512 140.784 54.2662 140.784 54.2847Z" fill="#F79297"/>
<path d="M141.462 55.0267C141.532 55.0267 141.588 54.9703 141.588 54.9007C141.588 54.8311 141.532 54.7747 141.462 54.7747C141.392 54.7747 141.335 54.8311 141.335 54.9007C141.335 54.9703 141.392 55.0267 141.462 55.0267Z" fill="#F79297"/>
<path d="M140.566 55.0977C140.566 55.1367 140.534 55.1685 140.495 55.1685C140.456 55.1685 140.425 55.1367 140.425 55.0977C140.425 55.0585 140.456 55.0267 140.495 55.0267C140.534 55.0267 140.566 55.0585 140.566 55.0977Z" fill="#F79297"/>
<path d="M143.105 56.9465C143.272 56.1386 143.976 52.6562 143.84 51.9505C143.686 51.1509 140.528 51.0841 140.066 51.6934C139.62 52.2823 141.402 52.4014 141.523 52.4087C141.36 52.3989 138.016 52.2099 138.496 52.9004C138.851 53.4104 140.029 53.3645 140.66 53.299C139.882 53.4126 138.306 53.7024 138.834 54.1269C139.287 54.4906 139.971 54.4751 140.39 54.4207C139.967 54.5213 139.37 54.7467 139.681 55.1847C140.143 55.8352 140.759 55.1847 140.759 55.1847C140.759 55.1847 140.143 56.023 140.374 56.6202C140.53 57.0214 140.58 57.1527 140.597 57.1958C141.085 57.352 142.092 57.5434 143.105 56.9465Z" fill="#F7C3B2"/>
</g>
<defs>
<clipPath id="clip0">
<rect width="146" height="88" fill="white" transform="translate(0 0.593262)"/>
</clipPath>
</defs>
</svg>
