<svg width="161" height="92" viewBox="0 0 161 92" fill="none" xmlns="http://www.w3.org/2000/svg">
<path d="M15.6875 62.1796C15.7345 62.5229 15.4943 62.8391 15.1507 62.8862C14.8072 62.9332 14.4905 62.6931 14.4434 62.3499L11.9541 44.1949C11.907 43.8517 12.1473 43.5354 12.4909 43.4883C12.8344 43.4413 13.1511 43.6813 13.1981 44.0246L15.6875 62.1796Z" fill="#1E0438"/>
<path d="M8.39107 33.7532C8.39107 33.7532 7.49422 36.4147 7.31485 38.6551C7.13548 40.8955 7.67359 48.8705 10.0951 49.4534C12.5166 50.0363 16.2836 47.4374 16.9561 46.0484C17.6287 44.6593 14.3103 35.3395 14.3103 35.3395L8.39107 33.7532Z" fill="#8121CC"/>
<path d="M9.72487 34.1115L8.39107 33.7542C8.39107 33.7542 7.49422 36.4156 7.31485 38.656C7.13548 40.8964 7.67359 48.8715 10.0951 49.4544C10.5954 49.5748 11.1533 49.5578 11.7293 49.4454C9.63743 46.9844 9.63698 37.7838 9.72487 34.1115Z" fill="#6918B7"/>
<path d="M30.2451 70.6395C30.2451 70.6395 29.5881 76.204 30.2003 77.8171C30.8125 79.4302 33.4077 81.7602 30.0922 82.4771C26.7767 83.194 23.8691 81.1329 23.8691 81.1329C23.8691 81.1329 23.7418 71.4749 23.8691 69.8515C23.9965 68.2282 30.2451 70.6395 30.2451 70.6395Z" fill="#F9C6BD"/>
<path d="M30.0917 82.4772C33.4072 81.7603 30.812 79.4303 30.1998 77.8172C29.854 76.9059 29.9132 74.7336 30.0301 73.0157C27.9723 73.0802 25.4741 72.7618 23.814 72.4985C23.7997 75.9082 23.8686 81.1331 23.8686 81.1331C23.8686 81.1331 26.7762 83.1942 30.0917 82.4772Z" fill="#F7AA23"/>
<path d="M38.8549 64.0079C38.8549 64.0079 38.198 69.5724 38.8102 71.1855C39.4224 72.7986 42.0176 75.1286 38.702 75.8455C35.3865 76.5625 32.4789 74.5013 32.4789 74.5013C32.4789 74.5013 32.3517 64.8433 32.4789 63.2199C32.6064 61.5966 38.8549 64.0079 38.8549 64.0079Z" fill="#F9C6BD"/>
<path d="M38.702 75.8456C42.0175 75.1287 39.4224 72.7987 38.8102 71.1856C38.4644 70.2743 38.5235 68.102 38.6405 66.3841C36.5827 66.4486 34.0845 66.1302 32.4243 65.8669C32.41 69.2766 32.4789 74.5015 32.4789 74.5015C32.4789 74.5015 35.3865 76.5626 38.702 75.8456Z" fill="#F7AA23"/>
<path d="M11.1708 12.3124C11.1708 12.3124 3.1961 11.9572 0.505539 20.1406C-2.18502 28.3239 6.54433 34.7164 10.6699 38.5399C14.7954 42.3636 12.8336 44.8338 11.8116 44.8234C10.7895 44.813 10.6699 43.0433 10.6699 43.0433C10.6699 43.0433 7.68029 47.8002 14.0779 47.6209C20.4755 47.4417 21.9303 41.027 21.99 39.0776C22.0496 37.1282 20.1859 27.1219 20.1859 27.1219L11.1708 12.3124Z" fill="#722B08"/>
<path d="M19.3149 32.1009C19.3149 32.1009 12.2619 51.4069 15.6812 54.2039C19.1004 57.001 30.2451 39.3649 30.2451 39.3649L25.2079 31.5818L19.3149 32.1009Z" fill="#377AA0"/>
<path d="M9.82168 83.9235C9.5815 85.0489 10.2997 86.1559 11.4261 86.396C12.5522 86.636 13.6599 85.9182 13.9001 84.7929L17.8183 66.4365C18.0586 65.3111 17.3403 64.2043 16.214 63.9642C15.0877 63.7242 13.9801 64.442 13.7398 65.5673L9.82168 83.9235Z" fill="#9B32ED"/>
<path d="M63.4815 88.7365C63.7217 89.862 63.0035 90.9689 61.8771 91.209C60.751 91.449 59.6433 90.7312 59.4031 89.6059L55.4848 71.2495C55.2445 70.1241 55.9628 69.0173 57.0891 68.7772C58.2154 68.5372 59.323 69.255 59.5633 70.3803L63.4815 88.7365Z" fill="#9B32ED"/>
<path d="M80.3037 61.3993C80.5439 62.5248 79.8257 63.6317 78.6993 63.8718C77.5731 64.1118 76.4655 63.394 76.2252 62.2687L72.3071 43.9124C72.0668 42.7869 72.7851 41.68 73.9114 41.4401C75.0376 41.2001 76.1452 41.9177 76.3856 43.0432L80.3037 61.3993Z" fill="#9B32ED"/>
<path d="M77.4087 36.4075C77.4087 36.4075 77.9892 45.9783 77.4087 47.6217C76.8282 49.2653 64.4704 75.5607 59.4263 76.044C54.3822 76.5275 14.7147 70.2029 13.5536 69.1116C12.3926 68.0201 12.8763 60.9629 12.8763 60.9629L56.3301 48.2018L77.4087 36.4075Z" fill="#8121CC"/>
<path d="M78.3254 29.7952C78.3254 29.7952 78.9522 35.4409 78.3254 36.6976C77.6986 37.9543 65.1211 66.3769 59.8966 68.6969C54.6721 71.0172 13.4564 62.8965 12.1019 61.7365C10.7475 60.5764 10.4572 58.3527 12.1019 56.9994C13.7468 55.646 54.5753 38.5344 54.5753 38.5344L78.3254 29.7952Z" fill="#DB5252"/>
<path d="M78.325 29.795C77.2929 26.3145 43.2352 22.1895 40.01 24.252C36.7848 26.3145 9.69346 55.3184 11.6286 58.4766C13.5636 61.6348 52.3946 67.3279 57.9419 65.6415C63.4892 63.9552 79.3571 33.2755 78.325 29.795Z" fill="#FC8383"/>
<path d="M49.833 29.0306C49.833 29.0306 52.7263 27.0031 53.0434 27.3723C53.3605 27.7415 53.9834 31.3971 53.9834 31.3971L50.1767 32.0151L49.833 29.0306Z" fill="#F9C6BD"/>
<path d="M25.652 34.193C25.7832 35.7697 24.667 37.1491 23.1589 37.2743C21.6507 37.3995 20.3219 36.2232 20.1907 34.6467C20.1888 34.6224 20.188 34.5984 20.1865 34.5742C22.1052 34.2635 24.8774 33.8562 25.5824 33.7532C25.6159 33.8956 25.6395 34.0423 25.652 34.193Z" fill="#F94646"/>
<path d="M24.1525 32.2212C24.1525 32.2212 25.2904 35.2415 23.7862 35.7639C22.282 36.2868 21.6212 33.0279 21.5844 32.4344C21.5473 31.8409 24.1525 32.2212 24.1525 32.2212Z" fill="#EAA29D"/>
<path d="M49.8332 29.0305C49.8332 29.0305 44.5119 30.5939 40.5069 31.2511C36.5019 31.9083 26.808 32.5827 26.808 32.5827L26.334 33.321L27.9537 35.8237C28.9331 35.8651 31.3015 35.8882 35.6629 35.518C41.7017 35.0054 50.3713 32.1009 50.3713 32.1009L49.8332 29.0305Z" fill="#F94646"/>
<path d="M30.3147 22.9187C30.4514 22.4199 32.0203 17.7348 30.0501 15.366C28.0799 12.9973 26.4921 13.0383 26.4921 13.0383C26.4921 13.0383 24.8634 9.85727 19.0503 9.9312C13.237 10.0051 5.62151 13.5563 4.29551 18.3855C2.9696 23.2147 4.17722 33.3599 16.0665 32.5423C27.9556 31.7246 30.3147 22.9187 30.3147 22.9187Z" fill="#9B4E1B"/>
<path d="M4.29533 18.3855C4.89891 16.187 6.80661 14.2534 9.25377 12.7922C8.757 15.662 7.99826 22.3688 12.0311 21.2002C17.1366 19.721 19.7532 17.278 19.7532 17.278C19.7532 17.278 18.2763 21.6253 17.6119 22.2711C16.9477 22.9167 18.0649 29.2421 17.9082 29.5441C17.8342 29.6868 16.8924 31.0918 15.9056 32.5512C4.1677 33.2655 2.97551 23.1926 4.29533 18.3855Z" fill="#914317"/>
<path d="M27.4446 14.6398C27.4446 14.6398 27.1605 19.9712 25.8739 20.3543C24.5874 20.7375 25.5214 16.1169 25.5214 16.1169C25.5214 16.1169 23.476 21.5881 22.8294 21.467C22.1827 21.346 22.4477 16.8776 22.4477 16.8776C22.4477 16.8776 20.2597 21.7273 19.6239 21.7374C18.9882 21.7476 19.7836 17.0986 19.7836 17.0986C19.7836 17.0986 18.9947 20.1862 15.671 21.2199C12.3471 22.2537 10.6261 23.4272 10.6261 23.4272C10.6261 23.4272 13.0616 23.739 14.1263 25.6039C15.1906 27.4692 14.4602 29.6197 14.4602 29.6197C14.4602 29.6197 12.6323 26.2279 10.9651 27.5021C9.29813 28.7763 9.52809 29.9036 10.5396 30.5864C11.5512 31.2693 13.3649 31.2096 13.3649 31.2096C13.3649 31.2096 16.5585 35.1692 21.9318 34.723C27.305 34.2769 28.1367 33.3445 30.4139 30.1117C32.6909 26.8787 31.9086 25.1264 30.295 22.1259C28.6816 19.1253 28.6948 18.1916 28.634 16.9139C28.5732 15.6364 27.4446 14.6398 27.4446 14.6398Z" fill="#F9C6BD"/>
<path d="M26.0483 13.1659C26.0483 13.1659 21.812 11.9732 17.477 13.4236C13.1421 14.8739 11.4971 18.0544 10.3379 19.9678C9.17859 21.8812 9.2132 22.9686 9.2132 22.9686C9.2132 22.9686 7.3586 16.3991 12.0777 13.0088C19.747 7.91991 26.0483 13.1659 26.0483 13.1659Z" fill="#F9D710"/>
<path d="M10.9642 27.5026C12.6314 26.2284 14.4594 29.6201 14.4594 29.6201C14.4594 29.6201 15.1897 27.4697 14.1254 25.6044C13.0607 23.7394 10.6252 23.4277 10.6252 23.4277C10.6252 23.4277 12.3462 22.2542 15.6701 21.2204C16.1894 21.059 16.6468 20.8472 17.049 20.605C15.3705 24.1479 14.0374 30.2531 21.3419 34.7549C16.3253 34.8808 13.3639 31.2102 13.3639 31.2102C13.3639 31.2102 11.5502 31.2699 10.5387 30.5869C9.5271 29.904 9.29715 28.7768 10.9642 27.5026Z" fill="#F2B2AA"/>
<path d="M13.0774 29.9453C13.0774 29.9453 12.0441 27.3631 11.3066 28.3349C10.5692 29.307 13.0774 29.9453 13.0774 29.9453Z" fill="#E5928C"/>
<path d="M17.4765 13.4235C13.1417 14.8738 11.4966 18.0543 10.3374 19.9676C9.17809 21.8811 9.21271 22.9685 9.21271 22.9685C9.21271 22.9685 8.27962 19.6606 9.42329 16.528C9.77728 17.2968 10.3342 17.7443 11.0566 16.5005C12.4154 14.1618 14.805 13.0092 18.6775 12.0093C22.5497 11.0095 26.0479 13.1657 26.0479 13.1657C26.0479 13.1657 21.8115 11.9731 17.4765 13.4235Z" fill="#E2BE0A"/>
<path d="M18.0088 16.5337C18.0088 16.5337 14.6239 19.5662 13.815 19.679C13.006 19.7915 14.1397 18.118 14.1397 18.118C14.1397 18.118 11.8618 19.4884 11.7511 19.0834C11.6403 18.6783 14.6134 16.16 14.9218 16.0434C15.2304 15.9268 13.327 18.1855 13.327 18.1855C13.327 18.1855 14.3626 17.5187 15.0749 17.3358C15.7871 17.1527 14.9289 18.4052 14.9289 18.4052L18.0088 16.5337Z" fill="#B25A29"/>
<path d="M20.333 22.6213C20.333 22.6213 18.6338 22.6405 17.6798 23.0832C16.726 23.5258 16.3457 24.4206 16.3457 24.4206C16.3457 24.4206 16.6567 22.4867 17.9011 22.2472C19.1457 22.0075 20.333 22.6213 20.333 22.6213Z" fill="#722B08"/>
<path d="M25.875 21.5275C25.875 21.5275 27.1338 20.8752 28.0326 20.895C28.9315 20.9151 29.6096 21.5655 29.6096 21.5655C29.6096 21.5655 28.5196 19.9585 27.4973 20.2347C26.4753 20.5105 25.875 21.5275 25.875 21.5275Z" fill="#722B08"/>
<path d="M28.2153 21.6546C28.2153 21.6546 28.5302 21.6493 28.7127 21.389C28.8954 21.1288 28.7398 20.8488 28.7398 20.8488C28.7398 20.8488 29.2334 21.5497 28.5893 21.7774C27.9455 22.0055 28.2153 21.6546 28.2153 21.6546Z" fill="#190303"/>
<path d="M28.6399 22.1109C28.6399 22.1109 28.9552 22.1056 29.1376 21.8454C29.3202 21.5852 29.1645 21.3049 29.1645 21.3049C29.1645 21.3049 29.6581 22.0059 29.0142 22.2338C28.3705 22.4617 28.6399 22.1109 28.6399 22.1109Z" fill="#190303"/>
<path d="M27.2579 23.7189C27.5715 24.615 28.3602 25.1546 29.0196 24.924C29.6788 24.6936 29.9589 23.7804 29.6452 22.8843C29.3315 21.9883 28.5427 21.4486 27.8835 21.6792C27.2245 21.9095 26.9443 22.8228 27.2579 23.7189Z" fill="#190303"/>
<path d="M27.4668 23.9049C27.7657 24.7583 28.4907 25.2816 29.0861 25.0734C29.6814 24.8653 29.9219 24.0047 29.6231 23.1511C29.3245 22.2977 28.5993 21.7743 28.0039 21.9824C27.4085 22.1906 27.168 23.0513 27.4668 23.9049Z" fill="white"/>
<path d="M29.5557 23.0601C29.7742 23.5666 29.6683 24.0991 29.3193 24.2495C28.97 24.4002 28.5096 24.1117 28.2911 23.6053C28.0725 23.0989 28.1781 22.5662 28.5273 22.4158C28.8767 22.2652 29.3369 22.5537 29.5557 23.0601Z" fill="#0C8E8E"/>
<path d="M29.4569 23.1231C29.6283 23.5203 29.543 23.939 29.2668 24.0581C28.9906 24.1772 28.6273 23.9519 28.4558 23.5548C28.2843 23.1576 28.3693 22.7389 28.6456 22.6199C28.9222 22.5007 29.2853 22.726 29.4569 23.1231Z" fill="#016865"/>
<path d="M29.3739 23.1467C29.5075 23.4555 29.4395 23.7819 29.2226 23.8754C29.0056 23.9688 28.7217 23.7944 28.5884 23.4854C28.455 23.1765 28.5227 22.8503 28.7396 22.7567C28.9566 22.6634 29.2404 22.8378 29.3739 23.1467Z" fill="#013835"/>
<path d="M28.6096 22.9466C28.6497 23.0663 28.6081 23.1883 28.5166 23.2188C28.4249 23.2496 28.3182 23.1773 28.278 23.0575C28.2378 22.9376 28.2796 22.8157 28.3711 22.7851C28.4626 22.7545 28.5695 22.8268 28.6096 22.9466Z" fill="white"/>
<path d="M28.6341 23.3889C28.65 23.4369 28.6295 23.4872 28.5884 23.5007C28.5471 23.5146 28.5005 23.487 28.4846 23.4389C28.4683 23.3909 28.4889 23.3409 28.5301 23.3273C28.5713 23.3135 28.6177 23.3412 28.6341 23.3889Z" fill="white"/>
<path d="M19.129 23.988C19.129 23.988 19.4789 23.9823 19.6818 23.6931C19.8847 23.404 19.7117 23.0929 19.7117 23.0929C19.7117 23.0929 20.2601 23.8717 19.5448 24.1247C18.8299 24.3777 19.129 23.988 19.129 23.988Z" fill="#190303"/>
<path d="M19.6008 24.4948C19.6008 24.4948 19.9507 24.489 20.1535 24.2C20.3563 23.911 20.1834 23.5999 20.1834 23.5999C20.1834 23.5999 20.7317 24.3785 20.0165 24.6315C19.3013 24.8846 19.6008 24.4948 19.6008 24.4948Z" fill="#190303"/>
<path d="M18.0661 26.2807C18.4144 27.2759 19.2905 27.8753 20.0228 27.6194C20.755 27.3634 21.066 26.3492 20.7178 25.3538C20.3692 24.3585 19.4933 23.7594 18.7611 24.0152C18.0287 24.2711 17.7178 25.2855 18.0661 26.2807Z" fill="#190303"/>
<path d="M18.2984 26.4872C18.6303 27.4349 19.4354 28.0163 20.0968 27.7848C20.7582 27.554 21.0253 26.5978 20.6935 25.6495C20.3613 24.7018 19.5562 24.1204 18.895 24.3518C18.2336 24.583 17.9665 25.539 18.2984 26.4872Z" fill="white"/>
<path d="M20.6181 25.5491C20.8608 26.1116 20.7432 26.7032 20.3555 26.8705C19.9676 27.0376 19.4561 26.7172 19.2134 26.1547C18.9705 25.5924 19.088 25.0007 19.4758 24.8335C19.8637 24.6663 20.3749 24.9867 20.6181 25.5491Z" fill="#0C8E8E"/>
<path d="M20.5079 25.6193C20.6982 26.0603 20.6037 26.5255 20.297 26.6576C19.9902 26.79 19.5867 26.5399 19.3962 26.0985C19.2058 25.6573 19.3003 25.1926 19.6073 25.0602C19.9141 24.9278 20.3175 25.178 20.5079 25.6193Z" fill="#016865"/>
<path d="M20.4159 25.6453C20.564 25.9886 20.4888 26.351 20.2478 26.4549C20.0068 26.5587 19.6915 26.365 19.5432 26.0218C19.395 25.6788 19.4704 25.3165 19.7114 25.2126C19.9523 25.1087 20.2677 25.3027 20.4159 25.6453Z" fill="#013835"/>
<path d="M19.5675 25.4228C19.612 25.5557 19.5657 25.6914 19.4642 25.7253C19.3624 25.7593 19.2437 25.6791 19.199 25.5459C19.1546 25.413 19.2008 25.2776 19.3025 25.2435C19.4042 25.2095 19.5227 25.2897 19.5675 25.4228Z" fill="white"/>
<path d="M19.5943 25.9145C19.6122 25.9679 19.5897 26.0233 19.5437 26.0387C19.498 26.054 19.4463 26.0232 19.4284 25.9699C19.4106 25.9169 19.4333 25.8612 19.4792 25.8456C19.5249 25.8306 19.5766 25.8612 19.5943 25.9145Z" fill="white"/>
<path d="M26.333 25.8018C26.333 25.8018 27.4263 25.8363 27.7281 26.1762C28.0299 26.5156 27.8136 27.3398 27.3222 27.3716C26.8308 27.4027 27.4564 26.7416 27.1211 26.4379C26.7857 26.1343 26.333 25.8018 26.333 25.8018Z" fill="#E5928C"/>
<path d="M28.0345 28.5748C28.0345 28.5748 26.4033 29.6725 24.7347 29.7673C23.0663 29.8616 21.9902 29.2866 21.9902 29.2866C21.9902 29.2866 24.746 33.3761 26.1109 32.4451C27.4759 31.5135 28.0345 28.5748 28.0345 28.5748Z" fill="#300D07"/>
<path d="M26.3985 30.1939C25.0545 30.7147 23.2231 30.7364 22.6729 29.5442C23.1524 29.6829 23.8624 29.8167 24.7348 29.7674C25.764 29.7091 26.7787 29.269 27.4053 28.9403C27.3742 29.3862 27.153 29.9016 26.3985 30.1939Z" fill="white"/>
<path d="M23.5376 31.214C23.8133 31.0271 24.1392 30.893 24.499 30.833C25.4508 30.6746 26.3486 31.082 26.7622 31.7866C26.5694 32.0505 26.3532 32.2797 26.1109 32.4453C25.4281 32.9108 24.3975 32.1204 23.5376 31.214Z" fill="#F98585"/>
<path opacity="0.4" d="M16.7707 29.525C16.8277 30.2104 17.5493 30.7102 18.3828 30.6409C19.2161 30.5717 19.8454 29.9598 19.7883 29.2743C19.7315 28.5889 19.0097 28.089 18.1762 28.1584C17.3429 28.2277 16.7137 28.8395 16.7707 29.525Z" fill="#F7908D"/>
<path opacity="0.4" d="M29.0181 26.3853C29.1576 26.9361 29.8136 27.2452 30.4831 27.0756C31.1524 26.9061 31.5819 26.3221 31.4422 25.7713C31.3025 25.2206 30.6467 24.9116 29.9772 25.0811C29.3079 25.2506 28.8783 25.8343 29.0181 26.3853Z" fill="#F7908D"/>
<path opacity="0.4" d="M30.2006 25.7243C30.217 25.9198 30.4438 26.0607 30.7074 26.0387C30.9708 26.017 31.1711 25.8405 31.155 25.645C31.1386 25.4494 30.9118 25.3087 30.6482 25.3306C30.3848 25.3524 30.1844 25.5287 30.2006 25.7243Z" fill="white"/>
<path opacity="0.4" d="M16.9572 29.2599C16.9822 29.5604 17.2856 29.7807 17.635 29.7516C17.9841 29.7226 18.2471 29.4553 18.222 29.1547C18.1969 28.854 17.8935 28.6338 17.5443 28.6627C17.1951 28.6917 16.9322 28.959 16.9572 29.2599Z" fill="white"/>
<path d="M30.7538 35.8191C31.5905 35.7927 32.6024 35.7442 33.809 35.6611L33.5583 32.0402C32.5637 32.1301 31.5911 32.2127 30.707 32.2848L30.7538 35.8191Z" fill="white"/>
<path d="M46.0087 30.0638C45.1758 30.2737 44.2686 30.4919 43.3525 30.6943L43.9535 33.9668C44.9321 33.7169 45.8561 33.464 46.6825 33.2283L46.0087 30.0638Z" fill="white"/>
<path d="M40.1649 34.8383L39.5306 31.3972C38.6566 31.5176 37.6298 31.6368 36.5444 31.7506L37.247 35.3394C38.1953 35.2091 39.1799 35.0366 40.1649 34.8383Z" fill="white"/>
<path d="M53.0423 26.076H51.9481L53.1883 34.6767L40.5879 34.3805L41.2456 35.7893H54.7582L53.0423 26.076Z" fill="#EAEAE4"/>
<path d="M54.3916 25.1303V24.5107H54.7928L55.194 34.0575C55.194 34.0575 56.2879 34.2762 55.668 35.3692C55.0481 36.4623 54.027 35.0778 54.027 35.0778L53.0425 27.8266L53.7611 26.5148L54.2094 25.859L54.3916 25.1303Z" fill="#CEC51D"/>
<path d="M55.8508 34.6768L54.7933 34.2031L54.3922 25.1301C54.3922 25.1301 53.991 25.8224 53.5899 25.8953C53.1888 25.9682 52.5689 25.1301 52.5689 25.1301L53.1888 34.6768L40.061 35.6241C40.061 35.6241 40.9727 36.7536 40.3163 38.029C39.6599 39.3043 44.9475 39.4136 45.2756 39.4136C45.6039 39.4136 53.1888 38.8307 53.1888 38.8307C53.1888 38.8307 55.2309 38.3206 55.4131 37.7739C55.5955 37.2274 56.218 36.0907 56.218 36.0907L55.8508 34.6768Z" fill="white"/>
<path d="M54.027 36.499C54.027 36.499 54.9021 37.0456 55.4856 36.499C56.0691 35.9524 55.8503 34.6771 55.8503 34.6771C55.8503 34.6771 56.3973 35.3694 56.1784 37.4099C55.9597 39.4504 55.4278 49.908 55.1286 50.1632C54.8292 50.4182 54.3552 50.7462 53.7717 50.7462C53.1883 50.7462 52.9695 50.1632 52.9695 50.1632L51.292 43.7501C51.292 43.7501 51.9119 40.1792 52.0213 39.5961C52.1307 39.0132 54.027 36.499 54.027 36.499Z" fill="#F7AA23"/>
<path d="M52.9697 50.1629L54.0272 36.4988L39.4043 37.6648L39.8054 53.1873L52.9697 50.1629Z" fill="#F4EE34"/>
<path d="M19.3117 37.95C20.5198 36.8746 22.9862 41.9379 27.7843 42.61C32.5825 43.2821 36.7977 41.5346 36.7977 41.5346L38.1124 44.94C38.1124 44.94 33.1234 47.6733 25.4987 45.8362C17.8741 43.999 18.1037 39.0254 19.3117 37.95Z" fill="#F94646"/>
<path d="M31.1598 46.4661C32.0668 46.4464 32.8984 46.3686 33.6466 46.2572L33.2574 42.4843C32.5083 42.6122 31.6709 42.7121 30.7764 42.7487L31.1598 46.4661Z" fill="white"/>
<path d="M25.9736 42.1261L25.2065 45.7627C25.3027 45.7875 25.3993 45.8123 25.4981 45.836C26.2427 46.0154 26.9616 46.1507 27.6537 46.2497L28.4059 42.6839C28.1998 42.6633 27.9924 42.6391 27.7837 42.6098C27.139 42.5196 26.5368 42.3494 25.9736 42.1261Z" fill="white"/>
<path d="M19.9023 42.8528C20.3817 43.4119 21.0239 43.9548 21.8645 44.4442L23.8677 40.9668C23.1257 40.4454 22.4772 39.8758 21.9116 39.365L19.9023 42.8528Z" fill="white"/>
<path d="M36.7974 41.5345C36.7974 41.5345 36.7926 38.8044 38.1478 38.2353C39.503 37.666 43.3894 37.3974 43.4491 37.8005C43.5089 38.2037 39.6605 38.6817 39.6605 38.6817C39.6605 38.6817 44.2263 38.2037 44.2862 39.0999C44.346 39.996 40.0405 39.571 40.0405 39.571C40.0405 39.571 44.047 40.0558 43.6882 40.7727C43.3295 41.4897 40.4717 40.8325 40.4717 40.8325C40.4717 40.8325 42.6121 42.1042 42.3729 42.484C42.1337 42.8637 40.5422 42.1261 40.5422 42.1261C40.5422 42.1261 39.142 44.9509 37.738 44.4749C36.3339 43.999 36.7974 41.5345 36.7974 41.5345Z" fill="#F9C6BD"/>
<path d="M154.748 57.889C154.701 58.2323 154.941 58.5486 155.285 58.5957C155.628 58.6427 155.945 58.4026 155.992 58.0594L158.481 39.9044C158.528 39.5612 158.288 39.2448 157.945 39.1978C157.601 39.1507 157.285 39.3908 157.238 39.734L154.748 57.889Z" fill="#1E0438"/>
<path d="M152.254 24.7096C152.254 24.7096 159.888 23.1753 160.659 26.1002C161.43 29.0251 160.914 41.3022 158.904 41.7671C156.895 42.232 153.359 39.8561 153.359 39.8561L145.358 32.2081L146.453 22.7356L152.254 24.7096Z" fill="#8121CC"/>
<path d="M140.19 66.3489C140.19 66.3489 140.847 71.9134 140.235 73.5265C139.623 75.1395 137.028 77.4695 140.343 78.1865C143.659 78.9034 146.566 76.8422 146.566 76.8422C146.566 76.8422 146.693 67.1843 146.566 65.5609C146.439 63.9376 140.19 66.3489 140.19 66.3489Z" fill="#F9C6BD"/>
<path d="M140.343 78.1865C137.028 77.4696 139.623 75.1396 140.235 73.5265C140.581 72.6152 140.522 70.4428 140.405 68.7249C142.463 68.7895 144.961 68.4711 146.621 68.2078C146.635 71.6175 146.566 76.8423 146.566 76.8423C146.566 76.8423 143.659 78.9034 140.343 78.1865Z" fill="#3B69C4"/>
<path d="M131.581 59.7173C131.581 59.7173 132.238 65.2818 131.626 66.8949C131.013 68.508 128.418 70.838 131.734 71.5549C135.049 72.2718 137.957 70.2107 137.957 70.2107C137.957 70.2107 138.084 60.5527 137.957 58.9293C137.829 57.306 131.581 59.7173 131.581 59.7173Z" fill="#3B69C4"/>
<path d="M131.734 71.5548C128.418 70.8378 131.013 68.5078 131.626 66.8948C131.971 65.9834 131.912 63.8111 131.795 62.0932C133.853 62.1577 136.351 61.8393 138.012 61.576C138.026 64.9858 137.957 70.2106 137.957 70.2106C137.957 70.2106 135.049 72.2717 131.734 71.5548Z" fill="#3B69C4"/>
<path d="M150.42 27.631C150.42 27.631 158.684 46.451 155.449 49.4591C152.214 52.4672 139.973 35.5729 139.973 35.5729L144.506 27.4863L150.42 27.631Z" fill="#F4EE34"/>
<path d="M160.613 79.6328C160.853 80.7583 160.135 81.8651 159.009 82.1053C157.883 82.3453 156.775 81.6274 156.535 80.5021L152.617 62.1457C152.376 61.0203 153.095 59.9136 154.221 59.6735C155.347 59.4334 156.455 60.1512 156.695 61.2765L160.613 79.6328Z" fill="#9B32ED"/>
<path d="M106.953 84.4455C106.712 85.571 107.431 86.6778 108.557 86.918C109.683 87.158 110.791 86.4402 111.031 85.3149L114.949 66.9584C115.189 65.8331 114.471 64.7263 113.345 64.4862C112.219 64.2461 111.111 64.964 110.871 66.0893L106.953 84.4455Z" fill="#9B32ED"/>
<path d="M90.1312 57.1083C89.8911 58.2338 90.6093 59.3407 91.7356 59.5808C92.8618 59.8208 93.9695 59.103 94.2097 57.9777L98.128 39.6214C98.3681 38.4959 97.6499 37.389 96.5236 37.149C95.3974 36.909 94.2897 37.6267 94.0493 38.7522L90.1312 57.1083Z" fill="#9B32ED"/>
<path d="M93.0261 32.1167C93.0261 32.1167 92.4455 41.6875 93.0261 43.3309C93.6066 44.9745 105.964 71.2699 111.009 71.7533C116.053 72.2367 155.72 65.9121 156.881 64.8208C158.042 63.7294 157.559 56.6721 157.559 56.6721L114.105 43.9111L93.0261 32.1167Z" fill="#8121CC"/>
<path d="M92.1087 25.5042C92.1087 25.5042 91.4818 31.1499 92.1087 32.4066C92.7354 33.6633 105.313 62.0858 110.537 64.4059C115.762 66.7261 156.978 58.6055 158.332 57.4454C159.687 56.2854 159.977 54.0617 158.332 52.7084C156.687 51.355 115.859 34.2434 115.859 34.2434L92.1087 25.5042Z" fill="#DB5252"/>
<path d="M92.1086 25.5042C93.1407 22.0237 127.198 17.8988 130.424 19.9612C133.649 22.0237 160.74 51.0276 158.805 54.1859C156.87 57.344 118.039 63.0372 112.492 61.3507C106.944 59.6644 91.0765 28.9846 92.1086 25.5042Z" fill="#FC8383"/>
<path d="M117.393 21.7852H118.487L117.247 30.3858L129.848 30.0897L129.19 31.4984H115.677L117.393 21.7852Z" fill="#EAEAE4"/>
<path d="M116.044 20.8391V20.2196H115.643L115.242 29.7664C115.242 29.7664 114.148 29.985 114.768 31.0781C115.388 32.1712 116.409 30.7866 116.409 30.7866L117.393 23.5355L116.675 22.2237L116.226 21.5679L116.044 20.8391Z" fill="#CEC51D"/>
<path d="M114.586 30.3859L115.643 29.9122L116.044 20.8392C116.044 20.8392 116.445 21.5316 116.846 21.6044C117.248 21.6773 117.867 20.8392 117.867 20.8392L117.248 30.3859L130.375 31.3332C130.375 31.3332 129.464 32.4627 130.12 33.7381C130.777 35.0134 125.489 35.1227 125.161 35.1227C124.832 35.1227 117.248 34.5398 117.248 34.5398C117.248 34.5398 115.205 34.0297 115.023 33.483C114.841 32.9365 114.218 31.7998 114.218 31.7998L114.586 30.3859Z" fill="white"/>
<path d="M116.408 32.2079C116.408 32.2079 115.533 32.7544 114.95 32.2079C114.366 31.6612 114.585 30.386 114.585 30.386C114.585 30.386 114.038 31.0783 114.257 33.1187C114.476 35.1593 115.007 45.6169 115.307 45.8719C115.606 46.127 116.08 46.455 116.664 46.455C117.247 46.455 117.466 45.8719 117.466 45.8719L119.143 39.4589C119.143 39.4589 118.523 35.888 118.414 35.305C118.304 34.722 116.408 32.2079 116.408 32.2079Z" fill="#F7AA23"/>
<path d="M117.466 45.8718L116.408 32.2076L131.031 33.3736L130.63 48.8962L117.466 45.8718Z" fill="#F4EE34"/>
<path d="M151.123 33.6593C149.915 32.5839 147.449 37.6472 142.651 38.3193C137.853 38.9915 133.637 37.244 133.637 37.244L132.323 40.6493C132.323 40.6493 137.312 43.3826 144.936 41.5455C152.561 39.7084 152.331 34.7347 151.123 33.6593Z" fill="#7A0505"/>
<path d="M133.637 37.2439C133.637 37.2439 133.642 34.5138 132.287 33.9446C130.932 33.3754 127.045 33.1067 126.986 33.5099C126.926 33.9131 130.774 34.3911 130.774 34.3911C130.774 34.3911 126.208 33.9131 126.149 34.8092C126.089 35.7054 130.394 35.2803 130.394 35.2803C130.394 35.2803 126.388 35.7651 126.747 36.4821C127.105 37.199 129.963 36.5418 129.963 36.5418C129.963 36.5418 127.823 37.8136 128.062 38.1934C128.301 38.5732 129.893 37.8354 129.893 37.8354C129.893 37.8354 131.293 40.6602 132.697 40.1843C134.101 39.7083 133.637 37.2439 133.637 37.2439Z" fill="#F9C6BD"/>
<path d="M156.112 41.3063C157.073 41.6895 158.108 41.9514 158.904 41.7672C160.914 41.3022 161.43 29.0251 160.659 26.1004C160.383 25.0524 159.226 24.5769 157.854 24.3982C157.868 28.0289 157.736 37.2491 156.112 41.3063Z" fill="#6918B7"/>
<path d="M144.033 28.6825L140.892 33.7238L147.753 42.9094L145.78 43.8504C145.78 43.8504 137.361 34.3594 137.467 33.0558C137.573 31.7523 140.993 27.8276 142.041 27.5272C143.089 27.2267 144.033 28.6825 144.033 28.6825Z" fill="#7A0505"/>
<path d="M155.451 20.7952C155.451 20.7952 159.865 15.2531 160.428 12.4161C160.99 9.57926 158.338 7.29648 158.338 7.29648C158.338 7.29648 161.356 3.36916 159.689 2.54738C158.022 1.72561 156.856 5.41885 156.856 5.41885C156.856 5.41885 157.026 0.0223687 155.531 0.000681681C154.036 -0.0208261 154.784 4.82873 154.784 4.82873C154.784 4.82873 146.115 -2.57156 136.776 4.25304C127.436 11.0775 137.234 18.4975 137.234 18.4975L155.451 20.7952Z" fill="#FAA215"/>
<path d="M160.428 12.4155C160.99 9.57865 158.338 7.29587 158.338 7.29587C158.338 7.29587 161.356 3.36855 159.689 2.54677C158.022 1.72499 156.856 5.41824 156.856 5.41824C156.856 5.41824 157.026 0.0217583 155.531 7.13293e-05C154.036 -0.0214364 154.784 4.82812 154.784 4.82812C154.784 4.82812 150.459 1.13595 144.627 1.37298C146.349 2.69992 149.407 4.95125 150.883 5.39906C153.004 6.04241 143.887 12.2101 138.47 12.4942C133.052 12.7783 145.974 19.2581 145.974 19.2581C145.974 19.2581 146.135 19.408 146.404 19.6536L155.45 20.7945C155.45 20.7946 159.865 15.2525 160.428 12.4155Z" fill="#F99116"/>
<path d="M150.505 27.8983C150.91 29.5585 149.858 31.2416 148.153 31.6576C146.449 32.0741 144.738 31.0659 144.332 29.4057C143.926 27.7458 144.978 26.0625 146.683 25.6464C148.388 25.2302 150.099 26.2385 150.505 27.8983Z" fill="#F9930D"/>
<path d="M149.119 28.1263C149.383 29.2087 148.766 30.2897 147.739 30.5404C146.712 30.7912 145.665 30.1168 145.4 29.034C145.135 27.9515 145.753 26.8708 146.78 26.62C147.807 26.3692 148.854 27.0434 149.119 28.1263Z" fill="#F4B9A6"/>
<path d="M136.91 8.81116C136.91 8.81116 136.832 13.7049 144.438 12.8446C152.045 11.9844 155.717 9.09345 155.717 9.09345C155.717 9.09345 152.477 11.7126 152.033 14.2031C151.589 16.6935 153.514 18.2177 153.514 18.2177C153.514 18.2177 156.42 14.4612 158.646 15.8564C160.872 17.2517 159.654 20.4295 158.122 21.1915C156.589 21.9533 156.134 21.6769 156.134 21.6769C156.134 21.6769 152.769 28.0931 144.733 28.7816C136.696 29.4698 131.873 23.8014 133.284 20.7312C134.695 17.6611 135.271 17.5206 135.363 14.9499C135.455 12.3793 135.868 10.8936 136.093 10.2292C136.319 9.56491 136.91 8.81116 136.91 8.81116Z" fill="#F9CFC0"/>
<path d="M158.646 15.8562C156.42 14.461 153.514 18.2175 153.514 18.2175C153.514 18.2175 151.589 16.6933 152.033 14.2029C152.477 11.7125 155.717 9.09326 155.717 9.09326C155.717 9.09326 153.94 10.4915 150.299 11.6325C150.123 12.866 149.749 16.6604 151.381 19.0151C152.761 21.0069 152.846 23.939 151.651 26.3816C154.754 24.3081 156.134 21.6767 156.134 21.6767C156.134 21.6767 156.59 21.9531 158.122 21.1913C159.654 20.4294 160.872 17.2516 158.646 15.8562Z" fill="#F4B9A6"/>
<path d="M156.196 19.8893C156.196 19.8893 156.074 16.2171 157.441 16.8202C158.808 17.4235 156.196 19.8893 156.196 19.8893Z" fill="#E89D89"/>
<path d="M137.968 17.6658C137.63 18.5613 136.822 19.086 136.163 18.8378C135.504 18.5898 135.244 17.6629 135.582 16.7673C135.92 15.8722 136.727 15.3474 137.386 15.5954C138.045 15.8436 138.305 16.7704 137.968 17.6658Z" fill="#190303"/>
<path d="M137.751 17.8485C137.43 18.7013 136.687 19.2111 136.092 18.987C135.497 18.7629 135.275 17.89 135.597 17.0372C135.919 16.1842 136.662 15.6742 137.257 15.8984C137.852 16.1225 138.073 16.9954 137.751 17.8485Z" fill="white"/>
<path d="M135.5 17.4433C135.33 17.9622 135.481 18.4781 135.839 18.5954C136.197 18.713 136.626 18.3878 136.796 17.8689C136.967 17.35 136.815 16.8341 136.457 16.7166C136.1 16.5993 135.671 16.9244 135.5 17.4433Z" fill="#0C8E8E"/>
<path d="M135.604 17.4967C135.47 17.9035 135.592 18.3089 135.875 18.4018C136.158 18.495 136.496 18.2403 136.63 17.8337C136.764 17.4267 136.643 17.0214 136.36 16.9284C136.076 16.8353 135.738 17.0898 135.604 17.4967Z" fill="#016865"/>
<path d="M135.687 17.5129C135.584 17.8294 135.679 18.1452 135.902 18.2181C136.124 18.2911 136.388 18.0938 136.492 17.7774C136.596 17.4609 136.501 17.1451 136.279 17.0722C136.056 16.9992 135.792 17.1966 135.687 17.5129Z" fill="#013835"/>
<path d="M135.761 17.0238C135.724 17.1354 135.762 17.2484 135.847 17.2764C135.931 17.3041 136.03 17.2364 136.067 17.1249C136.103 17.0133 136.065 16.9003 135.98 16.8724C135.896 16.8448 135.798 16.9123 135.761 17.0238Z" fill="white"/>
<path d="M135.612 17.4838C135.595 17.5367 135.614 17.5905 135.656 17.6041C135.697 17.6177 135.744 17.5863 135.762 17.5336C135.779 17.4809 135.76 17.427 135.719 17.4134C135.677 17.3999 135.63 17.4315 135.612 17.4838Z" fill="white"/>
<path d="M146.572 19.5183C146.176 20.5668 145.231 21.1813 144.459 20.8906C143.688 20.6003 143.383 19.515 143.779 18.4665C144.174 17.4182 145.12 16.8038 145.891 17.0942C146.663 17.3847 146.967 18.4698 146.572 19.5183Z" fill="#190303"/>
<path d="M146.32 19.7319C145.944 20.7307 145.073 21.3274 144.377 21.0651C143.68 20.8027 143.421 19.7802 143.797 18.7818C144.174 17.7831 145.044 17.1862 145.741 17.4485C146.437 17.7109 146.697 18.7332 146.32 19.7319Z" fill="white"/>
<path d="M143.759 19.1499C143.579 19.7638 143.777 20.3614 144.2 20.4854C144.623 20.6088 145.112 20.2116 145.292 19.5979C145.471 18.984 145.274 18.3862 144.851 18.2626C144.427 18.1388 143.938 18.536 143.759 19.1499Z" fill="#0C8E8E"/>
<path d="M143.882 19.2083C143.741 19.6896 143.898 20.1592 144.233 20.2572C144.568 20.3551 144.954 20.0442 145.095 19.563C145.236 19.0815 145.079 18.6118 144.743 18.514C144.408 18.4161 144.023 18.7269 143.882 19.2083Z" fill="#016865"/>
<path d="M143.98 19.2237C143.871 19.5983 143.995 19.9641 144.258 20.0409C144.521 20.1176 144.823 19.8766 144.932 19.5022C145.042 19.1278 144.918 18.7619 144.655 18.6851C144.392 18.6083 144.09 18.8498 143.98 19.2237Z" fill="#013835"/>
<path d="M144.047 18.6486C144.008 18.7806 144.057 18.9115 144.157 18.9409C144.257 18.9702 144.37 18.887 144.409 18.7554C144.448 18.6232 144.398 18.4926 144.298 18.4632C144.198 18.4338 144.086 18.517 144.047 18.6486Z" fill="white"/>
<path d="M143.89 19.1932C143.872 19.2556 143.897 19.3177 143.946 19.3322C143.994 19.3465 144.049 19.3076 144.067 19.2453C144.086 19.183 144.061 19.1208 144.012 19.1065C143.963 19.0922 143.909 19.1309 143.89 19.1932Z" fill="white"/>
<path d="M145.042 15.4481C145.042 15.4481 145.836 15.1206 147.016 15.5874C148.196 16.0541 148.756 17.1463 148.756 17.1463C148.756 17.1463 148.574 15.4961 147.331 14.9518C146.089 14.4074 145.042 15.4481 145.042 15.4481Z" fill="#8E4413"/>
<path d="M139.058 14.8968C139.058 14.8968 138.571 14.3882 137.516 14.378C136.461 14.3681 135.659 15.0446 135.659 15.0446C135.659 15.0446 136.369 13.811 137.498 13.7804C138.626 13.7496 139.058 14.8968 139.058 14.8968Z" fill="#8E4413"/>
<path d="M137.83 19.2024C137.83 19.2024 135.743 19.679 135.838 20.2916C135.932 20.9042 136.438 22.0644 136.96 21.8212C137.483 21.5779 136.097 20.562 136.609 20.103C137.121 19.6446 137.83 19.2024 137.83 19.2024Z" fill="#E89D89"/>
<path d="M136.845 22.9561C136.845 22.9561 137.554 23.2078 139.102 23.3436C140.65 23.4796 141.762 22.8882 141.762 22.8882C141.762 22.8882 141.481 26.5132 139.892 26.7564C138.302 26.9993 136.845 22.9561 136.845 22.9561Z" fill="#300D07"/>
<path d="M141.374 23.0519C140.92 23.2155 140.102 23.4315 139.102 23.3437C138.379 23.2801 137.839 23.1912 137.468 23.1147C137.573 23.5404 137.87 23.9978 138.625 24.1798C139.981 24.5068 141.334 24.2545 141.374 23.0519Z" fill="white"/>
<path d="M141.4 24.8061C141.039 24.6933 140.631 24.675 140.22 24.7752C139.434 24.9671 138.856 25.5405 138.686 26.2067C139.062 26.5863 139.472 26.8205 139.891 26.7566C140.665 26.6383 141.128 25.7188 141.4 24.8061Z" fill="#FC7070"/>
<path d="M144.953 3.3009C144.953 3.3009 138.714 4.90278 138.65 6.17371C138.586 7.44482 142.523 7.44079 142.523 7.44079C142.523 7.44079 139.325 8.36267 139.393 9.20927C139.46 10.0557 144.133 9.30695 145.103 8.91327C146.073 8.51941 141.611 8.58895 141.611 8.58895C141.611 8.58895 144.088 8.09445 143.995 7.08125C143.903 6.06806 140.128 5.65609 140.128 5.65609L144.953 3.3009Z" fill="#F7B04B"/>
<path d="M148.724 42.2563C148.724 42.2563 151.457 42.2601 152.022 43.6161C152.587 44.972 152.844 48.8563 152.44 48.9146C152.036 48.973 151.57 45.1262 151.57 45.1262C151.57 45.1262 152.034 49.6901 151.137 49.7469C150.24 49.8039 150.679 45.5032 150.679 45.5032C150.679 45.5032 150.181 49.5049 149.465 49.1442C148.749 48.7835 149.415 45.9301 149.415 45.9301C149.415 45.9301 148.136 48.0647 147.757 47.8245C147.377 47.5843 148.121 45.9964 148.121 45.9964C148.121 45.9964 145.298 44.5883 145.779 43.1869C146.26 41.7855 148.724 42.2563 148.724 42.2563Z" fill="#F9C6BD"/>
</svg>
