<svg width="120" height="106" viewBox="0 0 120 106" fill="none" xmlns="http://www.w3.org/2000/svg">
<path d="M69.8404 61.0064C69.8404 69.7847 62.7384 76.9012 53.978 76.9012H34.4437C25.6833 76.9012 18.5815 69.7847 18.5815 61.0064C18.5815 52.228 25.6832 45.1116 34.4437 45.1116H53.978C62.7385 45.1114 69.8404 52.2279 69.8404 61.0064Z" fill="#BC7D17"/>
<path d="M119.811 58.2923C119.811 67.0706 112.71 74.1871 103.949 74.1871H84.4147C75.6543 74.1871 68.5522 67.0706 68.5522 58.2923C68.5522 49.5139 75.6543 42.3975 84.4147 42.3975H103.949C112.71 42.3975 119.811 49.5139 119.811 58.2923Z" fill="#BC7D17"/>
<path d="M26.1953 52.5217C26.1953 52.5217 31.2886 47.2753 32.0723 47.481C32.8562 47.6868 48.7837 46.809 50.128 47.113C51.4719 47.4172 54.5295 49.5805 55.826 52.5217C57.1222 55.4626 59.5857 66.637 59.5857 66.637C59.5857 66.637 34.8784 63.0612 34.6259 62.4653C34.3733 61.8693 26.1953 52.5217 26.1953 52.5217Z" fill="#F94646"/>
<path d="M103.045 51.8649C103.045 51.8649 115.235 62.0042 112.113 69.3007C108.991 76.5974 99.9208 70.0418 99.9208 70.0418L96.3423 54.2337L98.5695 50.9708L103.045 51.8649Z" fill="#EFAAA0"/>
<path d="M97.4906 37.5695C97.4906 37.5695 104.802 48.9845 107.279 52.5217C109.757 56.0587 105.605 56.0069 99.4879 57.2962C93.3701 58.5856 91.5859 46.5036 91.5859 46.5036L97.4906 37.5695Z" fill="#F9D710"/>
<path d="M81.7349 38.5693C81.7349 38.5693 72.4479 50.6466 72.7396 53.7251C73.0314 56.8036 81.7349 55.6114 81.7349 55.6114L85.5564 39.4175L81.7349 38.5693Z" fill="#F9D710"/>
<path d="M84.4435 39.7198C84.4435 39.7198 78.7414 49.0233 77.1936 58.4424C75.646 67.8613 100.244 62.5211 100.244 62.5211C100.244 62.5211 100.165 43.0844 96.5604 38.7696C92.9554 34.4549 84.4435 39.7198 84.4435 39.7198Z" fill="#F41E1E"/>
<path d="M24.9917 71.5577L31.5384 48.5328C31.5384 48.5328 37.761 47.1079 38.6299 47.0145C39.4989 46.9215 48.6987 48.7585 48.6987 48.7585L51.4364 59.8311C51.4364 59.8311 50.0967 70.6366 48.6472 71.0342C47.1974 71.432 24.9917 71.5577 24.9917 71.5577Z" fill="#FC8383"/>
<path d="M46.932 48.0842C46.6076 50.8285 44.2225 52.8 41.6052 52.4893C38.9874 52.1782 37.1289 49.7021 37.4539 46.958C37.4589 46.9157 37.4659 46.8745 37.4718 46.8329C40.8542 46.9692 45.7276 47.2381 46.9663 47.3071C46.9741 47.5627 46.9632 47.8224 46.932 48.0842Z" fill="#F94646"/>
<path d="M45.0598 44.187C45.0598 44.187 45.9509 49.7527 43.2021 50.123C40.4529 50.4936 40.4591 44.686 40.6028 43.6572C40.7461 42.6289 45.0598 44.187 45.0598 44.187Z" fill="#EAA29D"/>
<path d="M30.0832 67.0938C34.1723 64.0481 33.5513 57.8286 33.346 56.3927C33.1306 55.0618 31.1359 47.4532 31.3057 46.9673C31.4811 46.4654 34.5585 46.4245 35.002 46.5932C35.3776 46.7366 36.3731 54.0368 36.6688 56.2675L48.4671 56.8835C48.2292 55.4771 46.2634 47.9692 46.4318 47.487C46.6069 46.985 49.6843 46.944 50.128 47.113C50.5208 47.2624 51.5913 55.237 51.8308 57.0588L52.4825 57.0931C52.4825 57.0931 54.4855 62.21 56.0663 69.4264C57.6468 76.6427 59.2441 91.0637 57.3733 92.1775C55.5025 93.291 21.0195 89.3095 21.0195 89.3095L22.2782 70.3487C22.2782 70.3487 25.4424 70.5505 30.0832 67.0938Z" fill="#377AA0"/>
<path d="M22.2784 70.3485C22.2784 70.3485 25.4424 70.5502 30.0832 67.0937C34.1724 64.048 33.5513 57.8285 33.3461 56.3926C33.1306 55.0616 31.1359 47.453 31.3057 46.9672C31.3764 46.7652 31.9171 46.6382 32.5669 46.5688C33.6655 50.7103 36.3699 62.0373 34.6087 67.2542C32.4311 73.7041 35.5365 79.8194 35.7408 80.2835C35.9451 80.7478 27.6455 87.9466 27.4759 88.3917C27.3831 88.6349 24.0915 88.5768 21.0796 88.4105L22.2784 70.3485Z" fill="#2D708E"/>
<path d="M51.0627 66.6251C50.9829 71.1877 47.6329 74.8291 43.5802 74.7578C39.5275 74.687 36.3065 70.9302 36.3862 66.368C36.3907 66.0905 36.4083 65.8165 36.4371 65.5466L51.0405 65.8024C51.0595 66.0735 51.0674 66.3474 51.0627 66.6251Z" fill="#539CBC"/>
<path d="M15.1004 13.6858C15.1004 13.6858 15.1034 10.9962 12.0575 9.21198C9.01215 7.42758 2.19856 12.1966 3.27067 16.4014C4.34248 20.6063 4.08074 22.6919 2.84114 22.8183C1.60124 22.9448 0.00307676 20.3505 0.00307676 20.3505C0.00307676 20.3505 -0.315694 25.8261 5.53611 25.9475C11.3875 26.0689 13.6718 20.9898 13.8005 18.1432C13.9292 15.2969 15.1004 13.6858 15.1004 13.6858Z" fill="#84380D"/>
<path d="M8.86208 16.1341C7.07027 19.0309 8.93276 21.8702 6.59003 23.6508C4.49553 25.2431 2.28122 25.0261 0.000976562 20.5478C0.0110325 21.5287 0.351353 25.8399 5.53675 25.9474C11.3881 26.0689 13.6724 20.9898 13.8011 18.1432C13.8583 16.8758 14.1223 15.8542 14.3976 15.1097L14.2752 15.0127C14.2753 15.0127 10.6536 13.2373 8.86208 16.1341Z" fill="#722B08"/>
<path d="M54.4318 10.7192C54.4318 10.7192 54.3603 8.03061 57.3593 6.16905C60.3584 4.30749 67.2913 8.90036 66.3269 13.1313C65.3625 17.3625 65.6774 19.4404 66.9201 19.5351C68.1624 19.6298 69.6942 16.9952 69.6942 16.9952C69.6942 16.9952 70.1523 22.4609 64.3057 22.7321C58.4593 23.0031 56.0463 17.9843 55.8449 15.1419C55.6438 12.2997 54.4318 10.7192 54.4318 10.7192Z" fill="#84380D"/>
<path d="M60.7313 13.0075C62.5959 15.8575 60.8064 18.7436 63.1943 20.4636C65.3285 22.0017 67.5365 21.7281 69.702 17.1931C69.7166 18.1738 69.4865 22.4922 64.3056 22.7324C58.4592 23.0035 56.0462 17.9847 55.8448 15.1422C55.7553 13.8768 55.4654 12.8622 55.1714 12.125L55.2912 12.025C55.2912 12.0251 58.8661 10.1574 60.7313 13.0075Z" fill="#722B08"/>
<path d="M20.7407 15.4261C20.7657 17.3658 19.1628 18.9592 17.1611 18.9846C15.1594 19.0104 13.5164 17.4583 13.492 15.5188C13.467 13.579 15.0699 11.9857 17.0716 11.96C19.0736 11.9344 20.7161 13.4863 20.7407 15.4261Z" fill="#E2BE0A"/>
<path d="M57.0478 12.545C57.0725 14.4845 55.4696 16.0779 53.4679 16.1035C51.4662 16.1292 49.8235 14.5774 49.7991 12.6377C49.7741 10.6978 51.3767 9.10455 53.3784 9.07893C55.3803 9.0533 57.0231 10.6052 57.0478 12.545Z" fill="#E2BE0A"/>
<path d="M57.6617 29.1336C57.9481 28.3153 61.115 20.6623 58.1065 16.4683C55.0976 12.2744 52.4444 12.1565 52.4444 12.1565C52.4444 12.1565 50.101 6.64375 40.395 6.08465C30.6889 5.52555 17.5686 10.5716 14.7907 18.4943C12.0121 26.4169 12.8364 43.5295 32.765 43.5584C52.6932 43.5874 57.6617 29.1336 57.6617 29.1336Z" fill="#9B4E1B"/>
<path d="M14.7906 18.4945C16.0552 14.8877 19.4641 11.8772 23.7178 9.72021C22.5526 14.4624 20.5002 25.5926 27.3645 24.1118C36.0545 22.237 40.7059 18.4577 40.7059 18.4577C40.7059 18.4577 37.7324 25.5564 36.5484 26.5586C35.3649 27.5608 36.4863 38.2733 36.1892 38.7601C36.0492 38.99 34.3132 41.2296 32.496 43.5549C12.832 43.3713 12.0249 26.3808 14.7906 18.4945Z" fill="#914317"/>
<path d="M53.8433 14.9479C53.8433 14.9479 52.744 23.8332 50.553 24.3229C48.3617 24.8126 50.4621 17.1929 50.4621 17.1929C50.4621 17.1929 46.408 26.105 45.344 25.8265C44.2793 25.5481 45.2456 18.1043 45.2456 18.1043C45.2456 18.1043 41.0266 25.96 39.9649 25.9025C38.9034 25.8449 40.7758 18.1616 40.7758 18.1616C40.7758 18.1616 39.0973 23.2336 33.4317 24.5725C27.7658 25.9114 24.7573 27.6722 24.7573 27.6722C24.7573 27.6722 28.7836 28.4797 30.3405 31.7247C31.8972 34.9699 30.4264 38.4814 30.4264 38.4814C30.4264 38.4814 27.775 32.5931 24.8448 34.5287C21.9145 36.4642 22.1657 38.377 23.7733 39.6383C25.3805 40.8996 28.4129 41.0129 28.4129 41.0129C28.4129 41.0129 33.2757 48.0115 42.2914 47.8962C51.3066 47.7809 52.8032 46.3189 56.9813 41.1783C61.1588 36.0377 60.0595 33.0148 57.7198 27.8059C55.3804 22.5967 55.5123 21.0365 55.5605 18.892C55.6089 16.7477 53.8433 14.9479 53.8433 14.9479Z" fill="#F9C6BD"/>
<path d="M51.6887 12.3182C51.6887 12.3182 44.7618 9.82554 37.3608 11.7424C29.9595 13.6592 26.8421 18.7864 24.684 21.8511C22.5259 24.9158 22.4559 26.7391 22.4559 26.7391C22.4559 26.7391 20.1327 15.5317 28.4025 10.4146C41.7927 2.80208 51.6887 12.3182 51.6887 12.3182Z" fill="#F9D710"/>
<path d="M24.8449 34.5288C27.7751 32.5932 30.4265 38.4815 30.4265 38.4815C30.4265 38.4815 31.8973 34.97 30.3406 31.7248C28.7837 28.4799 24.7574 27.6723 24.7574 27.6723C24.7574 27.6723 27.7657 25.9115 33.4318 24.5726C34.317 24.3635 35.1049 24.0631 35.8044 23.7052C32.5887 29.435 29.649 39.4908 41.3057 47.8797C32.9227 47.5009 28.4132 41.0132 28.4132 41.0132C28.4132 41.0132 25.3807 40.8999 23.7735 39.6386C22.1656 38.3773 21.9145 36.4645 24.8449 34.5288Z" fill="#F2B2AA"/>
<path d="M28.0824 38.8637C28.0824 38.8637 26.6617 34.4229 25.3176 35.962C23.9732 37.5013 28.0824 38.8637 28.0824 38.8637Z" fill="#E5928C"/>
<path d="M37.3606 11.7424C29.9594 13.6592 26.842 18.7864 24.6839 21.8511C22.5258 24.9158 22.4558 26.7391 22.4558 26.7391C22.4558 26.7391 21.2872 21.096 23.5627 15.9901C24.0629 17.3179 24.9395 18.1316 26.2901 16.136C28.8314 12.3833 32.9527 10.7359 39.5294 9.51793C46.1061 8.30011 51.6886 12.3183 51.6886 12.3183C51.6886 12.3183 44.7616 9.82541 37.3606 11.7424Z" fill="#E2BE0A"/>
<path d="M37.8824 17.0076C37.8824 17.0076 31.8803 21.6828 30.5175 21.7762C29.1548 21.8696 31.2425 19.2032 31.2425 19.2032C31.2425 19.2032 27.2816 21.2279 27.1447 20.5377C27.0073 19.847 32.2625 15.9834 32.7905 15.8247C33.3189 15.6661 29.8786 19.2207 29.8786 19.2207C29.8786 19.2207 31.6844 18.227 32.8943 18.0046C34.1038 17.7819 32.5254 19.7763 32.5254 19.7763L37.8824 17.0076Z" fill="#B25A29"/>
<path d="M41.045 27.464C41.045 27.464 38.2084 27.2966 36.565 27.9251C34.9219 28.5536 34.1826 30.0056 34.1826 30.0056C34.1826 30.0056 34.9283 26.807 37.0322 26.5525C39.1363 26.2977 41.045 27.464 41.045 27.464Z" fill="#722B08"/>
<path d="M50.4194 26.2856C50.4194 26.2856 52.5954 25.3421 54.0924 25.481C55.5896 25.6202 56.6446 26.7878 56.6446 26.7878C56.6446 26.7878 55.0147 23.9717 53.2772 24.3134C51.5398 24.655 50.4194 26.2856 50.4194 26.2856Z" fill="#722B08"/>
<path d="M54.3073 26.7726C54.3073 26.7726 54.8336 26.8007 55.1683 26.3868C55.5036 25.9728 55.2769 25.486 55.2769 25.486C55.2769 25.486 56.0182 26.7166 54.9172 27.0222C53.8166 27.3279 54.3073 26.7726 54.3073 26.7726Z" fill="#190303"/>
<path d="M54.9621 27.5856C54.9621 27.5856 55.4884 27.6138 55.8234 27.2001C56.1584 26.7862 55.9314 26.2991 55.9314 26.2991C55.9314 26.2991 56.6727 27.5298 55.572 27.8353C54.4713 28.1408 54.9621 27.5856 54.9621 27.5856Z" fill="#190303"/>
<path d="M52.468 30.1131C52.8861 31.6489 54.1386 32.6443 55.2654 32.336C56.392 32.0279 56.9666 30.5334 56.5486 28.9973C56.1303 27.4617 54.8777 26.4664 53.7509 26.7746C52.6243 27.0827 52.05 28.5773 52.468 30.1131Z" fill="#190303"/>
<path d="M52.7947 30.4488C53.1933 31.9117 54.3413 32.8721 55.3592 32.5938C56.3766 32.3156 56.8785 30.9042 56.4805 29.4412C56.0824 27.9784 54.9339 27.0177 53.9165 27.2961C52.8988 27.5745 52.3966 28.9857 52.7947 30.4488Z" fill="white"/>
<path d="M56.1963 30.6525C56.387 31.5575 56.0372 32.3979 55.4148 32.5296C54.7927 32.6613 54.1334 32.0347 53.9429 31.1297C53.7518 30.2248 54.1012 29.3841 54.7241 29.2527C55.3461 29.121 56.0052 29.7476 56.1963 30.6525Z" fill="#0C8E8E"/>
<path d="M56.0131 30.7232C56.1627 31.4331 55.8843 32.0928 55.3923 32.1971C54.9001 32.3014 54.3791 31.8107 54.2295 31.101C54.0797 30.3912 54.3578 29.7313 54.8501 29.6273C55.3428 29.5229 55.8633 30.0136 56.0131 30.7232Z" fill="#016865"/>
<path d="M55.8693 30.7348C55.9859 31.2867 55.7666 31.8006 55.3804 31.8825C54.9935 31.9641 54.5861 31.5834 54.4699 31.0315C54.3531 30.4794 54.5723 29.9657 54.9589 29.8839C55.3452 29.8019 55.7528 30.183 55.8693 30.7348Z" fill="#013835"/>
<path d="M54.6828 30.1522C54.7086 30.3624 54.6 30.5491 54.44 30.569C54.2795 30.589 54.1282 30.4347 54.1021 30.2245C54.0757 30.0143 54.1848 29.8276 54.3447 29.8078C54.5051 29.7878 54.6566 29.9421 54.6828 30.1522Z" fill="white"/>
<path d="M54.5766 30.8879C54.5866 30.972 54.5368 31.0476 54.4647 31.0566C54.3925 31.0657 54.3252 31.0047 54.3148 30.9206C54.3045 30.8364 54.3543 30.7609 54.4267 30.752C54.4989 30.7428 54.5658 30.8037 54.5766 30.8879Z" fill="white"/>
<path d="M38.8764 29.609C38.8764 29.609 39.4607 29.6405 39.8331 29.1805C40.2055 28.721 39.9535 28.1802 39.9535 28.1802C39.9535 28.1802 40.7766 29.5471 39.554 29.8864C38.3316 30.226 38.8764 29.609 38.8764 29.609Z" fill="#190303"/>
<path d="M39.6037 30.5119C39.6037 30.5119 40.1878 30.5434 40.5601 30.0835C40.9325 29.624 40.6805 29.083 40.6805 29.083C40.6805 29.083 41.5037 30.4501 40.281 30.7893C39.0582 31.1285 39.6037 30.5119 39.6037 30.5119Z" fill="#190303"/>
<path d="M36.8343 33.3191C37.2986 35.025 38.6898 36.1303 39.9411 35.788C41.1925 35.446 41.8305 33.7857 41.3662 32.0799C40.9016 30.3739 39.5108 29.2687 38.2591 29.6108C37.0077 29.953 36.3699 31.6132 36.8343 33.3191Z" fill="#190303"/>
<path d="M37.1972 33.6921C37.6396 35.3167 38.9146 36.3837 40.045 36.0745C41.1754 35.766 41.7329 34.1977 41.2908 32.5728C40.8477 30.948 39.5731 29.8813 38.4426 30.1904C37.3128 30.4993 36.7547 32.0672 37.1972 33.6921Z" fill="white"/>
<path d="M41.0402 33.8515C41.3163 34.841 40.9886 35.7974 40.3084 35.9883C39.6283 36.1787 38.8524 35.5312 38.5766 34.5421C38.3002 33.5529 38.6279 32.5961 39.3078 32.4055C39.9886 32.2149 40.7638 32.8622 41.0402 33.8515Z" fill="#0C8E8E"/>
<path d="M40.8422 33.9431C41.0586 34.719 40.7977 35.4704 40.2594 35.621C39.721 35.772 39.1088 35.2655 38.8921 34.4897C38.6755 33.7136 38.9365 32.9626 39.4747 32.8116C40.0134 32.6608 40.6256 33.167 40.8422 33.9431Z" fill="#016865"/>
<path d="M40.6841 33.966C40.8524 34.5695 40.6464 35.1546 40.2239 35.2731C39.8012 35.3916 39.3219 34.9987 39.1536 34.3953C38.9849 33.7918 39.1912 33.2067 39.6137 33.0882C40.0365 32.9697 40.5154 33.363 40.6841 33.966Z" fill="#013835"/>
<path d="M39.3271 33.4056C39.3712 33.6367 39.264 33.8514 39.0881 33.8851C38.9118 33.9187 38.7331 33.7589 38.6891 33.5277C38.645 33.2967 38.7522 33.082 38.9284 33.0483C39.1046 33.0145 39.2831 33.1744 39.3271 33.4056Z" fill="white"/>
<path d="M39.2618 34.2283C39.2792 34.3209 39.2292 34.4086 39.1496 34.4234C39.0702 34.4384 38.9916 34.3759 38.9737 34.2835C38.9563 34.1909 39.0066 34.1037 39.0859 34.0883C39.1653 34.0733 39.2439 34.1359 39.2618 34.2283Z" fill="white"/>
<path d="M50.6812 33.489C50.6812 33.489 52.5007 33.6754 52.9645 34.2792C53.4281 34.8826 52.9707 36.2362 52.1471 36.2311C51.3237 36.2257 52.4448 35.1932 51.921 34.6459C51.3976 34.0988 50.6812 33.489 50.6812 33.489Z" fill="#E5928C"/>
<path opacity="0.4" d="M34.2936 38.5946C34.3083 39.7479 35.4532 40.6687 36.8517 40.6507C38.2499 40.6325 39.3715 39.683 39.3565 38.5298C39.3421 37.3762 38.1966 36.4555 36.7987 36.4737C35.4002 36.4915 34.2788 37.4411 34.2936 38.5946Z" fill="#F7908D"/>
<path opacity="0.4" d="M55.0921 34.7808C55.2604 35.7185 56.3182 36.3126 57.4548 36.1074C58.5914 35.9027 59.3762 34.9764 59.2078 34.0386C59.0394 33.101 57.9817 32.507 56.8451 32.7118C55.7084 32.9169 54.9237 33.843 55.0921 34.7808Z" fill="#F7908D"/>
<path opacity="0.4" d="M57.1426 33.814C57.1468 34.1429 57.5085 34.4051 57.951 34.3995C58.3926 34.3937 58.7478 34.1225 58.7437 33.7936C58.7395 33.4645 58.3778 33.2024 57.9353 33.208C57.4933 33.2139 57.1384 33.4851 57.1426 33.814Z" fill="white"/>
<path opacity="0.4" d="M34.6368 38.173C34.6432 38.6789 35.1236 39.0827 35.7095 39.0753C36.2956 39.0678 36.7656 38.6517 36.7589 38.1457C36.7524 37.64 36.2723 37.2358 35.6862 37.2433C35.1002 37.2506 34.6303 37.6669 34.6368 38.173Z" fill="white"/>
<path d="M51.6233 40.9449C50.7175 41.9098 49.1525 41.841 48.2653 40.8856C48.109 40.7173 47.8588 40.9695 48.0145 41.1371C49.0293 42.2299 50.8408 42.2975 51.8741 41.1964C52.0309 41.0296 51.7804 40.7775 51.6233 40.9449Z" fill="#722B08"/>
<path d="M96.421 41.539C97.1025 44.4007 95.0365 47.3465 91.8069 48.1189C88.5772 48.8915 85.4063 47.1981 84.7248 44.3364C84.043 41.4745 86.1087 38.5287 89.3386 37.7563C92.5685 36.9838 95.7392 38.6773 96.421 41.539Z" fill="#F7971D"/>
<path d="M93.6891 41.2749C94.1268 43.1123 92.9382 44.9708 91.0343 45.4261C89.1306 45.8814 87.2327 44.7611 86.7947 42.9238C86.3573 41.0864 87.5456 39.2278 89.4495 38.7724C91.3532 38.3171 93.2516 39.4376 93.6891 41.2749Z" fill="#EFAAA0"/>
<path d="M111.978 27.6672C111.978 27.6672 114.785 25.2158 115.932 22.6593C117.08 20.1027 116.035 17.3536 116.035 17.3536C116.035 17.3536 118.173 18.9562 119.233 17.124C120.293 15.2919 116.144 15.3547 116.144 15.3547C116.144 15.3547 120.32 12.6778 118.009 10.6223C115.699 8.56717 114.347 12.9981 114.347 12.9981C114.347 12.9981 110.576 0.990799 97.2157 0.0785878C83.8551 -0.833623 77.468 6.4966 77.468 6.4966C77.468 6.4966 73.1702 0.743925 71.1922 1.99946C69.2136 3.25499 74.7788 9.68264 74.7788 9.68264C74.7788 9.68264 64.863 8.20744 65.2302 9.74958C65.5975 11.2919 74.1206 12.3827 74.1206 12.3827C74.1206 12.3827 66.0776 15.2194 66.6651 17.6867C67.253 20.154 74.5336 16.8479 74.5336 16.8479C74.5336 16.8479 71.1018 24.8404 75.175 27.1913C79.2487 29.5421 111.978 27.6672 111.978 27.6672Z" fill="#3F5D89"/>
<path d="M118.009 10.6223C115.698 8.56708 114.346 12.998 114.346 12.998C114.346 12.998 110.809 1.73378 98.4469 0.196533C103.009 3.80925 112.936 13.1415 102.294 18.9446C95.2412 22.7903 94.4775 26.0143 95.5409 28.3015C104.068 28.1201 111.977 27.6669 111.977 27.6669C111.977 27.6669 114.784 25.2156 115.932 22.6591C117.079 20.1025 116.034 17.3534 116.034 17.3534C116.034 17.3534 118.173 18.956 119.233 17.1238C120.293 15.2917 116.144 15.3545 116.144 15.3545C116.144 15.3545 120.32 12.6776 118.009 10.6223Z" fill="#35557C"/>
<path d="M77.1972 14.646C77.1972 14.646 80.6076 21.589 81.9214 22.1877C83.2354 22.7861 81.9304 17.0348 81.9304 17.0348C81.9304 17.0348 85.9607 20.5695 89.256 21.0202C92.5513 21.4708 92.9905 20.5834 92.9905 20.5834L89.8306 16.6037C89.8306 16.6037 92.4938 18.2246 99.017 18.2946C105.54 18.3644 108.155 17.8695 108.155 17.8695C108.155 17.8695 107.723 20.9719 108.648 23.489C109.573 26.0062 110.317 26.9475 110.317 26.9475C110.317 26.9475 113.324 24.0004 115.137 26.6962C116.95 29.3921 114.558 31.9157 113.069 32.7631C111.579 33.6107 109.315 32.8482 109.315 32.8482C109.315 32.8482 104.218 41.2223 91.284 41.5531C78.3497 41.8839 71.4277 32.7624 71.9114 29.3313C72.3954 25.9003 75.0065 24.2977 75.199 22.1003C75.3915 19.9026 76.1112 17.1879 76.3979 16.2066C76.6844 15.2251 77.1972 14.646 77.1972 14.646Z" fill="#F4BDB3"/>
<path d="M115.136 26.696C113.323 24.0002 110.316 26.9473 110.316 26.9473C110.316 26.9473 109.572 26.006 108.647 23.4888C107.722 20.9718 108.154 17.8693 108.154 17.8693C108.154 17.8693 106.955 18.0957 104.16 18.2205C105.483 21.6586 108.467 31.9869 100.422 39.7199C106.688 37.1622 109.315 32.848 109.315 32.848C109.315 32.848 111.578 33.6105 113.068 32.7629C114.558 31.9155 116.95 29.3919 115.136 26.696Z" fill="#EFAAA0"/>
<path d="M110.623 30.6879C110.623 30.6879 113.07 26.2126 113.977 27.5604C114.883 28.9081 110.623 30.6879 110.623 30.6879Z" fill="#E8948B"/>
<path d="M103.624 8.60113C103.436 11.7476 98.8709 14.0335 93.4279 13.7066C87.9852 13.3798 83.7255 10.5645 83.9137 7.41772C84.1018 4.27126 88.6664 1.98534 94.1094 2.31225C99.5525 2.63901 103.812 5.45453 103.624 8.60113Z" fill="#4D7099"/>
<path d="M100.239 8.09932C100.088 10.62 96.4311 12.4515 92.0707 12.1897C87.7103 11.9278 84.2973 9.67212 84.4482 7.15112C84.5986 4.63027 88.2559 2.79908 92.6163 3.06079C96.9768 3.32263 100.39 5.57847 100.239 8.09932Z" fill="#5B80A5"/>
<path d="M98.0668 7.74907C97.9431 9.81835 94.9409 11.3218 91.3613 11.1068C87.7819 10.8918 84.9804 9.04016 85.104 6.97088C85.2274 4.9016 88.23 3.39819 91.8096 3.6131C95.3889 3.82788 98.1905 5.67965 98.0668 7.74907Z" fill="#688EAD"/>
<path d="M96.5601 21.8022C96.5601 21.8022 98.8438 22.3808 99.2339 23.6074C99.6245 24.8343 99.709 22.3204 98.4068 21.3604C97.1047 20.4007 96.5601 21.8022 96.5601 21.8022Z" fill="#2B4C6D"/>
<path d="M80.7692 18.4085C80.7692 18.4085 78.5628 17.5822 77.5448 18.3686C76.5272 19.1547 77.8852 17.0395 79.5013 16.9923C81.1169 16.9454 80.7692 18.4085 80.7692 18.4085Z" fill="#2B4C6D"/>
<path d="M93.006 27.3487C92.5615 29.1315 93.1721 30.8196 94.3704 31.1196C95.5682 31.4197 96.9001 30.2177 97.3448 28.4352C97.7893 26.6522 97.1785 24.9643 95.9804 24.6643C94.7823 24.3644 93.4507 25.5663 93.006 27.3487Z" fill="white"/>
<path d="M93.6072 28.6682C93.3108 29.8565 93.659 30.9675 94.3855 31.1493C95.1117 31.3311 95.9404 30.5154 96.2368 29.3269C96.5333 28.1385 96.1846 27.0276 95.4587 26.8457C94.7326 26.6638 93.9037 27.4799 93.6072 28.6682Z" fill="#497FBA"/>
<path d="M93.8629 28.7609C93.6427 29.6433 93.9003 30.4686 94.4384 30.603C94.9762 30.7378 95.5906 30.1313 95.8107 29.2488C96.0312 28.3653 95.7736 27.5408 95.2355 27.4059C94.6975 27.2713 94.0831 27.8775 93.8629 28.7609Z" fill="#265987"/>
<path d="M94.0295 28.8435C93.869 29.4865 94.0724 30.0912 94.4843 30.1946C94.8953 30.2976 95.3592 29.8597 95.5193 29.2167C95.6798 28.5736 95.4764 27.9684 95.0651 27.8656C94.6535 27.7621 94.1898 28.2001 94.0295 28.8435Z" fill="#143E5E"/>
<path d="M94.5998 27.4881C94.538 27.7342 94.6015 27.9622 94.7408 27.9972C94.88 28.0319 95.0427 27.8606 95.1041 27.6146C95.1653 27.3683 95.1021 27.1406 94.963 27.1056C94.8238 27.0706 94.661 27.2422 94.5998 27.4881Z" fill="white"/>
<path d="M93.9193 28.3582C93.8887 28.4794 93.9334 28.595 94.0179 28.6162C94.1026 28.6374 94.196 28.5566 94.2263 28.4348C94.256 28.3139 94.2125 28.1982 94.1275 28.1771C94.0421 28.1561 93.9493 28.237 93.9193 28.3582Z" fill="white"/>
<path d="M77.3547 23.2972C76.9653 24.8588 77.5004 26.3377 78.5499 26.6004C79.5993 26.8633 80.7659 25.8104 81.1557 24.2487C81.5451 22.6872 81.0097 21.2079 79.9605 20.9452C78.9108 20.6825 77.7442 21.7352 77.3547 23.2972Z" fill="white"/>
<path d="M77.8451 24.3304C77.5853 25.3714 77.8905 26.3444 78.5266 26.5036C79.1628 26.6629 79.8888 25.9484 80.1484 24.9072C80.4083 23.8661 80.1031 22.8929 79.4669 22.7337C78.8311 22.5742 78.1047 23.289 77.8451 24.3304Z" fill="#497FBA"/>
<path d="M78.07 24.4107C77.877 25.1842 78.1026 25.9068 78.5737 26.0247C79.045 26.143 79.5835 25.6114 79.7765 24.8381C79.9693 24.0647 79.7436 23.3419 79.2723 23.2241C78.8012 23.1063 78.2631 23.6373 78.07 24.4107Z" fill="#265987"/>
<path d="M78.2155 24.4835C78.0749 25.0467 78.2535 25.5768 78.6136 25.6672C78.9742 25.7573 79.3802 25.3739 79.5209 24.8104C79.661 24.2472 79.4827 23.7169 79.1226 23.627C78.7621 23.5366 78.3562 23.9201 78.2155 24.4835Z" fill="#143E5E"/>
<path d="M78.462 23.2446C78.4082 23.4604 78.4635 23.6602 78.5854 23.6904C78.7075 23.7211 78.85 23.5709 78.9036 23.3553C78.9575 23.1392 78.9022 22.9397 78.7805 22.9093C78.6581 22.8788 78.5162 23.029 78.462 23.2446Z" fill="white"/>
<path d="M78.1325 23.9411C78.1058 24.0474 78.1443 24.1484 78.2187 24.1671C78.2931 24.1858 78.3747 24.1149 78.401 24.0082C78.4277 23.9021 78.3892 23.8009 78.3148 23.7825C78.2402 23.7639 78.1586 23.8349 78.1325 23.9411Z" fill="white"/>
<path d="M84.6068 25.2003C84.6068 25.2003 82.411 26.3123 82.7901 27.3951C83.1692 28.4781 84.2435 29.1014 84.7179 28.5967C85.1919 28.0921 83.6841 28.1234 83.6958 27.177C83.7076 26.2304 84.6068 25.2003 84.6068 25.2003Z" fill="#EF998F"/>
<path d="M80.8974 30.4707C80.8974 30.4707 82.002 32.8659 85.5887 33.3461C89.1756 33.8266 90.2275 33.1164 90.2275 33.1164C90.2275 33.1164 88.0397 37.6924 84.269 37.4088C80.4982 37.1252 80.8974 30.4707 80.8974 30.4707Z" fill="#3A1313"/>
<path d="M81.7371 31.575C82.4436 32.2717 83.6552 33.0874 85.589 33.346C86.9296 33.5258 87.916 33.5392 88.6257 33.4852C86.7935 35.5439 83.644 34.7092 82.4918 33.6666C81.8676 33.1015 81.7166 32.2908 81.7371 31.575Z" fill="white"/>
<path d="M81.8354 35.7068C82.2173 35.5137 82.6348 35.3583 83.0815 35.2515C84.9019 34.8162 86.6564 35.3098 87.5505 36.3768C86.6568 37.0367 85.5553 37.5051 84.2694 37.4086C83.1052 37.3214 82.3393 36.6257 81.8354 35.7068Z" fill="#F96E6E"/>
<path d="M15.2554 58.7486C15.2554 58.7486 22.7782 51.1731 30.8526 50.2324C38.9271 49.2915 59.2878 62.8393 59.2878 62.8393C59.2878 62.8393 75.0058 50.6087 83.7249 48.9153C92.4441 47.2217 97.5141 50.7968 97.5141 50.7968C97.5141 50.7968 103.637 57.6226 103.392 59.9486C103.148 62.2747 71.7886 75.2581 70.8498 75.2581C69.9107 75.2581 29.3504 68.484 29.3504 68.484L15.2554 58.7486Z" fill="#FBECA1"/>
<path d="M12.3853 60.8886C12.3853 60.8886 13.6802 59.6869 15.6514 58.5052C17.6231 57.3234 33.114 55.1643 42.6901 58.7486C52.2665 62.3328 55.1186 66.7075 55.1186 66.7075C55.1186 66.7075 56.5616 65.7902 58.3924 65.649C60.2231 65.5079 64.0765 66.7075 64.0765 66.7075C64.0765 66.7075 70.0108 59.087 82.6146 57.1116C95.2186 55.1359 104.232 58.5052 104.232 58.5052L106.19 60.6647L94.0214 65.9314C94.0214 65.9314 67.4053 73.481 67.1236 73.481C66.8419 73.481 41.071 73.9044 40.8594 73.9044C40.6481 73.9044 20.1579 68.6125 20.1579 68.6125L12.3853 60.8886Z" fill="#0C8E8E"/>
<path d="M12.3848 60.8884C12.3848 60.8884 22.3851 57.7834 33.9346 59.0536C45.4842 60.3239 55.1182 69.0744 55.1182 69.0744L57.3154 83.0468L56.752 105.064C56.752 105.064 48.3013 101.536 38.8642 98.9953C29.4274 96.4549 22.8077 96.8831 22.8077 96.8831L12.3848 60.8884Z" fill="#1BA6B2"/>
<path d="M106.19 60.6648C106.19 60.6648 96.1896 57.5313 84.6401 58.8133C73.0906 60.0951 63.4565 68.9255 63.4565 68.9255L61.2593 83.0257L61.8227 105.244C61.8227 105.244 70.2734 101.684 79.7104 99.1201C89.1473 96.5563 95.7669 96.9886 95.7669 96.9886L106.19 60.6648Z" fill="#1BA6B2"/>
<path d="M56.7522 105.064L54.4985 68.3686C54.4985 68.3686 55.7508 67.2642 59.2874 67.2396C62.8241 67.2148 64.0763 68.5098 64.0763 68.5098L62.6678 105.064C62.6678 105.064 62.527 105.347 60.2733 105.629C58.0198 105.911 56.7522 105.064 56.7522 105.064Z" fill="#62E5DB"/>
<path d="M63.6968 78.3696C62.4948 78.7193 61.1716 78.9352 59.7771 78.9826C58.1091 79.0391 56.526 78.8484 55.1187 78.4633L55.4848 84.4216C56.8978 84.8111 58.4893 85.0038 60.1666 84.9468C61.3226 84.9075 62.4306 84.7527 63.4606 84.5016L63.6968 78.3696Z" fill="#0C8E8E"/>
<path d="M63.1073 93.6627C62.0538 93.9261 60.918 94.0892 59.73 94.1296C58.4433 94.1732 57.2075 94.0692 56.0635 93.8428L56.4297 99.8029C57.5801 100.033 58.8241 100.138 60.1199 100.094C61.0761 100.061 61.9989 99.9496 62.8723 99.7698L63.1073 93.6627Z" fill="#0C8E8E"/>
<path d="M107.368 72.5313C109.084 70.9871 109.203 65.8858 108.372 63.2695C107.543 60.6531 98.6062 60.1318 98.2144 61.5804C97.8224 63.0288 101.971 64.7015 101.971 64.7015C101.971 64.7015 93.1229 63.5069 94.7615 65.8216C96.3997 68.1365 100.406 67.8988 100.406 67.8988C100.406 67.8988 94.7406 69.0102 95.5109 70.2956C96.2814 71.5812 99.6007 70.8682 99.6007 70.8682C99.6007 70.8682 96.9928 72.0561 98.4152 73.1252C99.8377 74.1943 100.905 72.4125 100.905 72.4125C100.905 72.4125 101.023 73.2143 102.446 73.4668C103.868 73.719 105.652 74.0754 107.368 72.5313Z" fill="#F4BDB3"/>
<path d="M12.0907 72.5313C10.375 70.9871 10.2562 65.8858 11.0862 63.2695C11.9158 60.6531 20.8525 60.1318 21.2443 61.5804C21.6361 63.0288 17.4874 64.7015 17.4874 64.7015C17.4874 64.7015 26.3357 63.5069 24.6972 65.8216C23.0589 68.1365 19.0528 67.8988 19.0528 67.8988C19.0528 67.8988 24.718 69.0102 23.9477 70.2956C23.1773 71.5812 19.858 70.8682 19.858 70.8682C19.858 70.8682 22.4659 72.0561 21.0434 73.1252C19.6209 74.1943 18.5542 72.4125 18.5542 72.4125C18.5542 72.4125 18.4355 73.2143 17.0132 73.4668C15.5907 73.719 13.8065 74.0754 12.0907 72.5313Z" fill="#F4BDB3"/>
</svg>
