<svg width="148" height="99" viewBox="0 0 148 99" fill="none" xmlns="http://www.w3.org/2000/svg">
<path d="M41.6841 70.7012C42.863 72.995 45.6795 73.8995 47.9747 72.7214C50.27 71.5433 51.1751 68.7285 49.9962 66.4347C48.8173 64.1408 46.001 63.2364 43.7056 64.4144C41.4102 65.5927 40.5052 68.4073 41.6841 70.7012Z" fill="#4BC3F7"/>
<path d="M41.683 70.7012C41.0216 69.414 41.0163 67.963 41.5446 66.729C41.9872 68.9128 43.5022 72.4969 48.6793 72.2763C48.4615 72.4425 48.226 72.5918 47.9737 72.7214C45.6784 73.8995 42.8619 72.9951 41.683 70.7012Z" fill="#35BEED"/>
<path d="M45.8357 67.1016C46.2204 67.85 47.1395 68.1452 47.8884 67.7607C48.6374 67.3762 48.9328 66.4578 48.5481 65.7093C48.1634 64.9607 47.2443 64.6657 46.4953 65.0501C45.7464 65.4345 45.451 66.353 45.8357 67.1016Z" fill="#6FD4F7"/>
<path d="M46.7777 65.6837C46.8887 65.8998 47.1539 65.9849 47.37 65.874C47.5861 65.763 47.6713 65.498 47.5603 65.282C47.4493 65.066 47.1841 64.9809 46.968 65.0917C46.7519 65.2027 46.6667 65.4677 46.7777 65.6837Z" fill="#8DE1F7"/>
<path d="M44.0214 73.4545C44.0214 73.4545 46.7498 74.5582 48.1822 74.0689C49.6146 73.5796 52.9993 69.6621 52.2118 69.2504C51.4245 68.8386 49.2165 71.4045 49.2165 71.4045C49.2165 71.4045 51.4893 67.3 50.6303 67.091C49.7712 66.882 47.6711 70.2617 47.6711 70.2617C47.6711 70.2617 48.6904 66.7174 47.6269 66.7599C46.5634 66.8024 46.106 69.4132 46.106 69.4132C46.106 69.4132 45.4413 66.2994 44.7302 66.7362C44.0192 67.1732 44.6704 69.1405 44.6704 69.1405C44.6704 69.1405 40.8027 68.6803 41.1528 70.7302C41.5029 72.7803 42.2762 74.0377 42.2762 74.0377L44.0214 73.4545Z" fill="#F4B9A6"/>
<path d="M41.2821 69.9837L32.0529 72.3903C32.0529 72.3903 30.5319 61.975 27.5035 63.2009C24.475 64.4267 26.6903 80.54 26.6903 80.54L30.2484 80.3224C30.2484 80.3224 43.7104 77.9862 43.696 77.4927C43.6815 76.9991 41.2821 69.9837 41.2821 69.9837Z" fill="#D10D20"/>
<path d="M8.77731 93.9868C8.77731 93.9868 3.53315 98.7051 0.734372 96.3493C-2.06431 93.9932 3.93956 87.2829 5.33626 87.1016C6.73306 86.9204 9.62633 88.6016 9.62633 88.6016L8.77731 93.9868Z" fill="#681920"/>
<path d="M5.33626 87.1022C5.70119 87.0549 6.16848 87.1352 6.65921 87.279C5.26914 88.4931 2.28511 91.255 1.51483 93.2227C0.798426 95.0528 1.31537 96.2641 1.91846 96.9321C1.49428 96.838 1.09401 96.6527 0.734372 96.35C-2.06431 93.9939 3.93956 87.2837 5.33626 87.1022Z" fill="#8C303A"/>
<path d="M16.3359 85.8477C16.3359 85.8477 11.0917 90.566 8.29297 88.2101C5.49428 85.8541 11.4982 79.1438 12.8949 78.9624C14.2917 78.7812 17.1849 80.4624 17.1849 80.4624L16.3359 85.8477Z" fill="#681920"/>
<path d="M12.8944 78.962C13.2593 78.9146 13.7266 78.995 14.2174 79.1387C12.8273 80.3528 9.84327 83.1147 9.07299 85.0824C8.35658 86.9125 8.87353 88.1239 9.47661 88.7919C9.05244 88.6976 8.65208 88.5125 8.29243 88.2098C5.49385 85.8538 11.4977 79.1434 12.8944 78.962Z" fill="#8C303A"/>
<path d="M33.9297 76.3052C33.9297 76.3052 35.8522 74.0777 37.35 73.8589C38.8479 73.6401 43.6496 75.5795 43.1374 76.3052C42.6251 77.031 39.4881 75.7567 39.4881 75.7567C39.4881 75.7567 43.3863 78.3701 42.7176 78.9482C42.0489 79.5263 38.6358 77.4789 38.6358 77.4789C38.6358 77.4789 41.1628 80.1662 40.1974 80.614C39.232 81.0618 37.6314 78.9483 37.6314 78.9483C37.6314 78.9483 38.4637 82.0216 37.6314 81.9576C36.7991 81.8936 36.479 79.8462 36.479 79.8462C36.479 79.8462 33.249 82.0216 32.6232 80.0382C31.9975 78.0547 32.1105 76.5832 32.1105 76.5832L33.9297 76.3052Z" fill="#F4B9A6"/>
<path d="M21.5625 56.098C21.5625 56.098 18.4067 57.3793 15.4481 57.4778C12.4896 57.5763 11.2075 55.1125 11.2075 55.1125C11.2075 55.1125 13.2939 55.6054 14.371 53.3385C15.4481 51.0719 10.8131 45.5526 11.9964 37.7666C13.1798 29.9805 20.7734 24.9542 24.521 23.4758C28.2685 21.9975 31.6747 23.4758 31.6747 23.4758C31.6747 23.4758 31.1285 20.2234 32.4105 19.6321C33.6925 19.0407 32.4105 23.1801 32.4105 23.1801C32.4105 23.1801 36.3552 18.9252 37.7359 19.5743C39.1166 20.2234 34.3828 24.0672 34.3828 24.0672C34.3828 24.0672 45.3295 26.1368 50.7535 31.0648C56.1775 35.9928 51.9369 34.9085 51.9369 34.9085C51.9369 34.9085 58.15 42.7931 56.572 44.37C54.9941 45.9469 52.7258 42.0046 52.7258 42.0046C52.7258 42.0046 56.0789 47.8194 54.7969 49.0021C53.5148 50.1848 52.0356 46.144 52.0356 46.144C52.0356 46.144 48.9784 55.9011 41.7793 56.4925C34.5802 57.0837 21.5625 56.098 21.5625 56.098Z" fill="#F5D821"/>
<path d="M31.6747 82.7084C31.6747 82.7084 37.0456 85.9608 37.3414 89.3118C37.6374 92.6627 30.734 94.141 30.734 94.141C30.734 94.141 32.9036 97.3935 25.6057 98.1819C18.308 98.9703 7.55859 94.7324 7.55859 94.7324L8.742 87.8334C8.742 87.8334 12.6035 88.0304 14.371 87.6363C16.1384 87.242 31.6747 82.7084 31.6747 82.7084Z" fill="#C534E8"/>
<path d="M14.3712 53.3386C15.4483 51.0719 10.8133 45.5526 11.9966 37.7666C13.18 29.9806 20.7736 24.9542 24.5212 23.4758C24.6546 23.4232 24.7874 23.3753 24.9198 23.33C21.8201 29.8535 20.0473 31.7607 22.2431 31.2531C24.6309 30.7011 25.9051 30.3655 24.6945 33.294C23.484 36.2225 23.4565 39.2906 28.4979 36.4365C33.5394 33.5826 42.6141 30.9412 39.1132 36.708C35.6123 42.4747 30.2488 45.0776 30.2488 45.0776C30.2488 45.0776 27.7381 51.2365 25.3955 56.3425C23.0936 56.2141 21.5625 56.0981 21.5625 56.0981C21.5625 56.0981 18.4067 57.3794 15.4481 57.4779C12.4896 57.5764 11.2075 55.1126 11.2075 55.1126C11.2075 55.1126 13.2941 55.6054 14.3712 53.3386Z" fill="#EDCA1D"/>
<path d="M23.8303 58.9505C23.8303 58.9505 19.0135 58.2665 14.3707 65.1654C9.72793 72.0644 10.7295 88.3262 14.3707 88.7206C18.0119 89.1148 29.8538 87.735 31.6745 84.6798C33.4951 81.6245 28.139 68.1237 28.4655 65.8554C28.7921 63.587 29.9448 61.4203 28.86 60.7306C27.7752 60.0405 23.8303 58.9505 23.8303 58.9505Z" fill="#F21927"/>
<path d="M14.3712 53.3384C15.4483 51.0717 10.8133 45.5524 11.9966 37.7665C12.3569 35.3959 13.3121 33.2817 14.5714 31.4449C14.3379 35.2208 14.8876 38.4358 15.3713 38.0293C16.0625 37.4486 19.962 35.9228 19.8659 38.0293C19.7699 40.1358 21.2104 42.449 22.2431 42.4528C23.2759 42.4566 24.3795 40.7215 25.552 41.5878C26.7247 42.4542 25.552 47.2629 25.552 47.2629C25.552 47.2629 24.9839 53.0927 24.7556 56.3059C22.8143 56.1927 21.5625 56.098 21.5625 56.098C21.5625 56.098 18.4067 57.3792 15.4481 57.4778C12.4896 57.5763 11.2075 55.1125 11.2075 55.1125C11.2075 55.1125 13.2941 55.6053 14.3712 53.3384Z" fill="#EAB51F"/>
<path d="M22.6475 61.3651C22.6475 62.6987 23.5526 63.7798 24.6691 63.7798C25.7857 63.7798 26.6908 62.6986 26.6908 61.3651C26.6908 60.0316 25.7857 58.9504 24.6691 58.9504C23.5526 58.9504 22.6475 60.0316 22.6475 61.3651Z" fill="#EDA18C"/>
<path d="M48.9781 45.9467C48.9781 45.9467 45.8223 49.4948 44.4416 53.4371C43.0609 57.3794 43.8499 60.9275 33.0018 63.49C22.1536 66.0524 18.9979 50.776 18.9979 50.776C18.9979 50.776 12.785 49.7904 14.7574 45.2568C16.7297 40.7232 18.6035 42.5957 19.787 44.567C20.9704 46.5381 21.2662 50.1847 21.2662 50.1847C21.2662 50.1847 19.0966 50.5789 25.1124 46.7352C31.1281 42.8916 34.7771 38.3579 34.7771 38.3579L32.8045 43.6799C32.8045 43.6799 33.6922 43.6799 39.2148 42.5957C44.7375 41.5116 46.5126 40.4276 46.5126 40.4276C46.5126 40.4276 42.6664 43.0886 42.9624 43.8769C43.2583 44.6654 46.8085 42.2999 46.8085 42.2999C46.8085 42.2999 44.7376 45.848 45.5265 46.2422C46.3154 46.6365 48.9781 41.9057 48.9781 41.9057V45.9467Z" fill="#F4B9A6"/>
<path d="M23.7321 75.0211L34.0181 75.9081C34.0181 75.9081 32.5091 83.0042 31.2271 83.3983C29.945 83.7926 17.9135 81.8214 16.4342 79.2098C14.9549 76.598 14.5604 64.5626 18.308 63.7799C22.0556 62.9971 23.7321 75.0211 23.7321 75.0211Z" fill="#D10D20"/>
<path d="M19.7869 44.5669C20.6705 46.0387 21.0592 48.4439 21.1994 49.5684C21.6723 49.083 22.7736 48.2294 25.1123 46.7351C27.0359 45.5061 28.7168 44.2067 30.1145 43.0074C26.7358 47.2595 22.4085 53.7577 22.5373 59.0172C19.9338 55.3048 18.9979 50.7759 18.9979 50.7759C18.9979 50.7759 12.785 49.7903 14.7574 45.2567C16.7297 40.7231 18.6035 42.5957 19.7869 44.5669Z" fill="#EDA694"/>
<path d="M18.4282 47.263C18.4282 47.263 16.3154 44.0103 16.3154 45.1871C16.3154 46.3641 18.4282 47.263 18.4282 47.263Z" fill="#E89989"/>
<path d="M40.7124 51.2918C40.154 52.2832 40.2924 53.4196 41.0216 53.8299C41.7509 54.2404 42.7948 53.7692 43.3533 52.7778C43.9119 51.7867 43.7735 50.6503 43.0444 50.24C42.315 49.8297 41.2711 50.3005 40.7124 51.2918Z" fill="#190303"/>
<path d="M40.7111 51.6272C40.1791 52.5713 40.2818 53.6375 40.9405 54.0081C41.599 54.3787 42.5644 53.9137 43.0962 52.9694C43.6284 52.025 43.5257 50.9589 42.8671 50.5883C42.2085 50.2176 41.2431 50.6827 40.7111 51.6272Z" fill="white"/>
<path d="M42.3774 53.5866C41.9695 54.0922 41.3563 54.2739 41.0078 53.9931C40.6593 53.7122 40.7073 53.0747 41.1154 52.5693C41.5234 52.0636 42.1366 51.8815 42.4851 52.1623C42.8335 52.4436 42.7854 53.081 42.3774 53.5866Z" fill="#0C8E8E"/>
<path d="M42.257 53.5178C41.9372 53.9142 41.4542 54.0555 41.1783 53.833C40.9024 53.6107 40.9382 53.1091 41.258 52.7126C41.5779 52.3164 42.0608 52.175 42.3367 52.3975C42.6126 52.6199 42.5769 53.1213 42.257 53.5178Z" fill="#016865"/>
<path d="M42.187 53.4446C41.9382 53.753 41.5609 53.8616 41.3445 53.687C41.128 53.5124 41.154 53.1211 41.4029 52.8128C41.6518 52.5046 42.0289 52.3959 42.2455 52.5705C42.4619 52.745 42.4357 53.1364 42.187 53.4446Z" fill="#013835"/>
<path d="M42.6292 53.0562C42.5417 53.1653 42.4039 53.1997 42.3214 53.1336C42.2391 53.0675 42.2431 52.9251 42.3306 52.8164C42.4182 52.7077 42.5559 52.6731 42.6385 52.7393C42.7209 52.8056 42.7167 52.9474 42.6292 53.0562Z" fill="white"/>
<path d="M42.2655 53.5017C42.224 53.5532 42.1579 53.5686 42.1175 53.5362C42.0773 53.5038 42.0781 53.4359 42.1195 53.3847C42.1607 53.3331 42.2271 53.3176 42.2673 53.3502C42.3077 53.3826 42.3067 53.4504 42.2655 53.5017Z" fill="white"/>
<path d="M30.7599 48.1488C30.0638 49.2851 30.1771 50.6207 31.0128 51.1318C31.8485 51.6432 33.0901 51.1369 33.7863 50.0008C34.4824 48.8649 34.3692 47.5294 33.5337 47.0181C32.6978 46.5065 31.456 47.0128 30.7599 48.1488Z" fill="#190303"/>
<path d="M30.7435 48.541C30.0804 49.6232 30.1549 50.8749 30.9096 51.3371C31.6644 51.7989 32.8139 51.2959 33.4769 50.2138C34.1399 49.1317 34.0656 47.8799 33.3108 47.418C32.5562 46.956 31.4067 47.4588 30.7435 48.541Z" fill="white"/>
<path d="M32.7403 50.7569C32.3358 51.4011 31.6481 51.6972 31.204 51.4192C30.76 51.1404 30.7276 50.3928 31.132 49.7483C31.5365 49.1044 32.224 48.8078 32.6682 49.0864C33.1123 49.3649 33.1446 50.1125 32.7403 50.7569Z" fill="#0C8E8E"/>
<path d="M32.5912 50.6937C32.2742 51.1989 31.7322 51.4298 31.3805 51.2094C31.0292 50.989 31.0013 50.4008 31.3183 49.8957C31.6354 49.3906 32.1772 49.1595 32.5288 49.3801C32.8805 49.6004 32.9084 50.1886 32.5912 50.6937Z" fill="#016865"/>
<path d="M32.4992 50.6183C32.2525 51.0112 31.829 51.1894 31.5531 51.0163C31.2772 50.8434 31.2534 50.3848 31.5001 49.9919C31.7466 49.599 32.1702 49.4207 32.4461 49.5936C32.7221 49.7667 32.7457 50.2254 32.4992 50.6183Z" fill="#013835"/>
<path d="M32.9588 50.1055C32.872 50.2442 32.7166 50.3035 32.6116 50.2381C32.5066 50.1724 32.4917 50.0066 32.5783 49.8683C32.6651 49.7296 32.8204 49.6703 32.9255 49.7357C33.0305 49.8016 33.0454 49.9669 32.9588 50.1055Z" fill="white"/>
<path d="M32.5981 50.674C32.557 50.7396 32.4823 50.7668 32.431 50.7347C32.3795 50.7027 32.3713 50.6236 32.4123 50.5581C32.4532 50.4926 32.528 50.4653 32.5794 50.4976C32.6307 50.5297 32.6388 50.6088 32.5981 50.674Z" fill="white"/>
<path d="M35.0911 45.4376C35.0911 45.4376 34.4529 44.6418 32.9558 44.4514C31.4585 44.2611 30.2485 45.0775 30.2485 45.0775C30.2485 45.0775 31.3856 43.4631 32.992 43.6085C34.5983 43.7538 35.0911 45.4376 35.0911 45.4376Z" fill="#B76B18"/>
<path d="M42.291 47.7377C42.291 47.7377 43.0895 47.4868 44.1938 48.0808C45.2981 48.6747 45.745 49.8392 45.745 49.8392C45.745 49.8392 45.7137 48.1475 44.5561 47.4687C43.3983 46.7898 42.291 47.7377 42.291 47.7377Z" fill="#B76B18"/>
<path d="M39.7633 53.4808C39.7633 53.4808 41.6632 55.1735 41.2133 55.7575C40.7634 56.3415 39.571 57.26 39.1664 56.7071C38.7619 56.1543 40.7878 55.8903 40.5183 55.1192C40.2485 54.3482 39.7633 53.4808 39.7633 53.4808Z" fill="#E89989"/>
<path d="M38.6364 57.9556C38.6364 57.9556 37.753 57.8113 36.0632 57.0657C34.3734 56.32 33.5551 55.0671 33.5551 55.0671C33.5551 55.0671 31.7668 59.0036 33.2823 60.1676C34.7978 61.3315 38.6364 57.9556 38.6364 57.9556Z" fill="#300D07"/>
<path d="M33.865 55.4598C34.2434 55.8904 34.971 56.5838 36.0631 57.0658C36.8529 57.4143 37.4664 57.6313 37.8959 57.7639C37.5423 58.1469 36.971 58.4534 36.0802 58.2101C34.4803 57.7733 33.2165 56.7351 33.865 55.4598Z" fill="white"/>
<path d="M32.8304 57.2712C33.2718 57.3611 33.7071 57.5757 34.0772 57.9153C34.7855 58.5657 35.0586 59.4946 34.8537 60.286C34.2437 60.4655 33.6822 60.4746 33.2824 60.1675C32.5446 59.601 32.5897 58.3778 32.8304 57.2712Z" fill="#FC7070"/>
<path d="M40.7743 28.4221C40.7743 28.4221 34.1291 31.2276 31.0971 32.5239C28.0651 33.8202 31.197 30.0595 31.9357 29.2048C32.6743 28.35 29.7935 28.4761 28.6412 29.2048C27.4889 29.9335 29.5521 25.4625 31.3293 25.2508C33.1065 25.0391 30.2481 26.8638 30.2481 26.8638C30.2481 26.8638 33.7359 24.8867 35.6538 25.2508C37.5718 25.6148 33.0231 30.3855 33.0231 30.3855L40.7743 28.4221Z" fill="#FCE470"/>
<path d="M7.85965 92.9748C11.2621 93.9049 20.928 96.464 23.9947 96.3855C27.74 96.2895 28.7003 94.9459 28.2201 92.6426C27.74 90.3392 26.2995 88.8687 26.2995 88.8687C26.2995 88.8687 29.4542 91.3601 30.7673 94.1335C30.7459 94.1384 30.7335 94.141 30.7335 94.141C30.7335 94.141 32.9031 97.3935 25.6053 98.1818C18.3075 98.9703 7.55811 94.7324 7.55811 94.7324L7.85965 92.9748Z" fill="#B62BD8"/>
<path d="M29.9492 92.7344C29.9492 92.7344 34.193 92.5177 37.3495 89.4565C37.4378 92.7053 30.734 94.1411 30.734 94.1411C30.734 94.1411 31.4013 95.1427 30.7489 96.169C29.743 95.9076 28.9888 95.7139 28.9888 95.7139L29.9492 92.7344Z" fill="#B62BD8"/>
<path d="M31.2267 83.3982C29.9447 83.7925 17.9131 81.8213 16.4339 79.2097C15.3134 77.2317 14.816 69.8495 16.2682 66.0428C16.4233 70.6594 17.6258 76.1704 19.2967 78.1508C20.8615 80.0056 28.8029 81.2866 32.3276 81.7726C31.9685 82.6415 31.5886 83.287 31.2267 83.3982Z" fill="#C40E28"/>
<path d="M14.3707 65.1653C15.0095 64.2161 15.6516 63.4112 16.284 62.7275C14.5064 68.7611 11.2162 82.8798 17.2445 88.7519C16.0707 88.8062 15.0694 88.7962 14.3707 88.7205C10.7295 88.3262 9.72793 72.0642 14.3707 65.1653Z" fill="#E21327"/>
<path d="M53.7569 84.9845C56.3365 84.9259 58.3802 82.7886 58.3216 80.2106C58.2631 77.6326 56.1244 75.5902 53.5448 75.6488C50.9652 75.7073 48.9215 77.8446 48.9801 80.4226C49.0387 83.0006 51.1773 85.043 53.7569 84.9845Z" fill="#A24DF4"/>
<path d="M48.9775 80.322C48.9775 78.875 49.6362 77.5819 50.6702 76.7253C50.0657 78.8701 49.7748 82.75 54.4808 84.9175C54.2111 84.9659 53.9333 84.9913 53.6497 84.9913C51.0693 84.9914 48.9775 82.9007 48.9775 80.322Z" fill="#8B3BEA"/>
<path d="M54.3169 79.0161C54.3169 79.8576 54.9995 80.5398 55.8415 80.5398C56.6835 80.5398 57.366 79.8576 57.366 79.0161C57.366 78.1747 56.6834 77.4924 55.8415 77.4924C54.9995 77.4924 54.3169 78.1746 54.3169 79.0161Z" fill="#B275F9"/>
<path d="M55.8027 78.185C55.8027 78.4278 55.9997 78.6247 56.2427 78.6247C56.4856 78.6247 56.6826 78.4278 56.6826 78.185C56.6826 77.9423 56.4856 77.7454 56.2427 77.7454C55.9997 77.7454 55.8027 77.9422 55.8027 78.185Z" fill="#C095FC"/>
<path d="M39.0239 85.7294C39.0239 88.3081 41.1157 90.3986 43.6961 90.3986C46.2765 90.3986 48.3683 88.3081 48.3683 85.7294C48.3683 83.1507 46.2765 81.0602 43.6961 81.0602C41.1157 81.0602 39.0239 83.1507 39.0239 85.7294Z" fill="#F716A7"/>
<path d="M39.0239 85.7295C39.0239 84.2825 39.6826 82.9893 40.7166 82.1328C40.1121 84.2775 39.8212 88.1573 44.5272 90.3248C44.2574 90.3733 43.9797 90.3986 43.6961 90.3986C41.1157 90.3986 39.0239 88.3082 39.0239 85.7295Z" fill="#E50CA3"/>
<path d="M44.3638 84.4233C44.3638 85.2648 45.0464 85.947 45.8884 85.947C46.7304 85.947 47.413 85.2649 47.413 84.4233C47.413 83.5819 46.7304 82.8998 45.8884 82.8998C45.0464 82.8998 44.3638 83.5819 44.3638 84.4233Z" fill="#F741BF"/>
<path d="M45.8491 83.5924C45.8491 83.8352 46.0461 84.0319 46.2891 84.0319C46.532 84.0319 46.729 83.8352 46.729 83.5924C46.729 83.3495 46.532 83.1527 46.2891 83.1527C46.0461 83.1527 45.8491 83.3495 45.8491 83.5924Z" fill="#F763D0"/>
<path d="M44.3062 91.409C44.3062 93.9877 46.3979 96.0782 48.9782 96.0782C51.5586 96.0782 53.6504 93.9877 53.6504 91.409C53.6504 88.8302 51.5586 86.7397 48.9782 86.7397C46.3979 86.7397 44.3062 88.8302 44.3062 91.409Z" fill="#A6F915"/>
<path d="M44.3062 91.4089C44.3062 89.9619 44.9648 88.6687 45.9988 87.8123C45.3943 89.957 45.1034 93.8367 49.8094 96.0043C49.5397 96.0527 49.262 96.0781 48.9783 96.0781C46.3979 96.0781 44.3062 93.9876 44.3062 91.4089Z" fill="#A6EA11"/>
<path d="M49.645 90.1027C49.645 90.9442 50.3275 91.6263 51.1695 91.6263C52.0116 91.6263 52.6942 90.9442 52.6942 90.1027C52.6942 89.2613 52.0116 88.5791 51.1695 88.5791C50.3275 88.5791 49.645 89.2613 49.645 90.1027Z" fill="#C3F94E"/>
<path d="M51.1313 89.2717C51.1313 89.5145 51.3283 89.7112 51.5713 89.7112C51.8142 89.7112 52.0112 89.5145 52.0112 89.2717C52.0112 89.0289 51.8142 88.832 51.5713 88.832C51.3284 88.832 51.1313 89.0289 51.1313 89.2717Z" fill="#D7F978"/>
<path d="M61.4277 76.5635L90.5075 76.8596L112.598 84.9638L79.6708 86.632L61.4277 76.5635Z" fill="#E4F9F8"/>
<path d="M86.012 81.9326C85.6363 81.9326 85.2695 81.9404 84.9144 81.9552C84.8696 81.8888 84.8018 81.8251 84.7139 81.7646C85.883 81.6047 86.6354 81.3558 86.6354 81.0761C86.6354 80.5938 84.3997 80.2028 81.642 80.2028C78.8842 80.2028 76.6485 80.5937 76.6485 81.0761C76.6485 81.0763 76.6486 81.0765 76.6486 81.0767C74.6422 81.0853 73.0269 81.4651 73.0269 81.9326C73.0269 82.4055 74.6794 82.7888 76.7179 82.7888C77.5447 82.7888 78.3082 82.7259 78.9235 82.6192C79.2637 82.7978 79.7901 82.9407 80.4245 83.0248C80.4153 83.0524 80.409 83.0801 80.409 83.108C80.409 83.7574 82.9176 84.2837 86.0121 84.2837C89.1067 84.2837 91.6152 83.7574 91.6152 83.108C91.6151 82.4589 89.1066 81.9326 86.012 81.9326Z" fill="#E50000"/>
<path d="M93.2517 80.603C93.2517 80.9166 92.2083 81.1708 90.921 81.1708C89.6339 81.1708 88.5903 80.9166 88.5903 80.603C88.5903 80.2892 89.6338 80.035 90.921 80.035C92.2083 80.035 93.2517 80.2893 93.2517 80.603Z" fill="#A24DF4"/>
<path d="M99.454 82.8948C99.454 83.212 98.9068 83.4691 98.2317 83.4691C97.5566 83.4691 97.0093 83.2119 97.0093 82.8948C97.0093 82.5777 97.5565 82.3207 98.2317 82.3207C98.9067 82.3207 99.454 82.5776 99.454 82.8948Z" fill="#F5D821"/>
<path d="M73.9795 80.2028C75.4799 80.2028 76.6962 79.7293 76.6962 79.1451C76.6962 78.561 75.4799 78.0874 73.9795 78.0874C72.479 78.0874 71.2627 78.561 71.2627 79.1451C71.2627 79.7293 72.479 80.2028 73.9795 80.2028Z" fill="#4BC3F7"/>
<path d="M95.9942 84.1045C95.9942 84.4556 95.4727 84.7403 94.8296 84.7403C94.1865 84.7403 93.665 84.4556 93.665 84.1045C93.665 83.7534 94.1865 83.4689 94.8296 83.4689C95.4727 83.4689 95.9942 83.7534 95.9942 84.1045Z" fill="#F5D821"/>
<path d="M128.052 74.8346C128.052 74.8346 134.109 76.7082 135.687 74.4098C137.264 72.1114 127.805 64.8403 126.387 65.4729C124.97 66.1058 122.766 68.9995 122.766 68.9995L128.052 74.8346Z" fill="#683F23"/>
<path d="M126.388 65.4724C126.087 65.6068 125.75 65.8443 125.406 66.1339C127.446 67.3784 133.486 71.283 135.248 74.8636C135.417 74.7339 135.566 74.5853 135.687 74.4093C137.265 72.1109 127.805 64.8398 126.388 65.4724Z" fill="#845236"/>
<path d="M128.298 78.697C128.298 78.697 133.102 82.8333 135.467 81.3561C137.832 79.8788 132.067 69.4364 130.515 69.4505C128.963 69.4647 125.785 71.2372 125.785 71.2372L128.298 78.697Z" fill="#7A4B2B"/>
<path d="M130.515 69.4505C130.185 69.4534 129.781 69.5365 129.35 69.6646C130.723 71.6204 134.699 77.6114 134.882 81.5976C135.089 81.5459 135.285 81.4692 135.467 81.3561C137.832 79.8788 132.067 69.4363 130.515 69.4505Z" fill="#93603E"/>
<path d="M106.101 9.46592C106.2 9.17052 104.639 -0.38211 114.682 0.0118569C124.726 0.405824 131.426 7.39781 129.751 18.4276C128.076 29.4574 133.299 26.9953 133.299 26.9953C133.299 26.9953 127.548 35.0473 119.683 27.2299C111.817 19.4125 106.101 9.46592 106.101 9.46592Z" fill="#E57C13"/>
<path d="M88.2783 62.9554C88.2783 62.9554 96.3217 57.8034 98.3642 55.4495C100.406 53.0954 99.4481 42.3251 102.501 42.4558C105.554 42.5864 108.27 45.0217 107.974 53.0588C107.677 61.0955 92.7467 69.4506 92.7467 69.4506L88.2783 62.9554Z" fill="#F723CA"/>
<path d="M103.563 43.9358L101.117 47.6704C101.117 47.6704 103.901 55.31 101.88 58.6986C100.334 61.2926 94.0759 65.4397 91.2271 67.2413L92.7471 69.4507C92.7471 69.4507 103.191 63.6054 106.782 56.99L107.276 55.9716C107.279 55.9645 107.282 55.9579 107.284 55.9508L103.563 43.9358Z" fill="#EA1FC3"/>
<path d="M100.852 69.2793C100.852 69.2793 98.0906 69.5804 97.2232 70.1489C96.3557 70.7175 94.2047 73.8732 95.198 74.2258C96.1913 74.5786 97.8968 71.7569 97.8968 71.7569C97.8968 71.7569 95.8669 76.1392 96.8921 76.4678C97.9175 76.7964 99.2213 72.8737 99.2213 72.8737C99.2213 72.8737 98.4702 76.4247 99.2213 76.4873C99.9723 76.55 100.519 73.2525 100.519 73.2525C100.519 73.2525 100.745 77.2477 101.386 76.4882C102.027 75.7285 101.715 74.2258 101.715 74.2258C101.715 74.2258 103.761 71.7492 103.839 70.494C103.918 69.2388 100.852 69.2793 100.852 69.2793Z" fill="#F9CFC0"/>
<path d="M102.808 47.1736C102.808 47.1736 103.357 53.2798 104.885 54.8067C106.413 56.3335 117.473 57.0049 117.473 57.0049L124.133 54.4402C124.133 54.4402 116.373 51.4478 114.051 49.3108C111.729 47.1735 107.513 45.4021 107.513 45.4021L102.808 47.1736Z" fill="#F958DB"/>
<path d="M129.266 62.2263C129.908 56.822 124.041 53.9825 124.041 53.9825C124.041 53.9825 121.292 54.9902 118.735 54.8985C116.177 54.8071 111.576 49.8607 111.576 49.8607L109.349 50.986C108.107 48.2589 108.323 43.9068 108.323 43.9068C108.323 43.9068 107.498 42.945 106.902 44.9601C106.329 46.8988 107.96 51.2933 108.085 51.6249L104.791 53.2896C103.675 50.5544 103.877 46.4717 103.877 46.4717C103.877 46.4717 103.052 45.5099 102.457 47.525C101.95 49.2388 103.166 52.8719 103.541 53.9209L103.419 53.9828C103.419 53.9828 103.327 55.9063 104.702 57.7383C106.077 59.5704 109.835 62.4098 107.91 65.9227C105.985 69.4357 101.403 76.8823 107.36 79.7217C113.318 82.5614 127.616 82.7445 128.899 80.1798C130.182 77.6149 127.341 69.6459 127.341 69.6459L124.316 70.2873C124.316 70.2871 128.624 67.6305 129.266 62.2263Z" fill="#BA0FD8"/>
<path d="M126.553 27.387C120.594 23.5123 127.416 20.4184 122.156 11.1359C117.735 3.33458 109.788 9.40024 107.364 11.5348C109.466 14.8614 114.016 21.5981 119.683 27.2301C124.884 32.3988 129.159 30.6302 131.459 28.8382C130.294 29.0569 128.698 28.7814 126.553 27.387Z" fill="#D16A0D"/>
<path d="M117.351 37.8612C117.351 37.8612 123.217 26.6862 117.351 16.3355C111.485 5.985 108.368 11.5725 108.368 11.5725C108.368 11.5725 105.894 5.98499 95.3533 6.07655C84.8128 6.16821 76.2889 19.4499 74.7307 23.8466C73.1727 28.2433 79.6801 25.2206 79.6801 25.2206C79.6801 25.2206 76.6556 29.8007 77.8471 30.6249C79.0386 31.4493 81.5132 27.6936 81.5132 27.6936C81.5132 27.6936 80.047 33.0979 84.538 34.5637C89.0292 36.0291 117.351 37.8612 117.351 37.8612Z" fill="#F6911F"/>
<path d="M117.35 16.3356C112.505 7.7871 109.536 10.1099 108.649 11.1779C110.602 14.3936 114.108 20.4384 114.285 22.6558C114.532 25.7372 100.119 22.6558 100.119 22.6558C100.119 22.6558 105.411 27.254 106.642 30.6234C107.281 32.3719 108.203 35.0802 108.967 37.2663C113.777 37.6301 117.35 37.8612 117.35 37.8612C117.35 37.8612 123.216 26.6862 117.35 16.3356Z" fill="#EA821B"/>
<path d="M85.3623 23.7551C85.3623 23.7551 86.8289 29.3426 89.6702 30.4418C92.5115 31.5408 89.6702 22.6559 89.6702 22.6559C89.6702 22.6559 96.636 30.625 99.6608 30.167C102.685 29.709 96.1777 22.6559 96.1777 22.6559C96.1777 22.6559 100.577 26.9635 101.585 26.596C102.594 26.2283 100.119 22.6559 100.119 22.6559C100.119 22.6559 108.001 26.045 110.751 30.167C113.501 34.2889 113.776 37.0369 113.776 37.0369C113.776 37.0369 117.259 32.8233 119.183 35.9375C121.108 39.0519 118.633 40.8839 116.434 41.5251C114.234 42.1664 112.676 40.6091 112.676 40.6091C112.676 40.6091 107.91 50.685 96.2696 48.5782C84.6291 46.4715 82.1545 39.8765 83.071 34.8384C83.9875 29.8008 83.4377 28.164 83.5293 26.1885C83.621 24.213 85.3623 23.7551 85.3623 23.7551Z" fill="#F9CFC0"/>
<path d="M124.042 53.9824C124.042 53.9824 121.292 54.9901 118.735 54.8984C117.464 54.8528 115.689 53.6086 114.224 52.3683V62.4566C114.224 62.4566 118.046 59.7458 120.574 58.3287C123.101 56.9117 125.634 62.1485 125.786 65.1058C125.937 68.0631 117.916 70.8971 117.916 70.8971C117.916 70.8971 121.373 71.443 125.019 70.138L124.317 70.287C124.317 70.287 128.624 67.6305 129.266 62.2263C129.908 56.822 124.042 53.9824 124.042 53.9824Z" fill="#AD0FCE"/>
<path d="M107.445 10.1269C107.445 10.1269 114.893 8.97729 114.678 12.1285C114.464 15.2797 109.955 17.0332 108.782 15.929C107.609 14.8248 107.651 11.0195 107.651 11.0195C107.651 11.0195 100.938 13.316 100.3 10.5487C99.663 7.78167 103.911 4.17252 105.628 5.09357C107.345 6.01424 107.445 10.1269 107.445 10.1269Z" fill="#EE5AA0"/>
<path d="M100.853 69.2792C100.853 69.2792 107.085 62.0431 108.368 59.2034C109.652 56.364 105.651 46.3178 108.614 45.5703C111.576 44.8225 114.876 46.3797 116.892 54.1655C118.909 61.9514 106.994 74.2255 106.994 74.2255L100.853 69.2792Z" fill="#F723CA"/>
<path d="M102.877 31.5916C102.877 31.5916 102.376 31.7668 101.936 31.4616C101.497 31.1566 101.579 30.6234 101.579 30.6234C101.579 30.6234 101.208 32.0184 102.357 32.0038C103.507 31.9891 102.877 31.5916 102.877 31.5916Z" fill="#190303"/>
<path d="M102.472 32.5589C102.472 32.5589 101.971 32.7341 101.531 32.4289C101.091 32.1241 101.174 31.5908 101.174 31.5908C101.174 31.5908 100.803 32.9857 101.952 32.9711C103.102 32.9563 102.472 32.5589 102.472 32.5589Z" fill="#190303"/>
<path d="M105.591 34.2959C105.617 35.894 104.686 37.2054 103.51 37.2246C102.335 37.2441 101.36 35.964 101.334 34.366C101.308 32.7681 102.24 31.4567 103.415 31.4377C104.59 31.4181 105.565 32.6977 105.591 34.2959Z" fill="#190303"/>
<path d="M105.369 34.7108C105.394 36.2331 104.554 37.4817 103.492 37.4987C102.43 37.5164 101.549 36.2965 101.524 34.7744C101.499 33.252 102.339 32.0035 103.401 31.9863C104.463 31.9688 105.344 33.1889 105.369 34.7108Z" fill="white"/>
<path d="M101.521 34.5232C101.507 35.4516 102.015 36.2123 102.655 36.222C103.295 36.2318 103.825 35.4866 103.84 34.5588C103.854 33.6299 103.346 32.8694 102.706 32.8595C102.066 32.8498 101.535 33.5948 101.521 34.5232Z" fill="#0C8E8E"/>
<path d="M101.716 34.5578C101.705 35.2856 102.107 35.8821 102.613 35.8898C103.12 35.8976 103.54 35.3139 103.551 34.5853C103.562 33.8572 103.16 33.261 102.653 33.253C102.147 33.2452 101.727 33.8293 101.716 34.5578Z" fill="#016865"/>
<path d="M101.86 34.5415C101.851 35.1075 102.167 35.5717 102.564 35.5775C102.962 35.5836 103.291 35.1295 103.3 34.5629C103.309 33.997 102.993 33.5331 102.595 33.5272C102.198 33.5208 101.868 33.9753 101.86 34.5415Z" fill="#013835"/>
<path d="M102.919 34.5709C102.975 34.7756 103.148 34.9066 103.305 34.8635C103.462 34.8201 103.543 34.6187 103.486 34.4134C103.429 34.2085 103.256 34.0779 103.1 34.121C102.943 34.1647 102.862 34.3658 102.919 34.5709Z" fill="white"/>
<path d="M103.301 35.2111C103.323 35.2934 103.399 35.344 103.47 35.3244C103.54 35.3051 103.579 35.2225 103.557 35.1407C103.534 35.0586 103.458 35.0078 103.388 35.0276C103.317 35.0471 103.278 35.1295 103.301 35.2111Z" fill="white"/>
<path d="M86.415 32.1807C86.415 32.1807 85.9793 32.3333 85.5964 32.0677C85.2128 31.8022 85.2852 31.3379 85.2852 31.3379C85.2852 31.3379 84.9617 32.5524 85.9627 32.5397C86.9636 32.5271 86.415 32.1807 86.415 32.1807Z" fill="#190303"/>
<path d="M86.0623 33.0231C86.0623 33.0231 85.6264 33.1757 85.2432 32.91C84.8598 32.6447 84.9322 32.1804 84.9322 32.1804C84.9322 32.1804 84.6087 33.3947 85.6099 33.3816C86.6106 33.3692 86.0623 33.0231 86.0623 33.0231Z" fill="#190303"/>
<path d="M88.7775 34.5353C88.8002 35.9267 87.9891 37.0679 86.9656 37.0848C85.9425 37.1019 85.0941 35.9875 85.0713 34.5962C85.0484 33.2048 85.8595 32.0636 86.8825 32.0468C87.9062 32.0298 88.7544 33.1441 88.7775 34.5353Z" fill="#190303"/>
<path d="M88.584 34.8972C88.6061 36.2223 87.8743 37.309 86.9501 37.3242C86.0256 37.3396 85.2585 36.2773 85.2368 34.9521C85.2148 33.627 85.9463 32.5398 86.8711 32.5248C87.7952 32.5096 88.5623 33.5716 88.584 34.8972Z" fill="white"/>
<path d="M85.2346 34.7332C85.2222 35.5417 85.6638 36.2039 86.2215 36.2123C86.7786 36.2208 87.2406 35.5724 87.2529 34.7641C87.2651 33.9556 86.8232 33.2938 86.266 33.2849C85.7088 33.2766 85.2467 33.9249 85.2346 34.7332Z" fill="#0C8E8E"/>
<path d="M85.4045 34.7631C85.3952 35.3971 85.7448 35.9166 86.1861 35.923C86.6271 35.9301 86.9923 35.4219 87.0021 34.7872C87.0118 34.1538 86.6619 33.6344 86.2209 33.6275C85.7794 33.6207 85.4143 34.1293 85.4045 34.7631Z" fill="#016865"/>
<path d="M85.5299 34.7492C85.5224 35.242 85.7967 35.6459 86.1431 35.6511C86.4896 35.6562 86.7762 35.2612 86.7837 34.7681C86.7913 34.2755 86.5169 33.8713 86.1703 33.8661C85.8243 33.8609 85.5376 34.2563 85.5299 34.7492Z" fill="#013835"/>
<path d="M86.4504 34.7744C86.5001 34.9531 86.6505 35.0671 86.7868 35.029C86.9232 34.9916 86.994 34.8162 86.9444 34.6378C86.895 34.4592 86.7446 34.3454 86.6077 34.3831C86.4715 34.4207 86.4009 34.5958 86.4504 34.7744Z" fill="white"/>
<path d="M86.7846 35.3322C86.8043 35.4037 86.87 35.4476 86.9314 35.4305C86.993 35.4136 87.0268 35.342 87.007 35.2708C86.987 35.199 86.9212 35.1548 86.8602 35.1721C86.7982 35.1892 86.7646 35.2608 86.7846 35.3322Z" fill="white"/>
<path d="M106.643 29.9289C106.643 29.9289 105.398 28.3487 104.05 28.2828C102.702 28.2168 100.895 28.9389 100.895 28.9389C100.895 28.9389 101.884 27.515 103.861 27.3911C105.836 27.2676 106.643 29.9289 106.643 29.9289Z" fill="#AA5304"/>
<path d="M89.4523 30.1002C89.4523 30.1002 88.4781 29.2162 86.9342 29.5122C85.3905 29.8082 83.9917 31.1662 83.9917 31.1662C83.9917 31.1662 84.9198 29.0414 86.1489 28.561C87.3779 28.0804 89.4523 30.1002 89.4523 30.1002Z" fill="#AA5304"/>
<path d="M91.8167 35.5618C91.8167 35.5618 89.4247 37.2593 89.8538 38.059C90.2833 38.8588 91.7919 39.4543 91.6269 38.82C91.4622 38.1858 90.8418 38.1591 90.6255 37.6796C90.4094 37.2006 91.8167 35.5618 91.8167 35.5618Z" fill="#EFAF9E"/>
<path d="M93.2656 41.5369C93.2656 41.5369 94.619 42.2608 96.8867 41.983C99.1542 41.7051 100.519 40.8184 100.519 40.8184C100.519 40.8184 100.418 46.5457 97.0982 47.0256C93.7785 47.5051 93.2656 41.5369 93.2656 41.5369Z" fill="#300D07"/>
<path d="M93.7344 41.7255C94.3128 41.918 95.4043 42.1645 96.8867 41.9831C97.834 41.8667 98.6231 41.6446 99.2216 41.4249C98.526 43.4143 96.1632 43.6429 94.9433 43.0932C94.1301 42.7272 93.8363 42.154 93.7344 41.7255Z" fill="white"/>
<path d="M96.4664 45.1489C97.5391 44.4562 98.7804 44.3421 99.6818 44.7586C99.1802 45.8748 98.379 46.8404 97.0985 47.0256C96.321 47.1379 95.6974 46.8964 95.1987 46.461C95.4855 45.9639 95.9154 45.5045 96.4664 45.1489Z" fill="#FC7070"/>
<path d="M116.434 41.5252C118.633 40.8839 121.108 39.052 119.183 35.9376C117.259 32.8234 113.775 37.0369 113.775 37.0369C113.775 37.0369 113.5 34.289 110.751 30.167C109.585 28.4193 107.497 26.8037 105.478 25.522C107.927 29.346 111.966 37.3466 109.101 45.1535C111.563 42.9602 112.676 40.609 112.676 40.609C112.676 40.609 114.234 42.1664 116.434 41.5252Z" fill="#F4C0B0"/>
<path d="M114.683 39.476C114.683 39.476 116.561 35.8435 117.714 37.085C118.868 38.3263 114.683 39.476 114.683 39.476Z" fill="#EFAD9C"/>
<path d="M115.825 4.94681C115.825 4.94681 119.71 0.477561 123.718 9.28764C127.725 18.0977 126.369 12.7994 125.752 11.0743C125.135 9.34916 126.43 9.84208 127.725 11.5056C129.019 13.169 129.143 8.91796 126.553 6.70003C123.964 4.48211 126.307 7.77262 127.047 9.02305C127.786 10.2734 125.567 7.90171 124.889 7.27001C124.211 6.63842 124.519 9.16442 124.642 9.47249C124.766 9.78046 123.287 4.60534 119.958 3.06507C116.628 1.52481 115.825 4.94681 115.825 4.94681Z" fill="#EF8E37"/>
<path d="M89.8024 11.444C89.8024 11.444 89.1948 14.4013 90.1196 17.0504C91.0443 19.6996 91.418 17.1951 91.8168 16.2603C92.2156 15.3253 94.2499 19.9461 95.6062 20.6853C96.9625 21.4245 97.44 16.2603 97.44 16.2603C97.44 16.2603 99.7436 19.4532 103.84 19.8229C107.936 20.1924 101.296 13.4771 99.2217 12.5529C97.1473 11.6288 102.335 17.4817 102.335 17.4817C102.335 17.4817 99.1377 14.0932 96.4782 13.5388C93.8185 12.9842 94.8048 17.9746 94.8048 17.9746C94.8048 17.9746 93.8185 13.97 92.4005 13.3539C90.9826 12.7379 90.8098 14.9558 90.8098 14.9558L89.8024 11.444Z" fill="#F79D43"/>
<path d="M106.993 74.2255C106.993 74.2255 118.908 61.9513 116.892 54.1654C115.216 47.6946 112.654 45.5266 110.135 45.408C112.934 47.6033 114.098 51.7204 113.47 58.2055C112.984 63.2307 107.58 69.0178 104.324 72.0754L106.993 74.2255Z" fill="#ED20C6"/>
<path d="M86.22 72.4542C86.22 72.4542 84.6484 73.9562 85.3664 75.7098C86.0846 77.4634 83.5649 77.7331 83.5649 77.7331C83.5649 77.7331 87.1267 79.3515 88.2252 77.0135C89.3237 74.6757 89.0538 72.8771 89.0538 72.8771L87.7942 70.8988L86.22 72.4542Z" fill="#773C1F"/>
<path d="M86.1294 72.5174C86.1294 72.5174 88.4237 59.6129 89.3237 59.6581C90.2237 59.7031 89.7709 61.7217 89.8623 63.3428C89.9537 64.9638 89.0538 72.8772 89.0538 72.8772C89.0538 72.8772 89.132 72.6973 88.0133 72.2926C86.8944 71.8879 86.1294 72.5174 86.1294 72.5174Z" fill="#CE8630"/>
<path d="M86.2202 67.7727C86.2202 67.7727 84.7093 67.7997 84.6527 68.6648C84.596 69.5301 84.253 70.5906 84.9126 70.6961C85.572 70.8015 85.8952 69.1765 85.8952 69.1765L86.2202 67.7727Z" fill="#EDAE9F"/>
<path d="M85.2748 66.4235C85.2748 66.4235 83.9213 68.1109 84.823 68.9652C85.7248 69.8195 86.5794 71.1682 87.2993 70.5388C88.0192 69.9093 86.5242 68.0659 86.5242 68.0659L85.2748 66.4235Z" fill="#F4BEAE"/>
<path d="M89.8634 63.1654C89.8634 63.1654 92.338 63.2104 91.798 65.7734C91.2581 68.3361 91.4382 69.2351 90.3133 69.46C89.1884 69.685 87.9286 68.0216 88.9185 66.7175C89.9085 65.4135 89.8634 63.1654 89.8634 63.1654Z" fill="#F9CFC0"/>
<path d="M88.0132 63.3077C88.0132 63.3077 84.7345 64.3788 84.8246 65.9527C84.9147 67.5266 86.2222 69.9477 87.6592 69.4804C89.0961 69.0129 87.3441 66.6272 87.3441 66.6272L88.0132 63.3077Z" fill="#F9CFC0"/>
<path d="M88.4015 74.1138C88.0641 74.4287 88.1541 75.5526 88.0133 74.9681C87.8725 74.3839 87.9515 73.4843 87.6142 73.889C87.2767 74.2937 87.4117 75.2604 87.1642 74.5888C86.9167 73.9173 86.9618 73.5966 86.5241 73.7991C86.2156 73.9415 85.5552 74.5965 85.1913 74.9716C85.2111 75.2104 85.263 75.4569 85.3664 75.7099C86.0846 77.4635 83.5649 77.7332 83.5649 77.7332C83.5649 77.7332 87.1267 79.3516 88.2252 77.0136C88.5731 76.2734 88.7831 75.5876 88.9085 74.9954C88.7763 74.3748 88.5616 73.9644 88.4015 74.1138Z" fill="#E50000"/>
<path d="M131.005 86.4812C121.158 84.3051 111.166 85.3932 109.824 87.8592C108.482 90.3252 118.565 90.5429 118.565 90.5429C118.565 90.5429 104.995 92.7188 120.927 96.1276C136.859 99.5368 166.099 93.009 131.005 86.4812Z" fill="#B9D6D2"/>
<path d="M125.529 87.5163C125.529 87.513 125.532 87.5096 125.532 87.5061C125.532 87.2056 122.759 86.9622 119.338 86.9622C115.917 86.9622 113.144 87.2056 113.144 87.5061C113.144 87.741 114.838 87.941 117.212 88.0173C117.203 88.0342 117.197 88.0511 117.197 88.0682C117.197 88.3786 118.708 88.6304 120.572 88.6304C121.257 88.6304 121.894 88.5963 122.426 88.5379C123.088 88.5962 123.881 88.6304 124.734 88.6304C127.056 88.6304 128.938 88.3786 128.938 88.0682C128.938 87.7943 127.471 87.566 125.529 87.5163Z" fill="#E50000"/>
<path d="M133.797 94.4137C131.922 94.4137 130.402 94.6118 130.402 94.856C130.402 94.8562 130.402 94.8564 130.402 94.8566C130.352 94.8562 130.302 94.856 130.252 94.856C128.981 94.856 127.951 94.9552 127.951 95.0774C127.951 95.1996 128.981 95.2987 130.252 95.2987C130.922 95.2987 131.526 95.2711 131.946 95.2271C132.479 95.2723 133.114 95.2987 133.797 95.2987C135.672 95.2987 137.191 95.1005 137.191 94.8561C137.191 94.6119 135.672 94.4137 133.797 94.4137Z" fill="#A24DF4"/>
<path d="M141.587 92.1625C140.836 92.1625 140.15 92.1965 139.626 92.2526C139.193 92.1965 138.626 92.1625 138.005 92.1625C136.646 92.1625 135.545 92.325 135.545 92.5252C135.545 92.7254 136.646 92.8878 138.005 92.8878C138.446 92.8878 138.86 92.8706 139.219 92.8404C139.548 92.8699 139.984 92.8878 140.464 92.8878C140.646 92.8878 140.82 92.8852 140.986 92.8803C141.18 92.8852 141.381 92.8878 141.587 92.8878C143.231 92.8878 144.564 92.7254 144.564 92.5252C144.564 92.3251 143.231 92.1625 141.587 92.1625Z" fill="#A6F24E"/>
<path d="M139.905 92.8881C138.855 92.8881 138.004 93.0017 138.004 93.1418C138.004 93.2819 138.855 93.3957 139.905 93.3957C140.955 93.3957 141.806 93.282 141.806 93.1418C141.806 93.0016 140.955 92.8881 139.905 92.8881Z" fill="#A6F24E"/>
<path d="M127.892 92.7166C127.893 92.7133 127.895 92.7099 127.895 92.7064C127.895 92.406 125.122 92.1625 121.701 92.1625C118.28 92.1625 115.507 92.406 115.507 92.7064C115.507 92.9413 117.202 93.1413 119.575 93.2176C119.566 93.2343 119.561 93.2514 119.561 93.2686C119.561 93.5789 121.072 93.8307 122.936 93.8307C123.62 93.8307 124.257 93.7966 124.789 93.7382C125.452 93.7965 126.245 93.8307 127.098 93.8307C129.419 93.8307 131.302 93.5789 131.302 93.2686C131.302 92.9946 129.834 92.7662 127.892 92.7166Z" fill="#F5D821"/>
<path d="M132.534 89.2612C132.003 89.2612 131.504 89.2878 131.071 89.3346C130.659 89.289 130.117 89.2612 129.523 89.2612C128.236 89.2612 127.192 89.3912 127.192 89.5514C127.192 89.7116 128.236 89.8415 129.523 89.8415C129.523 89.8523 129.525 89.8633 129.528 89.8739C129.188 89.8533 128.801 89.8415 128.391 89.8415C127.025 89.8415 125.917 89.9714 125.917 90.1315C125.917 90.2918 127.025 90.4216 128.391 90.4216C129.31 90.4216 130.111 90.3628 130.538 90.2757C131.069 90.3665 131.768 90.4216 132.534 90.4216C134.197 90.4216 135.545 90.1618 135.545 89.8415C135.545 89.521 134.197 89.2612 132.534 89.2612Z" fill="#4BC3F7"/>
</svg>
