<svg width="371" height="189" viewBox="0 0 371 189" fill="none" xmlns="http://www.w3.org/2000/svg">
<path d="M133.378 81.0111C133.006 81.6536 132.814 82.4598 132.933 83.4817C133.464 88.0056 133.871 99.4126 133.871 99.4126C133.871 99.4126 133.793 99.4529 133.687 99.5074C133.402 99.6568 132.755 99.9651 131.811 100.325C129.581 101.222 125.679 102.438 120.994 102.597C117.664 102.723 115.049 102.362 113.181 101.914C110.874 101.395 109.71 100.748 109.71 100.748C109.739 100.577 109.765 100.354 109.803 100.098C110.249 97.0511 111.187 88.2877 111.716 83.273C111.948 81.0988 112.095 79.6311 112.095 79.6311L102.945 88.5343C103.075 82.161 107.444 71.1334 109.713 66.6213C110.91 64.2099 112.418 62.8608 113.944 62.1898C114.857 61.7891 115.793 61.6184 116.663 61.6184C117.052 61.6184 117.441 61.6469 117.815 61.7014L123.118 61.5734C123.118 61.5734 124.263 61.194 125.859 60.9C126.563 60.7743 127.348 60.6795 128.154 60.6392C128.301 60.6273 128.457 60.6273 128.611 60.6629C131.062 60.8194 133.051 63.3161 134.926 67.8186C136.925 72.5986 137.984 78.5689 137.984 78.5689C137.984 78.5689 134.644 78.8155 133.378 81.0111Z" fill="#FCAE12"/>
<path d="M125.858 60.9023C125.081 62.242 123.775 64.2194 122.314 65.367C121.93 65.6752 121.52 65.9218 121.122 66.0901C120.503 66.3438 119.944 66.3012 119.453 66.0593C118.116 65.4097 117.206 63.3161 116.661 61.6184C117.049 61.6184 117.438 61.6468 117.813 61.7014L123.116 61.5733C123.116 61.5757 124.263 61.1964 125.858 60.9023Z" fill="#F29B0A"/>
<path opacity="0.4" d="M128.611 60.665C126.717 61.777 124.33 64.1528 122.315 65.3667C121.665 65.7508 121.047 66.014 120.504 66.0899C120.169 66.1349 119.816 66.1231 119.453 66.0591C117.356 65.6963 115.08 63.6999 113.942 62.1896C114.855 61.7888 115.791 61.6181 116.661 61.6181C117.05 61.6181 117.439 61.6466 117.813 61.7011L123.116 61.5731C123.116 61.5731 124.261 61.1937 125.856 60.8997C126.561 60.7741 127.345 60.6792 128.151 60.6389C128.301 60.6294 128.457 60.6294 128.611 60.665Z" fill="#FCAE12"/>
<path d="M81.2967 133.868C79.9692 136.092 72.7128 154.783 72.7128 154.783L70.3825 156.006L68.818 156.822C68.818 156.822 67.3103 141.858 68.1992 137.877C69.0811 133.889 72.6204 132.744 72.6204 132.744C70.9396 129.908 63.1546 112.296 63.1546 112.296C63.1546 112.296 63.112 112.455 63.0385 112.742V112.752C62.3818 115.199 59.2906 126.847 58.0176 133.719C56.6047 141.42 52.7525 153.721 52.7525 153.721L49.979 155.622L48.9644 156.315C47.7316 152.765 46.5558 142.344 47.1793 136.588C47.8004 130.843 51.297 128.493 51.297 128.493C51.6431 123.267 53.0655 104.678 53.4187 102.739C53.4187 102.739 54.2839 103.407 54.3361 103.637C55.9576 104.47 59.0085 105.719 62.626 105.657C68.0167 105.572 73.9882 103.533 73.9882 103.533C73.9882 103.533 74 103.469 74.0048 103.362C74.0214 103.362 74.0427 103.353 74.0427 103.353C74.0427 103.353 74.1257 103.63 74.2774 104.138C75.6476 108.716 82.4962 131.883 81.2967 133.868Z" fill="url(#paint0_linear)"/>
<path opacity="0.5" d="M74.2766 104.136C72.1834 104.724 67.8524 105.902 65.6359 106.251C62.6513 106.718 57.0757 106.315 57.0757 106.315C57.0757 106.315 56.0161 111.097 56.0161 111.372C56.0161 111.626 55.082 114.95 54.954 119.403C54.8118 123.844 53.3586 130.025 53.3586 130.025C53.3586 130.025 52.894 131.021 52.2208 132.681C51.5665 134.336 49.8431 139.647 49.7696 142.236C49.7079 144.64 49.9948 152.583 49.9853 155.62L48.9707 156.313C47.738 152.763 46.5622 142.342 47.1857 136.586C47.8067 130.841 51.3033 128.491 51.3033 128.491C51.6495 123.265 53.0718 104.676 53.425 102.737C53.425 102.737 54.2903 103.405 54.3424 103.635C55.9639 104.468 59.0148 105.717 62.6323 105.656C68.023 105.57 73.9945 103.531 73.9945 103.531C73.9945 103.531 74.0064 103.467 74.0111 103.36C74.0277 103.36 74.0491 103.351 74.0491 103.351C74.0491 103.351 74.1249 103.631 74.2766 104.136Z" fill="url(#paint1_linear)"/>
<path opacity="0.5" d="M70.3826 156.007L68.8181 156.822C68.8181 156.822 67.3104 141.859 68.1993 137.878C69.0812 133.89 72.6205 132.744 72.6205 132.744C70.9397 129.909 63.1547 112.297 63.1547 112.297C63.1547 112.297 63.1121 112.456 63.0386 112.742C63.0812 111.86 63.2519 111.455 63.4416 111.564C63.7711 111.766 67.6944 116.749 70.0176 122.122C72.3336 127.497 74.8583 133.34 74.8583 133.34C72.0657 136.593 70.5486 147.286 70.3471 148.742C70.1551 150.098 70.257 154.212 70.3826 156.007Z" fill="url(#paint2_linear)"/>
<path d="M89.6118 86.8034L89.5501 89.7435L89.5241 90.7014C89.5241 90.7014 84.4795 93.7078 80.4993 92.731C76.5143 91.7683 74.3927 88.9278 74.3927 88.9278L73.333 81.7602C73.333 81.7602 73.8498 80.9517 74.67 80.1787C75.2318 79.6263 75.943 79.0928 76.6992 78.8391C76.6992 78.8391 79.1741 83.088 79.8829 84.1526C80.5846 85.2077 86.5229 86.8864 89.6118 86.8034Z" fill="url(#paint3_linear)"/>
<path opacity="0.2" d="M89.5487 89.7434L89.5226 90.7013C89.5226 90.7013 84.478 93.7078 80.4978 92.7309C76.5129 91.7683 74.3912 88.9278 74.3912 88.9278L73.3315 81.7602C73.3315 81.7602 73.8483 80.9517 74.6685 80.1787C75.081 82.104 75.6452 84.2047 75.9202 85.0109C76.2474 86.0091 77.8428 88.335 78.8337 89.1981C79.8293 90.0564 82.482 90.4595 84.8834 90.2579C86.576 90.1038 88.5507 89.8715 89.5487 89.7434Z" fill="#D96042"/>
<path d="M87.935 85.5634C87.8164 86.5664 93.4205 86.5403 93.328 85.2979C93.2451 84.0602 88.1104 84.0602 87.935 85.5634Z" fill="url(#paint4_linear)"/>
<path d="M87.7616 87.3347C87.7118 88.2381 93.4225 88.487 93.33 87.1593C93.2447 85.8315 87.8469 85.5612 87.7616 87.3347Z" fill="url(#paint5_linear)"/>
<path d="M88.7312 88.4868C88.4894 89.7055 93.7758 89.6367 93.8682 88.6646C93.9939 87.242 88.9967 87.159 88.7312 88.4868Z" fill="url(#paint6_linear)"/>
<path d="M88.8145 89.9521C88.6082 91.0878 92.8231 90.7915 93.0744 89.862C93.3138 88.9325 89.0776 88.5034 88.8145 89.9521Z" fill="url(#paint7_linear)"/>
<path d="M79.0568 27.49C79.019 27.4924 79.0024 27.4947 79.0024 27.4947C79.0024 27.4947 79.019 27.4971 79.0568 27.49Z" fill="#C07311"/>
<path d="M65.7214 19.0893C65.7214 18.9565 65.6124 19.4711 65.6645 20.1729C65.7285 19.6347 65.7214 19.1794 65.7214 19.0893Z" fill="#C07311"/>
<path d="M78.8267 49.7135C78.4071 50.5505 77.8026 51.3258 77.0464 52.0086C74.7138 54.1331 70.9066 55.5225 66.8411 56.1603C64.1789 56.5729 61.3935 56.6819 58.8143 56.4472C58.2406 56.3974 57.6645 56.286 57.1122 56.1508C53.0941 55.1645 49.8061 52.1557 47.7911 49.8273C47.7745 49.5428 47.765 49.2677 47.7555 49.0117L45.98 46.3537C43.7777 48.0324 39.6956 45.825 38.1973 43.7859C36.6897 41.7468 35.6276 37.1447 38.2803 36.1702C40.3783 35.4043 42.6706 37.2656 43.5643 38.0931C43.6331 38.1998 43.7066 38.297 43.7777 38.3918C43.7777 38.3918 43.7611 38.3373 43.7516 38.278C43.8701 38.4037 43.9436 38.4772 43.9436 38.4772C43.9436 38.4772 46.511 37.7659 47.1273 36.2674C47.7555 34.7618 45.8045 33.6996 45.8045 33.6996C45.8045 33.6996 48.187 33.8774 48.8175 31.926C49.4007 30.0672 45.8093 27.4021 45.4726 27.1555C45.8448 27.2599 50.0384 28.5165 53.4994 27.4092C57.1335 26.264 56.9486 20.2416 56.9486 20.2416C56.9486 20.2416 57.3137 23.1604 58.3805 23.1604C59.4354 23.1604 61.2015 19.5398 61.2015 19.5398C61.2015 19.5398 62.0928 22.1953 63.9513 22.3661C65.1508 22.4822 65.5467 21.1853 65.6629 20.1776C65.7198 20.9103 65.9284 21.8326 66.604 22.4633C67.8817 23.6417 70.4633 21.6524 70.6648 21.4935C70.5937 21.7591 69.4961 25.4531 71.2906 27.5894C73.1515 29.7992 75.5387 28.8342 75.5387 28.8342L75.2756 32.718C76.2214 33.7067 77.0298 34.8092 77.7102 35.99C77.7386 36.0564 77.7694 36.1062 77.8026 36.1702C80.204 40.4712 80.7374 45.7302 78.8267 49.7135Z" fill="url(#paint8_linear)"/>
<path d="M77.71 35.9876C77.0297 34.8044 76.2213 33.7043 75.2754 32.7155L75.5386 28.8318C75.5386 28.8318 73.1514 29.7968 71.2905 27.587C69.496 25.4531 70.5936 21.7566 70.6647 21.4911C70.4632 21.6499 67.8816 23.6392 66.6039 22.4608C65.9282 21.8278 65.7173 20.9054 65.6627 20.1752C65.7267 19.6441 65.7196 19.1888 65.7196 19.0916C65.7196 18.9612 65.6106 19.471 65.6627 20.1752C65.5466 21.1829 65.1507 22.4798 63.9512 22.3636C62.0926 22.1929 61.2013 19.5374 61.2013 19.5374C61.2013 19.5374 59.4376 23.1579 58.3803 23.1579C57.3159 23.1579 56.9485 20.2392 56.9485 20.2392C56.9485 20.2392 57.1334 26.2616 53.4993 27.4068C50.0383 28.5117 45.8447 27.2574 45.4725 27.1531C45.8115 27.3997 49.4006 30.0647 48.8174 31.9236C48.1868 33.8773 45.8044 33.6971 45.8044 33.6971C45.8044 33.6971 47.753 34.7594 47.1272 36.265C46.5108 37.7635 43.9435 38.4748 43.9435 38.4748C43.9435 38.4748 43.87 38.3989 43.7515 38.2756C43.6969 38.2187 43.6329 38.1689 43.5642 38.0907C42.6681 37.2632 40.3758 35.4019 38.2802 36.1678C35.6275 37.1446 36.6895 41.7444 38.1972 43.7835C39.6954 45.825 43.7775 48.0324 45.9798 46.3513L47.7554 49.0092C47.7649 49.2629 47.7743 49.5403 47.7909 49.8249C47.8099 52.2813 47.2173 55.2332 44.8396 55.5556C42.1798 55.9137 40.9376 51.3044 40.9376 51.3044C40.9376 51.3044 37.6662 52.2813 34.7504 50.7733C31.8251 49.2772 29.9689 43.9637 33.2379 41.3081C33.2379 41.3081 28.4612 38.9181 28.3735 35.9947C28.2834 33.0759 29.7888 33.7778 29.7888 33.7778C29.7888 33.7778 29.6204 33.3533 29.4687 32.7558C29.4687 32.7558 29.4545 32.7558 29.4687 32.7464C29.208 31.779 28.978 30.3753 29.5185 29.6213C30.3624 28.4358 33.3873 30.0671 33.6599 30.2283C33.2261 29.8466 26.6074 24.0281 29.4332 18.4728C32.3561 12.7159 40.1411 14.0437 40.1411 14.0437C40.1411 14.0437 37.2988 7.85056 41.9119 5.01481C46.5085 2.18143 49.9576 3.68229 49.9576 3.68229C49.9576 3.68229 52.2642 -1.09296 57.2164 0.232441C62.178 1.56022 63.2353 8.28446 63.2353 8.28446C63.2353 8.28446 63.2353 2.44698 65.7125 3.24364C68.1945 4.03794 68.901 9.17833 68.901 9.17833C68.901 9.17833 71.914 5.81147 74.2063 7.13925C76.5105 8.46939 75.5338 12.5333 75.5338 12.5333C75.5338 12.5333 78.1889 11.0396 78.6346 12.9791C79.0802 14.9257 78.1889 15.2861 78.1889 15.2861C78.1889 15.2861 80.3935 16.4835 81.3892 18.864C81.823 19.893 82.0316 21.1473 81.7376 22.6244C80.9317 26.6481 79.5923 27.3499 79.1466 27.4756C79.7606 27.4234 82.2473 27.3404 82.7048 29.3558C83.2382 31.6438 79.3078 35.5845 77.71 35.9876Z" fill="#C07311"/>
<path d="M53.5962 85.3879C53.6033 85.4759 53.6033 85.5662 53.6152 85.6566C54.2047 85.4379 53.5962 85.3879 53.5962 85.3879Z" fill="#11829A"/>
<path d="M53.6153 85.6544C53.6034 85.5641 53.6034 85.4737 53.5963 85.3857C53.5963 85.3857 53.5892 85.4975 53.582 85.6639C53.5915 85.6639 53.6034 85.6615 53.6153 85.6544Z" fill="#11829A"/>
<path d="M73.7799 81.3098C75.4322 87.0572 74.1687 101.653 74.0075 103.363C74.0027 103.469 73.9909 103.533 73.9909 103.533C73.9909 103.533 73.7586 103.619 73.3342 103.744C71.6322 104.266 66.9503 105.594 62.6287 105.658C60.6753 105.691 58.8879 105.338 57.4016 104.88C56.1286 104.487 55.0808 104.022 54.3388 103.638C54.289 103.405 54.27 103.183 54.2392 102.96C53.1985 95.6948 53.8552 89.1295 53.6086 85.6559C54.2084 85.4354 53.5992 85.3927 53.5992 85.3927C53.5992 85.3927 53.5897 85.497 53.5802 85.6678C53.3858 85.7318 53.0942 85.8171 52.6201 85.9238C50.5862 86.3577 47.0469 85.1295 47.0469 85.1295C47.0564 84.4064 47.1109 83.5979 47.2176 82.749C47.9501 76.4611 50.8351 67.4962 52.0085 66.0949C53.0563 64.8312 56.707 63.0813 58.9282 62.0926C59.5043 61.8365 59.9689 61.635 60.2913 61.5046C60.3008 61.5046 60.3103 61.4951 60.3197 61.4951C60.3197 61.4951 61.4647 63.7073 63.5935 64.0558C65.151 64.3214 65.7199 62.9628 65.8977 62.2207C65.9617 61.9527 65.9831 61.7607 65.9831 61.7607C65.9831 61.7607 66.6065 61.4951 67.7563 62.4625C67.7729 62.472 67.7894 62.4815 67.7989 62.4933C68.9581 63.5176 71.049 66.415 73.0735 70.5264C74.2991 73.0325 75.5009 75.5506 76.2524 77.1439C76.7455 78.1919 77.0489 78.8392 77.0489 78.8392C76.25 79.1877 73.7799 81.3098 73.7799 81.3098Z" fill="url(#paint9_linear)"/>
<path d="M145.053 35.613C145.053 35.9758 145.046 36.3456 145.015 36.7416C144.75 40.4546 139.442 41.7943 139.442 41.7943C139.442 41.7943 139.253 46.5316 137.866 50.1735C137.605 50.8895 137.297 51.5582 136.925 52.1414C135.313 54.7116 130.363 56.2528 125.114 56.7721C123.007 56.9854 120.866 57.0376 118.868 56.9191C118.361 56.9001 117.849 56.8147 117.353 56.6986C110.903 55.2665 105.19 47.5013 105.19 47.5013C105.19 47.5013 102.94 49.3602 99.3486 48.0324C98.7891 47.8214 98.232 47.5322 97.72 47.1812C94.9867 45.3034 93.2609 41.6259 95.5035 38.6123C95.5248 38.5791 95.5438 38.5602 95.5604 38.5365C98.2059 35.0605 101.437 38.2164 102.347 40.0634L103.324 42.4582C103.324 42.4582 105.756 27.1295 108.632 29.0524C109.028 29.3084 113.681 32.8958 115.276 31.4329C116.602 30.2236 114.542 27.3737 113.804 26.4419C114.764 27.5468 118.199 31.3167 119.788 29.8395C121.57 28.1869 120.288 22.596 120.188 22.1716C120.366 22.5652 123.41 29.1591 124.707 28.3885C125.913 27.6558 125.107 24.3198 124.979 23.81C125.332 24.4929 128.519 30.8709 130.142 30.2474C131.799 29.6072 134.201 23.4259 134.379 22.9707C134.255 23.452 132.871 29.325 134.518 29.5882C136.244 29.8419 137.84 27.3239 137.84 27.3239C137.84 27.3239 137.84 32.1039 138.368 33.5621C138.368 33.5621 140.492 30.5129 142.353 30.6504C144.02 30.7642 145.046 32.5804 145.053 35.613Z" fill="url(#paint10_linear)"/>
<path d="M138.421 33.4603C137.89 32.0163 137.861 27.2363 137.861 27.2363C137.861 27.2363 136.396 29.5741 134.73 29.5196C134.675 29.5196 134.611 29.5196 134.552 29.5101C134.419 29.4888 134.313 29.4343 134.215 29.3489C134.175 29.3204 134.142 29.273 134.113 29.2232C133.186 28.0211 134.279 23.3123 134.374 22.8926C134.215 23.3052 132.305 28.308 130.721 29.8136C130.572 29.9677 130.425 30.0697 130.278 30.1432C130.245 30.1574 130.211 30.1764 130.181 30.1859C128.557 30.8237 125.342 24.4622 124.989 23.7817C125.108 24.2678 125.847 27.2505 124.918 28.2108C124.866 28.2748 124.797 28.3175 124.733 28.3602C124.638 28.4242 124.524 28.4361 124.408 28.4123C123.048 28.1824 120.551 22.9542 120.21 22.2311C120.35 22.8784 121.198 26.6933 120.433 28.8391C120.371 29.0288 120.281 29.2114 120.177 29.3702C120.084 29.5481 119.966 29.7117 119.833 29.835C119.34 30.3044 118.683 30.2617 117.979 29.9677C117.97 29.9535 117.956 29.9535 117.956 29.9535C116.344 29.2635 114.485 27.2363 113.824 26.4657C114.082 26.8072 114.528 27.4047 114.933 28.0733C115.623 29.2541 116.154 30.6885 115.312 31.4496C113.956 32.7252 110.28 30.2499 109.052 29.3679C108.852 29.2398 108.717 29.145 108.668 29.1118C108.525 29.017 108.388 28.9624 108.253 28.9529C107.665 28.8794 107.103 29.4935 106.581 30.4823C104.735 34.0317 103.429 42.5389 103.429 42.5389C103.429 42.5389 102.784 41.3487 102.084 39.3641C101.582 37.9534 101.07 36.149 100.733 34.053C100.01 29.6642 100.043 25.1403 101.15 20.8298C101.307 20.1778 101.501 19.5447 101.717 18.9187C102.497 16.6117 103.751 14.5513 105.427 12.7968C105.61 12.5952 105.811 12.3937 106.015 12.204C106.859 11.3884 107.793 10.651 108.826 10.0061C109.007 9.87801 109.184 9.76183 109.376 9.66225C109.912 9.3469 110.46 9.04816 111.033 8.76364C111.199 8.68539 111.375 8.6024 111.555 8.5289C113.956 7.45719 116.692 6.74115 119.688 6.45663C119.873 6.43529 120.053 6.42343 120.229 6.41157C121.262 6.34044 122.324 6.30488 123.42 6.32622C124.067 6.32622 124.681 6.36889 125.283 6.43291C125.466 6.44477 125.658 6.46373 125.816 6.48507C130.619 7.05886 134.132 9.05527 136.534 11.7772C136.534 11.7772 136.543 11.7843 136.543 11.7962C136.747 12.0096 136.906 12.1993 137.077 12.4245C138.601 14.3355 139.604 16.5572 140.135 18.8263V18.8381C140.293 19.5068 140.412 20.1683 140.488 20.8369C141.32 28.0116 138.421 33.4603 138.421 33.4603Z" fill="#593620"/>
<path d="M113.679 26.2762C113.603 26.1811 113.553 26.1265 113.553 26.1265C113.553 26.1265 113.606 26.1859 113.679 26.2762Z" fill="#593620"/>
<path d="M134.13 126.902C133.99 133.539 133.599 152.125 133.599 152.125L132.124 152.555H132.11L130.806 152.922C130.806 152.936 130.795 152.967 130.785 152.977C129.955 151.231 127.535 145.944 125.368 139.772C122.713 132.211 124.97 128.363 125.105 126.369C125.238 124.37 122.585 108.437 122.585 108.437L122.099 108.527L120.992 108.717C120.992 108.717 119.399 124.37 118.062 131.68C116.908 138.096 115.635 150.143 114.99 153.422L113.21 153.114L111.441 152.794C111.425 152.794 111.406 152.803 111.396 152.815C110.619 151.099 107.411 143.609 107.188 136.723C106.916 128.896 109.843 125.966 109.843 125.966C109.843 125.966 109.184 123.106 108.781 116.937C108.319 109.966 109.737 100.579 109.711 100.75C109.711 100.75 110.898 101.409 113.243 101.94C115.111 102.376 117.704 102.725 120.995 102.597C127.661 102.362 132.712 99.9912 133.687 99.5051C134.514 107.218 134.26 120.475 134.13 126.902Z" fill="url(#paint11_linear)"/>
<path opacity="0.4" d="M57.4016 104.88C56.1286 104.486 55.0808 104.022 54.3388 103.638C54.289 103.405 54.27 103.182 54.2392 102.96C53.1985 95.6947 53.8552 89.1293 53.6086 85.6558C54.2084 85.4353 53.5992 85.3926 53.5992 85.3926C53.5992 85.3926 53.5897 85.4969 53.5802 85.6676C53.3858 85.7317 53.0942 85.817 52.6201 85.9237C50.5862 86.3576 47.0469 85.1294 47.0469 85.1294C47.0564 84.4063 47.1109 83.5977 47.2176 82.7489C49.0524 83.5337 52.3617 84.3233 53.3337 83.8016C53.3337 83.8016 53.95 73.7082 54.4786 71.937C54.4786 71.937 54.9219 72.1196 54.7418 74.0615C54.5687 76.0081 55.2775 90.5282 55.8085 94.8577C56.3372 99.2038 57.219 103.801 57.219 103.801L57.4016 104.88Z" fill="#11829A"/>
<path opacity="0.4" d="M73.7797 81.3097C75.432 87.057 74.1685 101.653 74.0073 103.363C74.0026 103.469 73.9907 103.533 73.9907 103.533C73.9907 103.533 73.7584 103.619 73.3341 103.744C73.8035 98.9359 74.0666 88.9491 73.6802 85.5609C73.2582 81.7056 70.9066 74.8534 70.7715 74.429C71.7529 76.3851 73.2464 79.3702 73.2464 79.3702C73.7798 78.8983 75.4486 77.7626 76.2499 77.139C76.743 78.187 77.0464 78.8343 77.0464 78.8343C76.2499 79.1876 73.7797 81.3097 73.7797 81.3097Z" fill="#11829A"/>
<path opacity="0.4" d="M67.7985 62.4861C67.4287 63.4155 66.5468 65.08 64.9206 65.6419C62.863 66.3556 60.4284 64.1482 58.9302 62.0877C59.5062 61.8317 59.9709 61.6301 60.2933 61.4997C60.3027 61.4997 60.3122 61.4902 60.3217 61.4902C60.3217 61.4902 61.4667 63.7024 63.5955 64.0509C65.1529 64.3165 65.7219 62.9579 65.8997 62.2158C65.9637 61.9478 65.985 61.7558 65.985 61.7558C65.985 61.7558 66.6085 61.4902 67.7582 62.4576C67.7724 62.4671 67.789 62.4766 67.7985 62.4861Z" fill="#11829A"/>
<path opacity="0.4" d="M77.71 35.9878C77.0297 34.8046 76.2213 33.7045 75.2754 32.7158L75.5386 28.832C75.5386 28.832 73.1514 29.797 71.2905 27.5872C69.496 25.4533 70.5936 21.7569 70.6647 21.4913C70.4632 21.6502 67.8816 23.6395 66.6039 22.4611C65.9282 21.828 65.7173 20.9057 65.6627 20.1754C65.5466 21.1831 65.1507 22.48 63.9512 22.3638C62.0926 22.1931 61.2013 19.5376 61.2013 19.5376C61.2013 19.5376 59.4376 23.1581 58.3803 23.1581C57.3159 23.1581 56.9485 20.2394 56.9485 20.2394C56.9485 20.2394 57.1334 26.2618 53.4993 27.407C50.0383 28.5119 45.8447 27.2577 45.4725 27.1533C45.8115 27.3999 49.4006 30.0649 48.8174 31.9238C48.1868 33.8776 45.8044 33.6974 45.8044 33.6974C45.8044 33.6974 47.753 34.7596 47.1272 36.2652C46.5108 37.7637 43.9435 38.475 43.9435 38.475C43.9435 38.475 43.87 38.3991 43.7515 38.2758C43.6969 38.2189 43.6329 38.1691 43.5642 38.0909C42.6681 37.2634 40.3758 35.4021 38.2802 36.168C35.6275 37.1448 36.6895 41.7446 38.1972 43.7837C39.6954 45.8252 43.7775 48.0326 45.9798 46.3515L47.7554 49.0095C47.7649 49.2632 47.7743 49.5406 47.7909 49.8251C47.8099 52.2815 47.2173 55.2334 44.8396 55.5559C42.1798 55.9139 40.9376 51.3046 40.9376 51.3046C40.9376 51.3046 37.6662 52.2815 34.7504 50.7735C31.8251 49.2774 29.9689 43.9639 33.2379 41.3084C33.2379 41.3084 28.4612 38.9184 28.3735 35.9949C28.2834 33.0762 29.7888 33.778 29.7888 33.778C29.7888 33.778 29.6204 33.3536 29.4687 32.7561C29.9191 33.4152 30.6232 34.0412 31.7326 34.7572C34.9163 36.7939 35.976 33.0785 35.976 33.0785C35.976 33.0785 36.7772 36.168 40.7551 35.4685C44.74 34.7596 43.1493 32.0163 43.1493 32.0163C43.1493 32.0163 45.8068 33.4271 46.5132 31.1224C47.2244 28.832 43.1493 24.6637 43.1493 24.6637C43.1493 24.6637 48.9905 26.1741 52.6174 23.7841C55.9979 21.5624 55.6186 16.8133 55.5499 16.1565C55.6542 16.7089 56.4009 20.2133 58.1907 19.9691C59.9899 19.7249 60.9666 16.9105 61.1017 16.4837C61.052 16.8891 60.7651 19.6301 63.0598 19.7984C65.5442 19.9691 66.509 16.8773 66.6939 17.1405C66.8741 17.4108 66.6939 21.0266 68.1021 21.0266C69.5268 21.0266 72.087 18.8192 72.087 18.8192C72.087 18.8192 72.3525 24.1303 75.7993 24.2132C78.0751 24.2796 80.3082 21.2708 81.3892 18.8618C81.823 19.8909 82.0316 21.1451 81.7376 22.6223C80.9317 26.6459 79.5923 27.3477 79.1466 27.4734C79.7606 27.4213 82.2473 27.3383 82.7048 29.3536C83.2382 31.6441 79.3078 35.5847 77.71 35.9878Z" fill="#C07311"/>
<path opacity="0.3" d="M39.7021 37.4531C39.7021 37.4531 42.7128 39.6653 43.4192 41.261C44.1233 42.8543 43.0684 44.092 43.0684 44.092C43.0684 44.092 41.6484 44.0043 41.0249 43.0298C40.4086 42.0577 41.9163 41.3487 41.9163 41.3487L39.7021 37.4531Z" fill="#D96042"/>
<path opacity="0.3" d="M97.9355 39.3591C98.2864 39.537 101.392 42.0147 102.184 43.608C102.98 45.2013 102.717 45.998 102.717 45.998C102.717 45.998 101.567 46.5291 100.327 45.7301C99.0876 44.9358 100.858 43.6957 100.858 43.6957L97.9355 39.3591Z" fill="#D96042"/>
<path opacity="0.7" d="M67.2252 30.5083C67.1374 31.4804 67.576 38.8733 68.1971 40.4666C68.1971 40.4666 70.6317 38.4394 72.623 40.7749C74.1686 42.5887 72.5329 45.0237 69.9679 45.1115C67.4029 45.2039 66.4263 43.5205 66.4263 43.5205C66.4263 43.5205 68.1094 44.7606 69.6147 44.4926C71.1176 44.2271 72.4475 43.3451 72.2674 42.2828C72.092 41.2182 70.1007 39.5396 67.9387 41.2633C67.9387 41.2633 67.5784 40.0659 67.0474 36.3481C66.5164 32.6327 67.2252 30.5083 67.2252 30.5083Z" fill="#D96042"/>
<path opacity="0.2" d="M68.491 54.1402C72.4807 53.6494 75.1997 52.8361 77.0464 52.0086C74.7137 54.1331 70.9066 55.5225 66.841 56.1603C64.1789 56.5729 61.3935 56.6819 58.8143 56.4472C58.2406 56.3974 57.6645 56.286 57.1122 56.1508C53.0941 55.1645 49.8061 52.1557 47.7911 49.8273C47.7745 49.5428 47.765 49.2677 47.7555 49.0117L45.98 46.3537C43.7777 48.0324 39.6955 45.825 38.1973 43.7859C36.6897 41.7468 35.6276 37.1447 38.2803 36.1702C40.3783 35.4043 42.6706 37.2656 43.5643 38.0931C43.6331 38.1998 43.7066 38.297 43.7777 38.3918C43.7777 38.3918 43.7611 38.3373 43.7516 38.278C43.8701 38.4037 43.9436 38.4772 43.9436 38.4772C43.9436 38.4772 46.511 37.7659 47.1273 36.2674C47.7555 34.7618 45.8045 33.6996 45.8045 33.6996C45.8045 33.6996 48.187 33.8774 48.8175 31.926C49.4007 30.0672 45.8093 27.4021 45.4726 27.1555C45.8448 27.2599 50.0384 28.5165 53.4994 27.4092C57.1335 26.264 56.9486 20.2416 56.9486 20.2416C56.9486 20.2416 57.3137 23.1604 58.3805 23.1604C59.4354 23.1604 61.2014 19.5398 61.2014 19.5398C61.2014 19.5398 62.0928 22.1953 63.9513 22.3661C65.1508 22.4822 65.5467 21.1853 65.6629 20.1776C65.7198 20.9103 65.9284 21.8326 66.604 22.4633C67.8817 23.6417 70.4633 21.6524 70.6648 21.4935C70.5937 21.7591 69.4961 25.4531 71.2906 27.5894C73.1515 29.7992 75.5387 28.8342 75.5387 28.8342L75.2756 32.718C76.2214 33.7067 77.0298 34.8092 77.7102 35.99C77.7386 36.0564 77.7694 36.1062 77.8026 36.1702C76.9848 35.1174 75.432 33.4269 74.1258 32.9622C74.1258 32.9622 74.792 30.3066 74.453 29.8372C74.453 29.8372 72.2673 30.2426 70.8047 28.9172C69.3539 27.5871 69.489 23.075 69.489 23.075C69.489 23.075 68.4246 24.5308 67.2843 24.3364C66.1607 24.1372 65.4306 22.2783 65.4306 22.2783C65.4306 22.2783 65.2433 23.81 64.103 23.9357C62.9794 24.0732 61.3176 21.2778 61.3176 21.2778C61.3176 21.2778 60.7155 23.4046 59.3216 23.9973C57.9348 24.6043 57.5247 23.9973 57.5247 23.9973C57.5247 23.9973 57.802 27.12 54.8056 28.4501C51.8211 29.7779 48.9029 29.1164 48.9029 29.1164C48.9029 29.1164 51.6859 32.303 49.5595 33.5597C48.1585 34.3848 47.6797 34.4156 47.5161 34.3326C47.8575 34.7902 49.2182 36.7653 48.1656 37.8062C46.978 39.0083 45.3138 39.3355 45.3138 39.3355C45.3138 39.3355 46.0463 43.8499 49.5595 47.8333C53.0941 51.8142 58.1363 55.4063 68.491 54.1402Z" fill="#D96042"/>
<path d="M49.0877 29.5173C48.7037 29.1047 50.2516 26.7195 53.0868 25.5031C55.9149 24.2844 56.9509 25.5008 57.022 26.5298C57.0979 27.5635 49.7917 30.2713 49.0877 29.5173Z" fill="#DC8017"/>
<path d="M67.8982 24.6211C67.2581 23.6229 70.5295 22.8547 72.3383 23.4498C74.1541 24.0426 75.3418 26.0082 74.8558 26.7479C74.3722 27.49 73.2344 26.2121 71.2502 25.8256C69.1854 25.4249 68.3842 25.3869 67.8982 24.6211Z" fill="#DC8017"/>
<path d="M66.8407 56.1604L66.6629 57.3056L65.8972 62.1922V62.216C65.7194 62.9581 65.1505 64.3167 63.593 64.0511C61.4666 63.7026 60.3192 61.4904 60.3192 61.4904C60.3097 61.4904 60.3002 61.4999 60.2908 61.4999C60.1651 61.2675 60.0134 61.002 59.8546 60.7056C58.9727 59.1431 57.676 56.9784 57.1118 56.1509C57.6618 56.286 58.2402 56.3975 58.8139 56.4473C61.3931 56.6796 64.1785 56.5729 66.8407 56.1604Z" fill="url(#paint12_linear)"/>
<path opacity="0.3" d="M66.8403 56.1604L66.6625 57.3056C64.3393 57.9647 60.5203 59.7169 60.5203 59.7169L59.8565 60.7056C58.9747 59.1431 57.678 56.9784 57.1138 56.1509C57.6637 56.286 58.2422 56.3975 58.8158 56.4473C61.3927 56.6796 64.1781 56.5729 66.8403 56.1604Z" fill="#D96042"/>
<path d="M55.1943 108.311C55.1943 108.527 54.9169 109.067 54.5566 109.679C53.8905 110.796 52.9067 112.176 52.8024 112.294C51.3682 113.715 47.3145 100.878 46.6958 96.0101C46.0699 91.1377 46.5156 88.1289 47.0466 85.1248C47.0466 85.1248 48.8506 85.7483 50.6262 85.9522C51.335 86.04 52.0367 86.0542 52.6199 85.9214C53.094 85.8171 53.3856 85.7294 53.5799 85.6653C53.5894 85.6653 53.5989 85.6559 53.6084 85.6559C53.8668 89.248 53.5989 92.6457 53.9497 97.3427C54.1512 99.984 55.1943 108.005 55.1943 108.311Z" fill="url(#paint13_linear)"/>
<path opacity="0.2" d="M55.1945 108.311C55.1945 108.527 54.9172 109.067 54.5568 109.679C54.1206 108.652 53.6536 107.526 53.6204 107.313C53.5541 106.919 52.7528 102.872 52.025 100.216C51.2973 97.5606 51.0934 94.502 50.8279 92.1736C50.5814 89.9947 50.6169 88.1832 50.624 85.9497C51.3328 86.0374 52.0345 86.0517 52.6177 85.9189C53.0918 85.8145 53.3834 85.7268 53.5778 85.6628C53.5873 85.6628 53.5967 85.6533 53.6062 85.6533C53.8646 89.2454 53.5967 92.6431 53.9476 97.3401C54.1515 99.9838 55.1945 108.005 55.1945 108.311Z" fill="#D96042"/>
<path d="M59.655 157.97C59.655 157.97 57.5309 158.766 53.4227 158.107C52.8135 158.015 52.273 157.894 51.806 157.78C49.5421 157.194 48.7764 156.445 48.7764 156.445C48.9945 156.163 49.9427 154.933 51.1375 153.986C52.1853 153.128 53.4298 152.49 54.5464 152.86C56.9359 153.657 59.655 157.97 59.655 157.97Z" fill="#FC9226"/>
<path opacity="0.5" d="M51.1365 153.987C51.2005 155.229 51.5087 156.673 51.805 157.78C49.5411 157.195 48.7754 156.445 48.7754 156.445C48.9935 156.161 49.9417 154.933 51.1365 153.987Z" fill="#FC9226"/>
<path d="M80.5005 158.236C80.5005 158.236 77.4566 158.895 73.9908 158.364C73.1185 158.226 72.2485 158.034 71.4709 157.842C69.8163 157.429 68.5527 156.972 68.5527 156.972C69.2355 156.325 70.0818 155.516 71.0916 154.857C72.1655 154.165 73.4053 153.655 74.7921 153.719C77.5846 153.859 80.5005 158.236 80.5005 158.236Z" fill="#FC9226"/>
<path opacity="0.5" d="M71.4704 157.842C69.8158 157.429 68.5522 156.972 68.5522 156.972C69.235 156.324 70.0813 155.516 71.0911 154.857C71.0911 156.109 71.231 157.1 71.4704 157.842Z" fill="#FC9226"/>
<path opacity="0.4" d="M34.8352 23.8693C34.5697 23.7365 30.5848 18.8237 33.4413 17.4936C36.2932 16.1682 38.9458 21.9416 38.9458 21.9416C38.9458 21.9416 39.0146 18.2239 40.8044 18.1575C42.5965 18.0911 44.0592 21.5433 41.9328 23.8669C41.9328 23.8669 43.1228 19.618 41.3377 19.0205C39.5456 18.423 39.2137 23.4709 39.2137 23.4709C39.2137 23.4709 35.4966 16.6282 33.6357 18.2239C31.7772 19.8196 34.8352 23.8693 34.8352 23.8693Z" fill="#C07311"/>
<path opacity="0.4" d="M45.3871 9.06693C44.9889 8.9958 42.7297 11.189 43.9932 12.9791C45.2497 14.7716 48.6372 11.9857 48.6372 11.9857C48.6372 11.9857 49.3697 14.8404 51.4938 13.9773C53.6178 13.1143 52.2926 8.46943 52.3567 8.66623C52.4207 8.86777 52.4207 12.8487 51.0979 13.2471C49.768 13.6454 48.9051 11.253 48.9051 11.253C48.9051 11.253 46.0509 13.3775 44.7921 12.4504C43.531 11.5186 45.3871 9.06693 45.3871 9.06693Z" fill="#C07311"/>
<path opacity="0.4" d="M65.7627 11.5188C65.7627 11.5188 65.7627 9.0648 66.8935 9.1952C68.0219 9.32561 67.69 12.0499 67.69 12.0499C67.69 12.0499 67.4292 9.79507 66.7607 9.92548C66.0946 10.0606 65.7627 11.5188 65.7627 11.5188Z" fill="#C07311"/>
<g opacity="0.4">
<g opacity="0.4">
<path opacity="0.4" d="M109.051 29.3747C108.855 29.2371 108.72 29.1447 108.67 29.1115C108.525 29.0166 108.39 28.9645 108.255 28.955C105.96 23.8763 105.097 17.7969 105.434 12.7988C105.612 12.5973 105.813 12.3957 106.017 12.2061C105.541 17.4389 106.456 24.0565 109.051 29.3747Z" fill="#683F27"/>
</g>
<g opacity="0.4">
<path opacity="0.4" d="M113.823 26.4726C114.081 26.8117 114.536 27.4044 114.928 28.073C109.923 22.8591 108.835 15.4426 108.828 10.0011C109.006 9.88251 109.184 9.76633 109.376 9.66675C109.326 15.8575 110.663 24.8816 117.952 29.958C116.345 29.2657 114.489 27.2313 113.823 26.4726Z" fill="#683F27"/>
</g>
<g opacity="0.4">
<path opacity="0.4" d="M130.716 29.8181C130.572 29.9698 130.42 30.0765 130.273 30.1476C129.576 28.4737 128.488 26.0481 127.255 23.5965C125.103 19.3476 124.984 12.9269 125.293 6.43262C125.47 6.4421 125.653 6.46107 125.824 6.4919C125.515 12.8866 125.632 19.2172 127.722 23.3523C128.938 25.747 129.998 28.1417 130.716 29.8181Z" fill="#683F27"/>
</g>
<g opacity="0.4">
<path opacity="0.4" d="M124.908 28.2104C124.858 28.2744 124.794 28.3195 124.73 28.3598C124.635 28.4238 124.519 28.4357 124.406 28.412C120.079 21.8087 118.882 11.9997 119.69 6.461C119.873 6.43966 120.056 6.4278 120.233 6.41357C119.399 11.8575 120.565 21.6664 124.908 28.2104Z" fill="#683F27"/>
</g>
<g opacity="0.4">
<path opacity="0.4" d="M120.432 28.8388C120.373 29.0332 120.288 29.211 120.181 29.3722C116.199 24.6349 113.764 21.6403 112.33 16.7299C111.422 13.6096 111.121 10.7122 111.028 8.768C111.197 8.6945 111.374 8.60915 111.557 8.53564C111.63 10.4467 111.91 13.3868 112.842 16.5782C114.212 21.3179 116.575 24.2579 120.432 28.8388Z" fill="#683F27"/>
</g>
<g opacity="0.4">
<path opacity="0.4" d="M134.732 29.5191C134.675 29.5191 134.611 29.5191 134.549 29.512C134.423 29.4883 134.317 29.4361 134.215 29.3532C136.27 25.2963 136.683 18.1548 136.547 11.8052C136.744 12.0162 136.905 12.2059 137.076 12.4288C137.183 18.6314 136.73 25.4718 134.732 29.5191Z" fill="#683F27"/>
</g>
</g>
<path opacity="0.3" d="M106.581 30.4845C104.735 34.0339 103.429 42.5412 103.429 42.5412C103.429 42.5412 102.784 41.3509 102.084 39.3664C101.582 37.9556 101.07 36.1512 100.733 34.0553C100.01 29.6665 100.043 25.1426 101.15 20.832C101.169 22.5178 101.53 24.2297 103.075 26.2593C104.441 28.0518 105.7 29.5195 106.581 30.4845Z" fill="#593620"/>
<path opacity="0.3" d="M138.421 33.4599C137.89 32.016 137.862 27.236 137.862 27.236C137.862 27.236 136.397 29.5738 134.73 29.5193C134.676 29.5193 134.612 29.5193 134.552 29.5098C134.42 29.4884 134.313 29.4339 134.216 29.3485C134.175 29.3201 134.142 29.2727 134.114 29.2229C134.742 28.5211 135.493 27.8287 136.254 27.319C137.869 26.2472 139.282 23.0203 140.133 18.8425C140.292 19.5112 140.41 20.1727 140.486 20.8413C141.32 28.0113 138.421 33.4599 138.421 33.4599Z" fill="#593620"/>
<path opacity="0.2" d="M145.054 35.613C144.229 34.8377 143.314 34.1904 142.624 34.3089C141.031 34.5721 138.722 38.2069 138.722 37.939C138.722 37.6734 136.34 31.2171 136.605 29.7921C136.605 29.7921 133.331 31.5656 132.72 29.7921C132.72 29.7921 132.004 31.651 130.496 31.0345C129 30.4181 126.08 27.9332 126.08 27.9332C126.08 27.9332 125.554 29.3559 124.657 29.7091C123.773 30.0577 121.038 26.1716 121.038 26.1716C121.038 26.1716 121.652 31.651 119.878 31.7458C118.115 31.8312 116.424 30.1573 116.424 30.1573C116.424 30.1573 117.406 33.5123 115.099 33.076C112.802 32.6302 107.841 30.769 107.841 30.769C106.165 33.3392 105.721 39.5347 106.248 43.2501C106.786 46.9678 111.74 53.6067 117.664 55.1147C123.591 56.6132 134.126 55.2001 136.52 51.7478C137.034 50.9939 137.492 50.4959 137.862 50.1735C137.601 50.8895 137.293 51.5582 136.92 52.1414C135.308 54.7116 130.359 56.2528 125.11 56.7721C123.003 56.9854 120.862 57.0376 118.864 56.9191C118.356 56.9001 117.844 56.8147 117.349 56.6986C110.899 55.2665 105.186 47.5013 105.186 47.5013C105.186 47.5013 102.936 49.3602 99.3444 48.0324C98.785 47.8214 98.2279 47.5322 97.7158 47.1812C97.2488 44.5494 96.5163 41.0735 95.5586 38.5365C98.2042 35.0605 101.435 38.2164 102.346 40.0634L103.322 42.4582C103.322 42.4582 105.754 27.1295 108.63 29.0524C109.026 29.3084 113.679 32.8958 115.275 31.4329C116.6 30.2236 114.54 27.3737 113.803 26.4419C114.763 27.5468 118.198 31.3167 119.786 29.8395C121.569 28.1869 120.286 22.596 120.187 22.1716C120.364 22.5652 123.408 29.1591 124.705 28.3885C125.911 27.6558 125.106 24.3198 124.977 23.81C125.331 24.4929 128.517 30.8709 130.141 30.2474C131.798 29.6072 134.199 23.4259 134.377 22.9707C134.254 23.452 132.869 29.325 134.517 29.5882C136.242 29.8419 137.838 27.3239 137.838 27.3239C137.838 27.3239 137.838 32.1039 138.367 33.5621C138.367 33.5621 140.491 30.5129 142.351 30.6504C144.02 30.7642 145.047 32.5804 145.054 35.613Z" fill="#D96042"/>
<path d="M109.421 32.4404C108.873 31.9875 109.748 29.5359 111.431 28.1228C113.117 26.7073 118.534 27.9189 118.534 29.313C118.534 30.6408 116.917 30.1524 115.201 30.2164C113.48 30.2757 109.421 32.4404 109.421 32.4404Z" fill="#482B1B"/>
<path d="M129.898 29.2585C128.455 29.7753 130.702 25.7991 133.684 26.1477C136.097 26.4322 136.927 28.0587 136.745 28.6586C136.56 29.2585 131.138 28.8151 129.898 29.2585Z" fill="#3B2116"/>
<path d="M125.114 56.7744L124.242 59.3992L123.246 62.3701C123.246 62.3701 122.056 64.4945 120.461 64.4945C118.868 64.4945 118.204 62.3701 118.204 62.3701C118.318 61.7986 118.263 60.9783 118.126 60.12C117.946 58.8586 117.585 57.4976 117.355 56.7009C117.851 56.8171 118.363 56.9025 118.87 56.9214C120.866 57.0424 123.009 56.9902 125.114 56.7744Z" fill="url(#paint14_linear)"/>
<path opacity="0.3" d="M125.114 56.7744L124.242 59.3992C122.779 59.3683 119.954 59.6434 118.126 60.12C117.946 58.8586 117.585 57.4976 117.355 56.7009C117.851 56.8171 118.363 56.9025 118.87 56.9214C120.866 57.0424 123.009 56.9902 125.114 56.7744Z" fill="#D96042"/>
<path opacity="0.4" d="M117.225 81.8433C117.049 83.4342 115.101 85.4733 113.512 85.8266C113.512 85.8266 112.889 90.0755 112.711 92.8235C112.604 94.5923 112.924 99.0095 113.178 101.916C110.871 101.397 109.708 100.75 109.708 100.75C109.736 100.579 109.762 100.356 109.8 100.1C110.246 97.0534 111.184 88.2901 111.713 83.2754L117.225 81.8433Z" fill="#FCAE12"/>
<path opacity="0.4" d="M133.869 99.4128C133.869 99.4128 133.791 99.4531 133.684 99.5077C133.4 99.657 132.752 99.9653 131.809 100.326C132.112 98.3411 132.416 95.9369 132.357 94.3246C132.276 91.1403 131.92 84.8618 131.92 84.8618C131.92 84.8618 131.129 84.4161 130.408 83.4368C129.701 82.4718 130.678 81.0492 130.678 81.0492C130.678 81.0492 130.059 79.9846 130.761 79.5483L133.376 81.0136C133.004 81.6562 132.812 82.4623 132.93 83.4843C133.461 88.0058 133.869 99.4128 133.869 99.4128Z" fill="#FCAE12"/>
<path opacity="0.4" d="M111.033 142.655C111.297 146.764 112.596 151.3 113.21 153.116L111.441 152.796C111.425 152.796 111.406 152.806 111.396 152.817C110.619 151.101 107.411 143.611 107.188 136.725C106.916 128.899 109.843 125.968 109.843 125.968C109.843 125.968 109.184 123.108 108.781 116.939C108.319 109.968 109.737 100.581 109.711 100.752C109.711 100.752 110.898 101.411 113.243 101.942C112.84 103.906 111.915 108.759 111.915 111.946C111.915 116.014 111.835 125.755 111.835 125.755C111.835 125.755 110.77 138.501 111.033 142.655Z" fill="url(#paint15_linear)"/>
<path opacity="0.4" d="M128.098 157.96C128.12 158.033 128.136 158.078 128.108 158.057C128.089 158.033 128.089 158 128.098 157.96Z" fill="url(#paint16_linear)"/>
<path opacity="0.4" d="M132.11 152.554L130.806 152.922C130.806 152.936 130.794 152.967 130.785 152.976C129.955 151.231 127.535 145.944 125.368 139.772C122.713 132.211 124.97 128.363 125.105 126.369C125.238 124.37 122.585 108.437 122.585 108.437L122.099 108.527L123.334 107.431C123.334 107.431 124.662 109.641 125.558 112.477C126.435 115.298 128.03 127.165 128.03 127.165C128.03 127.165 128.21 135.047 128.642 138.584C129.066 141.984 130.882 148.813 132.11 152.554Z" fill="url(#paint17_linear)"/>
<path d="M115.153 153.458L114.463 158.757L114.345 159.701C114.345 159.701 112.754 160.626 110.096 160.232C107.441 159.826 106.787 157.704 106.787 157.704C106.804 157.368 106.891 157.048 107.027 156.737C107.861 154.878 110.552 153.51 111.398 152.818C111.407 152.806 111.426 152.796 111.443 152.796L114.992 153.425L115.153 153.458Z" fill="#74342B"/>
<path opacity="0.4" d="M114.463 158.757L114.345 159.701C114.345 159.701 112.754 160.626 110.096 160.232C107.441 159.827 106.787 157.705 106.787 157.705C106.804 157.368 106.891 157.048 107.027 156.737C107.648 157.43 108.482 158.281 109.241 158.639C110.48 159.222 112.216 159.073 114.463 158.757Z" fill="#74342B"/>
<path d="M141.959 159.298C141.959 159.298 139.705 159.957 135.587 159.563C131.479 159.17 130.021 157.439 130.021 157.439C129.967 157.192 129.948 156.898 129.967 156.554C130.002 155.25 130.467 153.465 130.789 152.979C130.799 152.967 130.811 152.936 130.811 152.924L133.603 152.128C136.976 152.946 140.127 156.758 141.376 158.47C141.744 158.978 141.959 159.298 141.959 159.298Z" fill="#74342B"/>
<path opacity="0.4" d="M141.959 159.298C141.959 159.298 139.705 159.957 135.587 159.563C131.479 159.17 130.021 157.439 130.021 157.439C129.967 157.192 129.948 156.898 129.967 156.555C132.423 157.451 138.283 158.629 141.376 158.47C141.744 158.978 141.959 159.298 141.959 159.298Z" fill="#74342B"/>
<path d="M111.431 63.3017C111.325 64.2217 112.562 73.1296 112.361 77.2433C112.161 81.3571 110.77 87.1993 110.77 87.1993L110.701 91.9817C110.701 91.9817 114.288 87.1329 115.217 83.2207C116.142 79.3038 117.476 66.4884 115.812 61.2437C115.812 61.2413 111.559 62.1091 111.431 63.3017Z" fill="#74342B"/>
<path d="M127.76 59.852C127.587 61.6516 128.557 69.6752 129.685 75.5838C130.811 81.4924 133.471 90.0542 133.471 90.0542C133.471 90.0542 133.535 83.6168 133.535 83.0193C133.535 82.4218 132.139 63.3706 132.338 61.8389C132.338 61.8413 127.957 57.7916 127.76 59.852Z" fill="#74342B"/>
<path d="M117.662 81.2675C117.669 81.2912 117.669 81.322 117.669 81.3552C117.669 82.555 114.486 84.9426 111.973 84.5419C111.973 84.5419 110.377 92.115 107.317 95.9726C104.261 99.8161 102.943 100.473 101.881 100.345C101.402 100.293 101.158 98.4433 101.232 96.0343C101.315 93.1559 101.848 89.4571 102.943 87.0694C104.925 82.6901 109.315 79.5058 109.315 79.5058C109.315 79.5058 110.1 77.3838 110.633 76.9783C112.672 75.4609 115.287 73.9197 116.218 73.794C117.143 73.6636 116.97 75.2925 116.567 75.6956C116.567 75.6956 117.278 75.6505 117.532 76.4472C117.802 77.2012 116.735 77.9552 116.621 78.0287C116.728 77.9931 117.653 77.6612 117.814 78.4413C118.063 79.7216 116.152 81.1395 115.853 81.4572C116.112 81.2912 117.586 80.3262 117.662 81.2675Z" fill="url(#paint18_linear)"/>
<path opacity="0.2" d="M117.669 81.355C117.669 82.5547 114.485 84.9424 111.972 84.5417C111.972 84.5417 110.377 92.1147 107.316 95.9724C104.261 99.8158 102.943 100.473 101.881 100.345C101.402 100.292 101.158 98.443 101.231 96.034C102.651 95.3867 105.759 93.8361 106.968 92.2925C108.559 90.2535 111.297 83.432 111.297 83.432C112.691 83.7521 116.137 82.3816 117.662 81.2649C117.669 81.291 117.669 81.3218 117.669 81.355Z" fill="#D96042"/>
<path d="M143.691 94.9051C143.657 94.9478 143.636 94.9881 143.601 95.0237C142.363 96.7332 139.639 96.2874 136.785 93.0368C133.869 89.7221 133.869 83.7518 133.869 83.7518C133.869 83.7518 131.615 83.3487 131.086 82.4146C130.906 82.1063 130.821 81.874 130.776 81.6914C130.695 81.3429 131.032 80.954 131.032 80.954C131.032 80.954 130.548 79.8041 130.238 79.2753C129.681 78.3364 131.122 78.3459 131.122 78.3459C131.122 78.3459 130.46 78.123 130.06 77.1959C129.657 76.2712 130.989 75.8682 130.989 75.8682C130.2 74.8059 130.02 73.5208 131.475 73.2553C132.928 72.9921 134.526 73.9144 136.252 75.6477C136.252 75.6477 139.049 78.5688 141.827 83.6119C144.61 88.6622 144.885 93.0368 143.691 94.9051Z" fill="url(#paint19_linear)"/>
<path opacity="0.2" d="M143.6 95.0237C142.363 96.7332 139.639 96.2875 136.785 93.0368C133.869 89.7221 133.869 83.7518 133.869 83.7518C133.869 83.7518 131.615 83.3488 131.086 82.4146C130.906 82.1063 130.82 81.874 130.775 81.6914C132.048 82.5521 133.836 83.2302 134.661 83.0808C134.661 83.0808 135.645 88.3113 138.198 90.9645C139.791 92.6029 142.083 94.1109 143.6 95.0237Z" fill="#D96042"/>
<path d="M119.195 72.5274L119.728 74.7846C119.728 74.7846 125.37 74.7846 125.306 74.9862C125.235 75.183 124.706 80.4301 124.706 80.4301C124.706 80.4301 121.852 80.8924 121.852 81.0916C121.852 81.2907 121.72 83.1496 121.72 83.1496L123.708 83.6144C123.708 83.6144 122.782 88.5935 123.249 91.8466L125.107 91.4482L126.304 83.2184L128.886 83.0192L129.353 80.2973L126.631 80.4941L127.828 71.0005L119.195 72.5274Z" fill="#669805"/>
<path opacity="0.7" d="M127.627 32.7654C127.627 32.7654 125.7 38.1405 127.826 40.9952C127.826 40.9952 129.159 39.9354 129.818 40.4665C130.481 40.9952 131.278 43.5891 128.689 44.317C126.101 45.0473 125.105 43.7859 125.105 43.7859C125.105 43.7859 125.105 45.1113 127.426 45.3129C129.749 45.512 131.143 44.5849 131.143 42.3941C131.143 40.2009 129.486 38.2093 127.888 40.2009C127.888 40.2009 127.156 38.2756 127.362 36.0872C127.559 33.8916 127.627 32.7654 127.627 32.7654Z" fill="#D96042"/>
<path d="M120.589 46.7045C121.651 47.366 127.699 48.561 132.603 45.2439C132.603 45.2439 131.21 49.8247 129.553 50.3558C127.888 50.887 124.901 51.0861 124.169 50.5526C123.444 50.0263 120.589 46.7045 120.589 46.7045Z" fill="white"/>
<path d="M138.705 57.4382C138.686 57.4595 138.662 57.4833 138.646 57.507C137.669 58.5763 138.172 60.0629 139.459 60.5443C140.936 61.0991 142.669 60.5395 143.698 59.4062C143.721 59.3848 143.74 59.3611 143.764 59.3374C144.736 58.2681 144.231 56.7838 142.946 56.3001C141.469 55.7453 139.739 56.3049 138.705 57.4382Z" fill="white"/>
<path d="M60.9902 40.1322C60.6725 41.0237 59.1222 41.7682 57.4793 42.0291C56.4221 42.2021 55.3316 42.1713 54.4806 41.8607C52.2949 41.0664 50.6947 38.8045 51.2992 36.7417C51.8871 34.6907 54.5422 33.0239 57.7306 34.2853C58.7761 34.7026 59.5346 35.3617 60.0585 36.0896C61.1277 37.5905 61.2533 39.4067 60.9902 40.1322Z" fill="white"/>
<path d="M75.1258 37.6117C74.5332 37.901 73.9002 38.1642 73.2933 38.3562C72.0156 38.7569 70.7734 38.8992 69.8797 38.406C69.2207 38.0338 68.7537 34.8187 69.5431 33.0949C70.3467 31.3641 73.2056 29.6451 75.0523 31.236C75.3368 31.4826 75.5904 31.7909 75.7682 32.1275C76.88 33.9698 76.6453 36.8815 75.1258 37.6117Z" fill="white"/>
<path d="M60.9905 40.132C60.6728 41.0235 59.1225 41.768 57.4797 42.0288C56.1592 41.621 55.2134 40.3975 55.2134 38.9417C55.2134 37.1421 56.6642 35.6792 58.4658 35.6792C59.0371 35.6792 59.58 35.8286 60.0588 36.0894C61.128 37.5902 61.2536 39.4065 60.9905 40.132Z" fill="url(#paint20_linear)"/>
<path d="M75.1262 37.6119C74.5335 37.9011 73.9006 38.1643 73.2937 38.3564C72.0681 37.8585 71.21 36.6587 71.21 35.2527C71.21 33.4057 72.7082 31.8977 74.5643 31.8977C74.9887 31.8977 75.4035 31.9831 75.771 32.1301C76.8804 33.97 76.6457 36.8816 75.1262 37.6119Z" fill="url(#paint21_linear)"/>
<path d="M60.8954 39.5369C61.2107 38.6075 60.8954 34.4487 58.731 32.9858C56.5643 31.5276 52.4893 32.6752 51.4296 34.8873C50.37 37.1042 51.2068 38.5624 51.2068 38.5624C51.2068 38.5624 51.9844 33.7611 56.4079 34.5554C60.9523 35.3734 60.8954 39.5369 60.8954 39.5369Z" fill="url(#paint22_linear)"/>
<path d="M69.8806 38.5625C69.7455 38.5174 68.4179 36.5234 68.7759 34.2235C69.1267 31.9236 70.5917 29.6213 73.5076 30.022C76.4281 30.418 77.2246 34.4487 76.1602 36.3053C76.1602 36.3053 76.3831 32.7203 74.6597 31.6604C73.8631 31.1672 71.5163 31.2621 70.2741 33.4268C69.1647 35.3758 69.8806 38.5625 69.8806 38.5625Z" fill="url(#paint23_linear)"/>
<path d="M54.4805 39.0676C54.4805 38.444 54.9878 37.939 55.6089 37.939C56.2347 37.939 56.7373 38.4416 56.7373 39.0676C56.7373 39.6912 56.2347 40.1962 55.6089 40.1962C54.9878 40.1986 54.4805 39.6935 54.4805 39.0676Z" fill="white"/>
<path d="M70.5435 34.8875C70.5435 34.2639 71.0484 33.7612 71.6742 33.7612C72.3024 33.7612 72.8026 34.2639 72.8026 34.8875C72.8026 35.511 72.3024 36.0161 71.6742 36.0161C71.0484 36.0161 70.5435 35.511 70.5435 34.8875Z" fill="white"/>
<path opacity="0.5" d="M51.2066 38.5627C51.2066 38.5627 52.2947 35.2883 55.3456 35.4187C58.3942 35.5563 60.9923 40.1323 60.9923 40.1323C60.9923 40.1323 61.5874 36.4146 59.0651 34.4917C56.5428 32.564 51.0573 33.2066 51.2066 38.5627Z" fill="#909090"/>
<path opacity="0.5" d="M69.8804 38.4084C69.8804 38.4084 69.0815 34.6906 71.3383 33.1613C73.5975 31.6343 76.2122 32.9408 76.1601 36.3053C76.1601 36.3053 77.0443 33.2964 75.4536 31.6367C73.863 29.977 70.6651 30.6978 69.7453 32.6966C68.2186 36.016 69.8804 38.4084 69.8804 38.4084Z" fill="#909090"/>
<path d="M67.9595 50.1379C66.9543 50.1379 65.9326 49.9672 65.0484 49.8107C64.3206 49.685 63.6972 49.5831 63.3345 49.621C63.1993 49.6471 63.0618 49.5357 63.0405 49.3887C63.0287 49.2417 63.1282 49.1089 63.2776 49.0923C63.7138 49.0425 64.3396 49.1516 65.1337 49.2867C66.5253 49.5309 68.2653 49.8226 69.6615 49.3697C71.814 48.6703 73.106 47.0224 73.1202 47.0058C73.2079 46.8872 73.3762 46.8659 73.49 46.956C73.6085 47.0461 73.6346 47.2121 73.5422 47.3283C73.4853 47.3994 72.1364 49.1279 69.8298 49.8771C69.2372 50.0715 68.5995 50.1379 67.9595 50.1379Z" fill="#D83645"/>
<path d="M121.324 39.8025C121.252 39.8642 121.141 39.9306 121.006 39.9993C120.06 40.5115 117.711 41.1588 115.046 40.4996C114.048 40.2554 112.996 39.831 111.969 39.1434C110.715 38.304 111.559 34.2211 114.153 33.2253C116.746 32.2366 120.39 33.5549 121.321 36.0184C122.246 38.4748 122.12 39.1434 121.324 39.8025Z" fill="white"/>
<path d="M138.115 35.9756C138.103 36.3028 137.985 36.6229 137.783 36.9216C136.913 38.1949 134.448 39.0745 132.006 38.8019C130.927 38.6715 129.837 38.3205 128.905 37.6827C128.087 37.1327 129.595 32.3503 132.803 31.7552C136.022 31.1743 138.174 33.6069 138.115 35.9756Z" fill="white"/>
<path d="M121.988 38.8066C122.118 38.5387 121.988 33.5595 117.934 32.3645C113.885 31.1719 110.633 34.2234 111.432 38.5387C111.432 38.5387 112.47 35.0699 115.082 34.489C120.459 33.294 121.988 38.8066 121.988 38.8066Z" fill="url(#paint24_linear)"/>
<path d="M128.62 37.159C128.829 35.5799 130.083 31.8953 133.364 31.4377C136.647 30.9754 138.669 34.9895 138.107 36.571C138.107 36.571 136.362 32.9504 133.643 33.0144C131.27 33.0737 128.62 37.159 128.62 37.159Z" fill="url(#paint25_linear)"/>
<path d="M121.385 38.4083C121.385 38.982 121.25 39.525 121.006 39.9992C120.06 40.5114 117.711 41.1587 115.046 40.4995C114.596 39.9139 114.345 39.1931 114.345 38.4059C114.345 36.464 115.926 34.8896 117.867 34.8896C119.816 34.892 121.385 36.4664 121.385 38.4083Z" fill="#573317"/>
<path d="M137.783 36.9241C136.913 38.1974 134.448 39.077 132.006 38.8043C131.624 38.2803 131.409 37.6307 131.409 36.9454C131.409 35.1933 132.836 33.7588 134.595 33.7588C136.344 33.7588 137.771 35.179 137.783 36.9241Z" fill="#573317"/>
<path d="M113.423 38.4748C113.423 37.7777 113.989 37.2134 114.682 37.2134C115.381 37.2134 115.945 37.7777 115.945 38.4748C115.945 39.1719 115.381 39.7362 114.682 39.7362C113.989 39.7362 113.423 39.1695 113.423 38.4748Z" fill="white"/>
<path d="M130.351 36.9452C130.351 36.2505 130.91 35.6838 131.607 35.6838C132.302 35.6838 132.868 36.2505 132.868 36.9452C132.868 37.647 132.302 38.2066 131.607 38.2066C130.912 38.2066 130.351 37.6447 130.351 36.9452Z" fill="white"/>
<path opacity="0.5" d="M121.987 38.807C121.987 38.807 119.795 35.554 117.073 35.3548C114.354 35.158 111.431 38.5391 111.431 38.5391C111.431 38.5391 112.093 32.6305 117.073 33.228C122.051 33.8255 121.987 38.807 121.987 38.807Z" fill="#909090"/>
<path opacity="0.5" d="M128.554 37.2112C128.618 37.012 131.209 34.0909 133.867 34.1573C136.522 34.2213 138.105 36.571 138.105 36.571C138.105 36.571 137.776 32.0993 133.995 32.168C130.199 32.2344 128.554 37.2112 128.554 37.2112Z" fill="#909090"/>
<path d="M247.028 34.0883C247.028 34.0883 245.248 35.5418 242.64 35.8286C242.413 35.8595 242.166 35.8808 241.92 35.8808C238.94 35.9567 238.532 35.2217 238.532 35.2217C237.683 34.3207 238.323 31.7932 240.158 30.6456C240.49 30.444 240.846 30.271 241.258 30.1761C243.913 29.5099 246.765 32.4902 247.028 34.0883Z" fill="white"/>
<path d="M232.099 35.8168C232.099 35.8168 230.489 37.2489 228.562 37.7184C228.258 37.7943 227.915 37.8583 227.576 37.9009C226.068 38.1025 224.423 37.965 224.053 36.8814C223.607 35.6129 224.266 33.3296 226.672 32.5993C226.8 32.5543 226.931 32.5235 227.059 32.4903C229.775 31.8999 231.501 34.425 232.099 35.8168Z" fill="white"/>
<path d="M228.119 35.2883C228.119 34.7738 228.536 34.3589 229.05 34.3589C229.567 34.3589 229.977 34.7738 229.977 35.2883C229.977 35.8005 229.567 36.2154 229.05 36.2154C228.534 36.213 228.119 35.8005 228.119 35.2883Z" fill="white"/>
<path d="M242.541 33.0283C242.541 32.5185 242.961 32.0989 243.477 32.0989C243.987 32.0989 244.407 32.5185 244.407 33.0283C244.407 33.5428 243.987 33.9601 243.477 33.9601C242.961 33.9601 242.541 33.5428 242.541 33.0283Z" fill="white"/>
<defs>
<linearGradient id="paint0_linear" x1="73.4728" y1="108.085" x2="53.7498" y2="147.258" gradientUnits="userSpaceOnUse">
<stop stop-color="#5D1B4B"/>
<stop offset="1" stop-color="#4D1841"/>
</linearGradient>
<linearGradient id="paint1_linear" x1="64.5727" y1="103.604" x2="44.8496" y2="142.777" gradientUnits="userSpaceOnUse">
<stop stop-color="#5D1B4B"/>
<stop offset="1" stop-color="#4D1841"/>
</linearGradient>
<linearGradient id="paint2_linear" x1="73.7657" y1="120.016" x2="60.9697" y2="145.431" gradientUnits="userSpaceOnUse">
<stop stop-color="#5D1B4B"/>
<stop offset="1" stop-color="#4D1841"/>
</linearGradient>
<linearGradient id="paint3_linear" x1="90.463" y1="92.3955" x2="78.1618" y2="85.7595" gradientUnits="userSpaceOnUse">
<stop stop-color="#F3C299"/>
<stop offset="1" stop-color="#F29E7F"/>
</linearGradient>
<linearGradient id="paint4_linear" x1="90.6232" y1="86.279" x2="90.6415" y2="84.3589" gradientUnits="userSpaceOnUse">
<stop stop-color="#F3C299"/>
<stop offset="1" stop-color="#F29E7F"/>
</linearGradient>
<linearGradient id="paint5_linear" x1="90.5368" y1="88.0833" x2="90.5562" y2="86.043" gradientUnits="userSpaceOnUse">
<stop stop-color="#F3C299"/>
<stop offset="1" stop-color="#F29E7F"/>
</linearGradient>
<linearGradient id="paint6_linear" x1="91.2886" y1="89.3977" x2="91.3066" y2="87.5038" gradientUnits="userSpaceOnUse">
<stop stop-color="#F3C299"/>
<stop offset="1" stop-color="#F29E7F"/>
</linearGradient>
<linearGradient id="paint7_linear" x1="90.8944" y1="90.7262" x2="91.0029" y2="88.9702" gradientUnits="userSpaceOnUse">
<stop stop-color="#F3C299"/>
<stop offset="1" stop-color="#F29E7F"/>
</linearGradient>
<linearGradient id="paint8_linear" x1="90.1704" y1="31.26" x2="46.542" y2="42.055" gradientUnits="userSpaceOnUse">
<stop stop-color="#F3C299"/>
<stop offset="1" stop-color="#F29E7F"/>
</linearGradient>
<linearGradient id="paint9_linear" x1="52.6654" y1="62.6287" x2="73.7128" y2="108.831" gradientUnits="userSpaceOnUse">
<stop stop-color="#0F779A"/>
<stop offset="1" stop-color="#11829A"/>
</linearGradient>
<linearGradient id="paint10_linear" x1="152.143" y1="50.2344" x2="106.216" y2="32.1857" gradientUnits="userSpaceOnUse">
<stop stop-color="#F3C299"/>
<stop offset="1" stop-color="#F29E7F"/>
</linearGradient>
<linearGradient id="paint11_linear" x1="130.934" y1="102.636" x2="114.468" y2="144.856" gradientUnits="userSpaceOnUse">
<stop stop-color="#FB6A44"/>
<stop offset="1" stop-color="#EB5B33"/>
</linearGradient>
<linearGradient id="paint12_linear" x1="63.8068" y1="69.4203" x2="62.7444" y2="61.7188" gradientUnits="userSpaceOnUse">
<stop stop-color="#F3C299"/>
<stop offset="1" stop-color="#F29E7F"/>
</linearGradient>
<linearGradient id="paint13_linear" x1="53.1909" y1="113.319" x2="50.9779" y2="96.9473" gradientUnits="userSpaceOnUse">
<stop stop-color="#F3C299"/>
<stop offset="1" stop-color="#F29E7F"/>
</linearGradient>
<linearGradient id="paint14_linear" x1="121.235" y1="67.1539" x2="121.235" y2="55.3317" gradientUnits="userSpaceOnUse">
<stop stop-color="#F3C299"/>
<stop offset="1" stop-color="#F29E7F"/>
</linearGradient>
<linearGradient id="paint15_linear" x1="118.969" y1="107.67" x2="105.266" y2="142.804" gradientUnits="userSpaceOnUse">
<stop stop-color="#FB6A44"/>
<stop offset="1" stop-color="#EB5B33"/>
</linearGradient>
<linearGradient id="paint16_linear" x1="128.123" y1="157.975" x2="128.098" y2="158.039" gradientUnits="userSpaceOnUse">
<stop stop-color="#FB6A44"/>
<stop offset="1" stop-color="#EB5B33"/>
</linearGradient>
<linearGradient id="paint17_linear" x1="133.45" y1="114.267" x2="122.126" y2="143.301" gradientUnits="userSpaceOnUse">
<stop stop-color="#FB6A44"/>
<stop offset="1" stop-color="#EB5B33"/>
</linearGradient>
<linearGradient id="paint18_linear" x1="117.95" y1="86.773" x2="98.6977" y2="87.4357" gradientUnits="userSpaceOnUse">
<stop stop-color="#F3C299"/>
<stop offset="1" stop-color="#F29E7F"/>
</linearGradient>
<linearGradient id="paint19_linear" x1="143.972" y1="84.3621" x2="128.508" y2="84.8945" gradientUnits="userSpaceOnUse">
<stop stop-color="#F3C299"/>
<stop offset="1" stop-color="#F29E7F"/>
</linearGradient>
<linearGradient id="paint20_linear" x1="55.2134" y1="38.8545" x2="61.1083" y2="38.8545" gradientUnits="userSpaceOnUse">
<stop stop-color="#53BAE5"/>
<stop offset="1" stop-color="#0F79A6"/>
</linearGradient>
<linearGradient id="paint21_linear" x1="71.2102" y1="35.128" x2="76.4617" y2="35.128" gradientUnits="userSpaceOnUse">
<stop stop-color="#53BAE5"/>
<stop offset="1" stop-color="#0F79A6"/>
</linearGradient>
<linearGradient id="paint22_linear" x1="50.416" y1="40.4789" x2="61.1532" y2="33.7748" gradientUnits="userSpaceOnUse">
<stop offset="0.0051" stop-color="#BC734A"/>
<stop offset="0.1447" stop-color="#B46F47"/>
<stop offset="0.3575" stop-color="#9F623F"/>
<stop offset="0.6169" stop-color="#7D4F31"/>
<stop offset="0.9106" stop-color="#4D331E"/>
<stop offset="1" stop-color="#3D2A18"/>
</linearGradient>
<linearGradient id="paint23_linear" x1="67.2544" y1="37.3314" x2="77.0445" y2="31.2187" gradientUnits="userSpaceOnUse">
<stop offset="0.0051" stop-color="#BC734A"/>
<stop offset="0.1447" stop-color="#B46F47"/>
<stop offset="0.3575" stop-color="#9F623F"/>
<stop offset="0.6169" stop-color="#7D4F31"/>
<stop offset="0.9106" stop-color="#4D331E"/>
<stop offset="1" stop-color="#3D2A18"/>
</linearGradient>
<linearGradient id="paint24_linear" x1="110.495" y1="40.3718" x2="121.736" y2="33.3538" gradientUnits="userSpaceOnUse">
<stop offset="0.0051" stop-color="#BC734A"/>
<stop offset="0.1447" stop-color="#B46F47"/>
<stop offset="0.3575" stop-color="#9F623F"/>
<stop offset="0.6169" stop-color="#7D4F31"/>
<stop offset="0.9106" stop-color="#4D331E"/>
<stop offset="1" stop-color="#3D2A18"/>
</linearGradient>
<linearGradient id="paint25_linear" x1="127.708" y1="38.7862" x2="138.119" y2="32.2859" gradientUnits="userSpaceOnUse">
<stop offset="0.0051" stop-color="#BC734A"/>
<stop offset="0.1447" stop-color="#B46F47"/>
<stop offset="0.3575" stop-color="#9F623F"/>
<stop offset="0.6169" stop-color="#7D4F31"/>
<stop offset="0.9106" stop-color="#4D331E"/>
<stop offset="1" stop-color="#3D2A18"/>
</linearGradient>
</defs>
</svg>
