<svg width="57" height="37" viewBox="0 0 57 37" fill="none" xmlns="http://www.w3.org/2000/svg">
<path d="M20.0391 12.0234V14.6952C20.0384 16.0454 19.5658 17.3528 18.7031 18.3913C18.4569 18.6902 18.1809 18.9633 17.8793 19.2062C17 19.9158 15.9314 20.351 14.8066 20.4576C14.6241 20.4576 14.437 20.4843 14.25 20.4843C14.063 20.4843 13.8759 20.4843 13.6934 20.4576C12.5686 20.351 11.5 19.9158 10.6207 19.2062C10.3191 18.9633 10.0431 18.6902 9.79688 18.3913C8.93419 17.3528 8.46163 16.0454 8.46094 14.6952V12.0234H13.8848C14.8077 12.021 15.6921 11.6534 16.3446 11.0008C16.9972 10.3483 17.3648 9.46387 17.3672 8.54102V9.35148C17.365 9.82114 17.4896 10.2827 17.7279 10.6874C17.9622 11.0932 18.299 11.4302 18.7047 11.6647C19.1103 11.8992 19.5705 12.0229 20.0391 12.0234Z" fill="#F2C05C"/>
<path d="M24.0469 26.9013V26.9236C23.9945 27.8325 23.5962 28.6868 22.9337 29.3112C22.2712 29.9356 21.3948 30.2827 20.4844 30.2812H8.01562C7.10523 30.2827 6.22881 29.9356 5.5663 29.3112C4.90379 28.6868 4.50547 27.8325 4.45312 26.9236V26.9013C4.45312 26.839 4.45312 26.7766 4.45312 26.7187C4.55779 25.0614 5.23804 23.4928 6.37635 22.2837C7.51466 21.0747 9.03953 20.3012 10.6875 20.0969V22.7109L11.0259 22.4571L13.6978 20.4576C13.8804 20.4576 14.0674 20.4843 14.2545 20.4843C14.4415 20.4843 14.6285 20.4843 14.8111 20.4576L17.483 22.4571L17.8125 22.7109V20.0969C19.4605 20.3012 20.9853 21.0747 22.1236 22.2837C23.262 23.4928 23.9422 25.0614 24.0469 26.7187C24.0469 26.7766 24.0469 26.839 24.0469 26.9013Z" fill="#6FB4E2"/>
<path d="M14.25 28.5C14.25 28.9724 14.0623 29.4255 13.7283 29.7595C13.3942 30.0936 12.9412 30.2813 12.4688 30.2813H8.01562C7.10523 30.2828 6.22881 29.9357 5.5663 29.3113C4.90379 28.6868 4.50547 27.8325 4.45312 26.9236V26.9013C4.45312 26.8434 4.45312 26.7811 4.45312 26.7188H12.4688C12.9412 26.7187 13.3942 26.9064 13.7283 27.2405C14.0623 27.5745 14.25 28.0276 14.25 28.5Z" fill="#F2C05C"/>
<path d="M24.0469 26.7188C24.0469 26.7811 24.0469 26.8434 24.0469 26.9013V26.9236C23.9945 27.8325 23.5962 28.6868 22.9337 29.3113C22.2712 29.9357 21.3948 30.2828 20.4844 30.2813H16.0312C15.5588 30.2813 15.1058 30.0936 14.7717 29.7595C14.4377 29.4255 14.25 28.9724 14.25 28.5C14.25 28.0276 14.4377 27.5745 14.7717 27.2405C15.1058 26.9064 15.5588 26.7188 16.0312 26.7188H24.0469Z" fill="#F2C05C"/>
<path d="M9.79688 24.4922V26.7188H8.90625V24.4922C8.90625 24.3741 8.95317 24.2608 9.03668 24.1773C9.12019 24.0938 9.23346 24.0469 9.35156 24.0469C9.46967 24.0469 9.58293 24.0938 9.66645 24.1773C9.74996 24.2608 9.79688 24.3741 9.79688 24.4922Z" fill="#438FD0"/>
<path d="M19.5938 24.4922V26.7188H18.7031V24.4922C18.7031 24.3741 18.75 24.2608 18.8336 24.1773C18.9171 24.0938 19.0303 24.0469 19.1484 24.0469C19.2665 24.0469 19.3798 24.0938 19.4633 24.1773C19.5468 24.2608 19.5938 24.3741 19.5938 24.4922Z" fill="#438FD0"/>
<path d="M13.6934 20.4577L11.0215 22.4572L10.6875 22.711V20.097C10.9827 20.0573 11.2803 20.038 11.5781 20.0391H12.0234C12.5564 20.2602 13.1191 20.4013 13.6934 20.4577Z" fill="#438FD0"/>
<path d="M17.8126 20.097V22.711L17.4741 22.4572L14.8022 20.4577C15.378 20.4017 15.9423 20.2606 16.4766 20.0391H16.9219C17.2198 20.038 17.5174 20.0573 17.8126 20.097Z" fill="#438FD0"/>
<path d="M20.0391 12.0234H20.4844C20.9568 12.0234 21.4099 12.2111 21.7439 12.5452C22.078 12.8792 22.2656 13.3323 22.2656 13.8047C22.2656 14.2771 22.078 14.7302 21.7439 15.0642C21.4099 15.3983 20.9568 15.5859 20.4844 15.5859H20.0391V12.0234Z" fill="#F2C05C"/>
<path d="M8.46094 15.5859H8.01562C7.54321 15.5859 7.09014 15.3983 6.75609 15.0642C6.42204 14.7302 6.23438 14.2771 6.23438 13.8047C6.23438 13.3323 6.42204 12.8792 6.75609 12.5452C7.09014 12.2111 7.54321 12.0234 8.01562 12.0234H8.46094V15.5859Z" fill="#F2C05C"/>
<path d="M11.8008 14.6953C12.1697 14.6953 12.4688 14.3963 12.4688 14.0273C12.4688 13.6584 12.1697 13.3594 11.8008 13.3594C11.4319 13.3594 11.1328 13.6584 11.1328 14.0273C11.1328 14.3963 11.4319 14.6953 11.8008 14.6953Z" fill="#56524F"/>
<path d="M16.6992 14.6953C17.0681 14.6953 17.3672 14.3963 17.3672 14.0273C17.3672 13.6584 17.0681 13.3594 16.6992 13.3594C16.3303 13.3594 16.0312 13.6584 16.0312 14.0273C16.0312 14.3963 16.3303 14.6953 16.6992 14.6953Z" fill="#56524F"/>
<path d="M17.3672 7.28977V8.54109C17.3648 9.46395 16.9972 10.3483 16.3446 11.0009C15.6921 11.6534 14.8077 12.0211 13.8848 12.0234H7.57031V9.24023C7.57031 8.20682 7.98083 7.21574 8.71157 6.485C9.4423 5.75427 10.4334 5.34375 11.4668 5.34375H15.4212C15.9373 5.34375 16.4323 5.54878 16.7972 5.91372C17.1622 6.27867 17.3672 6.77365 17.3672 7.28977Z" fill="#AA571B"/>
<path d="M20.9297 8.42086V12.0234H20.0391C19.5705 12.023 19.1104 11.8993 18.7047 11.6648C18.2991 11.4303 17.9622 11.0933 17.7279 10.6875C17.4897 10.2828 17.365 9.82122 17.3672 9.35156V7.28977C17.3776 7.00623 17.4976 6.73778 17.7019 6.54093C17.9062 6.34408 18.179 6.23419 18.4627 6.23438H18.7432C19.3231 6.23438 19.8793 6.46474 20.2893 6.87478C20.6994 7.28483 20.9297 7.84097 20.9297 8.42086Z" fill="#AA571B"/>
<path d="M15.5102 17.3672C15.3448 17.5328 15.1483 17.6642 14.9321 17.7538C14.7159 17.8435 14.4841 17.8896 14.25 17.8896C14.0159 17.8896 13.7841 17.8435 13.5679 17.7538C13.3516 17.6642 13.1552 17.5328 12.9897 17.3672" fill="#56524F"/>
<path d="M14.2498 18.3334C13.9573 18.3339 13.6674 18.2768 13.3969 18.1652C13.1264 18.0536 12.8806 17.8899 12.6734 17.6832C12.6319 17.6417 12.599 17.5924 12.5765 17.5382C12.554 17.4839 12.5425 17.4258 12.5425 17.3671C12.5425 17.3083 12.554 17.2502 12.5765 17.1959C12.599 17.1417 12.6319 17.0924 12.6734 17.0509C12.715 17.0094 12.7643 16.9764 12.8185 16.954C12.8728 16.9315 12.9309 16.9199 12.9896 16.9199C13.0483 16.9199 13.1065 16.9315 13.1607 16.954C13.215 16.9764 13.2643 17.0094 13.3058 17.0509C13.5596 17.2947 13.8979 17.4309 14.2498 17.4309C14.6018 17.4309 14.9401 17.2947 15.1939 17.0509C15.2778 16.967 15.3915 16.9199 15.5101 16.9199C15.6287 16.9199 15.7424 16.967 15.8263 17.0509C15.9101 17.1347 15.9572 17.2485 15.9572 17.3671C15.9572 17.4856 15.9101 17.5994 15.8263 17.6832C15.6191 17.8899 15.3732 18.0536 15.1028 18.1652C14.8323 18.2768 14.5424 18.3339 14.2498 18.3334Z" fill="#56524F"/>
<path d="M48.5391 8.46086V11.1327C48.5384 12.4829 48.0658 13.7903 47.2031 14.8288C46.9569 15.1277 46.6809 15.4008 46.3793 15.6437C45.5 16.3533 44.4314 16.7885 43.3066 16.8951C43.1241 16.8951 42.937 16.9218 42.75 16.9218C42.563 16.9218 42.3759 16.9218 42.1934 16.8951C41.0686 16.7885 40 16.3533 39.1207 15.6437C38.8191 15.4008 38.5431 15.1277 38.2969 14.8288C37.4342 13.7903 36.9616 12.4829 36.9609 11.1327V8.46086H42.3848C43.3077 8.45851 44.1921 8.09086 44.8446 7.43831C45.4972 6.78575 45.8648 5.90137 45.8672 4.97852V5.78898C45.865 6.25864 45.9896 6.72018 46.2279 7.12492C46.4622 7.5307 46.799 7.86773 47.2047 8.10221C47.6103 8.33669 48.0705 8.46038 48.5391 8.46086Z" fill="#F2C05C"/>
<path d="M52.5469 23.3388V23.3611C52.4945 24.27 52.0962 25.1243 51.4337 25.7487C50.7712 26.3731 49.8948 26.7202 48.9844 26.7187H36.5156C35.6052 26.7202 34.7288 26.3731 34.0663 25.7487C33.4038 25.1243 33.0055 24.27 32.9531 23.3611V23.3388C32.9531 23.2765 32.9531 23.2141 32.9531 23.1562C33.0578 21.4989 33.738 19.9303 34.8764 18.7212C36.0147 17.5122 37.5395 16.7387 39.1875 16.5344V19.1484L39.5259 18.8946L42.1978 16.8951C42.3804 16.8951 42.5674 16.9218 42.7545 16.9218C42.9415 16.9218 43.1285 16.9218 43.3111 16.8951L45.983 18.8946L46.3125 19.1484V16.5344C47.9605 16.7387 49.4853 17.5122 50.6236 18.7212C51.762 19.9303 52.4422 21.4989 52.5469 23.1562C52.5469 23.2141 52.5469 23.2765 52.5469 23.3388Z" fill="#6FB4E2"/>
<path d="M42.75 24.9375C42.75 25.4099 42.5623 25.863 42.2283 26.197C41.8942 26.5311 41.4412 26.7188 40.9688 26.7188H36.5156C35.6052 26.7203 34.7288 26.3732 34.0663 25.7488C33.4038 25.1243 33.0055 24.27 32.9531 23.3611V23.3388C32.9531 23.2809 32.9531 23.2186 32.9531 23.1562H40.9688C41.4412 23.1562 41.8942 23.3439 42.2283 23.678C42.5623 24.012 42.75 24.4651 42.75 24.9375Z" fill="#F2C05C"/>
<path d="M52.5469 23.1562C52.5469 23.2186 52.5469 23.2809 52.5469 23.3388V23.3611C52.4945 24.27 52.0962 25.1243 51.4337 25.7488C50.7712 26.3732 49.8948 26.7203 48.9844 26.7188H44.5312C44.0588 26.7188 43.6058 26.5311 43.2717 26.197C42.9377 25.863 42.75 25.4099 42.75 24.9375C42.75 24.4651 42.9377 24.012 43.2717 23.678C43.6058 23.3439 44.0588 23.1562 44.5312 23.1562H52.5469Z" fill="#F2C05C"/>
<path d="M38.2969 20.9297V23.1562H37.4062V20.9297C37.4062 20.8116 37.4532 20.6983 37.5367 20.6148C37.6202 20.5313 37.7335 20.4844 37.8516 20.4844C37.9697 20.4844 38.0829 20.5313 38.1664 20.6148C38.25 20.6983 38.2969 20.8116 38.2969 20.9297Z" fill="#438FD0"/>
<path d="M48.0938 20.9297V23.1562H47.2031V20.9297C47.2031 20.8116 47.25 20.6983 47.3336 20.6148C47.4171 20.5313 47.5303 20.4844 47.6484 20.4844C47.7665 20.4844 47.8798 20.5313 47.9633 20.6148C48.0468 20.6983 48.0938 20.8116 48.0938 20.9297Z" fill="#438FD0"/>
<path d="M42.1934 16.8952L39.5215 18.8947L39.1875 19.1485V16.5345C39.4827 16.4948 39.7803 16.4755 40.0781 16.4766H40.5234C41.0564 16.6977 41.6191 16.8388 42.1934 16.8952Z" fill="#438FD0"/>
<path d="M46.3126 16.5345V19.1485L45.9741 18.8947L43.3022 16.8952C43.878 16.8392 44.4423 16.6981 44.9766 16.4766H45.4219C45.7198 16.4755 46.0174 16.4948 46.3126 16.5345Z" fill="#438FD0"/>
<path d="M48.5391 8.46094H48.9844C49.4568 8.46094 49.9099 8.6486 50.2439 8.98265C50.578 9.3167 50.7656 9.76977 50.7656 10.2422C50.7656 10.7146 50.578 11.1677 50.2439 11.5017C49.9099 11.8358 49.4568 12.0234 48.9844 12.0234H48.5391V8.46094Z" fill="#F2C05C"/>
<path d="M36.9609 12.0234H36.5156C36.0432 12.0234 35.5901 11.8358 35.2561 11.5017C34.922 11.1677 34.7344 10.7146 34.7344 10.2422C34.7344 9.76977 34.922 9.3167 35.2561 8.98265C35.5901 8.6486 36.0432 8.46094 36.5156 8.46094H36.9609V12.0234Z" fill="#F2C05C"/>
<path d="M40.3008 11.1328C40.6697 11.1328 40.9688 10.8338 40.9688 10.4648C40.9688 10.0959 40.6697 9.79688 40.3008 9.79688C39.9319 9.79688 39.6328 10.0959 39.6328 10.4648C39.6328 10.8338 39.9319 11.1328 40.3008 11.1328Z" fill="#56524F"/>
<path d="M45.1992 11.1328C45.5681 11.1328 45.8672 10.8338 45.8672 10.4648C45.8672 10.0959 45.5681 9.79688 45.1992 9.79688C44.8303 9.79688 44.5312 10.0959 44.5312 10.4648C44.5312 10.8338 44.8303 11.1328 45.1992 11.1328Z" fill="#56524F"/>
<path d="M45.8672 3.72727V4.97859C45.8648 5.90145 45.4972 6.78583 44.8446 7.43839C44.1921 8.09094 43.3077 8.45859 42.3848 8.46094H36.0703V5.67773C36.0703 4.64432 36.4808 3.65324 37.2116 2.9225C37.9423 2.19177 38.9334 1.78125 39.9668 1.78125H43.9212C44.4373 1.78125 44.9323 1.98628 45.2972 2.35122C45.6622 2.71617 45.8672 3.21115 45.8672 3.72727Z" fill="#AA571B"/>
<path d="M49.4297 4.85836V8.46094H48.5391C48.0705 8.46046 47.6104 8.33677 47.2047 8.10229C46.7991 7.86781 46.4622 7.53077 46.2279 7.125C45.9897 6.72026 45.865 6.25872 45.8672 5.78906V3.72727C45.8776 3.44373 45.9976 3.17528 46.2019 2.97843C46.4062 2.78158 46.679 2.67169 46.9627 2.67188H47.2432C47.8231 2.67188 48.3793 2.90224 48.7893 3.31228C49.1994 3.72233 49.4297 4.27847 49.4297 4.85836Z" fill="#AA571B"/>
<path d="M44.0102 13.8047C43.8448 13.9703 43.6483 14.1017 43.4321 14.1913C43.2159 14.281 42.9841 14.3271 42.75 14.3271C42.5159 14.3271 42.2841 14.281 42.0679 14.1913C41.8516 14.1017 41.6552 13.9703 41.4897 13.8047" fill="#56524F"/>
<path d="M42.7498 14.7709C42.4573 14.7714 42.1674 14.7143 41.8969 14.6027C41.6264 14.4911 41.3806 14.3274 41.1734 14.1207C41.1319 14.0792 41.099 14.0299 41.0765 13.9757C41.054 13.9214 41.0425 13.8633 41.0425 13.8046C41.0425 13.7458 41.054 13.6877 41.0765 13.6334C41.099 13.5792 41.1319 13.5299 41.1734 13.4884C41.215 13.4469 41.2643 13.4139 41.3185 13.3915C41.3728 13.369 41.4309 13.3574 41.4896 13.3574C41.5483 13.3574 41.6065 13.369 41.6607 13.3915C41.715 13.4139 41.7643 13.4469 41.8058 13.4884C42.0596 13.7322 42.3979 13.8684 42.7498 13.8684C43.1018 13.8684 43.4401 13.7322 43.6939 13.4884C43.7778 13.4045 43.8915 13.3574 44.0101 13.3574C44.1287 13.3574 44.2424 13.4045 44.3263 13.4884C44.4101 13.5722 44.4572 13.686 44.4572 13.8046C44.4572 13.9231 44.4101 14.0369 44.3263 14.1207C44.1191 14.3274 43.8732 14.4911 43.6028 14.6027C43.3323 14.7143 43.0424 14.7714 42.7498 14.7709Z" fill="#56524F"/>
<path d="M35.1797 16.0312V18.703C35.179 20.0532 34.7064 21.3606 33.8438 22.3991C33.5975 22.6981 33.3215 22.9711 33.0199 23.2141C32.1407 23.9236 31.0721 24.3588 29.9473 24.4654C29.7647 24.4654 29.5777 24.4921 29.3906 24.4921C29.2036 24.4921 29.0166 24.4921 28.834 24.4654C27.7092 24.3588 26.6406 23.9236 25.7613 23.2141C25.4597 22.9711 25.1837 22.6981 24.9375 22.3991C24.0748 21.3606 23.6023 20.0532 23.6016 18.703V16.0312H29.0255C29.9483 16.0288 30.8327 15.6612 31.4853 15.0086C32.1378 14.3561 32.5055 13.4717 32.5078 12.5488V13.3593C32.5056 13.829 32.6303 14.2905 32.8685 14.6952C33.1028 15.101 33.4396 15.438 33.8453 15.6725C34.251 15.907 34.7111 16.0307 35.1797 16.0312Z" fill="#F2C05C"/>
<path d="M39.1875 30.9091V30.9314C39.1352 31.8403 38.7368 32.6946 38.0743 33.319C37.4118 33.9435 36.5354 34.2905 35.625 34.289H23.1562C22.2459 34.2905 21.3694 33.9435 20.7069 33.319C20.0444 32.6946 19.6461 31.8403 19.5938 30.9314V30.9091C19.5938 30.8468 19.5938 30.7844 19.5938 30.7265C19.6984 29.0693 20.3787 27.5006 21.517 26.2915C22.6553 25.0825 24.1802 24.309 25.8281 24.1047V26.7187L26.1666 26.4649L28.8384 24.4654C29.021 24.4654 29.208 24.4922 29.3951 24.4922C29.5821 24.4922 29.7691 24.4922 29.9517 24.4654L32.6236 26.4649L32.9531 26.7187V24.1047C34.6011 24.309 36.126 25.0825 37.2643 26.2915C38.4026 27.5006 39.0828 29.0693 39.1875 30.7265C39.1875 30.7844 39.1875 30.8468 39.1875 30.9091Z" fill="#6FB4E2"/>
<path d="M29.3906 32.5078C29.3906 32.9802 29.203 33.4333 28.8689 33.7673C28.5349 34.1014 28.0818 34.2891 27.6094 34.2891H23.1562C22.2459 34.2906 21.3694 33.9435 20.7069 33.3191C20.0444 32.6947 19.6461 31.8403 19.5938 30.9314V30.9091C19.5938 30.8512 19.5938 30.7889 19.5938 30.7266H27.6094C28.0818 30.7266 28.5349 30.9142 28.8689 31.2483C29.203 31.5823 29.3906 32.0354 29.3906 32.5078Z" fill="#F2C05C"/>
<path d="M39.1875 30.7266C39.1875 30.7889 39.1875 30.8512 39.1875 30.9091V30.9314C39.1352 31.8403 38.7368 32.6947 38.0743 33.3191C37.4118 33.9435 36.5354 34.2906 35.625 34.2891H31.1719C30.6995 34.2891 30.2464 34.1014 29.9123 33.7673C29.5783 33.4333 29.3906 32.9802 29.3906 32.5078C29.3906 32.0354 29.5783 31.5823 29.9123 31.2483C30.2464 30.9142 30.6995 30.7266 31.1719 30.7266H39.1875Z" fill="#F2C05C"/>
<path d="M24.9375 28.5V30.7266H24.0469V28.5C24.0469 28.3819 24.0938 28.2686 24.1773 28.1851C24.2608 28.1016 24.3741 28.0547 24.4922 28.0547C24.6103 28.0547 24.7236 28.1016 24.8071 28.1851C24.8906 28.2686 24.9375 28.3819 24.9375 28.5Z" fill="#438FD0"/>
<path d="M34.7344 28.5V30.7266H33.8438V28.5C33.8438 28.3819 33.8907 28.2686 33.9742 28.1851C34.0577 28.1016 34.171 28.0547 34.2891 28.0547C34.4072 28.0547 34.5204 28.1016 34.6039 28.1851C34.6875 28.2686 34.7344 28.3819 34.7344 28.5Z" fill="#438FD0"/>
<path d="M28.834 24.4655L26.1621 26.465L25.8281 26.7188V24.1048C26.1233 24.0652 26.4209 24.0458 26.7188 24.0469H27.1641C27.697 24.268 28.2597 24.4091 28.834 24.4655Z" fill="#438FD0"/>
<path d="M32.9532 24.1048V26.7188L32.6147 26.465L29.9429 24.4655C30.5186 24.4095 31.0829 24.2684 31.6172 24.0469H32.0626C32.3604 24.0458 32.658 24.0652 32.9532 24.1048Z" fill="#438FD0"/>
<path d="M35.1797 16.0312H35.625C36.0974 16.0312 36.5505 16.2189 36.8845 16.553C37.2186 16.887 37.4062 17.3401 37.4062 17.8125C37.4062 18.2849 37.2186 18.738 36.8845 19.072C36.5505 19.4061 36.0974 19.5938 35.625 19.5938H35.1797V16.0312Z" fill="#F2C05C"/>
<path d="M23.6016 19.5938H23.1562C22.6838 19.5938 22.2308 19.4061 21.8967 19.072C21.5627 18.738 21.375 18.2849 21.375 17.8125C21.375 17.3401 21.5627 16.887 21.8967 16.553C22.2308 16.2189 22.6838 16.0312 23.1562 16.0312H23.6016V19.5938Z" fill="#F2C05C"/>
<path d="M26.9414 18.7031C27.3103 18.7031 27.6094 18.4041 27.6094 18.0352C27.6094 17.6662 27.3103 17.3672 26.9414 17.3672C26.5725 17.3672 26.2734 17.6662 26.2734 18.0352C26.2734 18.4041 26.5725 18.7031 26.9414 18.7031Z" fill="#56524F"/>
<path d="M31.8398 18.7031C32.2088 18.7031 32.5078 18.4041 32.5078 18.0352C32.5078 17.6662 32.2088 17.3672 31.8398 17.3672C31.4709 17.3672 31.1719 17.6662 31.1719 18.0352C31.1719 18.4041 31.4709 18.7031 31.8398 18.7031Z" fill="#56524F"/>
<path d="M32.5078 11.2976V12.5489C32.5055 13.4718 32.1378 14.3561 31.4853 15.0087C30.8327 15.6613 29.9483 16.0289 29.0255 16.0312H22.7109V13.248C22.7109 12.2146 23.1215 11.2235 23.8522 10.4928C24.5829 9.76208 25.574 9.35156 26.6074 9.35156H30.5618C31.0779 9.35156 31.5729 9.55659 31.9378 9.92154C32.3028 10.2865 32.5078 10.7815 32.5078 11.2976Z" fill="#AA571B"/>
<path d="M36.0703 12.4287V16.0313H35.1797C34.7112 16.0308 34.251 15.9071 33.8453 15.6726C33.4397 15.4381 33.1028 15.1011 32.8685 14.6953C32.6303 14.2906 32.5057 13.829 32.5078 13.3594V11.2976C32.5182 11.014 32.6382 10.7456 32.8425 10.5487C33.0469 10.3519 33.3196 10.242 33.6033 10.2422H33.8839C34.4637 10.2422 35.0199 10.4725 35.4299 10.8826C35.84 11.2926 36.0703 11.8488 36.0703 12.4287Z" fill="#AA571B"/>
<path d="M30.6508 21.375C30.4854 21.5406 30.289 21.672 30.0727 21.7616C29.8565 21.8513 29.6247 21.8974 29.3906 21.8974C29.1565 21.8974 28.9247 21.8513 28.7085 21.7616C28.4923 21.672 28.2958 21.5406 28.1304 21.375" fill="#56524F"/>
<path d="M29.3905 22.3412C29.0979 22.3417 28.8081 22.2846 28.5376 22.173C28.2671 22.0615 28.0212 21.8977 27.8141 21.691C27.7725 21.6495 27.7396 21.6002 27.7171 21.546C27.6947 21.4917 27.6831 21.4336 27.6831 21.3749C27.6831 21.3162 27.6947 21.258 27.7171 21.2038C27.7396 21.1495 27.7725 21.1002 27.8141 21.0587C27.8556 21.0172 27.9049 20.9842 27.9591 20.9618C28.0134 20.9393 28.0715 20.9277 28.1302 20.9277C28.189 20.9277 28.2471 20.9393 28.3014 20.9618C28.3556 20.9842 28.4049 21.0172 28.4464 21.0587C28.7002 21.3025 29.0385 21.4387 29.3905 21.4387C29.7424 21.4387 30.0807 21.3025 30.3345 21.0587C30.4184 20.9748 30.5321 20.9277 30.6507 20.9277C30.7693 20.9277 30.883 20.9748 30.9669 21.0587C31.0507 21.1426 31.0978 21.2563 31.0978 21.3749C31.0978 21.4935 31.0507 21.6072 30.9669 21.691C30.7597 21.8977 30.5139 22.0615 30.2434 22.173C29.9729 22.2846 29.6831 22.3417 29.3905 22.3412Z" fill="#56524F"/>
</svg>
