<svg width="40" height="40" viewBox="0 0 40 40" fill="none" xmlns="http://www.w3.org/2000/svg">
<path d="M20 7.5C19.8342 7.5 19.6753 7.43415 19.5581 7.31694C19.4408 7.19973 19.375 7.04076 19.375 6.875V4.375C19.375 4.20924 19.4408 4.05027 19.5581 3.93306C19.6753 3.81585 19.8342 3.75 20 3.75C20.1658 3.75 20.3247 3.81585 20.4419 3.93306C20.5592 4.05027 20.625 4.20924 20.625 4.375V6.875C20.625 7.04076 20.5592 7.19973 20.4419 7.31694C20.3247 7.43415 20.1658 7.5 20 7.5Z" fill="#AA571B"/>
<path d="M34.375 6.875H5.625V25.625H34.375V6.875Z" fill="#56524F"/>
<path d="M11.25 22.5H15C15.4973 22.5 15.9742 22.6975 16.3258 23.0492C16.6775 23.4008 16.875 23.8777 16.875 24.375C16.875 24.7065 16.7433 25.0245 16.5089 25.2589C16.2745 25.4933 15.9565 25.625 15.625 25.625H10.625C10.2935 25.625 9.97554 25.4933 9.74112 25.2589C9.5067 25.0245 9.375 24.7065 9.375 24.375C9.375 23.8777 9.57254 23.4008 9.92417 23.0492C10.2758 22.6975 10.7527 22.5 11.25 22.5Z" fill="#438FD0"/>
<path d="M6.24991 36.2501C6.15937 36.2505 6.06981 36.2313 5.98741 36.1938C5.9126 36.1595 5.8453 36.1107 5.78939 36.0503C5.73347 35.9899 5.69004 35.919 5.66158 35.8418C5.63313 35.7646 5.62021 35.6825 5.62357 35.6002C5.62693 35.518 5.6465 35.4372 5.68116 35.3626L9.19366 27.8626C9.22814 27.7879 9.27698 27.7207 9.33741 27.6649C9.39784 27.6091 9.46867 27.5657 9.54586 27.5373C9.62305 27.5088 9.70508 27.4959 9.78728 27.4992C9.86948 27.5024 9.95022 27.5218 10.0249 27.5563C10.0996 27.5908 10.1668 27.6396 10.2226 27.7001C10.2784 27.7605 10.3218 27.8313 10.3502 27.9085C10.3786 27.9857 10.3916 28.0677 10.3883 28.1499C10.3851 28.2321 10.3656 28.3129 10.3312 28.3876L6.81866 35.8876C6.76846 35.996 6.68819 36.0879 6.58738 36.1521C6.48657 36.2164 6.36945 36.2504 6.24991 36.2501Z" fill="#AA571B"/>
<path d="M33.7498 36.25C33.632 36.2497 33.5167 36.216 33.4172 36.153C33.3177 36.09 33.238 36.0001 33.1873 35.8937L29.5998 28.3937C29.5574 28.3191 29.5307 28.2366 29.5216 28.1512C29.5125 28.0659 29.521 27.9796 29.5467 27.8977C29.5724 27.8158 29.6147 27.74 29.6709 27.6752C29.7272 27.6103 29.7962 27.5578 29.8736 27.5208C29.9511 27.4838 30.0353 27.4631 30.1211 27.4601C30.2069 27.4571 30.2924 27.4718 30.3722 27.5032C30.4521 27.5347 30.5246 27.5823 30.5853 27.643C30.6459 27.7038 30.6934 27.7763 30.7248 27.8562L34.3123 35.3562C34.3832 35.5055 34.392 35.6767 34.337 35.8325C34.2819 35.9883 34.1674 36.1159 34.0186 36.1875C33.9352 36.2294 33.8431 36.2508 33.7498 36.25Z" fill="#AA571B"/>
<path d="M31.875 32.5H8.125C7.95924 32.5 7.80027 32.4342 7.68306 32.3169C7.56585 32.1997 7.5 32.0408 7.5 31.875C7.5 31.7092 7.56585 31.5503 7.68306 31.4331C7.80027 31.3158 7.95924 31.25 8.125 31.25H31.875C32.0408 31.25 32.1997 31.3158 32.3169 31.4331C32.4342 31.5503 32.5 31.7092 32.5 31.875C32.5 32.0408 32.4342 32.1997 32.3169 32.3169C32.1997 32.4342 32.0408 32.5 31.875 32.5Z" fill="#AA571B"/>
<path d="M35.625 25.625H4.375V28.125H35.625V25.625Z" fill="#CD8538"/>
</svg>
