<svg width="40" height="40" viewBox="0 0 40 40" fill="none" xmlns="http://www.w3.org/2000/svg">
<path d="M26.2734 7.52344C26.2734 5.77674 25.5796 4.10158 24.3445 2.86648C23.1094 1.63137 21.4342 0.9375 19.6875 0.9375C17.9408 0.9375 16.2656 1.63137 15.0305 2.86648C13.7954 4.10158 13.1016 5.77674 13.1016 7.52344C13.1016 10.2387 14.673 11.8334 16.0781 13.9655C16.6391 14.8171 17.0913 17.1086 17.0913 17.1086H22.1573C22.1573 17.1086 22.608 14.8527 23.1705 14.0182C24.6256 11.8591 26.2734 10.2873 26.2734 7.52344Z" fill="url(#paint0_linear)"/>
<path d="M16.0781 16.4861H23.1705V19.5587C23.1705 20.0559 22.973 20.5329 22.6214 20.8845C22.2697 21.2361 21.7928 21.4337 21.2955 21.4337H17.9531C17.4558 21.4337 16.9789 21.2361 16.6273 20.8845C16.2757 20.5329 16.0781 20.0559 16.0781 19.5587V16.4861Z" fill="url(#paint1_linear)"/>
<path d="M4.6875 26.5117H34.6875V35.8867H4.6875V26.5117Z" fill="url(#paint2_linear)"/>
<path d="M38.4375 27.7617V24.0117H5.9375C4.61142 24.0117 3.33965 24.5385 2.40197 25.4762C1.46428 26.4139 0.9375 27.6856 0.9375 29.0117V33.3867C0.9375 34.7128 1.46428 35.9846 2.40197 36.9223C3.33965 37.8599 4.61142 38.3867 5.9375 38.3867H38.4375V34.6367H6.5625C6.06522 34.6367 5.58831 34.4392 5.23667 34.0875C4.88504 33.7359 4.6875 33.259 4.6875 32.7617V29.6367C4.6875 29.1394 4.88504 28.6625 5.23667 28.3109C5.58831 27.9593 6.06522 27.7617 6.5625 27.7617H38.4375Z" fill="url(#paint3_linear)"/>
<path d="M14.0625 32.1367L12.1875 30.8867L10.3125 32.1367V27.7617H14.0625V32.1367Z" fill="url(#paint4_linear)"/>
<path d="M15.2947 14.4809C15.4053 14.6491 15.5667 15.0195 15.7479 15.6093C15.5694 15.6762 15.4156 15.796 15.307 15.9527C15.1983 16.1093 15.1401 16.2954 15.14 16.486V19.5586C15.1408 20.3043 15.4374 21.0191 15.9647 21.5464C16.4919 22.0737 17.2068 22.3702 17.9525 22.3711H21.2949C22.0406 22.3703 22.7555 22.0737 23.2827 21.5464C23.81 21.0192 24.1066 20.3043 24.1074 19.5586V16.486C24.1073 16.2965 24.0498 16.1115 23.9424 15.9554C23.835 15.7993 23.6828 15.6794 23.5058 15.6116C23.7277 14.9065 23.8903 14.6264 23.9471 14.5421C25.4217 12.3513 27.1898 10.6629 27.2105 7.52344C27.2105 5.5281 26.4178 3.61448 25.0069 2.20356C23.596 0.792646 21.6824 0 19.687 0C17.6917 0 15.7781 0.792646 14.3671 2.20356C12.9562 3.61448 12.1636 5.5281 12.1636 7.52344C12.1834 10.6022 13.8691 12.3131 15.2947 14.4809ZM22.2327 19.5586C22.2324 19.8072 22.1336 20.0455 21.9578 20.2212C21.7821 20.397 21.5438 20.4958 21.2952 20.4961H17.953C17.7044 20.4958 17.4661 20.3969 17.2904 20.2212C17.1146 20.0454 17.0157 19.8071 17.0155 19.5586V17.4235H22.2329L22.2327 19.5586ZM19.6873 1.875C21.1849 1.8767 22.6206 2.47234 23.6795 3.53126C24.7384 4.59018 25.3341 6.0259 25.3358 7.52344C25.3852 10.875 22.3189 12.2953 21.5701 15.5485H20.5615V10.2907H22.157C22.3737 10.2907 22.5838 10.2156 22.7514 10.0782C22.919 9.94084 23.0338 9.74962 23.0763 9.53711L23.5829 7.00391C23.6089 6.88246 23.6105 6.75706 23.5876 6.635C23.5647 6.51293 23.5178 6.39662 23.4496 6.29284C23.3814 6.18905 23.2932 6.09985 23.1902 6.03042C23.0873 5.96099 22.9715 5.91271 22.8497 5.88839C22.728 5.86406 22.6025 5.86418 22.4808 5.88873C22.3591 5.91328 22.2434 5.96178 22.1406 6.0314C22.0377 6.10103 21.9497 6.19039 21.8817 6.2943C21.8137 6.39822 21.767 6.51461 21.7444 6.63672L21.3883 8.41609H17.904L17.499 6.61453C17.4445 6.37195 17.2958 6.16099 17.0856 6.02805C16.8755 5.89511 16.6212 5.85109 16.3786 5.90566C16.136 5.96024 15.9251 6.10895 15.7921 6.31907C15.6592 6.52919 15.6152 6.78351 15.6697 7.02609L16.2401 9.55914C16.2868 9.76684 16.4028 9.95245 16.5691 10.0854C16.7353 10.2184 16.9419 10.2909 17.1547 10.2909H18.6869V15.5487H17.6833C16.9573 12.3098 13.9847 10.8363 14.0389 7.52359C14.0405 6.02603 14.6362 4.59027 15.6951 3.53132C16.754 2.47236 18.1898 1.8767 19.6873 1.875Z" fill="#E9F6F7"/>
<path d="M38.4375 28.6992C38.6861 28.6992 38.9246 28.6004 39.1004 28.4246C39.2762 28.2488 39.375 28.0104 39.375 27.7617V24.0117C39.375 23.7631 39.2762 23.5246 39.1004 23.3488C38.9246 23.173 38.6861 23.0742 38.4375 23.0742H5.9375C4.36332 23.076 2.85413 23.7021 1.74102 24.8152C0.627906 25.9283 0.00177829 27.4375 0 29.0117V33.3867C0.00177829 34.9609 0.627906 36.4701 1.74102 37.5832C2.85413 38.6963 4.36332 39.3224 5.9375 39.3242H38.4375C38.6861 39.3242 38.9246 39.2254 39.1004 39.0496C39.2762 38.8738 39.375 38.6354 39.375 38.3867V34.6367C39.375 34.3881 39.2762 34.1496 39.1004 33.9738C38.9246 33.798 38.6861 33.6992 38.4375 33.6992H35.625V28.6992H38.4375ZM37.5 37.4492H5.9375C4.86043 37.448 3.82783 37.0196 3.06623 36.258C2.30462 35.4964 1.87622 34.4638 1.875 33.3867V29.0117C1.87622 27.9347 2.30462 26.902 3.06623 26.1404C3.82783 25.3788 4.86043 24.9504 5.9375 24.9492H37.5V26.8242H6.5625C5.81683 26.825 5.10194 27.1216 4.57468 27.6489C4.04741 28.1762 3.75083 28.8911 3.75 29.6367V32.7617C3.75083 33.5074 4.04741 34.2223 4.57468 34.7495C5.10194 35.2768 5.81683 35.5734 6.5625 35.5742H37.5V37.4492ZM11.25 28.6992H13.125V30.385L12.7075 30.1067C12.5535 30.0041 12.3726 29.9493 12.1875 29.9493C12.0024 29.9493 11.8215 30.0041 11.6675 30.1067L11.25 30.385V28.6992ZM33.75 33.6992H6.5625C6.31394 33.699 6.07564 33.6001 5.89988 33.4243C5.72413 33.2486 5.62527 33.0103 5.625 32.7617V29.6367C5.62527 29.3882 5.72413 29.1499 5.89988 28.9741C6.07564 28.7983 6.31394 28.6995 6.5625 28.6992H9.375V32.1367C9.35156 32.8625 10.2416 33.3384 10.8325 32.9167L12.1875 32.0134L13.5425 32.9167C14.1342 33.3386 15.0229 32.862 15 32.1367V28.6992H33.75V33.6992Z" fill="#E9F6F7"/>
<path d="M30 8.38672C30 8.63536 30.0988 8.87382 30.2746 9.04963C30.4504 9.22545 30.6889 9.32422 30.9375 9.32422H32.1875C32.4361 9.32422 32.6746 9.22545 32.8504 9.04963C33.0262 8.87382 33.125 8.63536 33.125 8.38672C33.125 8.13808 33.0262 7.89962 32.8504 7.72381C32.6746 7.54799 32.4361 7.44922 32.1875 7.44922H30.9375C30.6889 7.44922 30.4504 7.54799 30.2746 7.72381C30.0988 7.89962 30 8.13808 30 8.38672Z" fill="#E9F6F7"/>
<path d="M29.4314 3.69918C29.5957 3.69916 29.7571 3.6558 29.8993 3.57347L30.9818 2.94847C31.0884 2.88692 31.1819 2.80496 31.2568 2.70729C31.3318 2.60961 31.3868 2.49813 31.4186 2.3792C31.4505 2.26028 31.4586 2.13624 31.4426 2.01417C31.4265 1.89211 31.3865 1.7744 31.325 1.66777C31.2634 1.56114 31.1815 1.46769 31.0838 1.39273C30.9861 1.31778 30.8746 1.2628 30.7557 1.23093C30.6368 1.19906 30.5128 1.19093 30.3907 1.20699C30.2686 1.22306 30.1509 1.26301 30.0443 1.32457L28.9618 1.94957C28.7829 2.05275 28.6431 2.21211 28.564 2.4029C28.485 2.5937 28.4712 2.80525 28.5247 3.00471C28.5783 3.20417 28.6962 3.38037 28.8601 3.50594C29.0241 3.63152 29.2249 3.69945 29.4314 3.69918Z" fill="#E9F6F7"/>
<path d="M28.9615 14.8237L30.044 15.4487C30.2593 15.573 30.5152 15.6067 30.7554 15.5424C30.9956 15.478 31.2004 15.3209 31.3247 15.1055C31.449 14.8902 31.4827 14.6343 31.4183 14.3941C31.354 14.1539 31.1968 13.9491 30.9815 13.8248L29.899 13.1998C29.7923 13.1383 29.6746 13.0983 29.5526 13.0822C29.4305 13.0662 29.3065 13.0743 29.1875 13.1062C29.0686 13.138 28.9571 13.193 28.8595 13.268C28.7618 13.3429 28.6798 13.4364 28.6183 13.543C28.5567 13.6496 28.5168 13.7674 28.5007 13.8894C28.4846 14.0115 28.4928 14.1355 28.5246 14.2544C28.5565 14.3734 28.6115 14.4849 28.6864 14.5825C28.7614 14.6802 28.8548 14.7622 28.9615 14.8237Z" fill="#E9F6F7"/>
<path d="M7.1875 9.32422H8.4375C8.68614 9.32422 8.9246 9.22545 9.10041 9.04963C9.27623 8.87382 9.375 8.63536 9.375 8.38672C9.375 8.13808 9.27623 7.89962 9.10041 7.72381C8.9246 7.54799 8.68614 7.44922 8.4375 7.44922H7.1875C6.93886 7.44922 6.7004 7.54799 6.52459 7.72381C6.34877 7.89962 6.25 8.13808 6.25 8.38672C6.25 8.63536 6.34877 8.87382 6.52459 9.04963C6.7004 9.22545 6.93886 9.32422 7.1875 9.32422Z" fill="#E9F6F7"/>
<path d="M8.3936 2.94872L9.4761 3.57372C9.69145 3.69804 9.94736 3.73173 10.1875 3.66736C10.4277 3.603 10.6325 3.44586 10.7568 3.23052C10.8811 3.01518 10.9148 2.75927 10.8504 2.51909C10.7861 2.27891 10.6289 2.07414 10.4136 1.94982L9.3311 1.32482C9.11576 1.20049 8.85985 1.16681 8.61967 1.23117C8.37949 1.29554 8.17472 1.45267 8.0504 1.66802C7.92608 1.88336 7.8924 2.13927 7.95676 2.37945C8.02112 2.61963 8.17826 2.8244 8.3936 2.94872Z" fill="#E9F6F7"/>
<path d="M9.47611 13.1998L8.3936 13.8248C8.17826 13.9491 8.02112 14.1539 7.95676 14.3941C7.8924 14.6343 7.92608 14.8902 8.0504 15.1055C8.17472 15.3209 8.37949 15.478 8.61967 15.5424C8.85985 15.6067 9.11576 15.573 9.33111 15.4487L10.4136 14.8237C10.5202 14.7622 10.6137 14.6802 10.6886 14.5825C10.7636 14.4849 10.8186 14.3734 10.8505 14.2544C10.8823 14.1355 10.8905 14.0115 10.8744 13.8894C10.8583 13.7674 10.8184 13.6496 10.7568 13.543C10.6953 13.4364 10.6133 13.3429 10.5156 13.268C10.4179 13.193 10.3065 13.138 10.1875 13.1062C10.0686 13.0743 9.94458 13.0662 9.82251 13.0822C9.70044 13.0983 9.58273 13.1383 9.47611 13.1998Z" fill="#E9F6F7"/>
<defs>
<linearGradient id="paint0_linear" x1="14.282" y1="14.2995" x2="25.0296" y2="3.55187" gradientUnits="userSpaceOnUse">
<stop offset="0.011" stop-color="#F8C73F"/>
<stop offset="1" stop-color="#FADA7F"/>
</linearGradient>
<linearGradient id="paint1_linear" x1="16.8887" y1="21.1461" x2="22.3596" y2="15.6753" gradientUnits="userSpaceOnUse">
<stop offset="0.011" stop-color="#606082"/>
<stop offset="1" stop-color="#83839E"/>
</linearGradient>
<linearGradient id="paint2_linear" x1="9.84375" y1="41.043" x2="29.5313" y2="21.3555" gradientUnits="userSpaceOnUse">
<stop offset="0.011" stop-color="#FDECBF"/>
<stop offset="1" stop-color="#FEF9EA"/>
</linearGradient>
<linearGradient id="paint3_linear" x1="8.91547" y1="43.4357" x2="33.3885" y2="18.9627" gradientUnits="userSpaceOnUse">
<stop stop-color="#D46669"/>
<stop offset="1" stop-color="#DD888A"/>
</linearGradient>
<linearGradient id="paint4_linear" x1="10.1562" y1="31.9805" x2="14.2187" y2="27.918" gradientUnits="userSpaceOnUse">
<stop offset="0.011" stop-color="#60C6BE"/>
<stop offset="1" stop-color="#80D1CB"/>
</linearGradient>
</defs>
</svg>
