<svg width="40" height="40" viewBox="0 0 40 40" fill="none" xmlns="http://www.w3.org/2000/svg">
<path d="M33.75 15H26.875V19.375H33.75V15Z" fill="#E2CCA8"/>
<path d="M26.875 15V19.375L24.375 22.5H20V15H26.875Z" fill="#E2CCA8"/>
<path d="M20 9.375H13.125V12.5H20V9.375Z" fill="#F2C05C"/>
<path d="M20 12.5V22.5H15.625L13.125 19.375V12.5H20Z" fill="#E2CCA8"/>
<path d="M13.125 11.875H6.25V15H13.125V11.875Z" fill="#EE4D4E"/>
<path d="M13.125 15H6.25V19.375H13.125V15Z" fill="#E2CCA8"/>
<path d="M26.875 11.875H20V15H26.875V11.875Z" fill="#89C060"/>
<path d="M33.75 11.875H26.875V15H33.75V11.875Z" fill="#6FB4E2"/>
<path d="M12.5 11.875H6.875L8.75 6.875H10.625L12.5 11.875Z" fill="#E32728"/>
<path d="M19.375 9.375H13.75L15.625 4.375H17.5L19.375 9.375Z" fill="#FCAA35"/>
<path d="M26.25 11.875H20.625L22.5 6.875H24.375L26.25 11.875Z" fill="#61A838"/>
<path d="M33.125 11.875H27.5L29.375 6.875H31.25L33.125 11.875Z" fill="#438FD0"/>
<path d="M35.625 19.375V35.625H4.375V19.375H13.125L15.625 22.5H24.375L26.875 19.375H35.625Z" fill="#FCAA35"/>
<path d="M26.875 26.25H13.125C11.7443 26.25 10.625 27.3693 10.625 28.75V29.375C10.625 30.7557 11.7443 31.875 13.125 31.875H26.875C28.2557 31.875 29.375 30.7557 29.375 29.375V28.75C29.375 27.3693 28.2557 26.25 26.875 26.25Z" fill="#6FB4E2"/>
</svg>
