<svg width="78" height="83" viewBox="0 0 78 83" fill="none" xmlns="http://www.w3.org/2000/svg">
<path d="M68.64 32.7934C68.3149 32.7913 67.9986 32.6877 67.7352 32.497C67.4014 32.2561 67.1763 31.8929 67.1091 31.4868C67.0419 31.0806 67.138 30.6643 67.3764 30.3286L74.5056 20.3134L65.832 8.76944C65.7091 8.60555 65.6197 8.41905 65.5688 8.2206C65.518 8.02215 65.5067 7.81562 65.5357 7.61282C65.5647 7.41002 65.6333 7.21491 65.7377 7.03863C65.8421 6.86235 65.9801 6.70835 66.144 6.58544C66.3079 6.46252 66.4944 6.37309 66.6929 6.32224C66.8913 6.2714 67.0978 6.26014 67.3006 6.28912C67.5034 6.31809 67.6986 6.38672 67.8748 6.4911C68.0511 6.59547 68.2051 6.73355 68.328 6.89744L77.688 19.3774C77.8833 19.6446 77.9885 19.9669 77.9885 20.2978C77.9885 20.6287 77.8833 20.9511 77.688 21.2182L69.888 32.1382C69.746 32.3377 69.5591 32.501 69.3422 32.6148C69.1254 32.7287 68.8849 32.7898 68.64 32.7934Z" fill="#7C7874"/>
<path d="M45 11.3545L47.2697 9.08484C49.0755 7.27898 51.5248 6.26446 54.0786 6.26446C56.6325 6.26446 59.0818 7.27898 60.8876 9.08483C62.6935 10.8907 63.708 13.34 63.708 15.8938C63.708 18.4477 62.6935 20.8969 60.8876 22.7028L58.618 24.9725L45 11.3545Z" fill="#FCAA35"/>
<path d="M66.0926 9.74844L63.1764 12.6646L57.3441 6.83227L60.2603 3.9161C61.0337 3.14269 62.0827 2.70819 63.1764 2.70819C64.2702 2.70819 65.3192 3.14269 66.0926 3.91611C66.866 4.68952 67.3005 5.7385 67.3005 6.83228C67.3005 7.92605 66.866 8.97503 66.0926 9.74844Z" fill="#FCAA35"/>
<path d="M34.32 26.5535H43.68C46.1624 26.5535 48.5431 27.5396 50.2985 29.2949C52.0538 31.0503 53.04 33.431 53.04 35.9135V43.7135C53.04 44.5409 52.7112 45.3345 52.1261 45.9196C51.541 46.5048 50.7474 46.8335 49.92 46.8335H28.08C27.2525 46.8335 26.4589 46.5048 25.8738 45.9196C25.2887 45.3345 24.96 44.5409 24.96 43.7135V35.9135C24.96 33.431 25.9461 31.0503 27.7014 29.2949C29.4568 27.5396 31.8375 26.5535 34.32 26.5535Z" fill="#438FD0"/>
<path d="M28.08 82.7135C27.6663 82.7135 27.2695 82.5491 26.9769 82.2566C26.6844 81.964 26.52 81.5672 26.52 81.1535V60.8735C26.52 60.4597 26.6844 60.0629 26.9769 59.7704C27.2695 59.4778 27.6663 59.3135 28.08 59.3135C28.4938 59.3135 28.8906 59.4778 29.1831 59.7704C29.4757 60.0629 29.64 60.4597 29.64 60.8735V81.1535C29.64 81.5672 29.4757 81.964 29.1831 82.2566C28.8906 82.5491 28.4938 82.7135 28.08 82.7135Z" fill="#56524F"/>
<path d="M49.9199 82.7135C49.5061 82.7135 49.1093 82.5491 48.8168 82.2566C48.5242 81.964 48.3599 81.5672 48.3599 81.1535V60.8735C48.3599 60.4597 48.5242 60.0629 48.8168 59.7704C49.1093 59.4778 49.5061 59.3135 49.9199 59.3135C50.3336 59.3135 50.7304 59.4778 51.023 59.7704C51.3155 60.0629 51.4799 60.4597 51.4799 60.8735V81.1535C51.4799 81.5672 51.3155 81.964 51.023 82.2566C50.7304 82.5491 50.3336 82.7135 49.9199 82.7135Z" fill="#56524F"/>
<path d="M49.92 70.2335H28.08C27.6663 70.2335 27.2695 70.0692 26.9769 69.7766C26.6844 69.4841 26.52 69.0873 26.52 68.6735C26.52 68.2598 26.6844 67.863 26.9769 67.5704C27.2695 67.2779 27.6663 67.1135 28.08 67.1135H49.92C50.3338 67.1135 50.7305 67.2779 51.0231 67.5704C51.3157 67.863 51.48 68.2598 51.48 68.6735C51.48 69.0873 51.3157 69.4841 51.0231 69.7766C50.7305 70.0692 50.3338 70.2335 49.92 70.2335Z" fill="#56524F"/>
<path d="M4.68012 82.7133C4.26638 82.7133 3.86959 82.549 3.57703 82.2564C3.28447 81.9639 3.12012 81.5671 3.12012 81.1533V43.7133C3.12012 43.2996 3.28447 42.9028 3.57703 42.6102C3.86959 42.3177 4.26638 42.1533 4.68012 42.1533C5.09385 42.1533 5.49065 42.3177 5.7832 42.6102C6.07576 42.9028 6.24012 43.2996 6.24012 43.7133V81.1533C6.24012 81.5671 6.07576 81.9639 5.7832 82.2564C5.49065 82.549 5.09385 82.7133 4.68012 82.7133Z" fill="#AA571B"/>
<path d="M73.3198 82.7133C72.906 82.7133 72.5092 82.549 72.2167 82.2564C71.9241 81.9639 71.7598 81.5671 71.7598 81.1533V43.7133C71.7598 43.2996 71.9241 42.9028 72.2167 42.6102C72.5092 42.3177 72.906 42.1533 73.3198 42.1533C73.7335 42.1533 74.1303 42.3177 74.4229 42.6102C74.7154 42.9028 74.8798 43.2996 74.8798 43.7133V81.1533C74.8798 81.5671 74.7154 81.9639 74.4229 82.2564C74.1303 82.549 73.7335 82.7133 73.3198 82.7133Z" fill="#AA571B"/>
<path d="M10.9202 17.1934H4.68018V37.4734H10.9202V17.1934Z" fill="#E32728"/>
<path d="M17.1599 21.8735H10.9199V37.4735H17.1599V21.8735Z" fill="#61A838"/>
<path d="M65.5198 31.2334H68.6398C70.2947 31.2334 71.8819 31.8908 73.0521 33.0611C74.2224 34.2313 74.8798 35.8184 74.8798 37.4734H59.2798C59.2798 35.8184 59.9372 34.2313 61.1074 33.0611C62.2777 31.8908 63.8648 31.2334 65.5198 31.2334Z" fill="#FCAA35"/>
<path d="M67.0863 7.83879L64.7477 10.1773L60.0706 5.50024L62.4092 3.1617C63.0294 2.54148 63.8706 2.19304 64.7477 2.19305C65.6248 2.19305 66.466 2.54148 67.0863 3.1617C67.7065 3.78192 68.0549 4.62312 68.0549 5.50024C68.0549 6.37737 67.7065 7.21857 67.0863 7.83879Z" fill="#FCAA35"/>
<path d="M45.2402 39.0333H32.7602C32.3465 39.0333 31.9497 38.869 31.6571 38.5764C31.3646 38.2839 31.2002 37.8871 31.2002 37.4733C31.2002 37.0596 31.3646 36.6628 31.6571 36.3702C31.9497 36.0777 32.3465 35.9133 32.7602 35.9133H45.2402C45.6539 35.9133 46.0507 36.0777 46.3433 36.3702C46.6358 36.6628 46.8002 37.0596 46.8002 37.4733C46.8002 37.8871 46.6358 38.2839 46.3433 38.5764C46.0507 38.869 45.6539 39.0333 45.2402 39.0333Z" fill="#56524F"/>
<path d="M24.96 37.4734H0V43.7134H24.96V37.4734Z" fill="#CD8538"/>
<path d="M78 37.4734H53.04V43.7134H78V37.4734Z" fill="#CD8538"/>
<path d="M51.4799 54.6333H26.5199C24.7968 54.6333 23.3999 56.0302 23.3999 57.7533C23.3999 59.4764 24.7968 60.8733 26.5199 60.8733H51.4799C53.203 60.8733 54.5999 59.4764 54.5999 57.7533C54.5999 56.0302 53.203 54.6333 51.4799 54.6333Z" fill="#438FD0"/>
<path d="M32.7602 56.1933C32.3465 56.1933 31.9497 56.029 31.6571 55.7364C31.3646 55.4439 31.2002 55.0471 31.2002 54.6333V37.4733C31.2002 37.0596 31.3646 36.6628 31.6571 36.3702C31.9497 36.0777 32.3465 35.9133 32.7602 35.9133C33.1739 35.9133 33.5707 36.0777 33.8633 36.3702C34.1558 36.6628 34.3202 37.0596 34.3202 37.4733V54.6333C34.3202 55.0471 34.1558 55.4439 33.8633 55.7364C33.5707 56.029 33.1739 56.1933 32.7602 56.1933Z" fill="#56524F"/>
<path d="M45.2402 56.1933C44.8264 56.1933 44.4296 56.029 44.1371 55.7364C43.8445 55.4439 43.6802 55.0471 43.6802 54.6333V37.4733C43.6802 37.0596 43.8445 36.6628 44.1371 36.3702C44.4296 36.0777 44.8264 35.9133 45.2402 35.9133C45.6539 35.9133 46.0507 36.0777 46.3433 36.3702C46.6358 36.6628 46.8002 37.0596 46.8002 37.4733V54.6333C46.8002 55.0471 46.6358 55.4439 46.3433 55.7364C46.0507 56.029 45.6539 56.1933 45.2402 56.1933Z" fill="#56524F"/>
</svg>
