<svg width="40" height="40" viewBox="0 0 40 40" fill="none" xmlns="http://www.w3.org/2000/svg">
<path d="M29.375 6.25V13.125H15V10.625H11.25V13.125H8.75C8.08696 13.125 7.45107 12.8616 6.98223 12.3928C6.51339 11.9239 6.25 11.288 6.25 10.625V8.75C6.25 8.08696 6.51339 7.45107 6.98223 6.98223C7.45107 6.51339 8.08696 6.25 8.75 6.25H29.375Z" fill="#FDF2DD"/>
<path d="M31.25 5.3125C31.25 5.56114 31.1512 5.7996 30.9754 5.97541C30.7996 6.15123 30.5611 6.25 30.3125 6.25H8.75C8.08696 6.25 7.45107 6.51339 6.98223 6.98223C6.51339 7.45107 6.25 8.08696 6.25 8.75V10.625C6.25 11.288 6.51339 11.9239 6.98223 12.3928C7.45107 12.8616 8.08696 13.125 8.75 13.125H11.25V15H8.75C7.58968 15 6.47688 14.5391 5.65641 13.7186C4.83594 12.8981 4.375 11.7853 4.375 10.625V8.75C4.375 7.58968 4.83594 6.47688 5.65641 5.65641C6.47688 4.83594 7.58968 4.375 8.75 4.375H30.3125C30.5611 4.375 30.7996 4.47377 30.9754 4.64959C31.1512 4.8254 31.25 5.06386 31.25 5.3125Z" fill="#FCAA35"/>
<path d="M31.25 14.0625C31.25 14.3111 31.1512 14.5496 30.9754 14.7254C30.7996 14.9012 30.5611 15 30.3125 15H15V13.125H30.3125C30.5611 13.125 30.7996 13.2238 30.9754 13.3996C31.1512 13.5754 31.25 13.8139 31.25 14.0625Z" fill="#FCAA35"/>
<path d="M20.625 23.75V25.625H7.1875C6.93886 25.625 6.7004 25.5262 6.52459 25.3504C6.34877 25.1746 6.25 24.9361 6.25 24.6875C6.25 24.4389 6.34877 24.2004 6.52459 24.0246C6.7004 23.8488 6.93886 23.75 7.1875 23.75H20.625Z" fill="#438FD0"/>
<path d="M33.75 20.3563C33.7385 21.7577 33.1737 23.0977 32.1786 24.0845C31.1836 25.0714 29.8389 25.6251 28.4375 25.625H24.375V23.75H28.4375C29.3353 23.7503 30.1975 23.3993 30.8399 22.7721C31.4823 22.1449 31.8538 21.2913 31.875 20.3938C31.8635 19.4522 31.4796 18.5535 30.8073 17.8941C30.1351 17.2348 29.2291 16.8684 28.2875 16.875H7.1875C6.93886 16.875 6.7004 16.7763 6.52459 16.6004C6.34877 16.4246 6.25 16.1862 6.25 15.9375C6.25 15.6889 6.34877 15.4504 6.52459 15.2746C6.7004 15.0988 6.93886 15 7.1875 15H11.25V16.25L13.125 15L15 16.25V15H28.25C29.6856 14.9948 31.0659 15.5529 32.0943 16.5544C33.1228 17.556 33.7173 18.9211 33.75 20.3563Z" fill="#438FD0"/>
<path d="M31.875 20.3937C31.8538 21.2912 31.4823 22.1449 30.8399 22.772C30.1975 23.3992 29.3353 23.7502 28.4375 23.75H24.375V21.25H20.625V23.75H8.125V16.875H28.2875C29.2291 16.8683 30.1351 17.2347 30.8073 17.8941C31.4796 18.5534 31.8635 19.4521 31.875 20.3937Z" fill="#FDF2DD"/>
<path d="M35.625 34.6875C35.625 34.9361 35.5262 35.1746 35.3504 35.3504C35.1746 35.5262 34.9361 35.625 34.6875 35.625H6.25C5.75272 35.625 5.27581 35.4275 4.92417 35.0758C4.57254 34.7242 4.375 34.2473 4.375 33.75V27.5C4.375 27.0027 4.57254 26.5258 4.92417 26.1742C5.27581 25.8225 5.75272 25.625 6.25 25.625H20.625V26.875L22.5 25.625L24.375 26.875V25.625H34.6875C34.9361 25.625 35.1746 25.7238 35.3504 25.8996C35.5262 26.0754 35.625 26.3139 35.625 26.5625C35.625 26.8111 35.5262 27.0496 35.3504 27.2254C35.1746 27.4012 34.9361 27.5 34.6875 27.5H6.875V33.75H34.6875C34.9361 33.75 35.1746 33.8488 35.3504 34.0246C35.5262 34.2004 35.625 34.4389 35.625 34.6875Z" fill="#61A838"/>
<path d="M34.375 27.5H6.875V33.75H34.375V27.5Z" fill="#FDF2DD"/>
<path d="M26.875 30.625H9.375C9.20924 30.625 9.05027 30.5592 8.93306 30.4419C8.81585 30.3247 8.75 30.1658 8.75 30C8.75 29.8342 8.81585 29.6753 8.93306 29.5581C9.05027 29.4408 9.20924 29.375 9.375 29.375H26.875C27.0408 29.375 27.1997 29.4408 27.3169 29.5581C27.4342 29.6753 27.5 29.8342 27.5 30C27.5 30.1658 27.4342 30.3247 27.3169 30.4419C27.1997 30.5592 27.0408 30.625 26.875 30.625Z" fill="#E2CCA8"/>
<path d="M34.375 32.5H23.75C23.5842 32.5 23.4253 32.4342 23.3081 32.3169C23.1908 32.1997 23.125 32.0408 23.125 31.875C23.125 31.7092 23.1908 31.5503 23.3081 31.4331C23.4253 31.3158 23.5842 31.25 23.75 31.25H34.375C34.5408 31.25 34.6997 31.3158 34.8169 31.4331C34.9342 31.5503 35 31.7092 35 31.875C35 32.0408 34.9342 32.1997 34.8169 32.3169C34.6997 32.4342 34.5408 32.5 34.375 32.5Z" fill="#E2CCA8"/>
<path d="M18.125 20H8.125C7.95924 20 7.80027 19.9342 7.68306 19.8169C7.56585 19.6997 7.5 19.5408 7.5 19.375C7.5 19.2092 7.56585 19.0503 7.68306 18.9331C7.80027 18.8158 7.95924 18.75 8.125 18.75H18.125C18.2908 18.75 18.4497 18.8158 18.5669 18.9331C18.6842 19.0503 18.75 19.2092 18.75 19.375C18.75 19.5408 18.6842 19.6997 18.5669 19.8169C18.4497 19.9342 18.2908 20 18.125 20Z" fill="#E2CCA8"/>
<path d="M29.375 8.75H18.75C18.5842 8.75 18.4253 8.68415 18.3081 8.56694C18.1908 8.44973 18.125 8.29076 18.125 8.125C18.125 7.95924 18.1908 7.80027 18.3081 7.68306C18.4253 7.56585 18.5842 7.5 18.75 7.5H29.375C29.5408 7.5 29.6997 7.56585 29.8169 7.68306C29.9342 7.80027 30 7.95924 30 8.125C30 8.29076 29.9342 8.44973 29.8169 8.56694C29.6997 8.68415 29.5408 8.75 29.375 8.75Z" fill="#E2CCA8"/>
<path d="M15 10.625V16.25L13.125 15L11.25 16.25V10.625H15Z" fill="#E32728"/>
<path d="M24.375 21.25V26.875L22.5 25.625L20.625 26.875V21.25H24.375Z" fill="#E32728"/>
<path d="M19.375 11.25H9.375C9.20924 11.25 9.05027 11.1842 8.93306 11.0669C8.81585 10.9497 8.75 10.7908 8.75 10.625C8.75 10.4592 8.81585 10.3003 8.93306 10.1831C9.05027 10.0658 9.20924 10 9.375 10H19.375C19.5408 10 19.6997 10.0658 19.8169 10.1831C19.9342 10.3003 20 10.4592 20 10.625C20 10.7908 19.9342 10.9497 19.8169 11.0669C19.6997 11.1842 19.5408 11.25 19.375 11.25Z" fill="#E2CCA8"/>
<path d="M28.75 21.875H18.125C17.9592 21.875 17.8003 21.8092 17.6831 21.6919C17.5658 21.5747 17.5 21.4158 17.5 21.25C17.5 21.0842 17.5658 20.9253 17.6831 20.8081C17.8003 20.6908 17.9592 20.625 18.125 20.625H28.75C28.9158 20.625 29.0747 20.6908 29.1919 20.8081C29.3092 20.9253 29.375 21.0842 29.375 21.25C29.375 21.4158 29.3092 21.5747 29.1919 21.6919C29.0747 21.8092 28.9158 21.875 28.75 21.875Z" fill="#E2CCA8"/>
</svg>
