<svg width="40" height="40" viewBox="0 0 40 40" fill="none" xmlns="http://www.w3.org/2000/svg">
<path d="M23.084 16.916C22.626 16.458 21.8848 16.458 21.4268 16.916L14.7976 23.5452C14.3396 24.0031 14.3396 24.7444 14.7976 25.2025C15.2557 25.6605 15.997 25.6605 16.4549 25.2025L23.084 18.5733C23.5421 18.1153 23.5421 17.3741 23.084 16.916Z" fill="#EDF5FF"/>
<path d="M16.4546 25.2027L23.0838 18.5735C23.5418 18.1155 23.5418 17.3743 23.0838 16.9163L14.7974 25.2027C15.2554 25.6607 15.9967 25.6607 16.4546 25.2027Z" fill="#D5E8FE"/>
<path d="M18.9409 15.6021C19.5881 15.6021 20.1128 15.0774 20.1128 14.4302C20.1128 13.783 19.5881 13.2583 18.9409 13.2583C18.2937 13.2583 17.769 13.783 17.769 14.4302C17.769 15.0774 18.2937 15.6021 18.9409 15.6021Z" fill="#7ED8F6"/>
<path d="M25.5698 22.2312C26.217 22.2312 26.7417 21.7065 26.7417 21.0593C26.7417 20.4121 26.217 19.8875 25.5698 19.8875C24.9226 19.8875 24.3979 20.4121 24.3979 21.0593C24.3979 21.7065 24.9226 22.2312 25.5698 22.2312Z" fill="#59C36A"/>
<path d="M35.5137 18.9165C36.1609 18.9165 36.6855 18.3918 36.6855 17.7446C36.6855 17.0974 36.1609 16.5728 35.5137 16.5728C34.8665 16.5728 34.3418 17.0974 34.3418 17.7446C34.3418 18.3918 34.8665 18.9165 35.5137 18.9165Z" fill="#E63950"/>
<path d="M22.2554 5.6582C22.9026 5.6582 23.4272 5.13354 23.4272 4.48633C23.4272 3.83912 22.9026 3.31445 22.2554 3.31445C21.6082 3.31445 21.0835 3.83912 21.0835 4.48633C21.0835 5.13354 21.6082 5.6582 22.2554 5.6582Z" fill="#FF7B4A"/>
<path d="M32.1987 2.34375C32.8459 2.34375 33.3706 1.81908 33.3706 1.17188C33.3706 0.524666 32.8459 0 32.1987 0C31.5515 0 31.0269 0.524666 31.0269 1.17188C31.0269 1.81908 31.5515 2.34375 32.1987 2.34375Z" fill="#97DE3D"/>
<path d="M38.8281 8.9729C39.4753 8.9729 40 8.44823 40 7.80103C40 7.15382 39.4753 6.62915 38.8281 6.62915C38.1809 6.62915 37.6562 7.15382 37.6562 7.80103C37.6562 8.44823 38.1809 8.9729 38.8281 8.9729Z" fill="#6AA9FF"/>
<path d="M38.7173 12.6651C37.4503 11.5413 36.3615 10.5756 35.0944 9.45174C35.0126 9.69861 36.5436 5.10384 36.6255 4.85697C36.7656 4.43541 36.6056 3.99478 36.3055 3.69455C36.0053 3.39439 35.5647 3.23447 35.1431 3.37455C33.5361 3.91002 32.1554 4.37017 30.5483 4.90564C29.9402 4.23463 28.2406 2.28634 27.335 1.28275C27.0131 0.925954 26.5559 0.824391 26.1547 0.930563C25.7536 1.03673 25.4083 1.35056 25.3102 1.82494C24.9706 3.48463 24.6788 4.91056 24.3392 6.57025C23.4522 6.75408 20.9181 7.26759 19.5939 7.54127C19.1215 7.639 18.806 7.98455 18.6985 8.38611C18.591 8.78767 18.6918 9.24502 19.0517 9.56603C20.3188 10.6899 21.4075 11.6556 22.6746 12.7794C22.3894 13.639 21.5697 16.091 21.1435 17.3742C20.9915 17.8321 21.1332 18.2784 21.4275 18.5727L21.4276 18.5728C21.722 18.867 22.1686 19.0085 22.626 18.8567C24.233 18.3212 25.6139 17.861 27.2208 17.3256C27.725 17.944 29.6735 20.0318 30.4341 20.9485C30.7312 21.3063 31.1877 21.4115 31.5947 21.3068C32.0016 21.2021 32.3593 20.8875 32.4588 20.4063C32.7984 18.7467 33.0902 17.3207 33.4298 15.661C34.3168 15.4772 36.8509 14.9637 38.1751 14.69C38.6633 14.589 38.9749 14.2295 39.0764 13.8218C39.1779 13.414 39.0694 12.9582 38.7173 12.6651Z" fill="#FED843"/>
<path d="M22.6257 18.8565C24.2327 18.3211 25.6136 17.8609 27.2205 17.3254C27.7247 17.9439 29.6732 20.0317 30.4338 20.9483C30.7309 21.3062 31.1874 21.4114 31.5944 21.3067C32.0013 21.202 32.359 20.8874 32.4585 20.4062C32.7981 18.7465 33.0899 17.3206 33.4295 15.6609C34.3165 15.4771 36.8506 14.9636 38.1748 14.6899C38.663 14.5889 38.9746 14.2294 39.0761 13.8217C39.1776 13.414 39.069 12.9583 38.717 12.6651C37.45 11.5413 36.3612 10.5756 35.0941 9.45177C35.0123 9.69864 36.5433 5.10388 36.6252 4.857C36.7653 4.43544 36.6053 3.99481 36.3052 3.69458L21.4272 18.5726L21.4274 18.5727C21.7218 18.8668 22.1683 19.0085 22.6257 18.8565Z" fill="#FF9F00"/>
<path d="M16.4548 23.5452C15.0841 22.1744 12.8538 22.1744 11.4831 23.5452L1.02814 34C-0.342715 35.3709 -0.342715 37.601 1.02814 38.9719C2.399 40.3427 4.62916 40.3427 6.00002 38.9719L16.4548 28.517C17.8256 27.1462 17.8256 24.9159 16.4548 23.5452Z" fill="#5F55AF"/>
<path d="M6.0002 38.9718L16.455 28.5169C17.8258 27.1462 17.8258 24.9159 16.455 23.5452L1.02832 38.9718C2.39918 40.3427 4.62934 40.3427 6.0002 38.9718Z" fill="#453D83"/>
</svg>
