<svg width="39" height="39" viewBox="0 0 39 39" fill="none" xmlns="http://www.w3.org/2000/svg">
<path d="M23.9031 0.62915H16.3547L15.0967 4.40334H25.1612L23.9031 0.62915Z" fill="#8C95A4"/>
<path d="M15.0967 4.40321H25.1612L24.5322 2.51611H15.7257L15.0967 4.40321Z" fill="#798699"/>
<path d="M12.5805 4.40308H6.91923C3.44508 4.40308 0.628906 7.21925 0.628906 10.6934H12.5805V4.40308Z" fill="#ECECEC"/>
<path d="M10.6934 18.2417H33.3385C36.1176 18.2417 38.3708 15.9886 38.3708 13.2095V10.6934H10.6934V18.2417Z" fill="#ECECEC"/>
<path d="M38.371 10.6936H11.9517V12.5807H38.371V10.6936Z" fill="#B6C1CE"/>
<path d="M10.6936 18.242C14.1677 18.242 16.984 15.4257 16.984 11.9517C16.984 8.47765 14.1677 5.66138 10.6936 5.66138C7.21959 5.66138 4.40332 8.47765 4.40332 11.9517C4.40332 15.4257 7.21959 18.242 10.6936 18.242Z" fill="#39C3FC"/>
<path d="M10.694 5.66138C10.3726 5.66138 10.0593 5.69346 9.75049 5.74001C12.7755 6.19605 15.0973 8.79899 15.0973 11.9517C15.0973 15.1044 12.7755 17.7073 9.75049 18.1634C10.0593 18.2099 10.3726 18.242 10.694 18.242C14.1682 18.242 16.9844 15.4258 16.9844 11.9517C16.9844 8.47755 14.1682 5.66138 10.694 5.66138Z" fill="#148CE0"/>
<path d="M10.6939 14.4679C12.0835 14.4679 13.21 13.3414 13.21 11.9518C13.21 10.5622 12.0835 9.43567 10.6939 9.43567C9.30424 9.43567 8.17773 10.5622 8.17773 11.9518C8.17773 13.3414 9.30424 14.4679 10.6939 14.4679Z" fill="#148CE0"/>
<path d="M6.91943 4.40308H33.3388C36.1179 4.40308 38.371 6.65627 38.371 9.43533V10.6934H13.2098C13.2098 7.21925 10.3936 4.40308 6.91943 4.40308Z" fill="#8C95A4"/>
<path d="M25.7903 21.387V28.9353C25.7903 29.2826 26.0721 29.5644 26.4193 29.5644H34.5968V33.3386H24.5322C23.1427 33.3386 22.0161 32.212 22.0161 30.8224V21.387H25.7903Z" fill="#AFB8C9"/>
<path d="M22.0161 23.5338C22.5992 23.7704 23.2352 23.9031 23.9032 23.9031C24.5712 23.9031 25.2072 23.7704 25.7903 23.5338V21.387H22.0161V23.5338Z" fill="#8C95A4"/>
<path d="M34.5972 29.5645H32.0811V33.3386H34.5972V29.5645Z" fill="#FEA82F"/>
<path d="M37.1128 24.5323H38.3709V38.3711H37.1128C35.7233 38.3711 34.5967 37.2445 34.5967 35.8549V27.0485C34.5967 25.6589 35.7233 24.5323 37.1128 24.5323Z" fill="#8C95A4"/>
<path d="M23.903 22.0162C25.64 22.0162 27.0481 20.608 27.0481 18.871C27.0481 17.134 25.64 15.7258 23.903 15.7258C22.1659 15.7258 20.7578 17.134 20.7578 18.871C20.7578 20.608 22.1659 22.0162 23.903 22.0162Z" fill="#8C95A4"/>
<path d="M33.3386 13.2097H29.5645V15.7258H33.3386V13.2097Z" fill="#FEA82F"/>
<path d="M10.6935 13.8387C9.65308 13.8387 8.8064 12.992 8.8064 11.9516C8.8064 10.9111 9.65308 10.0645 10.6935 10.0645V8.8064C8.95926 8.8064 7.54834 10.2173 7.54834 11.9516C7.54834 13.6858 8.95926 15.0967 10.6935 15.0967C11.8132 15.0967 12.8567 14.4941 13.4178 13.5241L12.3284 12.8951C11.9918 13.477 11.3653 13.8387 10.6935 13.8387Z" fill="white"/>
<path d="M27.6774 18.871H33.3387C36.46 18.871 39 16.3309 39 13.2097V9.43548C39 6.31423 36.46 3.77419 33.3387 3.77419H25.6148L24.3568 0H15.9013L14.6432 3.77419H6.91935C3.10427 3.77419 0 6.87847 0 10.6935V11.3226H3.80627C3.7874 11.5302 3.77419 11.739 3.77419 11.9516C3.77419 15.7667 6.87847 18.871 10.6935 18.871H20.129C20.129 19.985 20.6172 20.9845 21.3871 21.6765V30.8226C21.3871 32.5568 22.798 33.9677 24.5323 33.9677H33.9677V35.8548C33.9677 37.5891 35.3787 39 37.1129 39H39V23.9032H37.1129C35.3787 23.9032 33.9677 25.3141 33.9677 27.0484V28.9355H26.4194V21.6765C27.1893 20.9845 27.6774 19.985 27.6774 18.871ZM35.2258 27.0484C35.2258 26.008 36.0725 25.1613 37.1129 25.1613H37.7419V37.7419H37.1129C36.0725 37.7419 35.2258 36.8953 35.2258 35.8548V27.0484ZM23.9032 21.3871C22.5156 21.3871 21.3871 20.2586 21.3871 18.871C21.3871 17.4833 22.5156 16.3548 23.9032 16.3548C25.2909 16.3548 26.4194 17.4833 26.4194 18.871C26.4194 20.2586 25.2909 21.3871 23.9032 21.3871ZM16.8084 1.25806H23.4503L24.2888 3.77419H15.9699L16.8084 1.25806ZM33.3387 5.03226C35.7668 5.03226 37.7419 7.00742 37.7419 9.43548V10.0645H13.8104C13.6223 7.98368 12.5045 6.17144 10.8816 5.03226H33.3387ZM1.29266 10.0645C1.60655 7.23765 4.01008 5.03226 6.91935 5.03226C7.54461 5.03226 8.14408 5.13794 8.70706 5.32602C6.4545 6.00285 4.68629 7.79811 4.04216 10.0645H1.29266ZM5.03226 11.9516C5.03226 8.90081 7.45969 6.41235 10.4841 6.30102C11.7616 7.34018 12.5806 8.92219 12.5806 10.6935V11.3226H16.3177C16.3404 11.5308 16.3548 11.7409 16.3548 11.9516C16.3548 15.0729 13.8148 17.6129 10.6935 17.6129C7.57229 17.6129 5.03226 15.0729 5.03226 11.9516ZM20.3492 17.6129H14.6596C16.4423 16.3599 17.6129 14.2916 17.6129 11.9516C17.6129 11.7415 17.6003 11.5314 17.5815 11.3226H37.7419V13.2097C37.7419 15.6377 35.7668 17.6129 33.3387 17.6129H27.4573C26.9377 16.1491 25.5431 15.0968 23.9032 15.0968C22.2633 15.0968 20.8688 16.1491 20.3492 17.6129ZM33.9677 32.7097H32.7097V30.1935H33.9677V32.7097ZM26.4194 30.1935H31.4516V32.7097H24.5323C23.4918 32.7097 22.6452 31.863 22.6452 30.8226V22.425C23.0396 22.5653 23.4616 22.6452 23.9032 22.6452C24.3448 22.6452 24.7669 22.5646 25.1613 22.425V28.9355C25.1613 29.6293 25.7255 30.1935 26.4194 30.1935Z" fill="white"/>
<path d="M33.9678 12.5806H28.9355V16.3548H33.9678V12.5806ZM32.7097 15.0967H30.1936V13.8386H32.7097V15.0967Z" fill="white"/>
<path d="M24.5323 6.29028H14.4678V7.54835H24.5323V6.29028Z" fill="white"/>
<path d="M30.1936 7.54834H28.9355V8.80641H30.1936V7.54834Z" fill="white"/>
<path d="M32.7097 7.54834H31.4517V8.80641H32.7097V7.54834Z" fill="white"/>
<path d="M35.2258 7.54834H33.9678V8.80641H35.2258V7.54834Z" fill="white"/>
</svg>
