<svg width="37" height="37" viewBox="0 0 37 37" fill="none" xmlns="http://www.w3.org/2000/svg">
<path d="M27.8451 19.3946L27.6388 21.2501L27.4998 22.5001H9.99975L9.86069 21.2501L9.65444 19.3946C9.47109 17.7433 9.71872 16.0726 10.3732 14.5454C10.9497 13.1995 11.2115 11.7398 11.1388 10.2774L11.0302 8.11493C10.978 7.06878 11.139 6.02294 11.5033 5.04091C11.8677 4.05888 12.4279 3.16116 13.1499 2.40227C13.8718 1.64337 14.7405 1.03914 15.7031 0.626265C16.6658 0.21339 17.7023 0.000488281 18.7498 0.000488281C19.7972 0.000488281 20.8337 0.21339 21.7964 0.626265C22.759 1.03914 23.6277 1.64337 24.3496 2.40227C25.0716 3.16116 25.6318 4.05888 25.9962 5.04091C26.3605 6.02294 26.5215 7.06878 26.4693 8.11493L26.3607 10.2774C26.288 11.7398 26.5498 13.1995 27.1263 14.5454C27.781 16.0725 28.0286 17.7433 27.8451 19.3946Z" fill="#8F4D2E"/>
<path d="M27.8455 19.3945L27.6393 21.25H20.6252V14.375L21.8752 11.875V6.875C21.8744 5.3683 21.3791 3.90351 20.4655 2.70546C19.5518 1.5074 18.2702 0.642311 16.8174 0.242969C17.9912 -0.0583287 19.2193 -0.0797132 20.4029 0.180538C21.5865 0.44079 22.6924 0.975401 23.6315 1.7413C24.5707 2.5072 25.3168 3.48298 25.8097 4.59003C26.3027 5.69707 26.5288 6.90443 26.4697 8.11484L26.3611 10.2773C26.2884 11.7397 26.5503 13.1994 27.1268 14.5453C27.7815 16.0724 28.0291 17.7432 27.8455 19.3945Z" fill="#82462A"/>
<path d="M22.125 20C22.0101 20.0001 21.8963 19.9775 21.7901 19.9335C21.6839 19.8896 21.5874 19.8251 21.5061 19.7439C21.4249 19.6626 21.3604 19.5661 21.3165 19.4599C21.2725 19.3537 21.2499 19.2399 21.25 19.125V15H16.25V19.125C16.2501 19.2399 16.2275 19.3537 16.1835 19.4599C16.1396 19.5661 16.0751 19.6626 15.9939 19.7439C15.9126 19.8251 15.8161 19.8896 15.7099 19.9335C15.6037 19.9775 15.4899 20.0001 15.375 20H14.375V23.75H23.125V20H22.125Z" fill="#FEC9A3"/>
<path d="M19.1269 18.125C19.9008 18.1165 20.649 17.8465 21.25 17.3588V15H16.25V17.3586C16.8509 17.8463 17.5992 18.1164 18.3731 18.125H19.1269Z" fill="#FEB784"/>
<path d="M24.375 8.125V11.25C24.375 12.7418 23.7824 14.1726 22.7275 15.2275C21.6726 16.2824 20.2418 16.875 18.75 16.875C17.2582 16.875 15.8274 16.2824 14.7725 15.2275C13.7176 14.1726 13.125 12.7418 13.125 11.25V8.125C14.3539 7.30607 15.3476 6.18038 16.0078 4.85937L16.25 4.375L16.6047 4.67109C18.1576 5.96512 19.9477 6.94429 21.875 7.55391C22.6912 7.81262 23.5274 8.00363 24.375 8.125Z" fill="#FEC9A3"/>
<path d="M24.3748 8.12505V11.25C24.3745 12.5557 23.9203 13.8205 23.0899 14.8281C22.2596 15.8356 21.1047 16.523 19.8232 16.7727C20.4739 16.134 20.9906 15.3718 21.3429 14.5307C21.6952 13.6897 21.876 12.7869 21.8748 11.8751V7.55396C22.691 7.81267 23.5272 8.00368 24.3748 8.12505Z" fill="#FEC093"/>
<path d="M15.9375 10.625C15.7521 10.625 15.5708 10.57 15.4167 10.467C15.2625 10.364 15.1423 10.2176 15.0714 10.0463C15.0004 9.87496 14.9818 9.68646 15.018 9.5046C15.0542 9.32275 15.1435 9.1557 15.2746 9.02459C15.4057 8.89348 15.5727 8.80419 15.7546 8.76801C15.9365 8.73184 16.125 8.75041 16.2963 8.82136C16.4676 8.89232 16.614 9.01248 16.717 9.16665C16.82 9.32082 16.875 9.50208 16.875 9.6875C16.8747 9.93606 16.7759 10.1744 16.6001 10.3501C16.4244 10.5259 16.1861 10.6247 15.9375 10.625Z" fill="#7A432A"/>
<path d="M21.5625 10.625C21.3771 10.625 21.1958 10.57 21.0417 10.467C20.8875 10.364 20.7673 10.2176 20.6964 10.0463C20.6254 9.87496 20.6068 9.68646 20.643 9.5046C20.6792 9.32275 20.7685 9.1557 20.8996 9.02459C21.0307 8.89348 21.1977 8.80419 21.3796 8.76801C21.5615 8.73184 21.75 8.75041 21.9213 8.82136C22.0926 8.89232 22.239 9.01248 22.342 9.16665C22.445 9.32082 22.5 9.50208 22.5 9.6875C22.4997 9.93606 22.4009 10.1744 22.2251 10.3501C22.0494 10.5259 21.8111 10.6247 21.5625 10.625Z" fill="#7A432A"/>
<path d="M18.75 13.75C18.2529 13.7494 17.7763 13.5517 17.4248 13.2002C17.0733 12.8487 16.8756 12.3721 16.875 11.875H18.125C18.125 12.0408 18.1908 12.1997 18.3081 12.3169C18.4253 12.4342 18.5842 12.5 18.75 12.5C18.9158 12.5 19.0747 12.4342 19.1919 12.3169C19.3092 12.1997 19.375 12.0408 19.375 11.875H20.625C20.6244 12.3721 20.4267 12.8487 20.0752 13.2002C19.7237 13.5517 19.2471 13.7494 18.75 13.75Z" fill="#F7A468"/>
<path d="M15.625 22.5H21.875V26.875H15.625V22.5Z" fill="#E0E0DE"/>
<path d="M31.482 36.2242C31.0386 36.2981 30.5834 36.2121 30.1975 35.9816C29.8117 35.7511 29.5202 35.391 29.375 34.9656L25.2469 27.2211C25.5097 28.0069 25.5676 28.8468 25.415 29.6612C25.2624 30.4756 24.9044 31.2376 24.375 31.875V36.875H13.125V31.875C12.5879 31.2303 12.2262 30.4578 12.0751 29.6324C11.924 28.8069 11.9886 27.9565 12.2625 27.1633L8.06718 34.9656C7.90615 35.4392 7.56456 35.8299 7.1168 36.0528C6.66904 36.2756 6.15136 36.3126 5.67648 36.1555C5.20161 35.9985 4.808 35.6603 4.58136 35.2144C4.35471 34.7685 4.31339 34.2512 4.4664 33.775L9.05546 22.3523C9.33431 21.6576 9.81476 21.0623 10.4349 20.6431C11.0551 20.2238 11.7866 19.9999 12.5351 20H15L18.75 26.875L22.5 20H24.9555C25.7061 20.0005 26.4394 20.2261 27.0606 20.6477C27.6817 21.0693 28.1621 21.6674 28.4398 22.3648L32.9766 33.775C33.0594 34.0342 33.0856 34.3083 33.0532 34.5785C33.0208 34.8487 32.9307 35.1088 32.7889 35.3411C32.6472 35.5734 32.4571 35.7725 32.2316 35.9249C32.0061 36.0773 31.7504 36.1794 31.482 36.2242Z" fill="#EC8C8C"/>
<path d="M3.92417 33.9852L4.37495 28.125H8.12495V34.1465C8.12495 34.7044 7.90333 35.2394 7.50885 35.6339C7.11436 36.0284 6.57932 36.25 6.02144 36.25C5.7316 36.25 5.4449 36.1901 5.17931 36.0741C4.91372 35.958 4.67497 35.7884 4.47805 35.5757C4.28113 35.3631 4.13028 35.112 4.03496 34.8383C3.93965 34.5646 3.90193 34.2741 3.92417 33.9852Z" fill="#F59898"/>
<path d="M5.84539 19.0078C5.66876 19.0519 5.50431 19.1352 5.36416 19.2514C5.22402 19.3676 5.11177 19.5138 5.03569 19.6792C4.95961 19.8446 4.92166 20.025 4.92462 20.2071C4.92758 20.3891 4.97139 20.5681 5.05281 20.731L5.625 21.875H3.38523C2.80308 21.875 2.22891 21.7395 1.7082 21.4791L1.08539 21.1677C0.971049 21.1105 0.843992 21.0835 0.716285 21.0893C0.588577 21.095 0.464459 21.1333 0.355713 21.2005C0.246968 21.2677 0.157205 21.3616 0.0949489 21.4733C0.0326924 21.5849 8.33969e-06 21.7106 0 21.8385V23.6024C6.35679e-07 23.8345 0.0646477 24.0621 0.186697 24.2596C0.308746 24.457 0.483375 24.6166 0.691016 24.7204L1.7082 25.2291C2.22891 25.4895 2.80308 25.625 3.38523 25.625H8.125V21.875L7.26914 19.7354C7.15989 19.4625 6.95545 19.2384 6.69369 19.1046C6.43193 18.9708 6.13056 18.9364 5.84539 19.0078Z" fill="#FEC9A3"/>
<path d="M4.375 25.625H8.125V28.125H4.375V25.625Z" fill="#E0E0DE"/>
<path d="M31.4821 36.2243C31.0387 36.2981 30.5835 36.2121 30.1977 35.9816C29.8118 35.7511 29.5203 35.3911 29.3751 34.9657L25.247 27.2211C25.5098 28.0069 25.5677 28.8468 25.4151 29.6613C25.2625 30.4757 24.9045 31.2377 24.3751 31.875V36.875H13.3306C18.4892 33.5063 22.8415 29.2313 26.4946 20.3313C27.3828 20.7304 28.0806 21.4598 28.4399 22.3649L32.9767 33.775C33.0595 34.0343 33.0857 34.3083 33.0533 34.5785C33.0209 34.8487 32.9308 35.1088 32.789 35.3411C32.6473 35.5735 32.4572 35.7726 32.2317 35.9249C32.0062 36.0773 31.7506 36.1794 31.4821 36.2243Z" fill="#E07F7F"/>
<path d="M27.5 34.375L21.25 33.125V24.375L27.5 25.625V34.375Z" fill="#A36548"/>
<path d="M30 34.375L36.25 33.125V24.375L30 25.625V34.375Z" fill="#8F4D2E"/>
<path d="M27.5 25.625H30V34.375H27.5V25.625Z" fill="#95573A"/>
<path d="M28.75 25.625C28.75 25.1011 28.5641 24.5941 28.2255 24.1943C27.8868 23.7946 27.4173 23.5279 26.9005 23.4417L21.25 22.5V24.375L27.5 25.625H28.75C28.75 25.1011 28.9359 24.5941 29.2745 24.1943C29.6132 23.7946 30.0827 23.5279 30.5995 23.4417L36.25 22.5V24.375L30 25.625H28.75Z" fill="#D4BD81"/>
<path d="M35.1027 34.3155L32.6027 34.7322C32.5132 34.7471 32.4215 34.7424 32.334 34.7183C32.2465 34.6941 32.1653 34.6513 32.096 34.5926C32.0268 34.5339 31.9711 34.4609 31.9329 34.3785C31.8948 34.2962 31.875 34.2065 31.875 34.1157V31.7927C31.875 31.6001 31.9433 31.4138 32.0677 31.2668C32.1922 31.1199 32.3647 31.0218 32.5547 30.9902L34.6775 30.6363C34.7941 30.6169 34.9135 30.6231 35.0274 30.6544C35.1414 30.6858 35.2471 30.7416 35.3373 30.818C35.4274 30.8944 35.4999 30.9895 35.5496 31.0967C35.5993 31.204 35.625 31.3207 35.625 31.4389V33.699C35.625 33.8469 35.5725 33.9901 35.4769 34.103C35.3812 34.2159 35.2487 34.2912 35.1027 34.3155Z" fill="#FEC9A3"/>
</svg>
