<svg width="39" height="40" viewBox="0 0 39 40" fill="none" xmlns="http://www.w3.org/2000/svg">
<path d="M33.864 13.8735H3.40918C2.65731 13.8735 2.04785 14.483 2.04785 15.2349V18.8917H35.2253V15.2349C35.2253 14.483 34.6159 13.8735 33.864 13.8735Z" fill="#FFB125"/>
<path d="M22.8076 6.31348L20.0497 34.2337C19.9804 34.935 19.3557 35.4474 18.6544 35.3781L4.68003 33.9978C3.9787 33.9285 3.46628 33.3038 3.53557 32.6024L6.29355 4.68223C6.36284 3.9809 6.98753 3.46847 7.68886 3.53777L21.6632 4.91816C22.3645 4.98746 22.8769 5.61215 22.8076 6.31348Z" fill="#B6FA4C"/>
<path d="M21.663 4.91816L7.68864 3.53777C6.98731 3.46847 6.36254 3.9809 6.29332 4.68223L6.0459 7.18715C6.25551 7.08067 6.49645 7.02973 6.74785 7.05457L20.7222 8.43497C21.4235 8.50427 21.9359 9.12895 21.8666 9.83028L19.3561 35.2456C19.7314 35.0549 20.0051 34.6837 20.0495 34.2337L22.8075 6.31356C22.8767 5.61215 22.3643 4.98746 21.663 4.91816Z" fill="#A8E83A"/>
<path d="M7.77412 8.64114L5.76209 29.0096C5.73326 29.3012 5.8706 29.5853 6.1192 29.7402C6.80436 30.1674 7.33483 30.8082 7.62639 31.5606C7.73115 31.831 7.98155 32.0174 8.27006 32.046L15.5143 32.7616C15.8029 32.7901 16.0848 32.6562 16.2405 32.4115C16.6737 31.7307 17.3193 31.2061 18.0748 30.9213C18.3489 30.8179 18.5391 30.5661 18.5679 30.2746L20.5799 9.90614C20.6088 9.61458 20.4714 9.33044 20.2228 9.17552C19.5377 8.7484 19.0072 8.10754 18.7156 7.3552C18.6109 7.08481 18.3605 6.89832 18.072 6.86981L10.8277 6.15418C10.5391 6.12567 10.2572 6.25957 10.1015 6.50426C9.66835 7.18504 9.02272 7.70965 8.26725 7.9945C7.99311 8.09786 7.80287 8.34958 7.77412 8.64114Z" fill="#77DD00"/>
<path d="M20.223 9.17552C19.5379 8.74841 19.0074 8.10754 18.7158 7.3552C18.6111 7.08481 18.3607 6.89832 18.0721 6.86981L10.8279 6.15418C10.5393 6.12567 10.2574 6.25957 10.1017 6.50426C9.66854 7.18504 9.02291 7.70965 8.26744 7.9945C7.9933 8.09786 7.80314 8.34965 7.77432 8.64114L7.69775 9.41653L17.0843 10.3148C17.3729 10.3433 17.6232 10.5298 17.7279 10.8002C18.0195 11.5526 18.55 12.1933 19.2351 12.6205C19.4837 12.7755 19.621 13.0597 19.5922 13.3511L17.8472 31.0167C17.9221 30.9826 17.9978 30.9504 18.075 30.9213C18.3492 30.8179 18.5394 30.5661 18.5682 30.2746L20.5802 9.90614C20.6089 9.61466 20.4716 9.33052 20.223 9.17552Z" fill="#73CC00"/>
<path d="M34.6562 10.473L18.8566 33.6574C18.4597 34.2398 17.6659 34.3901 17.0835 33.9933L5.47945 26.0854C4.89703 25.6886 4.74672 24.8947 5.14359 24.3123L20.9432 1.12789C21.34 0.545469 22.1339 0.395156 22.7163 0.792032L34.3203 8.69986C34.9026 9.09674 35.053 9.89056 34.6562 10.473Z" fill="#B6FA4C"/>
<path d="M34.3201 8.69992L22.716 0.792011C22.1336 0.395135 21.3398 0.545526 20.9429 1.12787L19.5915 3.11108C19.7087 3.1478 19.8227 3.20178 19.9296 3.27452L31.5336 11.1823C32.116 11.5792 32.2663 12.373 31.8695 12.9555L17.4214 34.1568C17.9436 34.3201 18.5323 34.1329 18.8564 33.6574L34.656 10.473C35.0528 9.89062 34.9024 9.09679 34.3201 8.69992Z" fill="#A8E83A"/>
<path d="M20.3458 5.31264L8.8196 22.2263C8.6546 22.4684 8.63898 22.7835 8.78288 23.0387C9.1796 23.7419 9.33812 24.5586 9.23351 25.3586C9.19593 25.6461 9.32624 25.9298 9.56585 26.0932L15.5813 30.1925C15.8209 30.3558 16.1327 30.3734 16.3865 30.2332C17.0928 29.8432 17.9109 29.6921 18.7105 29.8042C19.0006 29.8448 19.2882 29.715 19.4532 29.4728L30.9794 12.5592C31.1444 12.3171 31.16 12.002 31.0161 11.7468C30.6194 11.0436 30.4609 10.2269 30.5655 9.42687C30.6031 9.13937 30.4728 8.8557 30.2332 8.69234L24.2177 4.59295C23.9781 4.42967 23.6664 4.41209 23.4125 4.55225C22.7062 4.94225 21.8881 5.09334 21.0885 4.98131C20.7984 4.94069 20.5107 5.07053 20.3458 5.31264Z" fill="#77DD00"/>
<path d="M31.0164 11.7468C30.6197 11.0436 30.4612 10.2269 30.5658 9.42687C30.6033 9.13937 30.473 8.8557 30.2334 8.69234L24.2179 4.59295C23.9783 4.42967 23.6666 4.41209 23.4128 4.55225C22.7065 4.94225 21.8884 5.09334 21.0888 4.98131C20.7986 4.94069 20.5111 5.07053 20.3461 5.31264L19.8657 6.01757L27.3837 11.0852C27.6233 11.2485 27.7537 11.5322 27.716 11.8198C27.6114 12.6198 27.7699 13.4365 28.1666 14.1397C28.3105 14.3948 28.2949 14.71 28.1299 14.9521L18.0303 29.7725C18.2567 29.7625 18.4845 29.7724 18.7108 29.8041C19.001 29.8447 19.2886 29.7149 19.4536 29.4729L30.9798 12.5592C31.1447 12.3171 31.1604 12.002 31.0164 11.7468Z" fill="#73CC00"/>
<path d="M21.6652 19.9539C23.945 19.9539 25.7932 18.1057 25.7932 15.8258C25.7932 13.5459 23.945 11.6978 21.6652 11.6978C19.3853 11.6978 17.5371 13.5459 17.5371 15.8258C17.5371 18.1057 19.3853 19.9539 21.6652 19.9539Z" fill="#B6FA4C"/>
<path d="M34.3358 39.4301H2.5336C1.4493 39.4301 0.570312 38.5511 0.570312 37.4668V18.0375C0.570312 16.9532 1.4493 16.0742 2.5336 16.0742H34.3358C35.4201 16.0742 36.2991 16.9532 36.2991 18.0375V37.4668C36.2991 38.5511 35.4201 39.4301 34.3358 39.4301Z" fill="#FFB125"/>
<path d="M34.3354 16.0742H30.7637C31.848 16.0742 32.727 16.9532 32.727 18.0376V37.4669C32.727 38.5512 31.848 39.4302 30.7637 39.4302H34.3354C35.4197 39.4302 36.2987 38.5512 36.2987 37.4669V18.0376C36.2988 16.9532 35.4197 16.0742 34.3354 16.0742Z" fill="#FF901D"/>
<path d="M37.4674 23.999H30.3095C28.2369 23.999 26.5566 25.6793 26.5566 27.7519C26.5566 29.8246 28.2369 31.5048 30.3095 31.5048H37.4674C37.8603 31.5048 38.1787 31.1863 38.1787 30.7935V24.7103C38.1787 24.3175 37.8602 23.999 37.4674 23.999Z" fill="#FF6D3A"/>
<path d="M37.4673 23.999H33.8829C34.2758 23.999 34.5942 24.3175 34.5942 24.7104V29.8343C34.5942 30.2533 34.2546 30.5929 33.8356 30.5929H30.3095C28.3913 30.5929 26.8103 29.1535 26.5852 27.296C26.567 27.4455 26.5566 27.5975 26.5566 27.7519C26.5566 29.8246 28.2369 31.5049 30.3096 31.5049H33.883H37.4674C37.8603 31.5049 38.1787 31.1865 38.1787 30.7936V29.8816V24.7104C38.1787 24.3175 37.8602 23.999 37.4673 23.999Z" fill="#ED5729"/>
<path d="M34.3358 16.0742H2.5336C1.4493 16.0742 0.570312 16.9532 0.570312 18.0375V20.189H36.2991V18.0375C36.2991 16.9532 35.4201 16.0742 34.3358 16.0742Z" fill="#FF6D3A"/>
<path d="M35.9634 16.9399C35.8928 16.8355 35.8124 16.7382 35.7236 16.6494C35.7226 16.6484 35.7215 16.6473 35.7204 16.6463C35.6324 16.5588 35.5363 16.4794 35.433 16.4096C35.4069 16.392 35.3803 16.3749 35.3533 16.3585C35.3131 16.3341 35.2717 16.3116 35.2298 16.2901C35.2026 16.2761 35.175 16.2628 35.1471 16.2501C34.8996 16.1375 34.6249 16.0742 34.3352 16.0742H30.7637C31.8479 16.0743 32.7268 16.9533 32.7268 18.0376V20.1891H36.2985V18.0377C36.2985 17.6988 36.2127 17.38 36.0616 17.1018C36.0315 17.0462 35.9986 16.9921 35.9634 16.9399Z" fill="#ED5729"/>
<path d="M2.53319 39.4302H34.3354C35.4197 39.4302 36.2986 38.5512 36.2986 37.4669V35.3154H0.569824V37.4669C0.569824 38.5511 1.44889 39.4302 2.53319 39.4302Z" fill="#FF6D3A"/>
<path d="M32.7274 35.3154V37.4669C32.7274 37.468 32.7274 37.4692 32.7274 37.4703C32.7271 37.6515 32.5753 37.7964 32.394 37.7964H2.5336C1.4493 37.7964 0.570312 36.9174 0.570312 35.8331V37.467C0.570312 38.5513 1.4493 39.4303 2.5336 39.4303H30.7641H34.3358C34.3746 39.4303 34.413 39.4289 34.4512 39.4266C34.4632 39.4259 34.475 39.4248 34.4869 39.4239C34.5135 39.4218 34.54 39.4194 34.5663 39.4163C34.5794 39.4148 34.5924 39.4131 34.6055 39.4113C34.6316 39.4077 34.6576 39.4035 34.6834 39.3989C34.6949 39.3969 34.7064 39.395 34.7178 39.3927C34.7544 39.3855 34.7906 39.3776 34.8263 39.3684C34.8263 39.3684 34.8264 39.3684 34.8265 39.3684C34.8422 39.3643 34.8576 39.3596 34.873 39.3552C34.9507 39.3332 35.0266 39.307 35.1 39.276C35.1294 39.2636 35.1584 39.2504 35.1869 39.2367C35.2155 39.2229 35.2437 39.2084 35.2716 39.1933L35.2717 39.1933C35.3273 39.1631 35.3812 39.1303 35.4334 39.0951L35.4335 39.095L35.4336 39.0949C35.478 39.0649 35.5209 39.0327 35.5626 38.9993C35.5645 38.9977 35.5666 38.9961 35.5685 38.9946C35.6108 38.9604 35.6515 38.9244 35.6908 38.8869C35.737 38.8428 35.7811 38.7965 35.8229 38.748V38.7479C35.8882 38.6722 35.9479 38.5915 36.0012 38.5064C36.0027 38.5041 36.0041 38.5018 36.0055 38.4995C36.0252 38.4679 36.0441 38.4358 36.0619 38.403C36.0619 38.4029 36.062 38.4029 36.0621 38.4028V38.4027C36.1095 38.3153 36.1503 38.2238 36.1843 38.129C36.1882 38.1183 36.1916 38.1072 36.1954 38.0964C36.2036 38.0722 36.2114 38.0478 36.2187 38.0231C36.2223 38.0106 36.2259 37.998 36.2294 37.9854C36.2361 37.9607 36.2423 37.9357 36.2481 37.9106C36.2508 37.8991 36.2537 37.8877 36.2561 37.8761C36.2637 37.8399 36.2707 37.8035 36.2764 37.7665C36.2764 37.7663 36.2765 37.7661 36.2765 37.7659C36.2765 37.7658 36.2765 37.7657 36.2765 37.7656C36.283 37.7225 36.2877 37.6787 36.2914 37.6347C36.2923 37.6236 36.2932 37.6125 36.294 37.6013C36.2969 37.5568 36.2991 37.5122 36.2991 37.467V35.8332V35.3155H32.7274V35.3154Z" fill="#ED5729"/>
<path d="M30.4432 29.495C31.4055 29.495 32.1857 28.7149 32.1857 27.7525C32.1857 26.7902 31.4055 26.01 30.4432 26.01C29.4808 26.01 28.7007 26.7902 28.7007 27.7525C28.7007 28.7149 29.4808 29.495 30.4432 29.495Z" fill="#F2F2F2"/>
<path d="M37.4674 23.4293H36.8688V20.189V18.0375C36.8688 17.1839 36.444 16.4281 35.7951 15.9689V15.2348C35.7951 14.1699 34.9288 13.3035 33.8639 13.3035H33.4169L35.127 10.7941C35.7002 9.95305 35.4823 8.80234 34.6412 8.22906L23.0372 0.321153C22.6297 0.0434177 22.1386 -0.0590825 21.6539 0.0328708C21.1695 0.124668 20.7497 0.39959 20.4721 0.807091L10.4563 15.5042H7.66923L8.34166 8.69719C8.34923 8.62047 8.39908 8.55398 8.46861 8.52781C9.33494 8.20117 10.0857 7.59117 10.5826 6.81023C10.6217 6.74874 10.6956 6.71359 10.772 6.72132L15.1435 7.1532C15.4569 7.18359 15.7357 6.95531 15.7667 6.64203C15.7976 6.32874 15.5688 6.04976 15.2555 6.01882L10.884 5.58695C10.3766 5.53726 9.89268 5.77109 9.6208 6.19827C9.25549 6.77249 8.70345 7.22093 8.0665 7.46109C7.58705 7.64187 7.25783 8.0725 7.2072 8.58508L6.52376 15.5042H5.79696L6.8604 4.73819C6.89868 4.35069 7.24454 4.066 7.63251 4.10483L16.4664 4.97749C16.7797 5.00773 17.0587 4.7796 17.0896 4.46632C17.1206 4.15304 16.8918 3.87405 16.5785 3.84311L7.74455 2.97045C6.73173 2.87053 5.82603 3.61311 5.72595 4.62608L4.86876 13.3034H3.40899C2.34415 13.3034 1.47774 14.1698 1.47774 15.2347V15.7355C0.606564 16.1366 0 17.0172 0 18.0374V20.1889V35.3152V37.4667C0 38.8636 1.13641 40 2.53336 40H34.3355C35.7324 40 36.8688 38.8636 36.8688 37.4667V35.3152V32.075H37.4674C38.174 32.075 38.7487 31.5003 38.7487 30.7938V24.7106C38.7488 24.004 38.174 23.4293 37.4674 23.4293ZM33.8639 14.4434C34.3003 14.4434 34.6552 14.7984 34.6552 15.2348V15.5252C34.5504 15.5119 34.4439 15.5043 34.3355 15.5043H31.9172L32.6401 14.4434H33.8639V14.4434ZM21.414 1.44897C21.5203 1.29311 21.6808 1.18795 21.8661 1.15279C21.9104 1.14444 21.9549 1.14022 21.999 1.14022C22.1394 1.14022 22.2766 1.18225 22.3952 1.26303L33.9992 9.17086C34.3209 9.39016 34.4044 9.83031 34.1851 10.152L30.5378 15.5041H29.6625L31.4507 12.8801C31.7407 12.4545 31.7646 11.913 31.5129 11.4666C31.1783 10.8737 31.0427 10.1755 31.131 9.50055C31.1966 8.99844 30.9757 8.50828 30.5544 8.22125L24.539 4.12186C24.1176 3.83475 23.5806 3.80843 23.1373 4.05319C22.5416 4.3821 21.8422 4.51124 21.1679 4.41686C20.6679 4.34671 20.1608 4.57249 19.8751 4.99163L12.7111 15.5042H11.8358L21.414 1.44897ZM21.665 11.128C19.1829 11.128 17.1454 13.0634 16.9794 15.5042H14.0904L20.8169 5.63359C20.817 5.63359 20.817 5.63359 20.817 5.63359C20.8552 5.57741 20.9186 5.54398 20.9836 5.54398C20.9923 5.54398 21.001 5.5446 21.0096 5.54577C21.9267 5.67405 22.8779 5.49859 23.6882 5.05116C23.7519 5.01585 23.8338 5.02093 23.8969 5.0639L29.9125 9.16336C29.9754 9.20633 30.0101 9.2807 30.0007 9.35289C29.8806 10.2708 30.0651 11.2203 30.5201 12.0267C30.5565 12.0915 30.5521 12.1745 30.5088 12.2381L28.2832 15.5041H26.3509C26.1847 13.0634 24.1473 11.128 21.665 11.128ZM25.2079 15.5042H18.1223C18.2856 13.6926 19.8117 12.268 21.665 12.268C23.5185 12.2679 25.0447 13.6926 25.2079 15.5042ZM2.61766 15.2347C2.61766 14.7983 2.97258 14.4433 3.40899 14.4433H4.75618L4.65141 15.5042H2.61766V15.2347ZM1.13992 18.0374C1.13992 17.2692 1.765 16.6441 2.53336 16.6441H34.3355C35.1039 16.6441 35.7289 17.2692 35.7289 18.0374V19.619H1.13992V18.0374ZM35.7289 34.7454H7.86306C7.54822 34.7454 7.29314 35.0005 7.29314 35.3153C7.29314 35.6301 7.5483 35.8852 7.86306 35.8852H35.7289V37.4668C35.7289 38.2351 35.1039 38.8601 34.3355 38.8601H2.53336C1.765 38.8601 1.13992 38.2351 1.13992 37.4668V35.8852H4.21352C4.52837 35.8852 4.78345 35.6301 4.78345 35.3153C4.78345 35.0005 4.52829 34.7454 4.21352 34.7454H1.13992V20.7589H35.7289V23.4293H30.3097H30.3096C28.6021 23.4293 27.123 24.4246 26.4211 25.8653C26.4187 25.8701 26.4161 25.8748 26.4136 25.8796C26.4077 25.8919 26.4025 25.9046 26.3968 25.917C26.3132 26.0946 26.2405 26.2784 26.1814 26.4681C26.1812 26.4686 26.1811 26.4691 26.1809 26.4696C26.0547 26.875 25.9867 27.3057 25.9867 27.7521C25.9867 30.1358 27.9259 32.075 30.3095 32.075H30.3096H35.7288V34.7454H35.7289ZM37.6089 30.7937C37.6089 30.8717 37.5455 30.9351 37.4674 30.9351H36.2988H30.3097C29.103 30.9351 28.051 30.2602 27.5114 29.2681C27.4869 29.223 27.4634 29.1772 27.441 29.1309C27.3962 29.0382 27.3558 28.9429 27.3201 28.8454C27.195 28.5043 27.1267 28.1361 27.1267 27.7521C27.1267 27.3682 27.1951 27 27.3201 26.6589C27.3559 26.5614 27.3963 26.4662 27.441 26.3734C27.4634 26.3271 27.4869 26.2813 27.5114 26.2362C28.051 25.2441 29.103 24.5692 30.3097 24.5692H36.2988H37.4674C37.5454 24.5692 37.6089 24.6326 37.6089 24.7106V30.7937Z" fill="white"/>
<path d="M30.4434 25.4397C29.1682 25.4397 28.1309 26.4771 28.1309 27.7522C28.1309 29.0273 29.1682 30.0646 30.4434 30.0646C31.7185 30.0646 32.7559 29.0273 32.7559 27.7522C32.7559 26.4771 31.7185 25.4397 30.4434 25.4397ZM30.4434 28.9247C29.7968 28.9247 29.2708 28.3987 29.2708 27.7522C29.2708 27.1057 29.7968 26.5796 30.4434 26.5796C31.0899 26.5796 31.6159 27.1056 31.6159 27.7522C31.6159 28.3988 31.0899 28.9247 30.4434 28.9247Z" fill="#142142"/>
</svg>
