<svg width="40" height="40" viewBox="0 0 40 40" fill="none" xmlns="http://www.w3.org/2000/svg">
<path d="M19.3001 34.375C17.4076 35.0224 15.4391 35.4216 13.4438 35.5625C9.38708 33.8446 6.15892 30.6142 4.44385 26.5562C4.58206 24.5795 4.9792 22.6295 5.6251 20.7562C5.80796 24.3121 7.30401 27.6736 9.82346 30.1896C12.3429 32.7056 15.7065 34.197 19.2626 34.375H19.3001Z" fill="#E2CCA8"/>
<path d="M34.375 19.3062C33.1776 22.8012 31.1967 25.9759 28.5839 28.5877C25.971 31.1995 22.7954 33.179 19.3 34.375H19.2625C15.7064 34.197 12.3428 32.7056 9.82336 30.1896C7.30391 27.6736 5.80787 24.3121 5.625 20.7562C6.85075 17.2607 8.8472 14.0857 11.4665 11.4665C14.0857 8.8472 17.2607 6.85075 20.7562 5.625C24.3142 5.80813 27.6774 7.30593 30.1936 9.82799C32.7099 12.35 34.2 15.7167 34.375 19.275V19.3062Z" fill="#E32728"/>
<path d="M35.5563 13.4437C35.4141 15.4402 35.0171 17.4103 34.3751 19.3062V19.2749C34.2001 15.7166 32.71 12.35 30.1937 9.82792C27.6775 7.30586 24.3143 5.80805 20.7563 5.62493C22.6288 4.97264 24.5788 4.56919 26.5563 4.42493C30.6147 6.14689 33.8428 9.38175 35.5563 13.4437Z" fill="#E2CCA8"/>
<path d="M35.5752 13.1874V13.4437C33.8577 9.38883 30.63 6.1612 26.5752 4.44368H26.8127C28.9622 4.30131 31.1211 4.44846 33.2314 4.88118C33.704 4.98173 34.1373 5.21705 34.4789 5.55868C34.8206 5.90031 35.0559 6.33362 35.1564 6.80618C35.5812 8.90491 35.722 11.0512 35.5752 13.1874Z" fill="#E32728"/>
<path d="M26.875 13.125L13.125 26.875" stroke="#E2CCA8" stroke-width="2" stroke-linecap="round" stroke-linejoin="round"/>
<path d="M22.5 13.125L26.875 17.5" stroke="#E2CCA8" stroke-width="2" stroke-linecap="round" stroke-linejoin="round"/>
<path d="M19.375 16.25L23.75 20.625" stroke="#E2CCA8" stroke-width="2" stroke-linecap="round" stroke-linejoin="round"/>
<path d="M16.25 19.375L20.625 23.75" stroke="#E2CCA8" stroke-width="2" stroke-linecap="round" stroke-linejoin="round"/>
<path d="M13.125 22.5L17.5 26.875" stroke="#E2CCA8" stroke-width="2" stroke-linecap="round" stroke-linejoin="round"/>
<path d="M13.4312 35.55H13.225C11.2524 35.6849 9.27078 35.5757 7.32499 35.225C6.68582 35.1102 6.09709 34.8025 5.6379 34.3433C5.17871 33.8841 4.87104 33.2954 4.75624 32.6562C4.4065 30.7166 4.29526 28.7416 4.42499 26.775V26.5375C6.1402 30.599 9.37095 33.8319 13.4312 35.55Z" fill="#E32728"/>
</svg>
