<svg width="40" height="40" viewBox="0 0 40 40" fill="none" xmlns="http://www.w3.org/2000/svg">
<path d="M16.875 36.25L18.75 37.5H15L16.875 36.25Z" fill="#6FB4E2"/>
<path d="M33.75 31.25V37.5H18.75V33.125H15V37.5H9.375C8.5462 37.5 7.75134 37.1708 7.16529 36.5847C6.57924 35.9987 6.25 35.2038 6.25 34.375C6.25 33.5462 6.57924 32.7513 7.16529 32.1653C7.75134 31.5792 8.5462 31.25 9.375 31.25H33.75Z" fill="#438FD0"/>
<path d="M10 2.5V31.25H9.375C8.5462 31.25 7.75134 31.5792 7.16529 32.1653C6.57924 32.7513 6.25 33.5462 6.25 34.375V5.625C6.25 4.7962 6.57924 4.00134 7.16529 3.41529C7.75134 2.82924 8.5462 2.5 9.375 2.5H10Z" fill="#438FD0"/>
<path d="M33.75 2.5H10V31.25H33.75V2.5Z" fill="#6FB4E2"/>
<path d="M9.375 33.125H15V35.625H9.375C9.04348 35.625 8.72554 35.4933 8.49112 35.2589C8.2567 35.0245 8.125 34.7065 8.125 34.375C8.125 34.0435 8.2567 33.7255 8.49112 33.4911C8.72554 33.2567 9.04348 33.125 9.375 33.125Z" fill="#FDF2DD"/>
<path d="M33.75 33.125H18.75V35.625H33.75V33.125Z" fill="#FDF2DD"/>
<path d="M18.75 33.125V37.5L16.875 36.25L15 37.5V33.125H18.75Z" fill="#E32728"/>
<path d="M14.3752 17.5002C14.298 17.5008 14.2215 17.4859 14.1502 17.4564C13.9964 17.3964 13.8725 17.2779 13.8058 17.1268C13.739 16.9757 13.7348 16.8043 13.794 16.6502L16.919 8.52516C16.965 8.40858 17.0451 8.30855 17.1488 8.23806C17.2524 8.16757 17.3749 8.12988 17.5002 8.12988C17.6256 8.12988 17.748 8.16757 17.8517 8.23806C17.9553 8.30855 18.0354 8.40858 18.0815 8.52516L21.2065 16.6502C21.2434 16.7278 21.2638 16.8123 21.2666 16.8982C21.2694 16.9841 21.2544 17.0697 21.2226 17.1496C21.1908 17.2295 21.1429 17.3019 21.0818 17.3624C21.0207 17.423 20.9478 17.4702 20.8676 17.5012C20.7874 17.5323 20.7017 17.5464 20.6158 17.5428C20.5299 17.5392 20.4456 17.5179 20.3683 17.4803C20.291 17.4427 20.2223 17.3895 20.1665 17.3241C20.1107 17.2586 20.069 17.1824 20.044 17.1002L17.5002 10.4939L14.9565 17.1002C14.9111 17.2176 14.8314 17.3187 14.7277 17.39C14.624 17.4614 14.5011 17.4998 14.3752 17.5002Z" fill="#0F283A"/>
<path d="M19.375 15H15.625C15.4592 15 15.3003 14.9342 15.1831 14.8169C15.0658 14.6997 15 14.5408 15 14.375C15 14.2092 15.0658 14.0503 15.1831 13.9331C15.3003 13.8158 15.4592 13.75 15.625 13.75H19.375C19.5408 13.75 19.6997 13.8158 19.8169 13.9331C19.9342 14.0503 20 14.2092 20 14.375C20 14.5408 19.9342 14.6997 19.8169 14.8169C19.6997 14.9342 19.5408 15 19.375 15Z" fill="#0F283A"/>
<path d="M29.375 19.375H23.125C22.9592 19.375 22.8003 19.3092 22.6831 19.1919C22.5658 19.0747 22.5 18.9158 22.5 18.75C22.5 18.5842 22.5658 18.4253 22.6831 18.3081C22.8003 18.1908 22.9592 18.125 23.125 18.125H29.375C29.5408 18.125 29.6997 18.1908 29.8169 18.3081C29.9342 18.4253 30 18.5842 30 18.75C30 18.9158 29.9342 19.0747 29.8169 19.1919C29.6997 19.3092 29.5408 19.375 29.375 19.375Z" fill="#0F283A"/>
<path d="M23.7502 25.625C23.6103 25.6242 23.4746 25.5764 23.3651 25.4893C23.2555 25.4022 23.1783 25.2809 23.1459 25.1448C23.1135 25.0086 23.1277 24.8655 23.1863 24.7384C23.2449 24.6113 23.3444 24.5076 23.469 24.4438C24.544 23.9 27.5002 21.5562 27.5002 18.75C27.5002 18.5842 27.5661 18.4253 27.6833 18.3081C27.8005 18.1908 27.9594 18.125 28.1252 18.125C28.291 18.125 28.4499 18.1908 28.5671 18.3081C28.6844 18.4253 28.7502 18.5842 28.7502 18.75C28.7502 22.1125 25.569 24.7875 24.0315 25.5562C23.945 25.6025 23.8483 25.6262 23.7502 25.625Z" fill="#0F283A"/>
<path d="M28.7501 25.6249C28.652 25.6261 28.5553 25.6024 28.4688 25.5562C26.7845 24.6188 25.3983 23.2261 24.4688 21.5374C24.3926 21.3899 24.3781 21.2181 24.4285 21.0599C24.4789 20.9017 24.5901 20.7699 24.7376 20.6937C24.8851 20.6174 25.0569 20.6029 25.2151 20.6533C25.3733 20.7037 25.5051 20.8149 25.5813 20.9624C26.3871 22.4197 27.5814 23.6248 29.0313 24.4437C29.1785 24.5186 29.2901 24.6488 29.3416 24.8057C29.3932 24.9626 29.3805 25.1336 29.3063 25.2812C29.2544 25.3842 29.1749 25.4709 29.0767 25.5316C28.9786 25.5923 28.8655 25.6246 28.7501 25.6249Z" fill="#0F283A"/>
<path d="M26.25 19.375C26.0842 19.375 25.9253 19.3092 25.8081 19.1919C25.6908 19.0747 25.625 18.9158 25.625 18.75V16.875C25.625 16.7092 25.6908 16.5503 25.8081 16.4331C25.9253 16.3158 26.0842 16.25 26.25 16.25C26.4158 16.25 26.5747 16.3158 26.6919 16.4331C26.8092 16.5503 26.875 16.7092 26.875 16.875V18.75C26.875 18.9158 26.8092 19.0747 26.6919 19.1919C26.5747 19.3092 26.4158 19.375 26.25 19.375Z" fill="#0F283A"/>
</svg>
